<svg xmlns="http://www.w3.org/2000/svg">
          <symbol id="fw-icon-duotone-sandwich" viewBox="0 0 512 512">
            <path d="M32 64C14.3 64 0 78.3 0 96v48c0 17.7 14.3 32 32 32H480c17.7 0 32-14.3 32-32V96c0-17.7-14.3-32-32-32H32zM233.7 341.7c-6.4-3.7-13.6-5.7-20.9-5.7H208 32c-17.7 0-32 14.3-32 32v48c0 17.7 14.3 32 32 32H480c17.7 0 32-14.3 32-32V368c0-17.7-14.3-32-32-32H432h-4.8c-7.4 0-14.6 2-20.9 5.7l-70.2 40.9c-10 5.8-22.3 5.8-32.2 0l-70.2-40.9z"/>
          </symbol>
        </svg>0.6 0-53 10.2-70.1 18l-1.9 .9C286.9 234.7 274.3 240 256 240s-30.9-5.3-48.1-13.1l-1.9-.9c-17-7.8-39.4-18-70.1-18c-28 0-52.1 11.3-68.6 19c-19.6 9.2-28.2 13-35.4 13c-17.7 0-32 14.3-32 32s14.3 32 32 32zm201.7 37.7l70.2 40.9c10 5.8 22.3 5.8 32.2 0l70.2-40.9c6.4-3.7 13.6-5.7 20.9-5.7H212.8c7.4 0 14.6 2 20.9 5.7z"/>
          </symbol>
        </svg>