<svg xmlns="http://www.w3.org/2000/svg">
          <symbol id="fw-icon-duotone-person-from-portal" viewBox="0 0 512 512">
            <path d="M154.2 352c3.8-29.6 5.8-62.1 5.8-96c0-18.3-.6-36.1-1.7-53.4c-1.7-1.2-3.4-2.5-4.9-4c-12.5-12.5-12.5-32.7-.1-45.2C141 63.1 112.8 0 80 0C35.8 0 0 114.6 0 256S35.8 512 80 512c25.3 0 47.8-37.5 62.5-96H128c-17.7 0-32-14.3-32-32s14.3-32 32-32h26.2z"/>
          </symbol>
        </svg>9 288 458.7 288H480c17.7 0 32-14.3 32-32s-14.3-32-32-32H458.7c-12.9 0-24.6-7.8-29.5-19.7l-6.3-15c-14.6-35.1-44.1-61.9-80.5-73.1l-48.7-15c-11.1-3.4-22.7-5.2-34.4-5.2c-31 0-60.8 12.3-82.7 34.3l-23.1 23.1c-12.5 12.5-12.5 32.8 0 45.3s32.8 12.5 45.3 0l23.1-23.1zM187.2 352H128c-17.7 0-32 14.3-32 32s14.3 32 32 32h69.6c19 0 36.2-11.2 43.9-28.5L253 361.6l-9.5-6c-17.5-10.9-30.5-26.8-37.9-44.9L187.2 352z"/>
          </symbol>
        </svg>