<svg xmlns="http://www.w3.org/2000/svg">
          <symbol id="fw-icon-duotone-gift-card" viewBox="0 0 576 512">
            <path d="M186.2 48H184c-22.1 0-40 17.9-40 40s17.9 40 40 40h73.3L222.5 68.8C214.9 55.9 201.1 48 186.2 48zm57.3 128H184c-48.6 0-88-39.4-88-88s39.4-88 88-88h2.2c31.9 0 61.5 16.9 77.7 44.4l24.1 41 24.1-41C328.3 16.9 357.9 0 389.8 0H392c48.6 0 88 39.4 88 88s-39.4 88-88 88H332.6l53.9 64.6c8.5 10.2 7.1 25.3-3.1 33.8s-25.3 7.1-33.8-3.1L288 197.5l-61.6 73.9c-8.5 10.2-23.6 11.6-33.8 3.1s-11.6-23.6-3.1-33.8L243.4 176zM392 128c22.1 0 40-17.9 40-40s-17.9-40-40-40h-2.2c-14.9 0-28.8 7.9-36.3 20.8L318.7 128H320h72zM576 416H0V320H576v96z"/>
          </symbol>
        </svg>