<svg xmlns="http://www.w3.org/2000/svg">
          <symbol id="fw-icon-duotone-car-building" viewBox="0 0 640 512">
            <path d="M0 48C0 21.5 21.5 0 48 0H272c26.5 0 48 21.5 48 48v88.4c-29.5 12.1-53.1 36.6-63.7 68.2l-.5 1.4c-1-7.9-7.7-14-15.9-14H208c-8.8 0-16 7.2-16 16v32c0 8.8 7.2 16 16 16h31.2l-5.6 16.9C208.5 290.2 192 319.2 192 352v96 32H48c-26.5 0-48-21.5-48-48V48zM64 208v32c0 8.8 7.2 16 16 16h32c8.8 0 16-7.2 16-16V208c0-8.8-7.2-16-16-16H80c-8.8 0-16 7.2-16 16zm0-96v32c0 8.8 7.2 16 16 16h32c8.8 0 16-7.2 16-16V112c0-8.8-7.2-16-16-16H80c-8.8 0-16 7.2-16 16zM208 96c-8.8 0-16 7.2-16 16v32c0 8.8 7.2 16 16 16h32c8.8 0 16-7.2 16-16V112c0-8.8-7.2-16-16-16H208zM64 304v32c0 8.8 7.2 16 16 16h32c8.8 0 16-7.2 16-16V304c0-8.8-7.2-16-16-16H80c-8.8 0-16 7.2-16 16z"/>
          </symbol>
        </svg>