<svg xmlns="http://www.w3.org/2000/svg">
          <symbol id="fw-icon-duotone-square-dashed-circle-plus" viewBox="0 0 576 512">
            <path d="M288 368a144 144 0 1 1 288 0 144 144 0 1 1 -288 0zm144-80c-8.8 0-16 7.2-16 16v48H368c-8.8 0-16 7.2-16 16s7.2 16 16 16h48v48c0 8.8 7.2 16 16 16s16-7.2 16-16V384h48c8.8 0 16-7.2 16-16s-7.2-16-16-16H448V304c0-8.8-7.2-16-16-16z"/>
          </symbol>
        </svg>7zM262.6 416c5.5 19.3 14.1 37.2 25.4 53.2V480H160V416H262.6zM288 96H160V32H288V96z"/>
          </symbol>
        </svg>