<svg xmlns="http://www.w3.org/2000/svg">
          <symbol id="fw-icon-duotone-bell-on" viewBox="0 0 640 512">
            <path d="M586.7 53.5c11.9-5.9 16.7-20.3 10.7-32.2s-20.3-16.7-32.2-10.7l-64 32c-11.9 5.9-16.7 20.3-10.7 32.2s20.3 16.7 32.2 10.7l64-32zM0 200c0 13.3 10.7 24 24 24h80c13.3 0 24-10.7 24-24s-10.7-24-24-24H24c-13.3 0-24 10.7-24 24zm512 0c0 13.3 10.7 24 24 24h80c13.3 0 24-10.7 24-24s-10.7-24-24-24H536c-13.3 0-24 10.7-24 24zM42.5 21.3c-5.9 11.9-1.1 26.3 10.7 32.2l64 32c11.9 5.9 26.3 1.1 32.2-10.7s1.1-26.3-10.7-32.2l-64-32C62.9 4.6 48.5 9.4 42.5 21.3zm322.7 472c12-12 18.7-28.3 18.7-45.3H320 256c0 17 6.7 33.3 18.7 45.3s28.3 18.7 45.3 18.7s33.3-6.7 45.3-18.7z"/>
          </symbol>
        </svg>