<svg xmlns="http://www.w3.org/2000/svg">
          <symbol id="fw-icon-duotone-users-medical" viewBox="0 0 640 512">
            <path d="M528 320c-8.8 0-16 7.2-16 16v48l-48 0c-8.8 0-16 7.2-16 16v32c0 8.8 7.2 16 16 16h48v48c0 8.8 7.2 16 16 16h32c8.8 0 16-7.2 16-16V448h48c8.8 0 16-7.2 16-16V400c0-8.8-7.2-16-16-16l-48 0V336c0-8.8-7.2-16-16-16H528z"/>
          </symbol>
        </svg>92zm298 128c26.6-23.5 43.3-57.8 43.3-96c0-7.6-.7-15-1.9-22.3c13.6-6.3 28.7-9.7 44.6-9.7h42.7C592.2 192 640 239.8 640 298.7c0 11.8-9.6 21.3-21.3 21.3H605.3c-6.6-18.6-24.4-32-45.3-32H528c-20.9 0-38.7 13.4-45.3 32H405.3c-.2 0-.4 0-.7 0zm28.2 43.5C422.5 372.3 416 385.4 416 400v32c0 26.5 21.5 48 48 48h16v16c0 5.6 1 11 2.7 16H154.7c-14.7 0-26.7-11.9-26.7-26.7C128 411.7 187.7 352 261.3 352H378.7c19.3 0 37.6 4.1 54.2 11.5zM320 128a96 96 0 1 1 0 192 96 96 0 1 1 0-192z"/>
          </symbol>
        </svg>