<svg xmlns="http://www.w3.org/2000/svg">
          <symbol id="fw-icon-duotone-ufo-beam" viewBox="0 0 576 512">
            <path d="M288 192c110.8 0 144-53.3 144-53.3C432 74.7 385.9 0 288 0S144 74.7 144 138.7c0 0 33.2 53.3 144 53.3zM2.3 477.7c-5.7 12-.6 26.3 11.4 32s26.3 .6 32-11.4l92.2-194.7c-16.7-4-32.3-8.6-46.6-13.8L2.3 477.7zm528 20.5c5.7 12 20 17.1 32 11.4s17.1-20 11.4-32l-89-187.9c-14.2 5.2-29.9 9.8-46.6 13.8l92.2 194.7z"/>
          </symbol>
        </svg>        </symbol>
        </svg>