<svg xmlns="http://www.w3.org/2000/svg">
          <symbol id="fw-icon-thin-calendar-minus" viewBox="0 0 512 512">
            <path d="M160 8c0-4.4-3.6-8-8-8s-8 3.6-8 8V64H96c-35.3 0-64 28.7-64 64v48 16V448c0 35.3 28.7 64 64 64H416c35.3 0 64-28.7 64-64V192 176 128c0-35.3-28.7-64-64-64H368V8c0-4.4-3.6-8-8-8s-8 3.6-8 8V64H160V8zM48 192H464V448c0 26.5-21.5 48-48 48H96c-26.5 0-48-21.5-48-48V192zM144 80v40c0 4.4 3.6 8 8 8s8-3.6 8-8V80H352v40c0 4.4 3.6 8 8 8s8-3.6 8-8V80h48c26.5 0 48 21.5 48 48v48H48V128c0-26.5 21.5-48 48-48h48zM344 352c4.4 0 8-3.6 8-8s-3.6-8-8-8H168c-4.4 0-8 3.6-8 8s3.6 8 8 8H344z"/>
          </symbol>
        </svg>