<svg xmlns="http://www.w3.org/2000/svg">
          <symbol id="fw-icon-duotone-face-glasses" viewBox="0 0 512 512">
            <path d="M16 192H48v56c0 30.9 25.1 56 56 56h80c30.9 0 56-25.1 56-56V192h32v56c0 30.9 25.1 56 56 56h80c30.9 0 56-25.1 56-56V192h32c8.8 0 16-7.2 16-16s-7.2-16-16-16H458.6c-9-18.9-28.3-32-50.6-32H328c-22.3 0-41.6 13.1-50.6 32H234.6c-9-18.9-28.3-32-50.6-32H104c-22.3 0-41.6 13.1-50.6 32H16c-8.8 0-16 7.2-16 16s7.2 16 16 16zm64 56V192v-8c0-13.3 10.7-24 24-24h80c13.3 0 24 10.7 24 24v64c0 13.3-10.7 24-24 24H104c-13.3 0-24-10.7-24-24zm352-56v56c0 13.3-10.7 24-24 24H328c-13.3 0-24-10.7-24-24V184c0-13.3 10.7-24 24-24h80c13.3 0 24 10.7 24 24v8zM184.4 224a24 24 0 1 0 -48 0 24 24 0 1 0 48 0zm168 24a24 24 0 1 0 0-48 24 24 0 1 0 0 48z"/>
          </symbol>
        </svg>   </symbol>
        </svg>