<svg xmlns="http://www.w3.org/2000/svg">
          <symbol id="fw-icon-duotone-timeline-arrow" viewBox="0 0 640 512">
            <path d="M128 72a24 24 0 1 1 0 48 24 24 0 1 1 0-48zm0 104a80 80 0 1 0 0-160 80 80 0 1 0 0 160zM352 72a24 24 0 1 1 0 48 24 24 0 1 1 0-48zm0 104a80 80 0 1 0 0-160 80 80 0 1 0 0 160zM200 416a24 24 0 1 1 48 0 24 24 0 1 1 -48 0zm104 0a80 80 0 1 0 -160 0 80 80 0 1 0 160 0z"/>
          </symbol>
        </svg>c9.8 4.3 20.6 6.7 32 6.7s22.2-2.4 32-6.7V224H320V169.3c9.8 4.3 20.6 6.7 32 6.7z"/>
          </symbol>
        </svg>