<svg xmlns="http://www.w3.org/2000/svg">
          <symbol id="fw-icon-duotone-laptop-binary" viewBox="0 0 640 512">
            <path d="M512 96H128V352h64V304c-8.8 0-16-7.2-16-16s7.2-16 16-16h16c8.8 0 16 7.2 16 16v64h80 64 48V304c-8.8 0-16-7.2-16-16s7.2-16 16-16h16c8.8 0 16 7.2 16 16v64h64V96zM368 352V312c0-22.1-17.9-40-40-40H312c-22.1 0-40 17.9-40 40v40l32 0V312c0-4.4 3.6-8 8-8h16c4.4 0 8 3.6 8 8v40l32 0zM200 128h16c22.1 0 40 17.9 40 40v32c0 22.1-17.9 40-40 40H200c-22.1 0-40-17.9-40-40V168c0-22.1 17.9-40 40-40zm-8 40v32c0 4.4 3.6 8 8 8h16c4.4 0 8-3.6 8-8V168c0-4.4-3.6-8-8-8H200c-4.4 0-8 3.6-8 8zm112-40h16c8.8 0 16 7.2 16 16v80c0 8.8-7.2 16-16 16s-16-7.2-16-16V160c-8.8 0-16-7.2-16-16s7.2-16 16-16zm80 40c0-22.1 17.9-40 40-40h16c22.1 0 40 17.9 40 40v32c0 22.1-17.9 40-40 40H424c-22.1 0-40-17.9-40-40V168zm40-8c-4.4 0-8 3.6-8 8v32c0 4.4 3.6 8 8 8h16c4.4 0 8-3.6 8-8V168c0-4.4-3.6-8-8-8H424z"/>
          </symbol>
        </svg>