<svg xmlns="http://www.w3.org/2000/svg">
          <symbol id="fw-icon-duotone-mosque" viewBox="0 0 640 512">
            <path d="M412.8 6.4C409.8 2.4 405 0 400 0s-9.8 2.4-12.8 6.4c-34.7 46.3-78.1 74.9-133.5 111.5l0 0c-5.2 3.5-10.6 7-16 10.6c-28.9 19.2-45.7 51.7-45.7 86.1c0 28.6 11.3 54.5 29.8 73.4H578.2c18.4-19 29.8-44.9 29.8-73.4c0-34.4-16.7-66.9-45.7-86.1c-5.4-3.6-10.8-7.1-16-10.6l0 0C490.9 81.3 447.5 52.7 412.8 6.4zM89.6 5.2C83.9 .9 76.1 .9 70.4 5.2l-16 12C20.2 42.9 0 83.2 0 126v34H160V126c0-42.8-20.2-83.1-54.4-108.8l-16-12z"/>
          </symbol>
        </svg></svg>