<svg xmlns="http://www.w3.org/2000/svg">
          <symbol id="fw-icon-duotone-burrito" viewBox="0 0 512 512">
            <path d="M320 160c0-53.6-20.3-102.5-53.6-139.4C280.6 7.8 299.4 0 320 0c11.4 0 22.2 2.4 32 6.7C361.8 2.4 372.6 0 384 0c34.6 0 64.1 22 75.2 52.8C490 63.9 512 93.4 512 128c0 11.4-2.4 22.2-6.7 32c4.3 9.8 6.7 20.6 6.7 32c0 20.6-7.8 39.4-20.6 53.6C454.5 212.3 405.6 192 352 192c-11.9 0-23.6 1-34.9 2.9c1.9-11.4 2.9-23 2.9-34.9z"/>
          </symbol>
        </svg>5 0 167.5-57.8 196.1-138.5c14-3.6 28.7-5.5 43.9-5.5z"/>
          </symbol>
        </svg>