<svg xmlns="http://www.w3.org/2000/svg">
          <symbol id="fw-icon-duotone-hospital" viewBox="0 0 640 512">
            <path d="M48 96C21.5 96 0 117.5 0 144v48H80c8.8 0 16 7.2 16 16s-7.2 16-16 16H0v64H80c8.8 0 16 7.2 16 16s-7.2 16-16 16H0V464c0 26.5 21.5 48 48 48H160V96H48zm544 0H480V512H592c26.5 0 48-21.5 48-48V320H560c-8.8 0-16-7.2-16-16s7.2-16 16-16h80V224H560c-8.8 0-16-7.2-16-16s7.2-16 16-16h80V144c0-26.5-21.5-48-48-48z"/>
          </symbol>
        </svg>16v24h24c8.8 0 16 7.2 16 16v16c0 8.8-7.2 16-16 16H344v24c0 8.8-7.2 16-16 16H312c-8.8 0-16-7.2-16-16V152H272c-8.8 0-16-7.2-16-16V120c0-8.8 7.2-16 16-16h24V80c0-8.8 7.2-16 16-16z"/>
          </symbol>
        </svg>