<svg xmlns="http://www.w3.org/2000/svg">
          <symbol id="fw-icon-duotone-list-check" viewBox="0 0 512 512">
            <path d="M153.8 72.1c8.9-9.9 8.1-25-1.8-33.9s-25-8.1-33.9 1.8L63.1 101.1 41 79C31.6 69.7 16.4 69.7 7 79s-9.4 24.6 0 33.9l40 40c4.7 4.7 11 7.2 17.6 7s12.8-3 17.2-7.9l72-80zm0 160c8.9-9.9 8.1-25-1.8-33.9s-25-8.1-33.9 1.8L63.1 261.1 41 239c-9.4-9.4-24.6-9.4-33.9 0s-9.4 24.6 0 33.9l40 40c4.7 4.7 11 7.2 17.6 7s12.8-3 17.2-7.9l72-80zM48 464a48 48 0 1 0 0-96 48 48 0 1 0 0 96z"/>
          </symbol>
        </svg>