<svg xmlns="http://www.w3.org/2000/svg">
          <symbol id="fw-icon-duotone-compass-slash" viewBox="0 0 640 512">
            <path d="M535.4 394.4C561.1 354.5 576 307 576 256C576 114.6 461.4 0 320 0C246.8 0 180.9 30.7 134.2 79.9l136 106.6 143.3-55.1c19.4-7.5 38.5 11.6 31 31L397.1 285.9 535.4 394.4zm-67.3 70.5L317 345.8l-90.6 34.8c-19.4 7.5-38.5-11.6-31-31l29.4-76.5L82.3 160.8C70.5 190.2 64 222.4 64 256c0 141.4 114.6 256 256 256c55.2 0 106.3-17.5 148.1-47.2z"/>
          </symbol>
        </svg>