<svg xmlns="http://www.w3.org/2000/svg">
          <symbol id="fw-icon-duotone-hands-praying" viewBox="0 0 640 512">
            <path d="M278.8 .7c3.5 .8 6.9 2.1 10 4.1c7.5 4.6 12.4 11.9 14.3 19.9c1.1 4.6 1.2 9.4 .1 14.1c-.7 3.2-1.9 6.3-3.6 9.3L213.3 199.3c-3.5 6-5.3 12.9-5.3 19.8V304c0 8.8 7.2 16 16 16s16-7.2 16-16V224c0-17.7 14.3-32 32-32s32 14.3 32 32V342.2c0 58-39 108.7-95 123.7l-168.7 45c-9.6 2.6-19.9 .5-27.7-5.5S0 489.9 0 480V384c0-13.8 8.8-26 21.9-30.4l79.2-26.4c6.5-2.2 10.9-8.3 10.9-15.2V238.5c0-15.8 4.7-31.2 13.4-44.4L245.2 14.5c4.6-7.1 11.7-11.8 19.4-13.6c4.6-1.1 9.4-1.2 14.1-.1z"/>
          </symbol>
        </svg>    </svg>