<svg xmlns="http://www.w3.org/2000/svg">
          <symbol id="fw-icon-duotone-burger-glass" viewBox="0 0 640 512">
            <path d="M8.6 10.2C14.6 3.7 23.1 0 32 0H352c8.9 0 17.4 3.7 23.4 10.2s9.1 15.2 8.5 24.1L374 173.6c-24.6 8.3-44.7 19.6-60.9 32c-32.2 24.8-47.2 52.7-52.7 65.3c-3.4 7.7-4.4 15.3-4.4 21.5c0 17.8 7.9 33.9 20.3 44.8C263.8 348.9 256 365.5 256 384c0 16.7 6.4 32 17 43.4c-10.4 8.8-17 21.9-17 36.6c0 18 6 34.6 16 48H108.7c-42 0-76.8-32.4-79.8-74.3L.1 34.3c-.6-8.9 2.4-17.6 8.5-24.1zM66.4 64l6.9 96H310.8l6.9-96H66.4z"/>
          </symbol>
        </svg> 48-21.5 48-48c0-8.8-7.2-16-16-16H304c-8.8 0-16 7.2-16 16z"/>
          </symbol>
        </svg>