<svg xmlns="http://www.w3.org/2000/svg">
          <symbol id="fw-icon-duotone-person-skiing" viewBox="0 0 512 512">
            <path d="M174.3 71.2l-8.3 16.5 177.1 83 8.4 25.1c2.6 7.9 7.2 14.9 13.2 20.3l-3.6-1.7L151.7 116.3l-9.4 18.9c-4 7.9-13.6 11.1-21.5 7.2s-11.1-13.6-7.2-21.5l9.1-18.1-17.5-8.2c-8-3.8-11.4-13.3-7.7-21.3s13.3-11.4 21.3-7.7l18.3 8.6 8.6-17.2c4-7.9 13.6-11.1 21.5-7.2s11.1 13.6 7.2 21.5zM2.7 268.9c6.1-11.8 20.6-16.3 32.4-10.2L418.5 457.8c13.6 7.1 29.8 7.2 43.6 .3l15.2-7.6c11.9-5.9 26.3-1.1 32.2 10.7s1.1 26.3-10.7 32.2l-15.2 7.6c-27.5 13.7-59.9 13.5-87.2-.7L12.9 301.3C1.2 295.2-3.4 280.7 2.7 268.9z"/>
          </symbol>
        </svg>