<svg xmlns="http://www.w3.org/2000/svg">
          <symbol id="fw-icon-duotone-face-downcast-sweat" viewBox="0 0 512 512">
            <path d="M256 0c-51.4 0-99.3 15.2-139.4 41.2c1.5 3.1 3 6.2 4.3 9.3c3.4 8 7.1 19 7.1 30.5c0 44.3-36.6 79-80 79c-9.6 0-18.8-1.7-27.4-4.8C7.3 186.1 0 220.2 0 256C0 397.4 114.6 512 256 512s256-114.6 256-256S397.4 0 256 0zM195.9 410.7c-5.9 6.6-16 7.1-22.6 1.2s-7.1-16-1.2-22.6C188.2 371.4 216.3 352 256 352s67.8 19.4 83.9 37.3c5.9 6.6 5.4 16.7-1.2 22.6s-16.7 5.4-22.6-1.2c-11.7-13-31.6-26.7-60.1-26.7s-48.4 13.7-60.1 26.7z"/>
          </symbol>
        </svg>