<svg xmlns="http://www.w3.org/2000/svg">
          <symbol id="fw-icon-duotone-balloons" viewBox="0 0 640 512">
            <path d="M160 0c88.4 0 160 71.6 160 160c0 92.5-87.2 174-117.7 199.7c-5.9 5-7.8 13.4-4.4 20.3l24.7 49.3c.9 1.8 1.4 3.8 1.4 5.8c0 7.1-5.8 12.9-12.9 12.9H108.9c-7.1 0-12.9-5.8-12.9-12.9c0-2 .5-4 1.4-5.8L122 379.9c3.5-6.9 1.6-15.3-4.4-20.3C87.2 334 0 252.5 0 160C0 71.6 71.6 0 160 0zM96 144c0-26.5 21.5-48 48-48c8.8 0 16-7.2 16-16s-7.2-16-16-16c-44.2 0-80 35.8-80 80c0 8.8 7.2 16 16 16s16-7.2 16-16z"/>
          </symbol>
        </svg>80-80c8.8 0 16 7.2 16 16s-7.2 16-16 16z"/>
          </symbol>
        </svg>