<svg xmlns="http://www.w3.org/2000/svg">
          <symbol id="fw-icon-duotone-network-wired" viewBox="0 0 640 512">
            <path d="M256 64H384v64H256V64zM240 0c-26.5 0-48 21.5-48 48v96c0 26.5 21.5 48 48 48H400c26.5 0 48-21.5 48-48V48c0-26.5-21.5-48-48-48H240zM96 384H224v64H96V384zM80 320c-26.5 0-48 21.5-48 48v96c0 26.5 21.5 48 48 48H240c26.5 0 48-21.5 48-48V368c0-26.5-21.5-48-48-48H80zM416 448V384H544v64H416zm-64-80v96c0 26.5 21.5 48 48 48H560c26.5 0 48-21.5 48-48V368c0-26.5-21.5-48-48-48H400c-26.5 0-48 21.5-48 48z"/>
          </symbol>
        </svg>