<svg xmlns="http://www.w3.org/2000/svg">
          <symbol id="fw-icon-duotone-dice" viewBox="0 0 640 512">
            <path d="M224 120a24 24 0 1 1 0-48 24 24 0 1 1 0 48zM96 200a24 24 0 1 1 0 48 24 24 0 1 1 0-48zm128 0a24 24 0 1 1 0 48 24 24 0 1 1 0-48zm0 176a24 24 0 1 1 0-48 24 24 0 1 1 0 48zM352 200a24 24 0 1 1 0 48 24 24 0 1 1 0-48zM320 448V413.8L436.3 297.5c28.6-28.6 37-69.6 25.4-105.5H576c35.3 0 64 28.7 64 64V448c0 35.3-28.7 64-64 64H384c-35.3 0-64-28.7-64-64zm160-72a24 24 0 1 0 0-48 24 24 0 1 0 0 48z"/>
          </symbol>
        </svg></svg>