<svg xmlns="http://www.w3.org/2000/svg">
          <symbol id="fw-icon-duotone-message-captions" viewBox="0 0 512 512">
            <path d="M96 216c0-13.3 10.7-24 24-24H264c13.3 0 24 10.7 24 24s-10.7 24-24 24H120c-13.3 0-24-10.7-24-24zm224 0c0-13.3 10.7-24 24-24h48c13.3 0 24 10.7 24 24s-10.7 24-24 24H344c-13.3 0-24-10.7-24-24zM96 296c0-13.3 10.7-24 24-24h48c13.3 0 24 10.7 24 24s-10.7 24-24 24H120c-13.3 0-24-10.7-24-24zm128 0c0-13.3 10.7-24 24-24H392c13.3 0 24 10.7 24 24s-10.7 24-24 24H248c-13.3 0-24-10.7-24-24z"/>
          </symbol>
        </svg>-10.7-24-24-24H120zm128 0c-13.3 0-24 10.7-24 24s10.7 24 24 24H392c13.3 0 24-10.7 24-24s-10.7-24-24-24H248z"/>
          </symbol>
        </svg>