<svg xmlns="http://www.w3.org/2000/svg">
          <symbol id="fw-icon-duotone-person-biking-mountain" viewBox="0 0 640 512">
            <path d="M96.2 276.6C97.9 264.9 107.9 256 120 256h16c12.1 0 22.1 8.9 23.8 20.6c7.6 2.2 14.9 5.3 21.7 9c9.4-7 22.8-6.3 31.3 2.3l11.3 11.3c8.6 8.6 9.3 21.9 2.3 31.3c3.7 6.8 6.8 14.1 9 21.7c11.6 1.7 20.6 11.7 20.6 23.8v16c0 12.1-8.9 22.1-20.6 23.8c-2.2 7.6-5.3 14.9-9 21.7c7 9.4 6.3 22.8-2.3 31.3l-11.3 11.3c-8.6 8.6-21.9 9.3-31.3 2.2c-6.8 3.7-14.1 6.8-21.7 9C158.1 503.1 148.1 512 136 512H120c-12.1 0-22.1-8.9-23.8-20.6c-7.6-2.2-14.9-5.3-21.7-9c-9.4 7.1-22.8 6.3-31.3-2.2L31.8 468.9c-8.6-8.6-9.3-21.9-2.3-31.3c-3.7-6.9-6.8-14.1-9-21.8C8.9 414.1 0 404.1 0 392V376c0-12.1 8.9-22.1 20.6-23.8c2.2-7.6 5.3-14.9 9-21.8c-7-9.4-6.3-22.8 2.3-31.3l11.3-11.3c8.6-8.6 21.9-9.3 31.3-2.3c6.8-3.7 14.1-6.8 21.7-9zM192 384A64 64 0 1 0 64 384a64 64 0 1 0 128 0zM480.2 276.6c1.7-11.6 11.7-20.6 23.8-20.6h16c12.1 0 22.1 8.9 23.8 20.6c7.6 2.2 14.9 5.3 21.8 9c9.4-7 22.8-6.3 31.3 2.3l11.3 11.3c8.6 8.6 9.3 21.9 2.2 31.3c3.7 6.8 6.8 14.1 9 21.7c11.6 1.7 20.6 11.7 20.6 23.8v16c0 12.1-8.9 22.1-20.6 23.8c-2.2 7.6-5.3 14.9-9 21.7c7 9.4 6.3 22.8-2.2 31.3l-11.3 11.3c-8.6 8.6-21.9 9.3-31.3 2.2c-6.9 3.7-14.1 6.8-21.8 9C542.1 503.1 532.1 512 520 512H504c-12.1 0-22.1-8.9-23.8-20.6c-7.6-2.2-14.9-5.3-21.7-9c-9.4 7.1-22.8 6.3-31.3-2.2l-11.3-11.3c-8.6-8.6-9.3-21.9-2.2-31.3c-3.7-6.9-6.8-14.1-9-21.8C392.9 414.1 384 404.1 384 392V376c0-12.1 8.9-22.1 20.6-23.8c2.2-7.6 5.3-14.9 9-21.8c-7-9.4-6.3-22.8 2.2-31.3l11.3-11.3c8.6-8.6 21.9-9.3 31.3-2.3c6.8-3.7 14.1-6.8 21.7-9zM576 384a64 64 0 1 0 -128 0 64 64 0 1 0 128 0z"/>
          </symbol>
        </svg>