<svg xmlns="http://www.w3.org/2000/svg">
          <symbol id="fw-icon-duotone-whistle" viewBox="0 0 640 512">
            <path d="M0 128c0 28.4 18.5 52.5 44.1 60.8c6.1-16.3 14.4-31.6 24.4-45.5c-1.4 .4-2.9 .6-4.5 .6c-8.8 0-16-7.2-16-16s7.2-16 16-16s16 7.2 16 16c0 .3 0 .7 0 1c11.4-12.9 24.5-24.3 39-33.8C107.8 76.5 87.4 64 64 64C28.7 64 0 92.7 0 128zM224 320a64 64 0 1 0 0-128 64 64 0 1 0 0 128z"/>
          </symbol>
        </svg>C636.1 333 640 341 640 349.4c0 6.8-2.5 13.4-7.1 18.4l-63.4 69.7c-6.1 6.7-14.7 10.5-23.7 10.5h-2c-5.2 0-10.2-1.2-14.8-3.6L380.7 367z"/>
          </symbol>
        </svg>