<svg xmlns="http://www.w3.org/2000/svg">
          <symbol id="fw-icon-duotone-tickets-airline" viewBox="0 0 640 512">
            <path d="M48 120c0-13.3-10.7-24-24-24S0 106.7 0 120V360c0 66.3 53.7 120 120 120H520c13.3 0 24-10.7 24-24s-10.7-24-24-24H120c-39.8 0-72-32.2-72-72V120zm240.4 56H245.8l-19.2-25.6c-3-4-7.8-6.4-12.8-6.4H200c-5.2 0-9 4.9-7.8 9.9l12.5 50.2c.6 2.5 .6 5.2 0 7.8l-12.5 50.2c-1.3 5 2.6 9.9 7.8 9.9h13.8c5 0 9.8-2.4 12.8-6.4L245.8 240h42.7l-23.2 69.5c-1.7 5.2 2.1 10.5 7.6 10.5H304c8.5 0 16.4-4.5 20.7-11.9L364.4 240h40.3c16.1 0 31.5-6.4 42.8-17.7c7.9-7.9 7.9-20.7 0-28.5c-11.4-11.4-26.8-17.7-42.8-17.7H364.4l-39.7-68.1C320.4 100.5 312.5 96 304 96H272.9c-5.5 0-9.3 5.3-7.6 10.5L288.4 176z"/>
          </symbol>
        </svg>.5 0-9.3-5.3-7.6-10.5L288.4 240H245.8l-19.2 25.6c-3 4-7.8 6.4-12.8 6.4H200c-5.2 0-9-4.9-7.8-9.9l12.5-50.2c.6-2.5 .6-5.2 0-7.8l-12.5-50.2c-1.3-5 2.6-9.9 7.8-9.9h13.8c5 0 9.8 2.4 12.8 6.4L245.8 176h42.7z"/>
          </symbol>
        </svg>