<svg xmlns="http://www.w3.org/2000/svg">
          <symbol id="fw-icon-duotone-mars-double" viewBox="0 0 640 512">
            <path d="M368 480c-22.6 0-44.2-4.3-64-12c18.9-14.8 35.2-32.8 48.1-53.1c5.2 .7 10.6 1.1 16 1.1c61.9 0 112-50.1 112-112c0-33.1-14.3-62.8-37.1-83.3c.9-.3 1.7-.6 2.5-1c20.9-8.7 34.6-29.1 34.6-51.7V146.7l40.4-40.4L487 73c-4.5-4.5-7-10.6-7-16.8V56l0-.2c0-3 .6-6.1 1.8-9c3.7-9 12.5-14.8 22.2-14.8H616c13.3 0 24 10.7 24 24V168c0 9.7-5.8 18.5-14.8 22.2s-19.3 1.7-26.2-5.2l-33.4-33.4L513 204.2c19.5 28.4 31 62.7 31 99.8c0 97.2-78.8 176-176 176zM592 80l0 0h0v0zM176 224a80 80 0 1 1 0 160 80 80 0 1 1 0-160z"/>
          </symbol>
        </svg>