<svg xmlns="http://www.w3.org/2000/svg">
          <symbol id="fw-icon-duotone-file-excel" viewBox="0 0 384 512">
            <path d="M384 160L224 0V128c0 17.7 14.3 32 32 32H384zM155.7 250.2c-7.6-10.9-22.6-13.5-33.4-5.9s-13.5 22.6-5.9 33.4L162.7 344l-46.4 66.2c-7.6 10.9-5 25.8 5.9 33.4s25.8 5 33.4-5.9L192 385.8l36.3 51.9c7.6 10.9 22.6 13.5 33.4 5.9s13.5-22.6 5.9-33.4L221.3 344l46.4-66.2c7.6-10.9 5-25.8-5.9-33.4s-25.8-5-33.4 5.9L192 302.1l-36.3-51.9z"/>
          </symbol>
        </svg>3.4 5.9L192 302.1l-36.3-51.9z"/>
          </symbol>
        </svg>