<svg xmlns="http://www.w3.org/2000/svg">
          <symbol id="fw-icon-duotone-face-smile-plus" viewBox="0 0 640 512">
            <path d="M544 0c13.3 0 24 10.7 24 24V72h48c13.3 0 24 10.7 24 24s-10.7 24-24 24H568v48c0 13.3-10.7 24-24 24s-24-10.7-24-24V120H472c-13.3 0-24-10.7-24-24s10.7-24 24-24h48V24c0-13.3 10.7-24 24-24zM144.4 208a32 32 0 1 1 0 64 32 32 0 1 1 0-64zm160 0a32 32 0 1 1 0 64 32 32 0 1 1 0-64z"/>
          </symbol>
        </svg>s16.7-5.2 22.6 1.4z"/>
          </symbol>
        </svg>