<svg xmlns="http://www.w3.org/2000/svg">
          <symbol id="fw-icon-duotone-comment-slash" viewBox="0 0 640 512">
            <path d="M424.1 430.1L82.9 161.3C70.7 185.6 64 212.2 64 240c0 45.1 17.7 86.8 47.7 120.9c-1.9 24.5-11.4 46.3-21.4 62.9c-5.5 9.2-11.1 16.6-15.2 21.6c-2.1 2.5-3.7 4.4-4.9 5.7c-.6 .6-1 1.1-1.3 1.4l-.3 .3 0 0 0 0 0 0 0 0c-4.6 4.6-5.9 11.4-3.4 17.4c2.5 6 8.3 9.9 14.8 9.9c28.7 0 57.6-8.9 81.6-19.3c22.9-10 42.4-21.9 54.3-30.6c31.8 11.5 67 17.9 104.1 17.9c37 0 72.3-6.4 104.1-17.9zm88.9-53.4C552.2 340.2 576 292.3 576 240C576 125.1 461.4 32 320 32c-67.7 0-129.3 21.4-175.1 56.3l368 288.5z"/>
          </symbol>
        </svg>