<svg xmlns="http://www.w3.org/2000/svg">
          <symbol id="fw-icon-duotone-panel-fire" viewBox="0 0 640 512">
            <path d="M64 32C28.7 32 0 60.7 0 96V416c0 35.3 28.7 64 64 64H337.6c-31-34.7-49.6-80.6-49.6-129.9c0-2 .1-4 .2-6.1c-.1 0-.1 0-.2 0c-13.3 0-24-10.7-24-24s10.7-24 24-24c3.5 0 6.9 .8 9.9 2.1c6.7-19 16.4-37.8 27.2-55.4c3.8-6.2 7.9-12.5 12.3-18.7H96c-17.7 0-32-14.3-32-32V128c0-17.7 14.3-32 32-32H352c17.7 0 32 14.3 32 32v39.4c9-9.4 18.5-18.6 28.5-27.5c10-8.9 23-12.8 35.5-11.7V96c0-35.3-28.7-64-64-64H64zM96 296a24 24 0 1 1 0 48 24 24 0 1 1 0-48zm72 24a24 24 0 1 1 48 0 24 24 0 1 1 -48 0z"/>
          </symbol>
        </svg>