<svg xmlns="http://www.w3.org/2000/svg">
          <symbol id="fw-icon-duotone-face-clouds" viewBox="0 0 640 512">
            <path d="M128 0C104.3 0 83.6 12.9 72.6 32H64C28.7 32 0 60.7 0 96s28.7 64 64 64H224c35.3 0 64-28.7 64-64s-28.7-64-64-64c-13.2 0-25.4 4-35.6 10.8C179.7 17.9 155.9 0 128 0zM416 288c-44.2 0-80 35.8-80 80h-8c-39.8 0-72 32.2-72 72s32.2 72 72 72H568c39.8 0 72-32.2 72-72s-32.2-72-72-72h-.7c.4-2.6 .7-5.3 .7-8c0-26.5-21.5-48-48-48c-13.9 0-26.4 5.9-35.1 15.3C470.9 303.8 445.3 288 416 288z"/>
          </symbol>
        </svg>2-14.3-32-32c0-5.8 1.6-11.3 4.3-16H72.1zm328.3-16a32 32 0 1 1 0 64 32 32 0 1 1 0-64z"/>
          </symbol>
        </svg>