<svg xmlns="http://www.w3.org/2000/svg">
          <symbol id="fw-icon-duotone-anchor" viewBox="0 0 576 512">
            <path d="M256 448V240h64V448h48c53 0 96-43 96-96v-6.1l-7 7c-9.4 9.4-24.6 9.4-33.9 0s-9.4-24.6 0-33.9l56-56c9.4-9.4 24.6-9.4 33.9 0l56 56c9.4 9.4 9.4 24.6 0 33.9s-24.6 9.4-33.9 0l-7-7V352c0 88.4-71.6 160-160 160H288 208c-88.4 0-160-71.6-160-160v-6.1l-7 7c-9.4 9.4-24.6 9.4-33.9 0s-9.4-24.6 0-33.9l56-56c9.4-9.4 24.6-9.4 33.9 0l56 56c9.4 9.4 9.4 24.6 0 33.9s-24.6 9.4-33.9 0l-7-7V352c0 53 43 96 96 96h48z"/>
          </symbol>
        </svg>