<svg xmlns="http://www.w3.org/2000/svg">
          <symbol id="fw-icon-duotone-tomato" viewBox="0 0 512 512">
            <path d="M252.6 11.7C245.8 .3 231-3.4 219.7 3.4s-15.1 21.6-8.2 32.9l10.3 17.2c5 8.4 8.3 17.6 9.6 27.2c-46.3 3-89.6 14.3-126.5 32.9c-6.6 3.3-10.1 10.8-8.4 18s8.2 12.3 15.6 12.3h34.1l-15.4 23.1c-3.9 5.9-3.5 13.7 1 19.1s12.1 7.3 18.6 4.5L256 145.4l105.7 45.3c6.5 2.8 14.1 1 18.6-4.5s4.9-13.2 1-19.1L365.9 144h34.6c7.4 0 13.8-5.1 15.6-12.3s-1.7-14.6-8.3-18c-37.5-19-81.3-30.2-128.2-33c-1.5-18.3-7.2-36-16.7-51.8L252.6 11.7z"/>
          </symbol>
        </svg>