<svg xmlns="http://www.w3.org/2000/svg">
          <symbol id="fw-icon-duotone-grid-5" viewBox="0 0 448 512">
            <path d="M96 48c0-8.8 7.2-16 16-16h32c8.8 0 16 7.2 16 16V80c0 8.8-7.2 16-16 16H112c-8.8 0-16-7.2-16-16V48zM16 128H48c8.8 0 16 7.2 16 16v32c0 8.8-7.2 16-16 16H16c-8.8 0-16-7.2-16-16V144c0-8.8 7.2-16 16-16zm0 192H48c8.8 0 16 7.2 16 16v32c0 8.8-7.2 16-16 16H16c-8.8 0-16-7.2-16-16V336c0-8.8 7.2-16 16-16zm96-96h32c8.8 0 16 7.2 16 16v32c0 8.8-7.2 16-16 16H112c-8.8 0-16-7.2-16-16V240c0-8.8 7.2-16 16-16zM96 432c0-8.8 7.2-16 16-16h32c8.8 0 16 7.2 16 16v32c0 8.8-7.2 16-16 16H112c-8.8 0-16-7.2-16-16V432zM208 128h32c8.8 0 16 7.2 16 16v32c0 8.8-7.2 16-16 16H208c-8.8 0-16-7.2-16-16V144c0-8.8 7.2-16 16-16zM192 336c0-8.8 7.2-16 16-16h32c8.8 0 16 7.2 16 16v32c0 8.8-7.2 16-16 16H208c-8.8 0-16-7.2-16-16V336zM304 32h32c8.8 0 16 7.2 16 16V80c0 8.8-7.2 16-16 16H304c-8.8 0-16-7.2-16-16V48c0-8.8 7.2-16 16-16zM288 240c0-8.8 7.2-16 16-16h32c8.8 0 16 7.2 16 16v32c0 8.8-7.2 16-16 16H304c-8.8 0-16-7.2-16-16V240zm16 176h32c8.8 0 16 7.2 16 16v32c0 8.8-7.2 16-16 16H304c-8.8 0-16-7.2-16-16V432c0-8.8 7.2-16 16-16zm80-272c0-8.8 7.2-16 16-16h32c8.8 0 16 7.2 16 16v32c0 8.8-7.2 16-16 16H400c-8.8 0-16-7.2-16-16V144zm16 176h32c8.8 0 16 7.2 16 16v32c0 8.8-7.2 16-16 16H400c-8.8 0-16-7.2-16-16V336c0-8.8 7.2-16 16-16z"/>
          </symbol>
        </svg>.2 16-16 16H400c-8.8 0-16-7.2-16-16V432c0-8.8 7.2-16 16-16z"/>
          </symbol>
        </svg>