<svg xmlns="http://www.w3.org/2000/svg">
          <symbol id="fw-icon-duotone-fort" viewBox="0 0 640 512">
            <path d="M16 0C7.2 0 0 7.2 0 16V96v16 64c0 26.5 21.5 48 48 48H208c26.5 0 48-21.5 48-48V112 96 16c0-8.8-7.2-16-16-16H208c-8.8 0-16 7.2-16 16V64H160V16c0-8.8-7.2-16-16-16H112c-8.8 0-16 7.2-16 16V64H64V16C64 7.2 56.8 0 48 0H16zM448 64V16c0-8.8-7.2-16-16-16H400c-8.8 0-16 7.2-16 16V96v16 64c0 26.5 21.5 48 48 48H592c26.5 0 48-21.5 48-48V112 96 16c0-8.8-7.2-16-16-16H592c-8.8 0-16 7.2-16 16V64H544V16c0-8.8-7.2-16-16-16H496c-8.8 0-16 7.2-16 16V64H448z"/>
          </symbol>
        </svg>