<svg xmlns="http://www.w3.org/2000/svg">
          <symbol id="fw-icon-duotone-tricycle-adult" viewBox="0 0 640 512">
            <path d="M312 64c-13.3 0-24 10.7-24 24s10.7 24 24 24h31.4c2.6 0 5 1.3 6.5 3.4l79.2 112.5-48.2 64.3c-5.6 7.5-14.4 11.9-23.7 11.9c-1.9 0-3.8-.2-5.7-.5l-322.9-63c-13-2.5-25.6 6-28.2 19s6 25.6 19 28.2l4.6 .9C41.6 268.6 67.4 256 96 256c41.9 0 77.5 26.8 90.6 64.2l155.7 30.4c4.9 1 9.9 1.4 14.9 1.4c24.4 0 47.4-11.5 62.1-31.1l38.8-51.8 13.7 19.5c10.6-12.1 24.2-21.5 39.7-27L389.2 87.8C378.7 72.9 361.6 64 343.4 64H312z"/>
          </symbol>
        </svg>2-46.5c0-53-43-96-96-96s-96 43-96 96s43 96 96 96zm400-96a48 48 0 1 1 96 0 48 48 0 1 1 -96 0zm144 0a96 96 0 1 0 -192 0 96 96 0 1 0 192 0z"/>
          </symbol>
        </svg>