<svg xmlns="http://www.w3.org/2000/svg">
          <symbol id="fw-icon-duotone-wreath-laurel" viewBox="0 0 640 512">
            <path d="M144 112C144 50.1 194.1 0 256 0h16c8.8 0 16 7.2 16 16V32c0 60.2-47.5 109.3-107 111.9c-23.9 32.2-37 71.5-37 112.1c0 97.2 78.8 176 176 176h11.6c43.5 0 86.3 10.1 125.2 29.6l9.9 5c11.9 5.9 16.7 20.3 10.7 32.2s-20.3 16.7-32.2 10.7l-9.9-5C403.1 488.4 367.6 480 331.6 480H320c-47.5 0-91.5-14.8-127.7-39.9c-59.6 28.2-131.9 6.3-165.4-51.8l-8-13.9c-4.4-7.7-1.8-17.4 5.9-21.9c13.8-8 28.4-13.1 43.3-15.5C27.5 315.6 0 273 0 224V208c0-8.8 7.2-16 16-16c15.9 0 31.1 2.9 45.2 8.2c-24.3-38.8-26.8-89.5-2.3-131.9l8-13.9c4.4-7.7 14.2-10.3 21.9-5.9C115 63.7 133.8 86.8 144 113v-1z"/>
          </symbol>
        </svg>-4.2 16.8-7.9 25.4-11.2z"/>
          </symbol>
        </svg>