<svg xmlns="http://www.w3.org/2000/svg">
          <symbol id="fw-icon-duotone-planet-moon" viewBox="0 0 576 512">
            <path d="M512 128A64 64 0 1 0 512 0a64 64 0 1 0 0 128zM224 64C124.4 64 40 129 10.9 218.9l18.4 18.4c12 12 28.3 18.7 45.3 18.7h33.6c12.7 0 24.9 5.1 33.9 14.1L192 320v32c0 17.7 14.3 32 32 32v47c0 13.8 11.2 25 25 25c9.2 0 17.7-5.1 22-13.2l41.3-76.6c5-9.3 7.6-19.8 7.6-30.3V320c0-17.7-14.3-32-32-32H222.1c-9 0-17.7-3.6-24.1-10c-12.5-12.5-13.4-32.4-2.1-45.9l52.7-63.2c4.8-5.8 7.4-13 7.4-20.5V66.3c-10.5-1.5-21.1-2.3-32-2.3z"/>
          </symbol>
        </svg>mbol>
        </svg>