<svg xmlns="http://www.w3.org/2000/svg">
          <symbol id="fw-icon-duotone-gift" viewBox="0 0 512 512">
            <path d="M73.6 128c14.6 28.5 44.2 48 78.4 48h64 8v80H32c-17.7 0-32-14.3-32-32V160c0-17.7 14.3-32 32-32H73.6zM480 256H288V176h72c34.2 0 63.8-19.5 78.4-48H480c17.7 0 32 14.3 32 32v64c0 17.7-14.3 32-32 32zM32 288H224V512H80c-26.5 0-48-21.5-48-48V288zM288 512V288H480V464c0 26.5-21.5 48-48 48H288z"/>
          </symbol>
        </svg>60c22.1 0 40 17.9 40 40s-17.9 40-40 40H286.7l34.8-59.2zM288 512V288H224V512h64z"/>
          </symbol>
        </svg>