<svg xmlns="http://www.w3.org/2000/svg">
          <symbol id="fw-icon-duotone-person-dolly-empty" viewBox="0 0 512 512">
            <path d="M218.2 168.7c12.9-3.2 25.9 4.6 29.1 17.5l49.6 198.4c17.6 2.4 32.9 12 42.8 25.7l134.4-33.6c12.9-3.2 25.9 4.6 29.1 17.5s-4.6 25.9-17.5 29.1L351.4 456.9C347.1 488 320.3 512 288 512c-35.3 0-64-28.7-64-64c0-21.3 10.4-40.1 26.3-51.7L200.7 197.8c-3.2-12.9 4.6-25.9 17.5-29.1zM288 464a16 16 0 1 0 0-32 16 16 0 1 0 0 32z"/>
          </symbol>
        </svg>2s32-14.3 32-32v0V410.5l-64-64z"/>
          </symbol>
        </svg>