<svg xmlns="http://www.w3.org/2000/svg">
          <symbol id="fw-icon-duotone-cupcake" viewBox="0 0 448 512">
            <path d="M225.2 9.9c2.5-6 8.3-9.9 14.8-9.9h4.6C303.9 0 352 48.1 352 107.4c0 7.3-.9 14.3-2.6 21c4.2 .5 8.4 1.5 12.5 2.8l22.6 7.5C422.4 151.5 448 187 448 227c0 51.4-41.6 93-93 93H93c-51.4 0-93-41.6-93-93c0-40 25.6-75.6 63.6-88.2l22.6-7.5c3.2-1.1 6.5-1.9 9.9-2.4c0-.3 0-.6 0-.8c0-35.3 28.7-64 64-64h62.1C232 64 240 56 240 46.1c0-4.8-1.9-9.3-5.3-12.7l-6.1-6.1c-4.6-4.6-5.9-11.5-3.5-17.4z"/>
          </symbol>
        </svg>