<svg xmlns="http://www.w3.org/2000/svg">
          <symbol id="fw-icon-duotone-image-polaroid" viewBox="0 0 448 512">
            <path d="M64 32C28.7 32 0 60.7 0 96V416c0 35.3 28.7 64 64 64H384c35.3 0 64-28.7 64-64V96c0-35.3-28.7-64-64-64H64zM96 96H352c17.7 0 32 14.3 32 32V320c0 17.7-14.3 32-32 32H96c-17.7 0-32-14.3-32-32V128c0-17.7 14.3-32 32-32z"/>
          </symbol>
        </svg>.8h48 48 40 88c5.9 0 11.4-3.3 14.2-8.6s2.4-11.6-1-16.5l-88-128c-3-4.3-7.9-6.9-13.2-6.9zM128 192a32 32 0 1 0 0-64 32 32 0 1 0 0 64z"/>
          </symbol>
        </svg>