<svg xmlns="http://www.w3.org/2000/svg">
          <symbol id="fw-icon-duotone-syringe" viewBox="0 0 512 512">
            <path d="M441 7c-9.4-9.4-24.6-9.4-33.9 0s-9.4 24.6 0 33.9l15 15L384 94.1 329 39c-9.4-9.4-24.6-9.4-33.9 0s-9.4 24.6 0 33.9l72 72 72 72c9.4 9.4 24.6 9.4 33.9 0s9.4-24.6 0-33.9l-55-55L456 89.9l15 15c9.4 9.4 24.6 9.4 33.9 0s9.4-24.6 0-33.9L473 39 441 7zM210.3 155.7l-22.6 22.6 57 57c6.2 6.2 16.4 6.2 22.6 0s6.2-16.4 0-22.6l-57-57zm-64 64l-22.6 22.6 57 57c6.2 6.2 16.4 6.2 22.6 0s6.2-16.4 0-22.6l-57-57z"/>
          </symbol>
        </svg>