<svg xmlns="http://www.w3.org/2000/svg">
          <symbol id="fw-icon-duotone-truck-droplet" viewBox="0 0 640 512">
            <path d="M280 190c0 36.5-32.2 66-72 66s-72-29.6-72-66c0-27 39.4-82.9 59.9-110.3c6.1-8.2 18.1-8.2 24.2 0C240.6 107 280 163 280 190zM96 432a80 80 0 1 1 160 0A80 80 0 1 1 96 432zm368-80a80 80 0 1 1 0 160 80 80 0 1 1 0-160z"/>
          </symbol>
        </svg>.9-96s-103.1 41.7-110.9 96H48c-26.5 0-48-21.5-48-48V48zM416 256H544V237.3L466.7 160H416v96zm-208 0c39.8 0 72-29.6 72-66c0-27-39.4-82.9-59.9-110.3c-6.1-8.2-18.1-8.2-24.2 0C175.4 107 136 163 136 190c0 36.5 32.2 66 72 66z"/>
          </symbol>
        </svg>