<svg xmlns="http://www.w3.org/2000/svg">
          <symbol id="fw-icon-duotone-file-signature" viewBox="0 0 576 512">
            <path d="M384 160H256c-17.7 0-32-14.3-32-32V0L384 160zm165.8-20.3l14.4 14.4c15.6 15.6 15.6 40.9 0 56.6l-29.4 29.4-71-71 29.4-29.4c15.6-15.6 40.9-15.6 56.6 0zM311.9 321L441.1 191.8l71 71L382.9 391.9c-4.1 4.1-9.2 7-14.9 8.4l-60.1 15c-5.5 1.4-11.2-.2-15.2-4.2s-5.6-9.7-4.2-15.2l15-60.1c1.4-5.6 4.3-10.8 8.4-14.9z"/>
          </symbol>
        </svg>-16-7.2-16-16s7.2-16 16-16h8.2c7.1 0 13.3-4.6 15.3-11.4l14.9-49.5c3.4-11.3 13.8-19.1 25.6-19.1s22.2 7.7 25.6 19.1l11.6 38.6c7.4-6.2 16.8-9.7 26.8-9.7c15.9 0 30.4 9 37.5 23.2l4.4 8.8h41.6l12-48.2c1.4-5.6 4.3-10.8 8.4-14.9L384 248.9V160H256c-17.7 0-32-14.3-32-32V0H64z"/>
          </symbol>
        </svg>