<svg xmlns="http://www.w3.org/2000/svg">
          <symbol id="fw-icon-thin-arrow-down-to-bracket" viewBox="0 0 448 512">
            <path d="M365.7 213.7l-136 136c-3.1 3.1-8.2 3.1-11.3 0l-136-136c-3.1-3.1-3.1-8.2 0-11.3s8.2-3.1 11.3 0L216 324.7V8c0-4.4 3.6-8 8-8s8 3.6 8 8V324.7L354.3 202.3c3.1-3.1 8.2-3.1 11.3 0s3.1 8.2 0 11.3zM16 328v96c0 39.8 32.2 72 72 72H360c39.8 0 72-32.2 72-72V328c0-4.4 3.6-8 8-8s8 3.6 8 8v96c0 48.6-39.4 88-88 88H88c-48.6 0-88-39.4-88-88V328c0-4.4 3.6-8 8-8s8 3.6 8 8z"/>
          </symbol>
        </svg>