<svg xmlns="http://www.w3.org/2000/svg">
          <symbol id="fw-icon-duotone-business-time" viewBox="0 0 640 512">
            <path d="M176 56V96H336V56c0-4.4-3.6-8-8-8H184c-4.4 0-8 3.6-8 8zM128 96V56c0-30.9 25.1-56 56-56H328c30.9 0 56 25.1 56 56V96h64c35.3 0 64 28.7 64 64v32.7c-5.3-.5-10.6-.7-16-.7c-54.7 0-103.5 24.9-135.8 64H352 192 0V160c0-35.3 28.7-64 64-64h64zM320.7 352c-.5 5.3-.7 10.6-.7 16c0 42.5 15.1 81.6 40.2 112H64c-35.3 0-64-28.7-64-64V288H192v32c0 17.7 14.3 32 32 32h96c.2 0 .5 0 .7 0z"/>
          </symbol>
        </svg>