<svg xmlns="http://www.w3.org/2000/svg">
          <symbol id="fw-icon-duotone-bridge-suspension" viewBox="0 0 640 512">
            <path d="M32 256c-17.7 0-32 14.3-32 32v32c0 17.7 14.3 32 32 32c35.3 0 64 28.7 64 64v64c0 17.7 14.3 32 32 32h32c17.7 0 32-14.3 32-32V448c0-53 43-96 96-96h64c53 0 96 43 96 96v32c0 17.7 14.3 32 32 32h32c17.7 0 32-14.3 32-32V416c0-35.3 28.7-64 64-64c17.7 0 32-14.3 32-32V288c0-17.7-14.3-32-32-32H32z"/>
          </symbol>
        </svg>57c-15.5 4.8-31.6 8.1-48 9.8V256H296V166.8c-16.4-1.6-32.5-4.9-48-9.8v99H200V136.3c-14.2-8-27.6-17.5-40-28.2V256H96V117.1c-17.4 18.7-38.4 35.3-63.9 44.5c-12.5 4.5-26.2-2-30.7-14.4s2-26.2 14.4-30.7c17.7-6.4 33.9-19.3 49.4-36.9c15.4-17.6 29-38.5 42-59.7C111.5 12.7 119.2 8 128 8z"/>
          </symbol>
        </svg>