<svg xmlns="http://www.w3.org/2000/svg">
          <symbol id="fw-icon-duotone-popcorn" viewBox="0 0 448 512">
            <path d="M32 156c0 1.8 .1 3.5 .3 5.2c3.3-.8 6.7-1.2 10.2-1.2h77.3H328.2h77.3c3.5 0 6.9 .4 10.2 1.2c.2-1.7 .3-3.5 .3-5.2c0-20.9-14.5-38.3-34-42.9c1.3-4.2 2-8.6 2-13.1c0-24.3-19.7-44-44-44c-1.9 0-3.7 .1-5.6 .3C329.3 37.7 312.3 24 292 24c-8.5 0-16.5 2.4-23.2 6.6C261.8 12.7 244.4 0 224 0s-37.8 12.7-44.8 30.6C172.5 26.4 164.5 24 156 24c-20.3 0-37.3 13.7-42.4 32.3c-1.8-.2-3.7-.3-5.6-.3c-24.3 0-44 19.7-44 44c0 4.6 .7 9 2 13.1c-19.5 4.5-34 22-34 42.9z"/>
          </symbol>
        </svg>c0-8.8 7.2-16 16-16s16 7.2 16 16z"/>
          </symbol>
        </svg>