<svg xmlns="http://www.w3.org/2000/svg">
          <symbol id="fw-icon-duotone-trash-can-clock" viewBox="0 0 576 512">
            <path d="M32 96H416v96.7c-29.3 2.6-56.6 12.5-80 27.7V176c0-8.8-7.2-16-16-16s-16 7.2-16 16v71.2c-29.8 31.5-48 74-48 120.8c0 59.5 29.6 112.1 74.8 144H96c-35.3 0-64-28.7-64-64V96zm96 64c-8.8 0-16 7.2-16 16V400c0 8.8 7.2 16 16 16s16-7.2 16-16V176c0-8.8-7.2-16-16-16zm96 0c-8.8 0-16 7.2-16 16V400c0 8.8 7.2 16 16 16s16-7.2 16-16V176c0-8.8-7.2-16-16-16z"/>
          </symbol>
        </svg>