<svg xmlns="http://www.w3.org/2000/svg">
          <symbol id="fw-icon-duotone-mug-hot" viewBox="0 0 512 512">
            <path d="M112 24c0-13.3-10.7-24-24-24S64 10.7 64 24c0 38.9 23.4 59.4 39.1 73.1l1.1 1C120.5 112.3 128 119.9 128 136c0 13.3 10.7 24 24 24s24-10.7 24-24c0-38.9-23.4-59.4-39.1-73.1l-1.1-1C119.5 47.7 112 40.1 112 24zm112 0c0-13.3-10.7-24-24-24s-24 10.7-24 24c0 38.9 23.4 59.4 39.1 73.1l1.1 1C232.5 112.3 240 119.9 240 136c0 13.3 10.7 24 24 24s24-10.7 24-24c0-38.9-23.4-59.4-39.1-73.1l-1.1-1C231.5 47.7 224 40.1 224 24z"/>
          </symbol>
        </svg>