<svg xmlns="http://www.w3.org/2000/svg">
          <symbol id="fw-icon-duotone-jedi" viewBox="0 0 576 512">
            <path d="M246 315.7l-21.2-31.9c-2.1-3.2-1.7-7.4 1-10.1s6.9-3.1 10.1-1l29.5 19.7c2.1 1.4 4.9 0 5-2.6L279.7 8c.1-4.5 3.8-8 8.3-8s8.1 3.5 8.3 8l9.4 281.9c.1 2.5 2.9 3.9 5 2.6l29.5-19.7c3.2-2.1 7.4-1.7 10.1 1s3.1 6.9 1 10.1L330 315.7c-1.3 1.9-.2 4.5 2 4.9l37.6 7.5c3.7 .7 6.4 4 6.4 7.8s-2.7 7.1-6.4 7.8L332 351.4c-2.2 .4-3.3 3-2 4.9l21.2 31.9c2.1 3.2 1.7 7.4-1 10.1s-6.9 3.1-10.1 1l-26.3-17.6c-2.2-1.4-5.1 .2-5 2.8l2.1 61.5c-7.4 1.3-15.1 2-22.9 2s-15.4-.7-22.9-2l2.1-61.5c.1-2.6-2.8-4.2-5-2.8l-26.3 17.6c-3.2 2.1-7.4 1.7-10.1-1s-3.1-6.9-1-10.1L246 356.3c1.3-1.9 .2-4.5-2-4.9l-37.6-7.5c-3.7-.7-6.4-4-6.4-7.8s2.7-7.1 6.4-7.8l37.6-7.5c2.2-.4 3.3-3 2-4.9z"/>
          </symbol>
        </svg>-10.9l28.4-28.4c1.5-1.5 2.2-3.8 1.7-5.9C537.9 112.8 498.7 56 445.2 18c-11.3-8-26 8.9-21.4 22c5.3 15 8.2 31.2 8.2 48c0 46.3-21.9 87.5-55.8 113.9z"/>
          </symbol>
        </svg>