<svg xmlns="http://www.w3.org/2000/svg">
          <symbol id="fw-icon-duotone-phone-rotary" viewBox="0 0 512 512">
            <path d="M0 141.3V176c0 17.7 14.3 32 32 32H74.3c13.1 0 24.9-8 29.7-20.1l19.4-48.6c2.9-7.3 8.4-13.2 15.7-16c18.6-7 59.5-19.3 116.8-19.3s98.2 12.3 116.8 19.3c7.3 2.8 12.8 8.7 15.7 16L408 187.9c4.9 12.1 16.6 20.1 29.7 20.1H480c17.7 0 32-14.3 32-32V141.3c0-8.5-3.4-16.6-9.9-22.1C473.8 95.4 386.1 32 256 32S38.2 95.4 9.9 119.2C3.4 124.6 0 132.8 0 141.3zM256 384a72 72 0 1 0 0-144 72 72 0 1 0 0 144z"/>
          </symbol>
        </svg>