<svg xmlns="http://www.w3.org/2000/svg">
          <symbol id="fw-icon-duotone-swords" viewBox="0 0 512 512">
            <path d="M75.3 308.7c-6.2-6.2-16.4-6.2-22.6 0l-16 16c-4.7 4.7-6 11.8-3.3 17.8l27.5 62L4.7 460.7c-6.2 6.2-6.2 16.4 0 22.6l24 24c6.2 6.2 16.4 6.2 22.6 0l56.2-56.2 62 27.5c6 2.7 13.1 1.4 17.8-3.3l16-16c6.2-6.2 6.2-16.4 0-22.6l-128-128zm361.4 0l-128 128c-6.2 6.2-6.2 16.4 0 22.6l16 16c4.7 4.7 11.8 6 17.8 3.3l62-27.5 56.2 56.2c6.2 6.2 16.4 6.2 22.6 0l24-24c6.2-6.2 6.2-16.4 0-22.6l-56.2-56.2 27.5-62c2.7-6.1 1.4-13.1-3.3-17.8l-16-16c-6.2-6.2-16.4-6.2-22.6 0z"/>
          </symbol>
        </svg>