<svg xmlns="http://www.w3.org/2000/svg">
          <symbol id="fw-icon-duotone-watermelon-slice" viewBox="0 0 512 512">
            <path d="M16.2 385.3L385.3 16.2c-2.9 8.4-1 18.1 5.7 24.8c96.9 96.9 97.1 253.6 .3 350.4S137.9 487.9 41 391c-6.7-6.7-16.4-8.6-24.8-5.7zM339.3 156.7c-6.2-6.2-16.4-6.2-22.6 0s-6.2 16.4 0 22.6l16 16c6.2 6.2 16.4 6.2 22.6 0s6.2-16.4 0-22.6l-16-16zm-80 80c-6.2-6.2-16.4-6.2-22.6 0s-6.2 16.4 0 22.6l16 16c6.2 6.2 16.4 6.2 22.6 0s6.2-16.4 0-22.6l-16-16zm88 8c-6.2-6.2-16.4-6.2-22.6 0s-6.2 16.4 0 22.6l16 16c6.2 6.2 16.4 6.2 22.6 0s6.2-16.4 0-22.6l-16-16zm-168 72c-6.2-6.2-16.4-6.2-22.6 0s-6.2 16.4 0 22.6l16 16c6.2 6.2 16.4 6.2 22.6 0s6.2-16.4 0-22.6l-16-16zm88 8c-6.2-6.2-16.4-6.2-22.6 0s-6.2 16.4 0 22.6l16 16c6.2 6.2 16.4 6.2 22.6 0s6.2-16.4 0-22.6l-16-16z"/>
          </symbol>
        </svg>.6 0s6.2-16.4 0-22.6l-16-16z"/>
          </symbol>
        </svg>