<svg xmlns="http://www.w3.org/2000/svg">
          <symbol id="fw-icon-duotone-children" viewBox="0 0 640 512">
            <path d="M544 64A64 64 0 1 0 416 64a64 64 0 1 0 128 0zM472 480V384h16v96c0 17.7 14.3 32 32 32s32-14.3 32-32V300.5L564.9 321c9.4 15 29.2 19.4 44.1 10s19.4-29.2 10-44.1l-51.7-82.1c-17.6-27.9-48.3-44.9-81.2-44.9H473.8c-33 0-63.7 16.9-81.2 44.9L340.9 287c-9.4 15-4.9 34.7 10 44.1s34.7 4.9 44.1-10L408 300.5V480c0 17.7 14.3 32 32 32s32-14.3 32-32z"/>
          </symbol>
        </svg>C51.6 389.3 59.3 400 70.2 400H88z"/>
          </symbol>
        </svg>