<svg xmlns="http://www.w3.org/2000/svg">
          <symbol id="fw-icon-duotone-skeleton-ribs" viewBox="0 0 640 512">
            <path d="M178.2 112.9C194.5 81.6 226.7 64 260.2 64H379.8c33.5 0 65.8 17.6 82.1 48.9C489.5 165.8 544 282.2 544 384v17c0 43.6-35.4 79-79 79c-15.1 0-30.1-2.7-44.2-8l-67.1-25.2c-21.7-8.2-45.7-8.2-67.4 0L219.2 472c-14.1 5.3-29.1 8-44.2 8c-43.6 0-79-35.4-79-79V384c0-101.8 54.5-218.2 82.2-271.1zM260.2 128c-11.4 0-20.8 5.9-25.3 14.5C207.2 195.6 160 299.4 160 384v17c0 8.3 6.7 15 15 15c7.4 0 14.8-1.3 21.7-3.9l67.1-25.2c36.2-13.6 76.1-13.6 112.4 0l67.1 25.2c7 2.6 14.3 3.9 21.7 3.9c8.3 0 15-6.7 15-15V384c0-84.6-47.2-188.4-74.9-241.5c-4.5-8.6-13.9-14.5-25.3-14.5H260.2z"/>
          </symbol>
        </svg>3 32-32 32s-32-14.3-32-32V240c0-10.1-4.7-19.6-12.8-25.6l-25.6-19.2C521.5 183.1 512 164.1 512 144c0-35.3 28.7-64 64-64s64 28.7 64 64z"/>
          </symbol>
        </svg>