<svg xmlns="http://www.w3.org/2000/svg">
          <symbol id="fw-icon-duotone-bow-arrow" viewBox="0 0 512 512">
            <path d="M511.7 18.9c1-5.2-.7-10.5-4.4-14.3S498.2-.7 493.1 .3l-128 24c-5.8 1.1-10.6 5.3-12.3 11s-.2 11.8 4 16l35 35L213.7 264.4l33.9 33.9L425.7 120.3l35 35c4.2 4.2 10.4 5.7 16 4s9.9-6.5 11-12.3l24-128zM202.3 343.6l-33.9-33.9-23.8 23.8L93.8 320.7c-8.2-2-16.8 .4-22.8 6.3L7 391c-6.1 6.1-8.5 15-6.2 23.4s8.9 14.8 17.3 16.9l50 12.5 12.5 50c2.1 8.4 8.5 15 16.9 17.3s17.3 0 23.4-6.2l64-64c6-6 8.4-14.6 6.3-22.8l-12.7-50.8 23.8-23.8z"/>
          </symbol>
        </svg>