<svg xmlns="http://www.w3.org/2000/svg">
          <symbol id="fw-icon-duotone-jug-bottle" viewBox="0 0 640 512">
            <path d="M448 88c0-13.3 10.7-24 24-24h80c13.3 0 24 10.7 24 24v40H448V88zM416 392.6c.3-.2 .7-.4 1-.6c-.3-.2-.7-.4-1-.6V256c0-24.7-5.6-48.1-15.6-69c5.1-5.3 11.1-9.8 18-13l13.1-6.2c11-5.1 23-7.8 35.1-7.8h90.6c12.1 0 24.1 2.7 35.1 7.8l13.1 6.2c21 9.9 34.5 31 34.5 54.2c0 22.8-12.7 42.6-31.5 52.7C627.4 292 640 312.5 640 336c0 24.1-13.3 45.1-33 56c19.7 10.9 33 31.9 33 56c0 35.3-28.7 64-64 64H448c-17 0-32.5-6.7-44-17.5c7.6-13.8 12-29.6 12-46.5V392.6z"/>
          </symbol>
        </svg>