<svg xmlns="http://www.w3.org/2000/svg">
          <symbol id="fw-icon-duotone-books" viewBox="0 0 512 512">
            <path d="M288 112.6l1.4 5.2L412.2 85 395.8 23.7c-4.5-17-22-27.1-38.9-22.6L295.5 17.6c-2.7 .7-5.2 1.8-7.5 3.1L288 96H160v32H288l0-15.4zm132.4 3.2L297.6 148.8l66 247.4 122.8-32.9-66-247.4zM388.2 488.3c4.5 17 22 27.1 38.9 22.6l61.4-16.5c16.9-4.6 27-22.1 22.5-39.1l-16.3-61.1L371.8 427l16.3 61.3zM0 96v32H128V96H0zM128 384H0v32H128V384zm160 0H160v32H288V384z"/>
          </symbol>
        </svg>27l-8.2-30.9z"/>
          </symbol>
        </svg>