<svg xmlns="http://www.w3.org/2000/svg">
          <symbol id="fw-icon-duotone-faucet-drip" viewBox="0 0 512 512">
            <path d="M224 80L96 96C78.3 96 64 81.7 64 64s14.3-32 32-32L224 48 352 32c17.7 0 32 14.3 32 32s-14.3 32-32 32L224 80zM436.8 423.4c1.9-4.5 6.3-7.4 11.2-7.4s9.2 2.9 11.2 7.4l18.2 42.4c1.8 4.1 2.7 8.6 2.7 13.1V480c0 17.7-14.3 32-32 32s-32-14.3-32-32v-1.2c0-4.5 .9-8.9 2.7-13.1l18.2-42.4z"/>
          </symbol>
        </svg>.1-9.4-22.6-9.4H256V84l-32-4-32 4z"/>
          </symbol>
        </svg>