<svg xmlns="http://www.w3.org/2000/svg">
          <symbol id="fw-icon-duotone-bed-front" viewBox="0 0 512 512">
            <path d="M32 80c0-26.5 21.5-48 48-48H432c26.5 0 48 21.5 48 48V232.6c-9.4-5.4-20.3-8.6-32-8.6H432V160c0-17.7-14.3-32-32-32H304c-17.7 0-32 14.3-32 32v64H240V160c0-17.7-14.3-32-32-32H112c-17.7 0-32 14.3-32 32v64H64c-11.7 0-22.6 3.1-32 8.6V80zm0 272H480h32v32 64c0 17.7-14.3 32-32 32s-32-14.3-32-32V416H64v32c0 17.7-14.3 32-32 32s-32-14.3-32-32V384 352H32z"/>
          </symbol>
        </svg>