<svg xmlns="http://www.w3.org/2000/svg">
          <symbol id="fw-icon-duotone-bee" viewBox="0 0 576 512">
            <path d="M196.7 4.7c6.2-6.2 16.4-6.2 22.6 0l34.8 34.8C264.4 34.7 275.9 32 288 32s23.6 2.7 33.9 7.5L356.7 4.7c6.2-6.2 16.4-6.2 22.6 0s6.2 16.4 0 22.6L347.8 58.8C360.4 73 368 91.6 368 112c0 23.2-9.8 44-25.6 58.6c37.9 15.5 67.7 46.6 81.4 85.4H152.2c13.7-38.8 43.5-69.9 81.4-85.4C217.8 156 208 135.2 208 112c0-20.4 7.6-39 20.2-53.2L196.7 27.3c-6.2-6.2-6.2-16.4 0-22.6zM144 304c0-5.4 .3-10.7 .9-16H431.1c.6 5.3 .9 10.6 .9 16c0 10.5-1.6 21.3-4.6 32H148.6c-2.9-10.7-4.6-21.5-4.6-32zm45.9 112c-11.1-15.2-21.3-31.4-29.2-48H415.3c-8 16.6-18.1 32.8-29.2 48H189.9zm84 90.8c-10.8-9.4-34.3-30.9-58.5-58.8H360.6c-24.2 27.9-47.8 49.4-58.5 58.8c-3.9 3.4-8.9 5.2-14.1 5.2s-10.2-1.8-14.1-5.2z"/>
          </symbol>
        </svg>