<svg xmlns="http://www.w3.org/2000/svg">
          <symbol id="fw-icon-duotone-horse-saddle" viewBox="0 0 576 512">
            <path d="M160 128H320v48c0 38.7-27.5 71-64 78.4V328c0 8.8-7.2 16-16 16s-16-7.2-16-16V254.4c-36.5-7.4-64-39.7-64-78.4V128zM64 212.8c0 3.6 .2 7.1 .7 10.7C54.6 230.8 48 242.6 48 256v56c0 13.3-10.7 24-24 24s-24-10.7-24-24V256c0-44.6 33.2-81.5 76.3-87.2C68.5 181.6 64 196.7 64 212.8z"/>
          </symbol>
        </svg>.2 31.5-45.7 32-75.7h0v-1.9zM224 254.4c-36.5-7.4-64-39.7-64-78.4V128H148.8C102 128 64 166 64 212.8c0 16.8 5 33.1 14.2 47.1l28.2 42.4c8.3 12.4 6.4 28.7-1.2 41.6c-16.5 28-20.6 62.2-10 93.9l17.5 52.4c4.4 13.1 16.6 21.9 30.4 21.9h33.7c21.8 0 37.3-21.4 30.4-42.1l-20.8-62.5c-2.1-6.4-.5-13.4 4.3-18.2l12.7-12.7c13.2-13.2 20.6-31.1 20.6-49.7c0-2.3-.1-4.6-.3-6.9l.3 .1V254.4zM496 64a16 16 0 1 1 0 32 16 16 0 1 1 0-32z"/>
          </symbol>
        </svg>