<svg xmlns="http://www.w3.org/2000/svg">
          <symbol id="fw-icon-duotone-solar-panel" viewBox="0 0 640 512">
            <path d="M379.1 64H260.9L250.5 168h139L379.1 64zM212.7 64H122.2L101.4 168H202.3L212.7 64zM197.5 216H91.8L71 320h116l10.4-104zm196.8 0H245.7L235.3 320l169.4 0L394.3 216zm58.6 104H569L548.2 216H442.5l10.4 104zM517.8 64H427.3l10.4 104H538.6L517.8 64zM416 448H352V384H288v64H224c-17.7 0-32 14.3-32 32s14.3 32 32 32H416c17.7 0 32-14.3 32-32s-14.3-32-32-32z"/>
          </symbol>
        </svg>