<svg xmlns="http://www.w3.org/2000/svg">
          <symbol id="fw-icon-duotone-joint" viewBox="0 0 640 512">
            <path d="M214.7 358c5.2-.8 10.5-.3 15.2 2c10.2 4.9 19.3 12 26.7 20.8L358.9 503.7c2.6 3.2 .5 8.3-3.6 8.3H288c-59.2 0-127.7-14.7-180.2-28.8C81.3 476 58.3 468.9 42 463.6c-8.2-2.7-14.7-4.9-19.2-6.5c-2.3-.8-4-1.4-5.2-1.8l-1.3-.5C6.8 451.5 0 442.6 0 432s6.8-19.5 16.3-22.7l1.3-.5c1.2-.4 3-1.1 5.2-1.8c4.5-1.6 11-3.8 19.2-6.5c16.3-5.4 39.2-12.5 65.7-19.6c31.7-8.5 69.2-17.3 106.9-22.8zM464 512H445c-23.7 0-46.3-10.5-61.5-28.8L281.1 360.3c-2.6-3.2-.6-8.2 3.5-8.3c1.1 0 2.3 0 3.4 0h48 19c23.7 0 46.3 10.5 61.5 28.8L518.9 503.7c2.6 3.2 .5 8.3-3.6 8.3H464zM444.7 352H600c22.1 0 40 17.9 40 40v80c0 21.4-16.8 38.9-37.9 39.9c-22.7-.8-44-11.2-58.6-28.7L441.1 360.3c-2.6-3.2-.5-8.3 3.6-8.3z"/>
          </symbol>
        </svg>