<svg xmlns="http://www.w3.org/2000/svg">
          <symbol id="fw-icon-duotone-person-circle-question" viewBox="0 0 576 512">
            <path d="M288 368a144 144 0 1 1 288 0 144 144 0 1 1 -288 0zm168 72a24 24 0 1 0 -48 0 24 24 0 1 0 48 0zM409.6 280c-23 0-41.6 18.6-41.6 41.6l0 6.4c0 8.8 7.2 16 16 16s16-7.2 16-16l0-6.4c0-5.3 4.3-9.6 9.6-9.6h40.5c7.7 0 13.9 6.2 13.9 13.9c0 5.2-2.9 9.9-7.4 12.3l-32 16.8c-5.3 2.8-8.6 8.2-8.6 14.2V384c0 8.8 7.2 16 16 16s16-7.2 16-16v-5.1l23.5-12.3c15.1-7.9 24.5-23.6 24.5-40.6c0-25.4-20.6-45.9-45.9-45.9H409.6z"/>
          </symbol>
        </svg>