<svg xmlns="http://www.w3.org/2000/svg">
          <symbol id="fw-icon-duotone-album-collection-circle-plus" viewBox="0 0 640 512">
            <path d="M352 368a144 144 0 1 1 288 0 144 144 0 1 1 -288 0zm144-80c-8.8 0-16 7.2-16 16v48H432c-8.8 0-16 7.2-16 16s7.2 16 16 16h48v48c0 8.8 7.2 16 16 16s16-7.2 16-16V384h48c8.8 0 16-7.2 16-16s-7.2-16-16-16H512V304c0-8.8-7.2-16-16-16z"/>
          </symbol>
        </svg>08 72 268.9 72 344s82.4 136 184 136c33.2 0 64.4-6.5 91.3-17.9c12.4 19.6 28.6 36.6 47.5 49.9H80c-24.2 0-44.6-18-47.6-42L.4 214c-1.7-13.7 2.5-27.4 11.6-37.7zM288 352c0 13.3-14.3 24-32 24s-32-10.7-32-24s14.3-24 32-24s32 10.7 32 24zM16 104c0-13.3 10.7-24 24-24H472c13.3 0 24 10.7 24 24s-10.7 24-24 24H40c-13.3 0-24-10.7-24-24z"/>
          </symbol>
        </svg>