<svg xmlns="http://www.w3.org/2000/svg">
          <symbol id="fw-icon-duotone-ticket-airline" viewBox="0 0 640 512">
            <path d="M147.5 138.5L176 224H120l-19.2-25.6c-3-4-7.8-6.4-12.8-6.4H74.2c-5.2 0-9 4.9-7.8 9.9L79 252.1c.6 2.5 .6 5.2 0 7.8L66.5 310.1c-1.3 5 2.6 9.9 7.8 9.9H88c5 0 9.8-2.4 12.8-6.4L120 288h56l-28.5 85.5c-1.7 5.2 2.1 10.5 7.6 10.5h31.1c8.5 0 16.4-4.5 20.7-11.9L256 288h46.9c16.1 0 31.5-6.4 42.8-17.7c7.9-7.9 7.9-20.7 0-28.5C334.4 230.4 319 224 302.9 224H256l-49.1-84.1c-4.3-7.4-12.2-11.9-20.7-11.9H155.1c-5.5 0-9.3 5.3-7.6 10.5z"/>
          </symbol>
        </svg>h31.1c8.5 0 16.4 4.5 20.7 11.9L256 224h46.9c16.1 0 31.5 6.4 42.8 17.7c7.9 7.9 7.9 20.7 0 28.5C334.4 281.6 319 288 302.9 288H256l-49.1 84.1c-4.3 7.4-12.2 11.9-20.7 11.9H155.1c-5.5 0-9.3-5.4-7.6-10.5L176 288H120l-19.2 25.6c-3 4-7.8 6.4-12.8 6.4H74.2c-5.2 0-9-4.9-7.8-9.9L79 259.9c.6-2.5 .6-5.2 0-7.8L66.5 201.9c-1.3-5 2.6-9.9 7.8-9.9H88c5 0 9.8 2.4 12.8 6.4L120 224h56z"/>
          </symbol>
        </svg>