<svg xmlns="http://www.w3.org/2000/svg">
          <symbol id="fw-icon-duotone-microchip" viewBox="0 0 512 512">
            <path d="M152 0c-13.3 0-24 10.7-24 24V64h48V24c0-13.3-10.7-24-24-24zm80 24V64h48V24c0-13.3-10.7-24-24-24s-24 10.7-24 24zm104 0V64h48V24c0-13.3-10.7-24-24-24s-24 10.7-24 24zM488 128H448v48h40c13.3 0 24-10.7 24-24s-10.7-24-24-24zm0 104H448v48h40c13.3 0 24-10.7 24-24s-10.7-24-24-24zm0 104H448v48h40c13.3 0 24-10.7 24-24s-10.7-24-24-24zM384 488V448H336v40c0 13.3 10.7 24 24 24s24-10.7 24-24zM280 448H232v40c0 13.3 10.7 24 24 24s24-10.7 24-24V448zm-104 0H128v40c0 13.3 10.7 24 24 24s24-10.7 24-24V448zM24 384H64V336H24c-13.3 0-24 10.7-24 24s10.7 24 24 24zM64 280V232H24c-13.3 0-24 10.7-24 24s10.7 24 24 24H64zM24 128c-13.3 0-24 10.7-24 24s10.7 24 24 24H64V128H24zm328 32H160V352H352V160z"/>
          </symbol>
        </svg>