<svg xmlns="http://www.w3.org/2000/svg">
          <symbol id="fw-icon-duotone-flower-daffodil" viewBox="0 0 512 512">
            <path d="M320 288c-26.2 0-49.4-12.6-64-32c-14.6 19.4-37.8 32-64 32c-44.2 0-80-35.8-80-80c0-26.2 12.6-49.4 32-64c-19.4-14.6-32-37.8-32-64c0-44.2 35.8-80 80-80c26.2 0 49.4 12.6 64 32c14.6-19.4 37.8-32 64-32c44.2 0 80 35.8 80 80c0 26.2-12.6 49.4-32 64c19.4 14.6 32 37.8 32 64c0 44.2-35.8 80-80 80zm-64-96a48 48 0 1 0 0-96 48 48 0 1 0 0 96z"/>
          </symbol>
        </svg>