<svg xmlns="http://www.w3.org/2000/svg">
          <symbol id="fw-icon-duotone-face-thinking" viewBox="0 0 512 512">
            <path d="M143 121.9c23.5-13.4 52.9-10.6 73.4 7l13.2 11.3c6.7 5.8 16.8 5 22.6-1.7s5-16.8-1.7-22.6l-13.2-11.3C206.4 78.1 162.3 74 127.1 94.1l-7.1 4c-7.7 4.4-10.3 14.2-6 21.8s14.2 10.3 21.8 6l7.1-4zM176.4 208a32 32 0 1 0 0-64 32 32 0 1 0 0 64zM112 352c0-13.3-10.7-24-24-24s-24 10.7-24 24V464c0 26.5 21.5 48 48 48h47.2c20.2 0 38.2-12.6 45.1-31.6l26.1-71.7 49.8-18.1c12.5-4.5 18.9-18.3 14.4-30.8s-18.3-18.9-30.8-14.4L112 400.6V352zM368.4 192a32 32 0 1 0 -64 0 32 32 0 1 0 64 0z"/>
          </symbol>
        </svg>.1-4c35.2-20.1 79.3-15.9 110.1 10.5l13.2 11.3c6.7 5.8 7.5 15.9 1.7 22.6s-15.9 7.5-22.6 1.7l-13.2-11.3z"/>
          </symbol>
        </svg>