<svg xmlns="http://www.w3.org/2000/svg">
          <symbol id="fw-icon-duotone-lights-holiday" viewBox="0 0 640 512">
            <path d="M139.9 227.4c-41.5-15.1-87.4 6.3-102.5 47.8C21 320.3 46.2 414.6 68.8 422.8s102.5-47.8 119-92.9c15.1-41.5-6.3-87.4-47.8-102.5zM320 256c-44.2 0-80 35.8-80 80c0 48 56 128 80 128s80-80 80-128c0-44.2-35.8-80-80-80zm282.6 19.2c-15.1-41.5-61-62.9-102.5-47.8s-62.9 61-47.8 102.5c16.4 45.1 96.4 101.1 119 92.9s47.8-102.5 31.4-147.6z"/>
          </symbol>
        </svg>2 .1-.4 .3c-.3 .2-.7 .5-1.2 .8c-1 .6-2.4 1.5-4.2 2.5c-3.6 2.1-8.7 4.9-15.3 8.2c-13.3 6.6-32.7 15.2-58.2 23.7c-10.2 3.4-21.4 6.8-33.5 10l19.8 54.3c-10.7-.7-21.7 .8-32.3 4.7s-20.1 9.8-27.8 17.2l-22.8-62.7c-28.9 4.7-61.4 8.2-97.4 9.6v71.2c-9.8-4.3-20.6-6.7-32-6.7s-22.2 2.4-32 6.7V191.4c-36-1.3-68.5-4.8-97.4-9.6l-22.8 62.7c-7.7-7.4-17.1-13.3-27.8-17.2s-21.7-5.4-32.3-4.7l19.8-54.3c-12.1-3.2-23.3-6.6-33.5-10c-25.5-8.5-44.9-17.1-58.2-23.7c-6.6-3.3-11.7-6.1-15.3-8.2c-1.8-1-3.2-1.9-4.2-2.5c-.5-.3-.9-.6-1.2-.8l-.4-.3-.1-.1-.1 0 0 0c0 0 0 0 17.7-26.6L14.2 122.6C-.5 112.8-4.4 93 5.4 78.2z"/>
          </symbol>
        </svg>