<svg xmlns="http://www.w3.org/2000/svg">
          <symbol id="fw-icon-duotone-arrows-minimize" viewBox="0 0 512 512">
            <path d="M9.4 9.4C21.9-3.1 42.1-3.1 54.6 9.4L160 114.7V64c0-17.7 14.3-32 32-32s32 14.3 32 32V192c0 17.7-14.3 32-32 32H64c-17.7 0-32-14.3-32-32s14.3-32 32-32h50.7L9.4 54.6C-3.1 42.1-3.1 21.9 9.4 9.4zM288 320c0-17.7 14.3-32 32-32H448c17.7 0 32 14.3 32 32s-14.3 32-32 32H397.3L502.6 457.4c12.5 12.5 12.5 32.8 0 45.3s-32.8 12.5-45.3 0L352 397.3V448c0 17.7-14.3 32-32 32s-32-14.3-32-32V320z"/>
          </symbol>
        </svg>