<svg xmlns="http://www.w3.org/2000/svg">
          <symbol id="fw-icon-duotone-star-shooting" viewBox="0 0 512 512">
            <path d="M313 7c-9.4-9.4-24.6-9.4-33.9 0L231 55c-9.4 9.4-9.4 24.6 0 33.9s24.6 9.4 33.9 0l48-48c9.4-9.4 9.4-24.6 0-33.9zM505 199c-9.4-9.4-24.6-9.4-33.9 0l-48 48c-9.4 9.4-9.4 24.6 0 33.9s24.6 9.4 33.9 0l48-48c9.4-9.4 9.4-24.6 0-33.9zM505 41c9.4-9.4 9.4-24.6 0-33.9s-24.6-9.4-33.9 0L327 151c-9.4 9.4-9.4 24.6 0 33.9s24.6 9.4 33.9 0L505 41z"/>
          </symbol>
        </svg>