<svg xmlns="http://www.w3.org/2000/svg">
          <symbol id="fw-icon-duotone-flask-round-poison" viewBox="0 0 448 512">
            <path d="M288 398.4c0-8.8 4.9-16.7 12-21.8c22.1-16.1 36-39.1 36-64.6c0-48.6-50.1-88-112-88s-112 39.4-112 88c0 25.5 13.9 48.6 36 64.6c7.1 5.2 12 13 12 21.8V408c0 13.3 10.7 24 24 24h80c13.3 0 24-10.7 24-24v-9.6zM160 312a24 24 0 1 1 48 0 24 24 0 1 1 -48 0zm104-24a24 24 0 1 1 0 48 24 24 0 1 1 0-48z"/>
          </symbol>
        </svg>352c0-76.8-41.6-143.8-103.5-179.9zM300 376.6c-7.1 5.2-12 13-12 21.8V408c0 13.3-10.7 24-24 24H184c-13.3 0-24-10.7-24-24v-9.6c0-8.8-4.9-16.7-12-21.8c-22.1-16.1-36-39.1-36-64.6c0-48.6 50.1-88 112-88s112 39.4 112 88c0 25.5-13.9 48.6-36 64.6z"/>
          </symbol>
        </svg>