<svg xmlns="http://www.w3.org/2000/svg">
          <symbol id="fw-icon-duotone-square-kanban" viewBox="0 0 448 512">
            <path d="M64 480c-35.3 0-64-28.7-64-64V96C0 60.7 28.7 32 64 32H384c35.3 0 64 28.7 64 64V416c0 35.3-28.7 64-64 64H64zm64-160c17.7 0 32-14.3 32-32V160c0-17.7-14.3-32-32-32s-32 14.3-32 32V288c0 17.7 14.3 32 32 32zm160 32c0 17.7 14.3 32 32 32s32-14.3 32-32V160c0-17.7-14.3-32-32-32s-32 14.3-32 32V352zm-64-96c17.7 0 32-14.3 32-32V160c0-17.7-14.3-32-32-32s-32 14.3-32 32v64c0 17.7 14.3 32 32 32z"/>
          </symbol>
        </svg>