<svg xmlns="http://www.w3.org/2000/svg">
          <symbol id="fw-icon-duotone-guitar-electric" viewBox="0 0 512 512">
            <path d="M233.4 450.1c7.5-25.2 22.5-65.6 47.2-90.6c10-10.1 20-16 28.3-19.3c.4-.2 .8-.3 1.1-.5c11.3-4.6 23-9.4 31.6-18l21.6-21.8c6.5-6.6 6.5-17.3 0-23.8s-17.3-6.6-25.8-3c-14.6 6.2-39.3 8.7-68.5-20.9L257 240.2c-31.9-32.2-20.7-64.5-10-82c4.8-7.9 4.8-18.7-1.7-25.3s-17.1-6.6-23.6 0l-29.9 30.2c-9.1 9.2-14.7 21.5-20.2 33.5c-1.2 2.6-2.3 5.1-3.5 7.6c-3.5 7.3-8.9 15.7-17.1 24c-24.7 25-64.7 40.2-89.6 47.7c-14.5 4.4-28.1 11.7-38.7 22.4c-30 30.4-30 79.6 0 110l79.9 80.8c30 30.4 78.7 30.4 108.8 0c10.7-10.8 17.9-24.5 22.2-39.2zM195.3 268.7l48 48c6.2 6.2 6.2 16.4 0 22.6s-16.4 6.2-22.6 0l-48-48c-6.2-6.2-6.2-16.4 0-22.6s16.4-6.2 22.6 0zm-64 64l48 48c6.2 6.2 6.2 16.4 0 22.6s-16.4 6.2-22.6 0l-48-48c-6.2-6.2-6.2-16.4 0-22.6s16.4-6.2 22.6 0z"/>
          </symbol>
        </svg>