<svg xmlns="http://www.w3.org/2000/svg">
          <symbol id="fw-icon-duotone-file-circle-xmark" viewBox="0 0 576 512">
            <path d="M384 160L224 0V128c0 17.7 14.3 32 32 32H384zm48 352a144 144 0 1 0 0-288 144 144 0 1 0 0 288zm59.3-180.7L454.6 368l36.7 36.7c6.2 6.2 6.2 16.4 0 22.6s-16.4 6.2-22.6 0L432 390.6l-36.7 36.7c-6.2 6.2-16.4 6.2-22.6 0s-6.2-16.4 0-22.6L409.4 368l-36.7-36.7c-6.2-6.2-6.2-16.4 0-22.6s16.4-6.2 22.6 0L432 345.4l36.7-36.7c6.2-6.2 16.4-6.2 22.6 0s6.2 16.4 0 22.6z"/>
          </symbol>
        </svg>