<svg xmlns="http://www.w3.org/2000/svg">
          <symbol id="fw-icon-duotone-train-subway" viewBox="0 0 448 512">
            <path d="M0 96C0 43 43 0 96 0H352c53 0 96 43 96 96V352c0 53-43 96-96 96H96c-53 0-96-43-96-96V96zm64 32v96c0 17.7 14.3 32 32 32h80c17.7 0 32-14.3 32-32V128c0-17.7-14.3-32-32-32H96c-17.7 0-32 14.3-32 32zM272 96c-17.7 0-32 14.3-32 32v96c0 17.7 14.3 32 32 32h80c17.7 0 32-14.3 32-32V128c0-17.7-14.3-32-32-32H272zM128 352a32 32 0 1 0 -64 0 32 32 0 1 0 64 0zm224 32a32 32 0 1 0 0-64 32 32 0 1 0 0 64z"/>
          </symbol>
        </svg>z"/>
          </symbol>
        </svg>