<svg xmlns="http://www.w3.org/2000/svg">
          <symbol id="fw-icon-duotone-bezier-curve" viewBox="0 0 640 512">
            <path d="M240 84H121.6C111.2 62.7 89.3 48 64 48C28.7 48 0 76.7 0 112s28.7 64 64 64c25.3 0 47.2-14.7 57.6-36h66.9c-58.9 39.6-98.9 105-104 180h56.2c5.9-67 48.5-123.4 107.5-149.1C243 163.2 240 154 240 144V84zm151.8 86.9c59 25.7 101.6 82.1 107.5 149.1h56.2c-5-75-45.1-140.4-104-180h66.9c10.4 21.3 32.3 36 57.6 36c35.3 0 64-28.7 64-64s-28.7-64-64-64c-25.3 0-47.2 14.7-57.6 36H400v60c0 10-3 19.2-8.2 26.9z"/>
          </symbol>
        </svg>