<svg xmlns="http://www.w3.org/2000/svg">
          <symbol id="fw-icon-duotone-battery-bolt" viewBox="0 0 576 512">
            <path d="M299.2 96l-80 64H80c-8.8 0-16 7.2-16 16V336c0 8.8 7.2 16 16 16h90.3l-5.3 10.5c-8.9 17.8-5.8 39 7.2 53.5H80c-44.2 0-80-35.8-80-80V176c0-44.2 35.8-80 80-80H299.2zm25.7 256H464c8.8 0 16-7.2 16-16V176c0-8.8-7.2-16-16-16H373.7l5.3-10.5c8.9-17.8 5.8-39-7.2-53.5H464c44.2 0 80 35.8 80 80v16c17.7 0 32 14.3 32 32v64c0 17.7-14.3 32-32 32v16c0 44.2-35.8 80-80 80H244.8l80-64z"/>
          </symbol>
        </svg>