<svg xmlns="http://www.w3.org/2000/svg">
          <symbol id="fw-icon-duotone-keyboard-down" viewBox="0 0 576 512">
            <path d="M0 64C0 28.7 28.7 0 64 0H512c35.3 0 64 28.7 64 64V224c0 35.3-28.7 64-64 64H64c-35.3 0-64-28.7-64-64V64zM64 80v32c0 8.8 7.2 16 16 16h32c8.8 0 16-7.2 16-16V80c0-8.8-7.2-16-16-16H80c-8.8 0-16 7.2-16 16zm16 80c-8.8 0-16 7.2-16 16v32c0 8.8 7.2 16 16 16h32c8.8 0 16-7.2 16-16V176c0-8.8-7.2-16-16-16H80zm80 16v32c0 8.8 7.2 16 16 16H400c8.8 0 16-7.2 16-16V176c0-8.8-7.2-16-16-16H176c-8.8 0-16 7.2-16 16zm304-16c-8.8 0-16 7.2-16 16v32c0 8.8 7.2 16 16 16h32c8.8 0 16-7.2 16-16V176c0-8.8-7.2-16-16-16H464zM160 80v32c0 8.8 7.2 16 16 16h32c8.8 0 16-7.2 16-16V80c0-8.8-7.2-16-16-16H176c-8.8 0-16 7.2-16 16zM272 64c-8.8 0-16 7.2-16 16v32c0 8.8 7.2 16 16 16h32c8.8 0 16-7.2 16-16V80c0-8.8-7.2-16-16-16H272zm80 16v32c0 8.8 7.2 16 16 16h32c8.8 0 16-7.2 16-16V80c0-8.8-7.2-16-16-16H368c-8.8 0-16 7.2-16 16zM464 64c-8.8 0-16 7.2-16 16v32c0 8.8 7.2 16 16 16h32c8.8 0 16-7.2 16-16V80c0-8.8-7.2-16-16-16H464z"/>
          </symbol>
        </svg>