<svg xmlns="http://www.w3.org/2000/svg">
          <symbol id="fw-icon-duotone-circle-sterling" viewBox="0 0 512 512">
            <path d="M231.2 190.5c-.1-16.8 13.5-30.5 30.3-30.5c3.9 0 7.7 .7 11.3 2.2l30.3 12.1c12.3 4.9 26.3-1.1 31.2-13.4s-1.1-26.3-13.4-31.2l-30.3-12.1c-9.2-3.7-19.1-5.6-29.1-5.6c-43.5 0-78.6 35.4-78.3 78.9l.2 33.1c-13 .3-23.5 10.9-23.5 24c0 13.1 10.6 23.8 23.6 24c-.7 14.8-4.6 29.2-11.4 42.4L162.7 333c-3.8 7.4-3.5 16.3 .8 23.5s12.1 11.5 20.5 11.5H328c13.3 0 24-10.7 24-24s-10.7-24-24-24H222.2c5.7-15.4 9-31.6 9.5-48H264c13.3 0 24-10.7 24-24s-10.7-24-24-24H231.5l-.2-33.5z"/>
          </symbol>
        </svg>.3-2.2z"/>
          </symbol>
        </svg>