<svg xmlns="http://www.w3.org/2000/svg">
          <symbol id="fw-icon-duotone-face-zany" viewBox="0 0 512 512">
            <path d="M296 104a32 32 0 1 1 0 64 32 32 0 1 1 0-64zM104 224a24 24 0 1 1 48 0 24 24 0 1 1 -48 0zM336.1 402.6V448c0 35.3-28.7 64-64 64s-64-28.7-64-64V402.6c0-14.7 11.9-26.6 26.6-26.6h2c11.3 0 21.1 7.9 23.6 18.9c2.8 12.6 20.8 12.6 23.6 0c2.5-11.1 12.3-18.9 23.6-18.9h2c14.7 0 26.6 11.9 26.6 26.6z"/>
          </symbol>
        </svg>407.1 5.6 477.8 128zM192 224A64 64 0 1 0 64 224a64 64 0 1 0 128 0zm120 0a72 72 0 1 0 0-144 72 72 0 1 0 0 144z"/>
          </symbol>
        </svg>