<svg xmlns="http://www.w3.org/2000/svg">
          <symbol id="fw-icon-duotone-treasure-chest" viewBox="0 0 576 512">
            <path d="M160 32V256H96V36c10.2-2.6 21-4 32-4h32zM416 256V32h32c11 0 21.8 1.4 32 4V256H416zM224 224c0-17.7 14.3-32 32-32h64c17.7 0 32 14.3 32 32v96c0 17.7-14.3 32-32 32H256c-17.7 0-32-14.3-32-32V224zm64 0c-8.8 0-16 7.2-16 16v64c0 8.8 7.2 16 16 16s16-7.2 16-16V240c0-8.8-7.2-16-16-16zM160 480H96V288h64V480zm256 0V288h64V480H416z"/>
          </symbol>
        </svg>    </svg>