<svg xmlns="http://www.w3.org/2000/svg">
          <symbol id="fw-icon-duotone-fishing-rod" viewBox="0 0 448 512">
            <path d="M345 195.9c-33.5 20.3-89 76.6-89 148.1c0 32 16 80 64 112l-27.3 27.3c-3 3-4.7 7.1-4.7 11.3V496c0 8.8 7.2 16 16 16h96c8.8 0 16-7.2 16-16v-1.4c0-4.2-1.7-8.3-4.7-11.3L384 456c48-32 64-80 64-112c0-71.6-55.6-127.8-89-148.1c-4.3-2.6-9.6-2.6-14 0zM360 288a24 24 0 1 1 0 48 24 24 0 1 1 0-48z"/>
          </symbol>
        </svg>1.8-161.5L287 49.2z"/>
          </symbol>
        </svg>