<svg xmlns="http://www.w3.org/2000/svg">
          <symbol id="fw-icon-duotone-truck-container" viewBox="0 0 640 512">
            <path d="M48 32C21.5 32 0 53.5 0 80V224c0 26.5 21.5 48 48 48H352c26.5 0 48-21.5 48-48V80c0-26.5-21.5-48-48-48H48zM80 72c8.8 0 16 7.2 16 16V216c0 8.8-7.2 16-16 16s-16-7.2-16-16V88c0-8.8 7.2-16 16-16zM224 88c0-8.8 7.2-16 16-16s16 7.2 16 16V216c0 8.8-7.2 16-16 16s-16-7.2-16-16V88zM160 72c8.8 0 16 7.2 16 16V216c0 8.8-7.2 16-16 16s-16-7.2-16-16V88c0-8.8 7.2-16 16-16zM304 88c0-8.8 7.2-16 16-16s16 7.2 16 16V216c0 8.8-7.2 16-16 16s-16-7.2-16-16V88zM32 416a64 64 0 1 0 128 0A64 64 0 1 0 32 416zm160 0a64 64 0 1 0 128 0 64 64 0 1 0 -128 0zm288 0a64 64 0 1 0 128 0 64 64 0 1 0 -128 0z"/>
          </symbol>
        </svg>