<svg xmlns="http://www.w3.org/2000/svg">
          <symbol id="fw-icon-duotone-pen-nib-slash" viewBox="0 0 640 512">
            <path d="M306.4 337.4L404.9 415c-3.3 1.8-6.8 3.4-10.5 4.6L130.2 508.2c-11.3 3.8-23.9 1-32.4-7.3L251.3 347.3c6.3 3 13.3 4.7 20.7 4.7c13.5 0 25.7-5.6 34.4-14.6zm-160-126.1l85 67c-4.7 7.4-7.4 16.2-7.4 25.7c0 7.4 1.7 14.4 4.7 20.7L75.1 478.3c-8.3-8.6-11.2-21.1-7.3-32.4l78.6-234.5zm332.3 21.9l-28.3 94.4L208.1 137.8 342.8 97.3l9.2-2.8L481.4 224l-2.8 9.2zM432.4 18.3c21.9-21.9 57.3-21.9 79.2 0l46.1 46.1c21.9 21.9 21.9 57.3 0 79.2l-55.7 55.7L376.7 74.1l55.7-55.7z"/>
          </symbol>
        </svg>