<svg xmlns="http://www.w3.org/2000/svg">
          <symbol id="fw-icon-duotone-tty" viewBox="0 0 512 512">
            <path d="M48 320c-8.8 0-16 7.2-16 16v32c0 8.8 7.2 16 16 16H80c8.8 0 16-7.2 16-16V336c0-8.8-7.2-16-16-16H48zm0 96c-8.8 0-16 7.2-16 16v32c0 8.8 7.2 16 16 16H80c8.8 0 16-7.2 16-16V432c0-8.8-7.2-16-16-16H48zm80-80v32c0 8.8 7.2 16 16 16h32c8.8 0 16-7.2 16-16V336c0-8.8-7.2-16-16-16H144c-8.8 0-16 7.2-16 16zm112-16c-8.8 0-16 7.2-16 16v32c0 8.8 7.2 16 16 16h32c8.8 0 16-7.2 16-16V336c0-8.8-7.2-16-16-16H240zm80 16v32c0 8.8 7.2 16 16 16h32c8.8 0 16-7.2 16-16V336c0-8.8-7.2-16-16-16H336c-8.8 0-16 7.2-16 16zm112-16c-8.8 0-16 7.2-16 16v32c0 8.8 7.2 16 16 16h32c8.8 0 16-7.2 16-16V336c0-8.8-7.2-16-16-16H432zM416 432v32c0 8.8 7.2 16 16 16h32c8.8 0 16-7.2 16-16V432c0-8.8-7.2-16-16-16H432c-8.8 0-16 7.2-16 16zM144 416c-8.8 0-16 7.2-16 16v32c0 8.8 7.2 16 16 16H368c8.8 0 16-7.2 16-16V432c0-8.8-7.2-16-16-16H144z"/>
          </symbol>
        </svg>