<svg xmlns="http://www.w3.org/2000/svg">
          <symbol id="fw-icon-duotone-snowflake" viewBox="0 0 448 512">
            <path d="M224 0c17.7 0 32 14.3 32 32V200.3l143.9-83.9c15.3-8.9 34.9-3.7 43.8 11.5s3.8 34.9-11.5 43.8L287.5 256l144.6 84.4c15.3 8.9 20.4 28.5 11.5 43.8s-28.5 20.4-43.8 11.5L256 311.7V480c0 17.7-14.3 32-32 32s-32-14.3-32-32V311.7L48.1 395.6c-15.3 8.9-34.9 3.7-43.8-11.5s-3.7-34.9 11.5-43.8L160.5 256 15.9 171.6C.6 162.7-4.5 143.1 4.4 127.9s28.5-20.4 43.8-11.5L192 200.3V32c0-17.7 14.3-32 32-32z"/>
          </symbol>
        </svg>v67.9l-15 15c-9.4 9.4-24.6 9.4-33.9 0s-9.4-24.6 0-33.9l49-49zm64 67.9V382.1l49 49c9.4 9.4 9.4 24.6 0 33.9s-24.6 9.4-33.9 0l-15-15zm61.4-102.4l58.9 34.4 5.2 19.3c3.4 12.8-4.2 26-17 29.4s-26-4.2-29.4-17l-17.7-66.1zm89.4-21.9l-58.4-34.1 67.7-18.1c12.8-3.4 26 4.2 29.4 17s-4.2 26-17 29.4l-21.7 5.8zM348.4 220.5l58.4-34.1 21.7 5.8c12.8 3.4 20.4 16.6 17 29.4s-16.6 20.4-29.4 17l-67.7-18.1zm27.9-90.4l-58.9 34.4 17.7-66.1c3.4-12.8 16.6-20.4 29.4-17s20.4 16.6 17 29.4l-5.2 19.3zM256 129.9V62.1l15-15c9.4-9.4 24.6-9.4 33.9 0s9.4 24.6 0 33.9l-49 49z"/>
          </symbol>
        </svg>