<svg xmlns="http://www.w3.org/2000/svg">
          <symbol id="fw-icon-duotone-donut" viewBox="0 0 512 512">
            <path d="M171.3 123.3l-32 32c-6.2 6.2-16.4 6.2-22.6 0s-6.2-16.4 0-22.6l32-32c6.2-6.2 16.4-6.2 22.6 0s6.2 16.4 0 22.6zm224 9.4l32 32c6.2 6.2 6.2 16.4 0 22.6s-16.4 6.2-22.6 0l-32-32c-6.2-6.2-6.2-16.4 0-22.6s16.4-6.2 22.6 0zm-64 150.6l-32 32c-6.2 6.2-16.4 6.2-22.6 0s-6.2-16.4 0-22.6l32-32c6.2-6.2 16.4-6.2 22.6 0s6.2 16.4 0 22.6zM197.7 372.4c18.4 7.8 38.3 11.7 58.3 11.6c20 .2 39.9-3.7 58.3-11.6c14.4-6 29.8-9 45.4-8.8c18.8 1.6 37.8-1.8 54.9-9.7s32-20.2 43-35.5c5.8-9 14.4-15.9 24.4-19.6c11.6-3.8 22-10.6 29.9-19.9V304c0 88.4-114.6 160-256 160S0 392.4 0 304V278.8c7.9 9.2 18.3 16.1 29.9 19.8c10 3.8 18.5 10.6 24.4 19.6c11 15.4 25.8 27.7 43 35.6s36.1 11.3 55 9.8c15.6-.2 31 2.9 45.4 8.8z"/>
          </symbol>
        </svg>6.2 6.2 16.4 6.2 22.6 0s6.2-16.4 0-22.6l-32-32zM64 192c-8.8 0-16 7.2-16 16s7.2 16 16 16H96c8.8 0 16-7.2 16-16s-7.2-16-16-16H64zm331.3 36.7c-6.2-6.2-16.4-6.2-22.6 0s-6.2 16.4 0 22.6l32 32c6.2 6.2 16.4 6.2 22.6 0s6.2-16.4 0-22.6l-32-32zm-240 16c-6.2-6.2-16.4-6.2-22.6 0s-6.2 16.4 0 22.6l32 32c6.2 6.2 16.4 6.2 22.6 0s6.2-16.4 0-22.6l-32-32zm176 38.6c6.2-6.2 6.2-16.4 0-22.6s-16.4-6.2-22.6 0l-32 32c-6.2 6.2-6.2 16.4 0 22.6s16.4 6.2 22.6 0l32-32z"/>
          </symbol>
        </svg>