<svg xmlns="http://www.w3.org/2000/svg">
          <symbol id="fw-icon-duotone-sensor-triangle-exclamation" viewBox="0 0 640 512">
            <path d="M412.2 180.9l-150.4 265c-3.8 6.7-5.8 14.2-5.8 21.9c0 24.5 19.8 44.3 44.3 44.3H595.7c24.5 0 44.3-19.8 44.3-44.3c0-7.7-2-15.2-5.8-21.9l-150.4-265C476.5 168 462.8 160 448 160s-28.5 8-35.8 20.9zM448 256c8.8 0 16 7.2 16 16v88c0 8.8-7.2 16-16 16s-16-7.2-16-16V272c0-8.8 7.2-16 16-16zM424 432a24 24 0 1 1 48 0 24 24 0 1 1 -48 0z"/>
          </symbol>
        </svg>        </symbol>
        </svg>