<svg xmlns="http://www.w3.org/2000/svg">
          <symbol id="fw-icon-duotone-cake-candles" viewBox="0 0 448 512">
            <path d="M86.4 5.5C88.4 2.1 92 0 96 0s7.6 2.1 9.6 5.5l24.5 42.1c3.8 6.5 5.8 14 5.8 21.6V72c0 22.1-17.9 40-40 40s-40-17.9-40-40V69.2c0-7.6 2-15 5.8-21.6L86.4 5.5zM0 288c0-35.3 28.7-64 64-64H384c35.3 0 64 28.7 64 64v89.2c-8.4 4-18.1 6.8-28.8 6.8c-35.9 0-67.2-32-67.2-32s-28.1 32-64 32s-64-32-64-32s-28.1 32-64 32s-64-32-64-32s-31.3 32-67.2 32c-10.7 0-20.4-2.8-28.8-6.8V288zM189.8 47.6L214.4 5.5C216.4 2.1 220 0 224 0s7.6 2.1 9.6 5.5l24.5 42.1c3.8 6.5 5.8 14 5.8 21.6V72c0 22.1-17.9 40-40 40s-40-17.9-40-40V69.2c0-7.6 2-15 5.8-21.6zM342.4 5.5C344.4 2.1 348 0 352 0s7.6 2.1 9.6 5.5l24.5 42.1c3.8 6.5 5.8 14 5.8 21.6V72c0 22.1-17.9 40-40 40s-40-17.9-40-40V69.2c0-7.6 2-15 5.8-21.6L342.4 5.5z"/>
          </symbol>
        </svg>