<svg xmlns="http://www.w3.org/2000/svg">
          <symbol id="fw-icon-duotone-lock-a" viewBox="0 0 448 512">
            <path d="M235.3 260.7c-1.4-1.4-3.1-2.6-4.9-3.4c-2.1-.9-4.2-1.3-6.4-1.3s-4.3 .4-6.4 1.3c-1.8 .8-3.5 1.9-4.9 3.4c-1.3 1.3-2.3 2.7-3.1 4.3L129.7 424.8c-4 7.9-.7 17.5 7.2 21.5s17.5 .7 21.5-7.2L177.9 400h92.2l19.6 39.2c4 7.9 13.6 11.1 21.5 7.2s11.1-13.6 7.2-21.5L238.4 265c-.8-1.6-1.8-3-3.1-4.3zM254.1 368l-60.2 0L224 307.8 254.1 368z"/>
          </symbol>
        </svg>1 4.3l79.9 159.9c4 7.9 .7 17.5-7.2 21.5s-17.5 .7-21.5-7.2L270.1 400H177.9l-19.6 39.2c-4 7.9-13.6 11.1-21.5 7.2s-11.1-13.6-7.2-21.5zM193.9 368h60.2L224 307.8 193.9 368z"/>
          </symbol>
        </svg>