<svg xmlns="http://www.w3.org/2000/svg">
          <symbol id="fw-icon-duotone-snowman" viewBox="0 0 512 512">
            <path d="M342.3 152.6c-2.8-3.4-3.3-8.1-1.2-12C348 127.2 352 112.1 352 96c0-53-43-96-96-96s-96 43-96 96c0 16.1 4 31.2 10.9 44.6c2 3.9 1.6 8.6-1.2 12C153.7 172 144 196.9 144 224c0 11.5 1.7 22.5 4.9 32.9c1.2 3.8 .1 8-2.8 10.8C115.3 296.9 96 338.2 96 384c0 44.7 18.3 85 47.8 114.1c9.9 9.7 23.7 13.9 37.5 13.9H330.7c13.9 0 27.7-4.2 37.5-13.9C397.7 469 416 428.7 416 384c0-45.8-19.3-87.1-50.1-116.3c-2.9-2.8-4-6.9-2.8-10.8c3.2-10.4 4.9-21.5 4.9-32.9c0-27.1-9.7-52-25.7-71.4zM208 80a16 16 0 1 1 32 0 16 16 0 1 1 -32 0zm48 128a16 16 0 1 1 0 32 16 16 0 1 1 0-32zm-16 80a16 16 0 1 1 32 0 16 16 0 1 1 -32 0zm16 48a16 16 0 1 1 0 32 16 16 0 1 1 0-32zM272 80a16 16 0 1 1 32 0 16 16 0 1 1 -32 0zm-32 43.2V120c0-8.8 7.2-16 16-16s16 7.2 16 16v3.2c0 3.2-.8 6.3-2.3 9l-9 16.9c-.9 1.7-2.7 2.8-4.7 2.8s-3.8-1.1-4.7-2.8l-9-16.9c-1.5-2.8-2.3-5.9-2.3-9z"/>
          </symbol>
        </svg>