<svg xmlns="http://www.w3.org/2000/svg">
          <symbol id="fw-icon-duotone-money-bill-transfer" viewBox="0 0 640 512">
            <path d="M337.9 64H96c-35.3 0-64 28.7-64 64V342.5l19.2-19.2c20.3-20.3 53.2-20.3 73.5 0C138 336.5 142.6 355 138.6 372L256 372c28.7 0 52 23.3 52 52c0 8.7-2.1 16.8-5.9 24H544c35.3 0 64-28.7 64-64V169.5l-19.2 19.2c-20.3 20.3-53.2 20.3-73.5 0C502 175.5 497.4 157 501.4 140L384 140c-28.7 0-52-23.3-52-52c0-8.7 2.1-16.8 5.9-24zM96 192V128h64c0 35.3-28.7 64-64 64zM480 384c0-35.3 28.7-64 64-64v64H480zM224 256a96 96 0 1 1 192 0 96 96 0 1 1 -192 0z"/>
          </symbol>
        </svg>