<svg xmlns="http://www.w3.org/2000/svg">
          <symbol id="fw-icon-duotone-candy" viewBox="0 0 640 512">
            <path d="M504 310.9c5.2-17.4 8-35.8 8-54.9s-2.8-37.5-8-54.9l93.2-46.6c10.5-5.3 23.3-2.1 30.2 7.4s5.8 22.7-2.5 31l-29.6 29.6 29.1 10.9C633.8 237 640 246 640 256s-6.2 19-15.6 22.5l-29.1 10.9L625 319c8.3 8.3 9.4 21.5 2.5 31s-19.7 12.7-30.2 7.4L504 310.9zM136 201.1c-5.2 17.4-8 35.8-8 54.9s2.8 37.5 8 54.9L42.7 357.5c-10.5 5.3-23.3 2.1-30.2-7.4s-5.8-22.7 2.5-31l29.6-29.6L15.6 278.5C6.2 275 0 266 0 256s6.2-19 15.6-22.5l29.1-10.9L15 193c-8.3-8.3-9.4-21.5-2.5-31s19.7-12.7 30.2-7.4L136 201.1z"/>
          </symbol>
        </svg>