<svg xmlns="http://www.w3.org/2000/svg">
          <symbol id="fw-icon-duotone-square-list" viewBox="0 0 448 512">
            <path d="M168 160c0-13.3 10.7-24 24-24H352c13.3 0 24 10.7 24 24s-10.7 24-24 24H192c-13.3 0-24-10.7-24-24zm0 192c0-13.3 10.7-24 24-24H352c13.3 0 24 10.7 24 24s-10.7 24-24 24H192c-13.3 0-24-10.7-24-24zm24-120H352c13.3 0 24 10.7 24 24s-10.7 24-24 24H192c-13.3 0-24-10.7-24-24s10.7-24 24-24z"/>
          </symbol>
        </svg>192zM168 352c0 13.3 10.7 24 24 24H352c13.3 0 24-10.7 24-24s-10.7-24-24-24H192c-13.3 0-24 10.7-24 24zm24-120c-13.3 0-24 10.7-24 24s10.7 24 24 24H352c13.3 0 24-10.7 24-24s-10.7-24-24-24H192z"/>
          </symbol>
        </svg>