<svg xmlns="http://www.w3.org/2000/svg">
          <symbol id="fw-icon-duotone-truck-tow" viewBox="0 0 640 512">
            <path d="M96 0h49.5c9.2 0 18 4 24.1 10.9L384 256H192L96 64V176c0 26.5-21.5 48-48 48s-48-21.5-48-48V160c0-8.8 7.2-16 16-16s16 7.2 16 16v16c0 8.8 7.2 16 16 16s16-7.2 16-16V32C64 14.3 78.3 0 96 0zm0 432a80 80 0 1 1 160 0A80 80 0 1 1 96 432zm400-80a80 80 0 1 1 0 160 80 80 0 1 1 0-160z"/>
          </symbol>
        </svg>256H448V160h50.7L576 237.3V256z"/>
          </symbol>
        </svg>