<svg xmlns="http://www.w3.org/2000/svg">
          <symbol id="fw-icon-duotone-fish-bones" viewBox="0 0 576 512">
            <path d="M184 160c0-13.3-10.7-24-24-24s-24 10.7-24 24v72H96v48h40v72c0 13.3 10.7 24 24 24s24-10.7 24-24V280h48v72c0 13.3 10.7 24 24 24s24-10.7 24-24V280h48v72c0 13.3 10.7 24 24 24s24-10.7 24-24V280h72c13.3 0 24-10.7 24-24s-10.7-24-24-24H376V160c0-13.3-10.7-24-24-24s-24 10.7-24 24v72H280V160c0-13.3-10.7-24-24-24s-24 10.7-24 24v72H184V160z"/>
          </symbol>
        </svg>.7 9.2 4.7 20.1 0 29.3c-14.1 27.4-41.9 66.8-81 99.8c-13.1 11-27.7 21.6-43.7 30.7c-14.7 8.4-31.8-3.1-31.8-20V280z"/>
          </symbol>
        </svg>