<svg xmlns="http://www.w3.org/2000/svg">
          <symbol id="fw-icon-duotone-circle-exclamation-check" viewBox="0 0 640 512">
            <path d="M256 128c-13.3 0-24 10.7-24 24V264c0 13.3 10.7 24 24 24s24-10.7 24-24V152c0-13.3-10.7-24-24-24zm32 224a32 32 0 1 0 -64 0 32 32 0 1 0 64 0zM625 209c9.4-9.4 9.4-24.6 0-33.9s-24.6-9.4-33.9 0l-111 111-47-47c-9.4-9.4-24.6-9.4-33.9 0s-9.4 24.6 0 33.9l64 64c9.4 9.4 24.6 9.4 33.9 0L625 209z"/>
          </symbol>
        </svg>1 1 -64 0z"/>
          </symbol>
        </svg>