<svg xmlns="http://www.w3.org/2000/svg">
          <symbol id="fw-icon-duotone-burger-soda" viewBox="0 0 640 512">
            <path d="M612.5 319.8c15.2 0 27.5-12.3 27.5-27.5c0-3-.5-5.9-1.7-8.6c-8.1-18.4-48.4-91.9-174.3-91.9s-166.2 73.5-174.3 91.9c-1.2 2.7-1.7 5.7-1.7 8.6c0 15.2 12.3 27.5 27.5 27.5H612.5zM368 255.8a16 16 0 1 1 32 0 16 16 0 1 1 -32 0zm96-32a16 16 0 1 1 0 32 16 16 0 1 1 0-32zm64 32a16 16 0 1 1 32 0 16 16 0 1 1 -32 0zm-240 128c0 17.7 14.3 32 32 32H608c17.7 0 32-14.3 32-32s-14.3-32-32-32H320c-17.7 0-32 14.3-32 32zm0 80c0 26.5 21.5 48 48 48H592c26.5 0 48-21.5 48-48c0-8.8-7.2-16-16-16H304c-8.8 0-16 7.2-16 16z"/>
          </symbol>
        </svg>