<svg xmlns="http://www.w3.org/2000/svg">
          <symbol id="fw-icon-duotone-hat-winter" viewBox="0 0 512 512">
            <path d="M199 136.1c.1 .2 .3 .3 .4 .4c8.9 8.9 23.2 9.4 32.6 1.2C233 150.2 243.3 160 256 160s23-9.8 23.9-22.2c9.4 8.1 23.7 7.7 32.6-1.2c.1-.1 .3-.3 .4-.4c78.9 24 120.7 96.7 142.8 162.1l-.7 .3c-4.5 2.3-9.8 2.3-14.3 0l-35.4-17.7c-13.5-6.8-29.4-6.8-42.9 0l-35.4 17.7c-4.5 2.3-9.8 2.3-14.3 0l-35.4-17.7c-13.5-6.8-29.4-6.8-42.9 0l-35.4 17.7c-4.5 2.3-9.8 2.3-14.3 0l-35.4-17.7c-13.5-6.8-29.4-6.8-42.9 0L71.2 298.5c-4.5 2.3-9.8 2.3-14.3 0l-.7-.3c22.1-65.3 64-138.1 142.8-162.1zM46.9 329.1c12.5 4.8 26.5 4.1 38.6-1.9l35.4-17.7c4.5-2.3 9.8-2.3 14.3 0l35.4 17.7c13.5 6.8 29.4 6.8 42.9 0l35.4-17.7c4.5-2.3 9.8-2.3 14.3 0l35.4 17.7c13.5 6.8 29.4 6.8 42.9 0l35.4-17.7c4.5-2.3 9.8-2.3 14.3 0l35.4 17.7c12.1 6 26.1 6.7 38.6 1.9C477.9 377.7 480 416 480 416v2.7c-5-1.8-10.4-2.7-16-2.7H48c-5.6 0-11 1-16 2.7V416s2.1-38.3 14.9-86.9z"/>
          </symbol>
        </svg>