<svg xmlns="http://www.w3.org/2000/svg">
          <symbol id="fw-icon-duotone-cloud-word" viewBox="0 0 640 512">
            <path d="M128 304c0-8.8 7.2-16 16-16H336c8.8 0 16 7.2 16 16s-7.2 16-16 16H144c-8.8 0-16-7.2-16-16zm112 48c8.8 0 16 7.2 16 16s-7.2 16-16 16H144c-8.8 0-16-7.2-16-16s7.2-16 16-16h96zm256 0c8.8 0 16 7.2 16 16s-7.2 16-16 16H304c-8.8 0-16-7.2-16-16s7.2-16 16-16H496zm-96-64h96c8.8 0 16 7.2 16 16s-7.2 16-16 16H400c-8.8 0-16-7.2-16-16s7.2-16 16-16z"/>
          </symbol>
        </svg> 16-16 16H144c-8.8 0-16-7.2-16-16s7.2-16 16-16h96zM128 304c0-8.8 7.2-16 16-16H336c8.8 0 16 7.2 16 16s-7.2 16-16 16H144c-8.8 0-16-7.2-16-16zm272-16h96c8.8 0 16 7.2 16 16s-7.2 16-16 16H400c-8.8 0-16-7.2-16-16s7.2-16 16-16z"/>
          </symbol>
        </svg>