<svg xmlns="http://www.w3.org/2000/svg">
          <symbol id="fw-icon-duotone-arrow-down-wide-short" viewBox="0 0 576 512">
            <path d="M288 448c0 17.7 14.3 32 32 32h32c17.7 0 32-14.3 32-32s-14.3-32-32-32H320c-17.7 0-32 14.3-32 32zm0-128c0 17.7 14.3 32 32 32h96c17.7 0 32-14.3 32-32s-14.3-32-32-32H320c-17.7 0-32 14.3-32 32zm0-128c0 17.7 14.3 32 32 32H480c17.7 0 32-14.3 32-32s-14.3-32-32-32H320c-17.7 0-32 14.3-32 32zm0-128c0 17.7 14.3 32 32 32H544c17.7 0 32-14.3 32-32s-14.3-32-32-32H320c-17.7 0-32 14.3-32 32z"/>
          </symbol>
        </svg>