<svg xmlns="http://www.w3.org/2000/svg">
          <symbol id="fw-icon-duotone-sushi" viewBox="0 0 576 512">
            <path d="M405.9 295.5L506.3 125.6c24.8 26.7 42.1 60.7 48.5 98.8l12.5 75.2c4 23.8-18.8 43.2-41.7 35.6L405.9 295.5zm76.2-191.9L374.8 285.2 323.1 268c-14.6-4.9-30-7-45.2-6.4L393.5 66.1c32.9 4.8 63.2 18 88.7 37.5zM246.6 64H357.5L235.6 270.4 96.1 318.7 246.6 64zm-37.2 0L49.4 334.8C27 341.5 5 322.3 8.9 298.9l12.4-74.4C36.6 132.2 116.1 64.6 209.5 64z"/>
          </symbol>
        </svg>      </svg>