<svg xmlns="http://www.w3.org/2000/svg">
          <symbol id="fw-icon-duotone-binary-slash" viewBox="0 0 640 512">
            <path d="M384 398.5l-63.9-50.3c-.1 1.3-.1 2.5-.1 3.8v96c0 35.3 28.7 64 64 64h64c20.1 0 38.1-9.3 49.8-23.8l-51-40.2H384V398.5zM399.7 288L512 376V352c0-35.3-28.7-64-64-64H399.7zM236.4 160L298 208.3c13.5-11.7 22-29 22-48.3V64c0-35.3-28.7-64-64-64H192c-35.3 0-64 28.7-64 64V75l64 50.2V64h64v96H236.4zM464 32c0-10.3-4.9-19.9-13.3-26s-19.1-7.7-28.8-4.4l-48 16c-16.8 5.6-25.8 23.7-20.2 40.5s23.7 25.8 40.5 20.2l5.9-2V160H384c-17.7 0-32 14.3-32 32s14.3 32 32 32h48 48c17.7 0 32-14.3 32-32s-14.3-32-32-32H464V32zM240 320c0-10.3-4.9-19.9-13.3-26s-19.1-7.7-28.8-4.4l-48 16c-16.8 5.6-25.8 23.7-20.2 40.5s23.7 25.8 40.5 20.2l5.9-2V448H160c-17.7 0-32 14.3-32 32s14.3 32 32 32h48 48c17.7 0 32-14.3 32-32s-14.3-32-32-32H240V320z"/>
          </symbol>
        </svg>