<svg xmlns="http://www.w3.org/2000/svg">
          <symbol id="fw-icon-duotone-face-grin-tongue-wink" viewBox="0 0 512 512">
            <path d="M336 184a24 24 0 1 1 0 48 24 24 0 1 1 0-48zM195.2 233.6c-17.6-23.5-52.8-23.5-70.4 0c-5.3 7.1-15.3 8.5-22.4 3.2s-8.5-15.3-3.2-22.4c30.4-40.5 91.2-40.5 121.6 0c5.3 7.1 3.9 17.1-3.2 22.4s-17.1 3.9-22.4-3.2zM320 402.6V448c0 35.3-28.7 64-64 64s-64-28.7-64-64V402.6c0-14.7 11.9-26.6 26.6-26.6h2c11.3 0 21.1 7.9 23.6 18.9c2.8 12.6 20.8 12.6 23.6 0c2.5-11.1 12.3-18.9 23.6-18.9h2c14.7 0 26.6 11.9 26.6 26.6z"/>
          </symbol>
        </svg> 22.4s17.1 3.9 22.4-3.2c17.6-23.5 52.8-23.5 70.4 0zM336 272a64 64 0 1 0 0-128 64 64 0 1 0 0 128z"/>
          </symbol>
        </svg>