<svg xmlns="http://www.w3.org/2000/svg">
          <symbol id="fw-icon-duotone-fingerprint" viewBox="0 0 512 512">
            <path d="M256 80c97.2 0 176 78.8 176 176v24.9c0 27.7-1.7 55.3-5 82.7c-1.4 11.7-11.5 20.3-23.3 20.3c-14.7 0-25.9-13.2-24.2-27.8c3-24.9 4.4-50.1 4.4-75.3V256c0-70.7-57.3-128-128-128c-11.6 0-22.8 1.5-33.4 4.4c-10.6 2.9-22.3 .4-29.4-7.9c-10.4-12.1-6.9-30.9 8.3-35.9C218.6 83 237 80 256 80zM150.7 148.7c8.2 9.6 7.5 23.8 .2 34.2C136.5 203.6 128 228.8 128 256v24.9c0 28.9-3.3 57.7-9.7 85.8C115.9 377 106.6 384 96.1 384c-15.9 0-27.3-15.6-23.9-31.1c5.2-23.6 7.8-47.7 7.8-71.9V256c0-40.6 13.7-78 36.8-107.7c8.5-11 24.8-10.2 33.9 .4zM280 256v24.9c0 65.8-12.1 131-35.7 192.4l-5.9 15.3c-4.8 12.4-18.6 18.5-31 13.8s-18.5-18.6-13.8-31l5.9-15.3C221 400.2 232 340.8 232 280.9V256c0-13.3 10.7-24 24-24s24 10.7 24 24z"/>
          </symbol>
        </svg>