<svg xmlns="http://www.w3.org/2000/svg">
          <symbol id="fw-icon-duotone-money-bill-wheat" viewBox="0 0 512 512">
            <path d="M48 256c-26.5 0-48 21.5-48 48V464c0 26.5 21.5 48 48 48H464c26.5 0 48-21.5 48-48V304c0-26.5-21.5-48-48-48H48zM96 464H48V416c26.5 0 48 21.5 48 48zM48 352V304H96c0 26.5-21.5 48-48 48zM416 464c0-26.5 21.5-48 48-48v48H416zm48-112c-26.5 0-48-21.5-48-48h48v48zM256 320a64 64 0 1 1 0 128 64 64 0 1 1 0-128z"/>
          </symbol>
        </svg>.7-24-24s10.7-24 24-24zM288 0c44.2 0 80 35.8 80 80c0 8.8-7.2 16-16 16c-44.2 0-80-35.8-80-80c0-8.8 7.2-16 16-16zm96 16c0-8.8 7.2-16 16-16c44.2 0 80 35.8 80 80c0 8.8-7.2 16-16 16c-44.2 0-80-35.8-80-80zm80 112c8.8 0 16 7.2 16 16c0 44.2-35.8 80-80 80c-8.8 0-16-7.2-16-16c0-44.2 35.8-80 80-80zm-96 16c0 44.2-35.8 80-80 80c-8.8 0-16-7.2-16-16c0-44.2 35.8-80 80-80c8.8 0 16 7.2 16 16zM240 128c8.8 0 16 7.2 16 16c0 44.2-35.8 80-80 80c-8.8 0-16-7.2-16-16c0-44.2 35.8-80 80-80z"/>
          </symbol>
        </svg>