<svg xmlns="http://www.w3.org/2000/svg">
          <symbol id="fw-icon-duotone-sheep" viewBox="0 0 640 512">
            <path d="M384 135.8l-14.5 6.2c-12.2 5.2-26.3-.4-31.5-12.6s.4-26.3 12.6-31.5l47.8-20.5C415.3 50.2 445.5 32 480 32s64.7 18.2 81.6 45.4l47.8 20.5c12.2 5.2 17.8 19.3 12.6 31.5s-19.3 17.8-31.5 12.6L576 135.8V208c0 44.2-35.8 80-80 80H464c-44.2 0-80-35.8-80-80V135.8zM464 160a16 16 0 1 0 0-32 16 16 0 1 0 0 32zm80-16a16 16 0 1 0 -32 0 16 16 0 1 0 32 0zM115.1 485.9L97.5 392c2.8-.1 5.6-.3 8.3-.7c6.8 28 32.1 48.7 62.2 48.7c15 0 28.9-5.2 39.8-13.9l.2 .2V480c0 17.7-14.3 32-32 32H146.6c-15.4 0-28.6-11-31.5-26.1zM304 480V426.3l.2-.2C315.1 434.8 329 440 344 440c30.1 0 55.3-20.8 62.2-48.7c2.7 .4 5.5 .7 8.3 .7l-17.6 93.9C394.1 501 380.8 512 365.4 512H336c-17.7 0-32-14.3-32-32z"/>
          </symbol>
        </svg>