<svg xmlns="http://www.w3.org/2000/svg">
          <symbol id="fw-icon-duotone-hand-point-right" viewBox="0 0 512 512">
            <path d="M352 192c17.7 0 32 14.3 32 32s-14.3 32-32 32l-48 0c-17.7 0-32-14.3-32-32s14.3-32 32-32h48zm-32 96c17.7 0 32 14.3 32 32s-14.3 32-32 32H256c-17.7 0-32-14.3-32-32s14.3-32 32-32l64 0zm0 128c0 17.7-14.3 32-32 32H224c-17.7 0-32-14.3-32-32s14.3-32 32-32h64c17.7 0 32 14.3 32 32z"/>
          </symbol>
        </svg>64l0 88c0 22.1-17.9 40-40 40s-40-17.9-40-40l0-56c0-8.8-7.2-16-16-16s-16 7.2-16 16l0 56c0 39.8 32.2 72 72 72z"/>
          </symbol>
        </svg>