<svg xmlns="http://www.w3.org/2000/svg">
          <symbol id="fw-icon-duotone-tricycle" viewBox="0 0 512 512">
            <path d="M256 56c0-13.3 10.7-24 24-24h73.6C388.1 32 416 59.9 416 94.4c0 18.2-8 35.5-21.8 47.3l-31.3 26.9 44.4 177.6c3.2 12.9-4.6 25.9-17.5 29.1s-25.9-4.6-29.1-17.5L319.3 192H307.2c-57.6 0-110.9 29.5-141.6 77.6c-14.3-7.8-30.5-12.6-47.8-13.5c1.2-2.3 2.5-4.5 3.9-6.7L77.6 176H56c-13.3 0-24-10.7-24-24s10.7-24 24-24h80c13.3 0 24 10.7 24 24s-10.7 24-24 24h-2.4l19.6 32.6c40-40.7 95.3-64.6 154.1-64.6h10.9c.7-.8 1.5-1.5 2.3-2.2L363 105.3c3.2-2.7 5-6.7 5-10.9c0-7.9-6.4-14.4-14.4-14.4H280c-13.3 0-24-10.7-24-24z"/>
          </symbol>
        </svg>