<svg xmlns="http://www.w3.org/2000/svg">
          <symbol id="fw-icon-duotone-face-hand-yawn" viewBox="0 0 512 512">
            <path d="M204.5 102c-5.5-6.9-15.6-8-22.5-2.5l-80 64c-6.9 5.5-8 15.6-2.5 22.5s15.6 8 22.5 2.5l80-64c6.9-5.5 8-15.6 2.5-22.5zm94.8 197.3c6.2-6.2 6.2-16.4 0-22.6s-16.4-6.2-22.6 0l-79 79c-5 5-13.7 1.5-13.7-5.7V330.4c0-11-9-20-20-20s-20 9-20 20V384v32.8c0 52.6 42.6 95.2 95.2 95.2c25.2 0 49.5-10 67.3-27.9l56.8-56.8c6.2-6.2 6.2-16.4 0-22.6s-16.4-6.2-22.6 0L321.4 424c-2.6 2.6-6.8 2.6-9.4 0s-2.6-6.8 0-9.4l51.3-51.3c6.2-6.2 6.2-16.4 0-22.6s-16.4-6.2-22.6 0L289.4 392c-2.6 2.6-6.8 2.6-9.4 0s-2.6-6.8 0-9.4l67.3-67.3c6.2-6.2 6.2-16.4 0-22.6s-16.4-6.2-22.6 0L257.4 360c-2.6 2.6-6.8 2.6-9.4 0s-2.6-6.8 0-9.4l51.3-51.3zM310 124.5l80 64c6.9 5.5 17 4.4 22.5-2.5s4.4-17-2.5-22.5l-80-64c-6.9-5.5-17-4.4-22.5 2.5s-4.4 17 2.5 22.5z"/>
          </symbol>
        </svg>