<svg xmlns="http://www.w3.org/2000/svg">
          <symbol id="fw-icon-duotone-location-smile" viewBox="0 0 384 512">
            <path d="M160 160a32 32 0 1 0 -64 0 32 32 0 1 0 64 0zm128 0a32 32 0 1 0 -64 0 32 32 0 1 0 64 0zM128.6 244.9c-6.1-9.2-18.5-11.7-27.7-5.5s-11.7 18.5-5.5 27.7C106.9 284.4 140.9 316 192 316s85.1-31.6 96.6-48.9c6.1-9.2 3.6-21.6-5.5-27.7s-21.6-3.6-27.7 5.5c-6.2 9.4-29.1 31.1-63.4 31.1s-57.1-21.7-63.4-31.1z"/>
          </symbol>
        </svg>1 316 192 316s-85.1-31.6-96.6-48.9c-6.1-9.2-3.6-21.6 5.5-27.7s21.6-3.6 27.7 5.5z"/>
          </symbol>
        </svg>