<svg xmlns="http://www.w3.org/2000/svg">
          <symbol id="fw-icon-duotone-trash-undo" viewBox="0 0 448 512">
            <path d="M32 96H416L394.6 466.8c-1.5 25.4-22.5 45.2-47.9 45.2H101.3c-25.4 0-46.5-19.8-47.9-45.2L32 96zm185.8 71.9c-8.9-9.9-24-10.7-33.9-1.8l-80 72c-5.1 4.6-7.9 11-7.9 17.8s2.9 13.3 7.9 17.8l80 72c9.9 8.9 25 8.1 33.9-1.8s8.1-25-1.8-33.9L182.5 280H240c22.1 0 40 17.9 40 40v40c0 13.3 10.7 24 24 24s24-10.7 24-24V320c0-48.6-39.4-88-88-88H182.5l33.5-30.2c9.9-8.9 10.7-24 1.8-33.9z"/>
          </symbol>
        </svg>8l80-72c9.9-8.9 25-8.1 33.9 1.8z"/>
          </symbol>
        </svg>