<svg xmlns="http://www.w3.org/2000/svg">
          <symbol id="fw-icon-duotone-baseball-bat-ball" viewBox="0 0 512 512">
            <path d="M424 0c-12.4 0-24.2 4.9-33 13.7L233.5 171.2c-10.5 10.5-19.8 22.1-27.7 34.6l-55.7 88.2 67.9 67.9 88.2-55.7c12.5-7.9 24.1-17.2 34.6-27.7L498.3 121c8.7-8.7 13.7-20.6 13.7-33s-4.9-24.2-13.7-33L457 13.7C448.2 4.9 436.4 0 424 0zM49 399c-9.4-9.4-24.6-9.4-33.9 0s-9.4 24.6 0 33.9l64 64c9.4 9.4 24.6 9.4 33.9 0s9.4-24.6 0-33.9L49 399z"/>
          </symbol>
        </svg>