<svg xmlns="http://www.w3.org/2000/svg">
          <symbol id="fw-icon-duotone-loader" viewBox="0 0 512 512">
            <path d="M256 0c-17.7 0-32 14.3-32 32V96c0 17.7 14.3 32 32 32s32-14.3 32-32V32c0-17.7-14.3-32-32-32zM0 256c0 17.7 14.3 32 32 32H96c17.7 0 32-14.3 32-32s-14.3-32-32-32H32c-17.7 0-32 14.3-32 32zM120.2 75C107.7 62.5 87.5 62.5 75 75s-12.5 32.8 0 45.3l45.3 45.3c12.5 12.5 32.8 12.5 45.3 0s12.5-32.8 0-45.3L120.2 75z"/>
          </symbol>
        </svg>8-12.5-45.3 0s-12.5 32.8 0 45.3L391.8 437c12.5 12.5 32.8 12.5 45.3 0s12.5-32.8 0-45.3l-45.3-45.3zM75 437c12.5 12.5 32.8 12.5 45.3 0l45.3-45.3c12.5-12.5 12.5-32.8 0-45.3s-32.8-12.5-45.3 0L75 391.8c-12.5 12.5-12.5 32.8 0 45.3z"/>
          </symbol>
        </svg>