<svg xmlns="http://www.w3.org/2000/svg">
          <symbol id="fw-icon-duotone-arrow-down-9-1" viewBox="0 0 576 512">
            <path d="M445.7 148.9A32 32 0 1 0 418.3 91a32 32 0 1 0 27.4 57.9zm-40.7 54.9C369.6 192.4 344 159.2 344 120c0-48.6 39.4-88 88-88s88 39.4 88 88c0 23.5-7.5 46.3-21.5 65.2L449.7 251c-10.5 14.2-30.6 17.2-44.8 6.7s-17.2-30.6-6.7-44.8l6.8-9.2zM464 320v96h16c17.7 0 32 14.3 32 32s-14.3 32-32 32H432 384c-17.7 0-32-14.3-32-32s14.3-32 32-32h16V364.4l-5.9 2c-16.8 5.6-34.9-3.5-40.5-20.2s3.5-34.9 20.2-40.5l48-16c9.8-3.3 20.5-1.6 28.8 4.4s13.3 15.7 13.3 26z"/>
          </symbol>
        </svg>