<svg xmlns="http://www.w3.org/2000/svg">
          <symbol id="fw-icon-duotone-hat-santa" viewBox="0 0 640 512">
            <path d="M560 160c-12.7 0-23 9.8-23.9 22.2c-9.4-8.1-23.7-7.7-32.6 1.2s-9.4 23.2-1.2 32.6C489.8 217 480 227.3 480 240s9.8 23 22.2 23.9c-8.1 9.4-7.7 23.7 1.2 32.6s23.2 9.4 32.6 1.2C537 310.2 547.3 320 560 320s23-9.8 23.9-22.2c9.4 8.1 23.7 7.7 32.6-1.2s9.4-23.2 1.2-32.6C630.2 263 640 252.7 640 240s-9.8-23-22.2-23.9c8.1-9.4 7.7-23.7-1.2-32.6s-23.2-9.4-32.6-1.2C583 169.8 572.7 160 560 160zM64 352c-35.3 0-64 28.7-64 64s28.7 64 64 64H448c35.3 0 64-28.7 64-64s-28.7-64-64-64H64z"/>
          </symbol>
        </svg>