<svg xmlns="http://www.w3.org/2000/svg">
          <symbol id="fw-icon-duotone-trash-can-xmark" viewBox="0 0 448 512">
            <path d="M416 96H32V448c0 35.3 28.7 64 64 64H352c35.3 0 64-28.7 64-64V96zM143 207c9.4-9.4 24.6-9.4 33.9 0l47 47 47-47c9.4-9.4 24.6-9.4 33.9 0s9.4 24.6 0 33.9l-47 47 47 47c9.4 9.4 9.4 24.6 0 33.9s-24.6 9.4-33.9 0l-47-47-47 47c-9.4 9.4-24.6 9.4-33.9 0s-9.4-24.6 0-33.9l47-47-47-47c-9.4-9.4-9.4-24.6 0-33.9z"/>
          </symbol>
        </svg>4-33.9 0s-9.4-24.6 0-33.9l47-47-47-47c-9.4-9.4-9.4-24.6 0-33.9z"/>
          </symbol>
        </svg>