<svg xmlns="http://www.w3.org/2000/svg">
          <symbol id="fw-icon-duotone-coffee-bean" viewBox="0 0 448 512">
            <path d="M337 208.9c25.6-25.8 47.1-69.8 61.6-104.2c3.4-8 6.4-15.7 9.2-22.8c-2.2-2.5-4.5-5-6.9-7.4c-9.8-9.8-20.7-17.9-32.5-24.4c-3.7 10.2-8.5 22.7-14.1 36c-14.5 34.5-33 70.5-51.4 89c-28.7 28.9-57.5 43.4-89.7 59.4l-.8 .4c-31.9 15.9-67 33.4-101.5 68.2c-25.2 25.4-48.7 68.8-65.1 103.2c-3.4 7-6.5 13.8-9.4 20.2c1.9 2.2 4 4.3 6.1 6.4c9.8 9.8 20.8 18 32.7 24.6c3.9-9.1 8.6-19.5 13.9-30.5c16.5-34.5 37.1-71.1 55.9-90.1c28.7-28.9 57.5-43.4 89.7-59.4l.8-.4c31.9-15.9 67-33.4 101.5-68.2z"/>
          </symbol>
        </svg>         </symbol>
        </svg>