<svg xmlns="http://www.w3.org/2000/svg">
          <symbol id="fw-icon-duotone-nfc-trash" viewBox="0 0 640 512">
            <path d="M464 192c-6.1 0-11.6 3.4-14.3 8.8L438.1 224H400c-8.8 0-16 7.2-16 16s7.2 16 16 16h48H576h48c8.8 0 16-7.2 16-16s-7.2-16-16-16H585.9l-11.6-23.2c-2.7-5.4-8.2-8.8-14.3-8.8H464zm-64 96l13.9 194.3C415.1 499 429 512 445.8 512H578.2c16.8 0 30.7-13 31.9-29.7L624 288H400z"/>
          </symbol>
        </svg>-16 16v66.7c18.6 6.6 32 24.4 32 45.3c0 26.5-21.5 48-48 48s-48-21.5-48-48c0-20.9 13.4-38.7 32-45.3V144c0-26.5 21.5-48 48-48h80c26.5 0 48 21.5 48 48v50.7c5-1.8 10.4-2.7 16-2.7h18.3l2.7-5.5c5.7-11.3 15.4-19.7 26.9-23.8V96c0-35.3-28.7-64-64-64H64z"/>
          </symbol>
        </svg>