<svg xmlns="http://www.w3.org/2000/svg">
          <symbol id="fw-icon-duotone-tire-flat" viewBox="0 0 512 512">
            <path d="M0 288C0 146.6 114.6 32 256 32s256 114.6 256 256c0 47.3-12.8 91.7-35.2 129.7c20.3 5.6 35.2 24.2 35.2 46.3c0 26.5-21.5 48-48 48H48c-26.5 0-48-21.5-48-48c0-22.1 14.9-40.7 35.2-46.3C12.8 379.7 0 335.3 0 288zm416 0c0-88.4-71.6-160-160-160s-160 71.6-160 160c0 52.3 25.1 98.8 64 128c26.7 20.1 60 32 96 32c33.1 0 63.9-10.1 89.5-27.3c2.2-1.5 4.4-3.1 6.6-4.7c38.9-29.2 64-75.7 64-128zM256 256a32 32 0 1 1 0 64 32 32 0 1 1 0-64z"/>
          </symbol>
        </svg>2-14.5 40.6c0 1.4 0 2.7 .1 4l-61.8 20.1c-1.5-7.8-2.3-15.9-2.3-24.2c0-36.8 15.5-69.9 40.3-93.3l28.1 38.7 10.1 13.9zM256 448a160 160 0 1 0 0-320 160 160 0 1 0 0 320zM224 288a32 32 0 1 1 64 0 32 32 0 1 1 -64 0z"/>
          </symbol>
        </svg>