<svg xmlns="http://www.w3.org/2000/svg">
          <symbol id="fw-icon-duotone-hand-fist" viewBox="0 0 448 512">
            <path d="M256 215.4c0 .2 0 .4 0 .6c0 39.8-32.2 72-72 72H128c-8.8 0-16-7.2-16-16s7.2-16 16-16h56c22.1 0 40-17.9 40-40s-17.9-40-40-40H96c-35.3 0-64 28.7-64 64v27c0 33.9 13.5 66.5 37.5 90.5l11.6 11.6c13.7 13.7 29.6 24.6 46.9 32.5V480c0 17.7 14.3 32 32 32H320c17.7 0 32-14.3 32-32V384c38.9-29.2 64-75.7 64-128v-8.6c-9.4 5.4-20.3 8.6-32 8.6c-27.9 0-51.7-17.9-60.4-42.8C313.4 220 301.2 224 288 224c-11.7 0-22.6-3.1-32-8.6z"/>
          </symbol>
        </svg>