<svg xmlns="http://www.w3.org/2000/svg">
          <symbol id="fw-icon-duotone-synagogue" viewBox="0 0 640 512">
            <path d="M330.2 3.7c-5.9-4.9-14.6-4.9-20.5 0l-121 100.8C170.5 119.7 160 142.2 160 166V496v16h16 80V384c0-35.3 28.7-64 64-64s64 28.7 64 64V512h80 16V496 166c0-23.7-10.5-46.3-28.8-61.5L330.2 3.7zM313 124.3c3.1-5.4 10.9-5.4 13.9 0l15.9 28.1 32.3-.3c6.2-.1 10.1 6.7 7 12.1L365.7 192l16.4 27.8c3.2 5.4-.7 12.1-7 12.1l-32.3-.3L327 259.7c-3.1 5.4-10.9 5.4-13.9 0l-15.9-28.1-32.3 .3c-6.2 .1-10.1-6.7-7-12.1L274.3 192l-16.4-27.8c-3.2-5.4 .7-12.1 7-12.1l32.3 .3L313 124.3z"/>
          </symbol>
        </svg>