<svg xmlns="http://www.w3.org/2000/svg">
          <symbol id="fw-icon-duotone-vest-patches" viewBox="0 0 448 512">
            <path d="M207.1 237.4l-11 33.1c-2.7 8.2-4.1 16.7-4.1 25.3V464c0 14.5 3.9 28.2 10.7 39.9C195 509 185.9 512 176 512H48c-26.5 0-48-21.5-48-48V270.5c0-9.5 2.8-18.7 8.1-26.6l47.9-71.8c5.3-7.9 8.1-17.1 8.1-26.6V48C64 21.5 85.5 0 112 0h4.5c6.9 0 13 4.4 15.2 10.9l75.5 226.5zM224 464V295.8c0-5.2 .8-10.3 2.5-15.2L316.4 10.9C318.5 4.4 324.6 0 331.5 0H336c26.5 0 48 21.5 48 48v97.5c0 9.5 2.8 18.7 8.1 26.6l47.9 71.8c5.3 7.9 8.1 17.1 8.1 26.6V464c0 26.5-21.5 48-48 48H272c-26.5 0-48-21.5-48-48zM96 456a40 40 0 1 0 0-80 40 40 0 1 0 0 80zM63.5 255.5c-4.7 4.7-4.7 12.3 0 17L79 288 63.5 303.5c-4.7 4.7-4.7 12.3 0 17s12.3 4.7 17 0L96 305l15.5 15.5c4.7 4.7 12.3 4.7 17 0s4.7-12.3 0-17L113 288l15.5-15.5c4.7-4.7 4.7-12.3 0-17s-12.3-4.7-17 0L96 271 80.5 255.5c-4.7-4.7-12.3-4.7-17 0zM304 280v8 32c0 8.8 7.2 16 16 16h32 8c13.3 0 24-10.7 24-24s-10.7-24-24-24h-8v-8c0-13.3-10.7-24-24-24s-24 10.7-24 24z"/>
          </symbol>
        </svg>