<svg xmlns="http://www.w3.org/2000/svg">
          <symbol id="fw-icon-duotone-pineapple" viewBox="0 0 512 512">
            <path d="M45.3 429.3l37.5 37.5c29 29 68.3 45.3 109.3 45.3s80.3-16.3 109.3-45.3L402.7 365.3c29-29 45.3-68.3 45.3-109.3s-16.3-80.3-45.3-109.3l-37.5-37.5C336.3 80.3 297 64 256 64s-80.3 16.3-109.3 45.3L45.3 210.7C16.3 239.7 0 279 0 320s16.3 80.3 45.3 109.3zM187.3 212.7L208 233.4l20.7-20.7c6.2-6.2 16.4-6.2 22.6 0s6.2 16.4 0 22.6l-32 32c-6.2 6.2-16.4 6.2-22.6 0l-32-32c-6.2-6.2-6.2-16.4 0-22.6s16.4-6.2 22.6 0zm-80 80L128 313.4l20.7-20.7c6.2-6.2 16.4-6.2 22.6 0s6.2 16.4 0 22.6l-32 32c-6.2 6.2-16.4 6.2-22.6 0l-32-32c-6.2-6.2-6.2-16.4 0-22.6s16.4-6.2 22.6 0zM288 313.4l20.7-20.7c6.2-6.2 16.4-6.2 22.6 0s6.2 16.4 0 22.6l-32 32c-6.2 6.2-16.4 6.2-22.6 0l-32-32c-6.2-6.2-6.2-16.4 0-22.6s16.4-6.2 22.6 0L288 313.4zM164.7 372.7c6.2-6.2 16.4-6.2 22.6 0L208 393.4l20.7-20.7c6.2-6.2 16.4-6.2 22.6 0s6.2 16.4 0 22.6l-32 32c-6.2 6.2-16.4 6.2-22.6 0l-32-32c-6.2-6.2-6.2-16.4 0-22.6z"/>
          </symbol>
        </svg>6 0zm-102.6 80c6.2-6.2 16.4-6.2 22.6 0L208 393.4l20.7-20.7c6.2-6.2 16.4-6.2 22.6 0s6.2 16.4 0 22.6l-32 32c-6.2 6.2-16.4 6.2-22.6 0l-32-32c-6.2-6.2-6.2-16.4 0-22.6z"/>
          </symbol>
        </svg>