<svg xmlns="http://www.w3.org/2000/svg">
          <symbol id="fw-icon-duotone-pump-medical" viewBox="0 0 448 512">
            <path d="M117.4 160c-33.3 0-61 25.5-63.8 58.7L35 442.7C31.9 480 61.3 512 98.8 512H285.2c37.4 0 66.9-32 63.8-69.3l-18.7-224c-2.8-33.2-30.5-58.7-63.8-58.7H117.4zM216 280v32h32c13.3 0 24 10.7 24 24s-10.7 24-24 24H216v32c0 13.3-10.7 24-24 24s-24-10.7-24-24V360H136c-13.3 0-24-10.7-24-24s10.7-24 24-24h32V280c0-13.3 10.7-24 24-24s24 10.7 24 24z"/>
          </symbol>
        </svg>-24z"/>
          </symbol>
        </svg>