<svg xmlns="http://www.w3.org/2000/svg">
          <symbol id="fw-icon-duotone-award-simple" viewBox="0 0 384 512">
            <path d="M210.7 5.3c-11.5-7-26-7-37.5 0L155.4 16.1c-5.9 3.6-12.7 5.4-19.6 5.2l-20.9-.5c-13.5-.3-26 6.9-32.5 18.7L72.4 58c-3.3 6.1-8.3 11-14.3 14.3l-18.4 10c-11.8 6.5-19.1 19-18.7 32.5l.5 20.9c.2 6.9-1.7 13.7-5.2 19.6L5.3 173.3c-7 11.5-7 26 0 37.5l10.9 17.9c3.6 5.9 5.4 12.7 5.2 19.6l-.5 20.9c-.3 13.5 6.9 26 18.7 32.5l18.4 10c6.1 3.3 11 8.3 14.3 14.3l10 18.4c6.5 11.8 19 19.1 32.5 18.7l20.9-.5c6.9-.2 13.7 1.7 19.6 5.2l17.9 10.9c11.5 7 26 7 37.5 0l17.9-10.9c5.9-3.6 12.7-5.4 19.6-5.2l20.9 .5c13.5 .3 26-6.9 32.5-18.7l10-18.4c3.3-6.1 8.3-11 14.3-14.3l18.4-10c11.8-6.5 19.1-19 18.7-32.5l-.5-20.9c-.2-6.9 1.7-13.7 5.2-19.6l10.9-17.9c7-11.5 7-26 0-37.5l-10.9-17.9c-3.6-5.9-5.4-12.7-5.2-19.6l.5-20.9c.3-13.5-6.9-26-18.7-32.5L326 72.4c-6.1-3.3-11-8.3-14.3-14.3l-10-18.4c-6.5-11.8-19-19.1-32.5-18.7l-20.9 .5c-6.9 .2-13.7-1.7-19.6-5.2L210.7 5.3zM192 112a80 80 0 1 1 0 160 80 80 0 1 1 0-160z"/>
          </symbol>
        </svg>