<svg xmlns="http://www.w3.org/2000/svg">
          <symbol id="fw-icon-duotone-walkie-talkie" viewBox="0 0 384 512">
            <path d="M112 24c0-13.3-10.7-24-24-24S64 10.7 64 24V96h48V24zm0 136c-8.8 0-16 7.2-16 16s7.2 16 16 16H272c8.8 0 16-7.2 16-16s-7.2-16-16-16H112zm0 64c-8.8 0-16 7.2-16 16s7.2 16 16 16H272c8.8 0 16-7.2 16-16s-7.2-16-16-16H112zm0 64c-8.8 0-16 7.2-16 16s7.2 16 16 16H272c8.8 0 16-7.2 16-16s-7.2-16-16-16H112z"/>
          </symbol>
        </svg>-8.8 0-16 7.2-16 16s7.2 16 16 16H272c8.8 0 16-7.2 16-16s-7.2-16-16-16H112zm0 64c-8.8 0-16 7.2-16 16s7.2 16 16 16H272c8.8 0 16-7.2 16-16s-7.2-16-16-16H112zm0 64c-8.8 0-16 7.2-16 16s7.2 16 16 16H272c8.8 0 16-7.2 16-16s-7.2-16-16-16H112z"/>
          </symbol>
        </svg>