<svg xmlns="http://www.w3.org/2000/svg">
          <symbol id="fw-icon-duotone-blinds-open" viewBox="0 0 512 512">
            <path d="M160 192H494.2c9.8 0 17.8-8 17.8-17.8c0-4-1.4-7.9-3.9-11.1L489.6 140c-6.1-7.6-15.3-12-25-12H160v64zm-32-64H47.4c-9.7 0-18.9 4.4-25 12L3.9 163.1C1.4 166.3 0 170.2 0 174.2C0 184 8 192 17.8 192H128V128zM98.7 288H47.4c-9.7 0-18.9 4.4-25 12L3.9 323.1C1.4 326.3 0 330.2 0 334.2C0 344 8 352 17.8 352H144 494.2c9.8 0 17.8-8 17.8-17.8c0-4-1.4-7.9-3.9-11.1L489.6 300c-6.1-7.6-15.3-12-25-12H189.3c1.8 5 2.7 10.4 2.7 16c0 26.5-21.5 48-48 48s-48-21.5-48-48c0-5.6 1-11 2.7-16zM494.2 512c9.8 0 17.8-8 17.8-17.8c0-4-1.4-7.9-3.9-11.1L489.6 460c-6.1-7.6-15.3-12-25-12H47.4c-9.7 0-18.9 4.4-25 12L3.9 483.1C1.4 486.3 0 490.2 0 494.2C0 504 8 512 17.8 512H494.2z"/>
          </symbol>
        </svg>