<svg xmlns="http://www.w3.org/2000/svg">
          <symbol id="fw-icon-duotone-person-rays" viewBox="0 0 512 512">
            <path d="M41 7C31.6-2.3 16.4-2.3 7 7S-2.3 31.6 7 41l80 80c9.4 9.4 24.6 9.4 33.9 0s9.4-24.6 0-33.9L41 7zM471 7L391 87c-9.4 9.4-9.4 24.6 0 33.9s24.6 9.4 33.9 0l80-80c9.4-9.4 9.4-24.6 0-33.9s-24.6-9.4-33.9 0zM7 505c9.4 9.4 24.6 9.4 33.9 0l80-80c9.4-9.4 9.4-24.6 0-33.9s-24.6-9.4-33.9 0L7 471c-9.4 9.4-9.4 24.6 0 33.9zm464 0c9.4 9.4 24.6 9.4 33.9 0s9.4-24.6 0-33.9l-80-80c-9.4-9.4-24.6-9.4-33.9 0s-9.4 24.6 0 33.9l80 80z"/>
          </symbol>
        </svg>