<svg xmlns="http://www.w3.org/2000/svg">
          <symbol id="fw-icon-duotone-people-arrows" viewBox="0 0 640 512">
            <path d="M257.2 217.8c9 3.7 14.8 12.5 14.8 22.2v32h96V240c0-9.7 5.8-18.5 14.8-22.2s19.3-1.7 26.2 5.2l64 64c9.4 9.4 9.4 24.6 0 33.9l-64 64c-6.9 6.9-17.2 8.9-26.2 5.2s-14.8-12.5-14.8-22.2V336H272v32c0 9.7-5.8 18.5-14.8 22.2s-19.3 1.7-26.2-5.2l-64-64c-9.4-9.4-9.4-24.6 0-33.9l64-64c6.9-6.9 17.2-8.9 26.2-5.2z"/>
          </symbol>
        </svg>c26.5 0 48-21.5 48-48V348.3c26.5-9.5 44.7-35.8 42.2-65.6l-4.1-49.3C610.7 191.9 576 160 534.4 160H489.6c-38.8 0-71.5 27.7-78.6 65.1l62 62c9.4 9.4 9.4 24.6 0 33.9l-26.7 26.7zM576 64A64 64 0 1 0 448 64a64 64 0 1 0 128 0z"/>
          </symbol>
        </svg>