<svg xmlns="http://www.w3.org/2000/svg">
          <symbol id="fw-icon-duotone-fax" viewBox="0 0 512 512">
            <path d="M32 128c-17.7 0-32 14.3-32 32V480c0 17.7 14.3 32 32 32H64c17.7 0 32-14.3 32-32V160c0-17.7-14.3-32-32-32H32zm448 64H128V480c0 17.7 14.3 32 32 32H480c17.7 0 32-14.3 32-32V224c0-17.7-14.3-32-32-32zM256 256a32 32 0 1 1 0 64 32 32 0 1 1 0-64zm96 32a32 32 0 1 1 64 0 32 32 0 1 1 -64 0zm32 96a32 32 0 1 1 0 64 32 32 0 1 1 0-64zM224 416a32 32 0 1 1 64 0 32 32 0 1 1 -64 0z"/>
          </symbol>
        </svg>