<svg xmlns="http://www.w3.org/2000/svg">
          <symbol id="fw-icon-duotone-sunset" viewBox="0 0 576 512">
            <path d="M354.5 104.3L320 135.7V32c0-17.7-14.3-32-32-32s-32 14.3-32 32V135.7l-34.5-31.3c-13.1-11.9-33.3-10.9-45.2 2.2s-10.9 33.3 2.2 45.2l88 80c12.2 11.1 30.8 11.1 43.1 0l88-80c13.1-11.9 14-32.1 2.2-45.2s-32.1-14-45.2-2.2zM24 464c-13.3 0-24 10.7-24 24s10.7 24 24 24H552c13.3 0 24-10.7 24-24s-10.7-24-24-24H24z"/>
          </symbol>
        </svg>5.4-47.1-80-94.7-80s-87.1 34.6-94.7 80H382.7z"/>
          </symbol>
        </svg>