<svg xmlns="http://www.w3.org/2000/svg">
          <symbol id="fw-icon-duotone-gauge-circle-plus" viewBox="0 0 640 512">
            <path d="M352 368a144 144 0 1 1 288 0 144 144 0 1 1 -288 0zm144-80c-8.8 0-16 7.2-16 16v48H432c-8.8 0-16 7.2-16 16s7.2 16 16 16h48v48c0 8.8 7.2 16 16 16s16-7.2 16-16V384h48c8.8 0 16-7.2 16-16s-7.2-16-16-16H512V304c0-8.8-7.2-16-16-16z"/>
          </symbol>
        </svg>7-24 24V292.7c-23.5 9.5-40 32.5-40 59.3c0 35.3 28.7 64 64 64zM176 144a32 32 0 1 0 -64 0 32 32 0 1 0 64 0zM96 288a32 32 0 1 0 0-64 32 32 0 1 0 0 64zM368 176a32 32 0 1 0 0-64 32 32 0 1 0 0 64z"/>
          </symbol>
        </svg>