<svg xmlns="http://www.w3.org/2000/svg">
          <symbol id="fw-icon-duotone-qrcode" viewBox="0 0 448 512">
            <path d="M48 32C21.5 32 0 53.5 0 80v96c0 26.5 21.5 48 48 48h96c26.5 0 48-21.5 48-48V80c0-26.5-21.5-48-48-48H48zm80 64v64H64V96h64zM48 288c-26.5 0-48 21.5-48 48v96c0 26.5 21.5 48 48 48h96c26.5 0 48-21.5 48-48V336c0-26.5-21.5-48-48-48H48zm80 64v64H64V352h64zM256 80v96c0 26.5 21.5 48 48 48h96c26.5 0 48-21.5 48-48V80c0-26.5-21.5-48-48-48H304c-26.5 0-48 21.5-48 48zm64 16h64v64H320V96z"/>
          </symbol>
        </svg>