<svg xmlns="http://www.w3.org/2000/svg">
          <symbol id="fw-icon-duotone-hanukiah" viewBox="0 0 640 512">
            <path d="M314.2 3.3C309.1 12.1 296 36.6 296 56c0 13.3 10.7 24 24 24s24-10.7 24-24c0-19.4-13.1-43.9-18.2-52.7C324.6 1.2 322.4 0 320 0s-4.6 1.2-5.8 3.3zm-288 48C21.1 60.1 8 84.6 8 104c0 13.3 10.7 24 24 24s24-10.7 24-24c0-19.4-13.1-43.9-18.2-52.7C36.6 49.2 34.4 48 32 48s-4.6 1.2-5.8 3.3zM88 104c0 13.3 10.7 24 24 24s24-10.7 24-24c0-19.4-13.1-43.9-18.2-52.7c-1.2-2.1-3.4-3.3-5.8-3.3s-4.6 1.2-5.8 3.3C101.1 60.1 88 84.6 88 104zm82.2-52.7C165.1 60.1 152 84.6 152 104c0 13.3 10.7 24 24 24s24-10.7 24-24c0-19.4-13.1-43.9-18.2-52.7c-1.2-2.1-3.4-3.3-5.8-3.3s-4.6 1.2-5.8 3.3zM216 104c0 13.3 10.7 24 24 24s24-10.7 24-24c0-19.4-13.1-43.9-18.2-52.7c-1.2-2.1-3.4-3.3-5.8-3.3s-4.6 1.2-5.8 3.3C229.1 60.1 216 84.6 216 104zM394.2 51.3C389.1 60.1 376 84.6 376 104c0 13.3 10.7 24 24 24s24-10.7 24-24c0-19.4-13.1-43.9-18.2-52.7c-1.2-2.1-3.4-3.3-5.8-3.3s-4.6 1.2-5.8 3.3zM440 104c0 13.3 10.7 24 24 24s24-10.7 24-24c0-19.4-13.1-43.9-18.2-52.7c-1.2-2.1-3.4-3.3-5.8-3.3s-4.6 1.2-5.8 3.3C453.1 60.1 440 84.6 440 104zm82.2-52.7C517.1 60.1 504 84.6 504 104c0 13.3 10.7 24 24 24s24-10.7 24-24c0-19.4-13.1-43.9-18.2-52.7c-1.2-2.1-3.4-3.3-5.8-3.3s-4.6 1.2-5.8 3.3zM584 104c0 13.3 10.7 24 24 24s24-10.7 24-24c0-19.4-13.1-43.9-18.2-52.7c-1.2-2.1-3.4-3.3-5.8-3.3s-4.6 1.2-5.8 3.3C597.1 60.1 584 84.6 584 104z"/>
          </symbol>
        </svg>