<svg xmlns="http://www.w3.org/2000/svg">
          <symbol id="fw-icon-duotone-user-vneck-hair" viewBox="0 0 448 512">
            <path d="M120 112h56c34.6 0 65-18.3 81.9-45.8C269.2 84.1 289.2 96 312 96h36C333.8 40.8 283.6 0 224 0C160.3 0 107.5 46.5 97.7 107.4c6.8 3 14.4 4.6 22.3 4.6zm25.9 202.9c-3.5-5.2-9.8-8-15.9-6.6C55.5 325.5 0 392.3 0 472v8c0 17.7 14.3 32 32 32H416c17.7 0 32-14.3 32-32v-8c0-79.7-55.5-146.5-130-163.7c-6.1-1.4-12.4 1.4-15.9 6.6L237.3 412c-6.3 9.5-20.3 9.5-26.6 0l-64.8-97.1z"/>
          </symbol>
        </svg>