<svg xmlns="http://www.w3.org/2000/svg">
          <symbol id="fw-icon-duotone-clipboard-check" viewBox="0 0 384 512">
            <path d="M113.2 66.3C93.9 72.6 80 90.7 80 112v24c0 13.3 10.7 24 24 24h88 88c13.3 0 24-10.7 24-24V112c0-21.3-13.9-39.4-33.2-45.7C264.4 28.7 231.5 0 192 0s-72.4 28.7-78.8 66.3zM168 80a24 24 0 1 1 48 0 24 24 0 1 1 -48 0zM305 273c9.4-9.4 9.4-24.6 0-33.9s-24.6-9.4-33.9 0l-111 111-47-47c-9.4-9.4-24.6-9.4-33.9 0s-9.4 24.6 0 33.9l64 64c9.4 9.4 24.6 9.4 33.9 0L305 273z"/>
          </symbol>
        </svg>33.9 0s9.4 24.6 0 33.9z"/>
          </symbol>
        </svg>