<svg xmlns="http://www.w3.org/2000/svg">
          <symbol id="fw-icon-duotone-cow" viewBox="0 0 640 512">
            <path d="M72 184c0-24.3 12.1-45.8 30.5-58.9C98.3 135.9 96 147.7 96 160v64 32V416c0 17.7 14.3 32 32 32h32c17.7 0 32-14.3 32-32V328v-.2s0 0 0 0c.1-30.8 25.2-55.8 56-55.8h48c30.8 0 55.9 24.9 56 55.8c0 0 0 0 0 0v.2 88c0 17.7 14.3 32 32 32h32c17.7 0 32-14.3 32-32V256l32 32v49.5c0 9.5 2.8 18.7 8.1 26.6L530 427c8.8 13.1 23.5 21 39.3 21c22.5 0 41.9-15.9 46.3-38l20.3-101.6c2.6-13-.3-26.5-8-37.3l-3.9-5.5V184c0-13.3-10.7-24-24-24s-24 10.7-24 24v14.4l-52.9-74.1C496 86.5 452.4 64 405.9 64H272 256 192 144C77.7 64 24 117.7 24 184v54c11-8.8 24.9-14 40-14h8V184zM576 320a16 16 0 1 1 0 32 16 16 0 1 1 0-32zM190.1 190.1l-23.4-23.4c-4.2-4.2-6.6-10-6.6-16c0-12.5 10.1-22.6 22.6-22.6H361.4c12.5 0 22.6 10.1 22.6 22.6c0 6-2.4 11.8-6.6 16l-23.4 23.4C332.2 211.8 302.7 224 272 224s-60.2-12.2-81.9-33.9z"/>
          </symbol>
        </svg>