<svg xmlns="http://www.w3.org/2000/svg">
          <symbol id="fw-icon-duotone-violin" viewBox="0 0 640 512">
            <path d="M630.6 54.6l-192 192c-12.5 12.5-32.8 12.5-45.3 0s-12.5-32.8 0-45.3l192-192c12.5-12.5 32.8-12.5 45.3 0s12.5 32.8 0 45.3zM345 7c9.4 9.4 9.4 24.6 0 33.9L41 345c-9.4 9.4-24.6 9.4-33.9 0s-9.4-24.6 0-33.9L311 7c9.4-9.4 24.6-9.4 33.9 0zM219.3 404.7l16 16c5.6 5.6 6.3 14.5 1.5 20.9l-48 64c-2.8 3.7-7 6-11.7 6.4s-9.2-1.4-12.4-4.6l-32-32c-3.3-3.3-5-7.8-4.6-12.4s2.6-8.9 6.4-11.7l64-48c6.4-4.8 15.3-4.1 20.9 1.5z"/>
          </symbol>
        </svg>8 0 59.3-9.6 82.6-26.1c6.7-4.7 7.6-13.8 4.3-21.3c-4.5-10-7-21-7-32.7c0-44.2 35.8-80 80-80c5.3 0 10.5 .5 15.4 1.5c7.4 1.4 15.4-1 18.8-7.7c8.8-17.4 13.8-37 13.8-57.8c0-23.7-6.5-46-17.7-65l-23.7 23.7c-12.5 12.5-32.8 12.5-45.3 0s-12.5-32.8 0-45.3L417 177.7zM568 192a24 24 0 1 0 0-48 24 24 0 1 0 0 48zm48-48a24 24 0 1 0 0-48 24 24 0 1 0 0 48z"/>
          </symbol>
        </svg>