<svg xmlns="http://www.w3.org/2000/svg">
          <symbol id="fw-icon-duotone-building-wheat" viewBox="0 0 640 512">
            <path d="M640 208l0-16-16 0c-44.2 0-80 35.8-80 80l0 16 16 0c44.2 0 80-35.8 80-80zm0 96l-16 0c-44.2 0-80 35.8-80 80l0 16 16 0c44.2 0 80-35.8 80-80l0-16zm0 112l-16 0c-44.2 0-80 35.8-80 80l0 16 16 0c44.2 0 80-35.8 80-80l0-16zM512 512l0-16c0-44.2-35.8-80-80-80l-16 0 0 16c0 44.2 35.8 80 80 80l16 0zm0-128c0-44.2-35.8-80-80-80l-16 0 0 16c0 44.2 35.8 80 80 80l16 0 0-16zm0-96l0-16c0-44.2-35.8-80-80-80l-16 0 0 16c0 44.2 35.8 80 80 80l16 0zM552 56c0-13.3-10.7-24-24-24s-24 10.7-24 24l0 104c0 13.3 10.7 24 24 24s24-10.7 24-24l0-104zm48 16c-13.3 0-24 10.7-24 24l0 32c0 13.3 10.7 24 24 24s24-10.7 24-24l0-32c0-13.3-10.7-24-24-24zM480 96c0-13.3-10.7-24-24-24s-24 10.7-24 24l0 32c0 13.3 10.7 24 24 24s24-10.7 24-24l0-32z"/>
          </symbol>
        </svg>16z"/>
          </symbol>
        </svg>