<svg xmlns="http://www.w3.org/2000/svg">
          <symbol id="fw-icon-duotone-buoy" viewBox="0 0 576 512">
            <path d="M391 64H325.8l9.8 49L288 168.5 240.4 113l9.8-49H185L133.8 320H96c-17.7 0-32 14.3-32 32v16c0 8.2 .7 16.1 2 23.9c21-11.1 46.9-9.9 66.9 4.2c18 12.4 40.1 20.3 59.2 20.3c21.1 0 42-8.5 59.2-20.3c22.1-15.5 51.6-15.5 73.7 0c18.4 12.7 39.6 20.3 59.2 20.3c19 0 41.2-7.9 59.2-20.3c20-14.1 45.9-15.3 66.9-4.2c1.3-7.8 2-15.8 2-23.9V352c0-17.7-14.3-32-32-32H442.2L391 64zM347.5 172.8l17 84.9-44.9-52.4 27.9-32.6zm-91.1 32.6l-44.9 52.4 17-84.9 27.9 32.6zM221.3 320L288 242.2 354.7 320H221.3z"/>
          </symbol>
        </svg>7 38.4-23.9s-6.7-34.4-23.9-38.4c-18.1-4.2-36.2-13.3-50.6-25.2c-11.1-9.4-27.3-10.1-39.2-1.7l0 0C439.4 437.2 410.9 448 384 448c-27.5 0-55-10.6-77.5-26.1z"/>
          </symbol>
        </svg>