<svg xmlns="http://www.w3.org/2000/svg">
          <symbol id="fw-icon-duotone-tree-palm" viewBox="0 0 576 512">
            <path d="M133.2 141.9L102.9 91.4c-3.1-5.2-10.6-5.2-13.7 0L69.5 124.1c-1.4 2.4-4 3.9-6.9 3.9H16c-8.8 0-16.1-7.2-14.4-15.9C10.7 64.2 59.6 0 160 0c88 0 136.5 49.4 153.2 93.8C338.4 76.2 372.3 64 416 64c100.4 0 149.3 64.2 158.4 112.1c1.7 8.7-5.6 15.9-14.4 15.9H513.3c-2.8 0-5.4-1.5-6.9-3.9l-19.6-32.7c-3.1-5.2-10.6-5.2-13.7 0l-19.6 32.7c-1.4 2.4-4.1 3.9-6.9 3.9H272c-2.5 0-5-.6-7.1-1.7L109.8 345.5c-6.2 6.2-16.5 6.3-21.4-1C61 304.1 50.2 224.1 121.1 153.1c4-4 8-7.7 12-11.2z"/>
          </symbol>
        </svg>