<svg xmlns="http://www.w3.org/2000/svg">
          <symbol id="fw-icon-duotone-hat-cowboy-side" viewBox="0 0 640 512">
            <path d="M141.9 195.3l10.8-59.4c4.4-24.4 22.5-44 46.5-50.4L391.9 34.2c5.4-1.4 10.9-2.2 16.5-2.2h2.7c30.7 0 57.1 21.8 62.8 51.9l28.7 149.3 2.9 15.2 3.7 19.5 17.7 4.4c33.8 8.4 61.7 32 75.9 63.8c3.3 7.5 5.1 15.6 5.1 23.8V368c0 26.5-21.5 48-48 48h-.9c-6.6 0-13-2-18.3-5.8L273 222.8c-28.6-20-62.7-30.8-97.7-30.8c-11.4 0-22.5 1.1-33.4 3.3zM116.8 448C70 448 32 410 32 363.2c0-15.4 3.6-30.6 10.5-44.4l9.2-18.4C75.1 253.6 123 224 175.4 224c28.4 0 56.1 8.7 79.3 25L522.4 436.4C533.2 444 546 448 559.1 448H544 116.8zM560 448c2.5 0 5-.1 7.5-.3l.5 .3h-8z"/>
          </symbol>
        </svg>