<svg xmlns="http://www.w3.org/2000/svg">
          <symbol id="fw-icon-duotone-wind-warning" viewBox="0 0 640 512">
            <path d="M433.3 176c7.7 20.1 12.6 41.6 14.1 64H544c53 0 96-43 96-96s-43-96-96-96H512c-17.7 0-32 14.3-32 32s14.3 32 32 32h32c17.7 0 32 14.3 32 32s-14.3 32-32 32H433.3zM472 432c0 17.7 14.3 32 32 32h32c53 0 96-43 96-96s-43-96-96-96H384c-17.7 0-32 14.3-32 32s14.3 32 32 32H536c17.7 0 32 14.3 32 32s-14.3 32-32 32H504c-17.7 0-32 14.3-32 32zM224 128c-13.3 0-24 10.7-24 24V264c0 13.3 10.7 24 24 24s24-10.7 24-24V152c0-13.3-10.7-24-24-24zm32 224a32 32 0 1 0 -64 0 32 32 0 1 0 64 0z"/>
          </symbol>
        </svg>