<svg xmlns="http://www.w3.org/2000/svg">
          <symbol id="fw-icon-duotone-ram" viewBox="0 0 640 512">
            <path d="M400 0c-35.3 0-64 28.7-64 64v8c0 13.3 10.7 24 24 24s24-10.7 24-24V64c0-8.8 7.2-16 16-16s16 7.2 16 16V88.4c-6.8 6.1-12.8 13.2-17.6 21l-47.8 20.5c-12.2 5.2-17.8 19.3-12.6 31.5s19.3 17.8 31.5 12.6l14.5-6.2V240c0 44.2 35.8 80 80 80h32c44.2 0 80-35.8 80-80V167.8l14.5 6.2c12.2 5.2 26.3-.4 31.5-12.6s-.4-26.3-12.6-31.5l-47.8-20.5c-4.9-7.8-10.8-14.9-17.6-21V64c0-8.8 7.2-16 16-16s16 7.2 16 16v8c0 13.3 10.7 24 24 24s24-10.7 24-24V64c0-35.3-28.7-64-64-64s-64 28.7-64 64v1.3c-5.2-.9-10.5-1.3-16-1.3s-10.8 .5-16 1.3V64c0-35.3-28.7-64-64-64zm64 160a16 16 0 1 1 0 32 16 16 0 1 1 0-32zm48 16a16 16 0 1 1 32 0 16 16 0 1 1 -32 0zM115.1 485.9c2.8 15.1 16.1 26.1 31.5 26.1H176c17.7 0 32-14.3 32-32V426.3l-.2-.2C196.9 434.8 183 440 168 440c-30.1 0-55.3-20.8-62.2-48.7c-2.7 .4-5.5 .7-8.3 .7l17.6 93.9zM304 480c0 17.7 14.3 32 32 32h29.4c15.4 0 28.6-11 31.4-26.1L414.5 392c-2.8-.1-5.6-.3-8.3-.7c-6.8 28-32.1 48.7-62.2 48.7c-15 0-28.9-5.2-39.8-13.9l-.2 .2V480z"/>
          </symbol>
        </svg>