<svg xmlns="http://www.w3.org/2000/svg">
          <symbol id="fw-icon-duotone-share-from-square" viewBox="0 0 576 512">
            <path d="M80 96c-8.8 0-16 7.2-16 16V432c0 8.8 7.2 16 16 16H400c8.8 0 16-7.2 16-16V384c0-17.7 14.3-32 32-32s32 14.3 32 32v48c0 44.2-35.8 80-80 80H80c-44.2 0-80-35.8-80-80V112C0 67.8 35.8 32 80 32h48c17.7 0 32 14.3 32 32s-14.3 32-32 32H80z"/>
          </symbol>
        </svg>.5c9.8 0 17.8-8 17.8-17.8c0-8.3-5.9-15.5-12.8-20.3c-8.9-6.2-19.2-18.2-19.2-40.5c0-45 36.5-81.5 81.5-81.5H352z"/>
          </symbol>
        </svg>