<svg xmlns="http://www.w3.org/2000/svg">
          <symbol id="fw-icon-duotone-face-sleepy" viewBox="0 0 512 512">
            <path d="M195.2 246.4c-17.6 23.5-52.8 23.5-70.4 0c-5.3-7.1-15.3-8.5-22.4-3.2s-8.5 15.3-3.2 22.4c30.4 40.5 91.2 40.5 121.6 0c5.3-7.1 3.9-17.1-3.2-22.4s-17.1-3.9-22.4 3.2zm192 0c-17.6 23.5-52.8 23.5-70.4 0c-5.3-7.1-15.3-8.5-22.4-3.2s-8.5 15.3-3.2 22.4c30.4 40.5 91.2 40.5 121.6 0c5.3-7.1 3.9-17.1-3.2-22.4s-17.1-3.9-22.4 3.2zM512 464c0-80-112-128-160-128c64 25.6 64 96 64 128c0 26.5 21.5 48 48 48s48-21.5 48-48z"/>
          </symbol>
        </svg>10.1-61.8-10.1s-42.9 3.6-61.8 10.1zM387.2 246.4c5.3-7.1 15.3-8.5 22.4-3.2s8.5 15.3 3.2 22.4c-30.4 40.5-91.2 40.5-121.6 0c-5.3-7.1-3.9-17.1 3.2-22.4s17.1-3.9 22.4 3.2c17.6 23.5 52.8 23.5 70.4 0zm-262.4 0c17.6 23.5 52.8 23.5 70.4 0c5.3-7.1 15.3-8.5 22.4-3.2s8.5 15.3 3.2 22.4c-30.4 40.5-91.2 40.5-121.6 0c-5.3-7.1-3.9-17.1 3.2-22.4s17.1-3.9 22.4 3.2z"/>
          </symbol>
        </svg>