<svg xmlns="http://www.w3.org/2000/svg">
          <symbol id="fw-icon-duotone-scalpel-line-dashed" viewBox="0 0 576 512">
            <path d="M387.5 24.6C400.9 9 420.5 0 441.2 0C480.3 0 512 31.7 512 70.8v3.4c0 17.9-6.5 35.2-18.2 48.7L337.2 303.5C328 314 314.8 320 300.9 320H168c-6.3 0-11.9-3.6-14.5-9.3s-1.7-12.4 2.4-17.1L387.5 24.6zM240 480h64c8.8 0 16 7.2 16 16s-7.2 16-16 16H240c-8.8 0-16-7.2-16-16s7.2-16 16-16zm128 0h64c8.8 0 16 7.2 16 16s-7.2 16-16 16H368c-8.8 0-16-7.2-16-16s7.2-16 16-16zm128 0h64c8.8 0 16 7.2 16 16s-7.2 16-16 16H496c-8.8 0-16-7.2-16-16s7.2-16 16-16z"/>
          </symbol>
        </svg>