<svg xmlns="http://www.w3.org/2000/svg">
          <symbol id="fw-icon-duotone-house-water" viewBox="0 0 576 512">
            <path d="M575.8 255.5c0 18-15 32.1-32 32.1h-32l.5 105.6c-21.3-12.4-48.3-11.6-69.1 3c-18 12.4-40.1 20.3-59.2 20.3c-19.6 0-40.8-7.7-59.2-20.3c-22.1-15.5-51.6-15.5-73.7 0c-17.1 11.8-38 20.3-59.2 20.3c-19 0-41.2-7.9-59.2-20.3c-20.6-14.5-47.5-15.4-68.8-3.1V287.6H32c-18 0-32-14-32-32.1c0-9 3-17 10-24L266.4 8c7-7 15-8 22-8s15 2 21 7L564.8 231.5c8 7 12 15 11 24zM248 192c-13.3 0-24 10.7-24 24v80c0 13.3 10.7 24 24 24h80c13.3 0 24-10.7 24-24V216c0-13.3-10.7-24-24-24H248z"/>
          </symbol>
        </svg>.1-9.4 27.3-10.1 39.2-1.7l0 0C136.7 437.2 165.1 448 192 448c27.5 0 55-10.6 77.5-26.1z"/>
          </symbol>
        </svg>