<svg xmlns="http://www.w3.org/2000/svg">
          <symbol id="fw-icon-duotone-dna" viewBox="0 0 448 512">
            <path d="M448 32c0-17.7-14.3-32-32-32s-32 14.3-32 32c0 34.2-15.9 65-45.4 96H109.4c15.2 15.9 33.8 31.8 55.4 48H283.3c-23.6 17.7-49.7 35.2-77 53.4l-1.6 1 0 0 0 0c-46.9 31.2-97.1 64.7-135.3 102.9C30.3 372.5 0 420.2 0 480c0 17.7 14.3 32 32 32s32-14.3 32-32H384c0-22.6-7-43.6-19.9-64H83.9c8-12.5 18.3-24.9 30.7-37.4c33.3-33.3 78.4-63.5 127.1-96l1.6-1 0 0c46.9-31.2 97.1-64.7 135.3-102.9C417.7 139.5 448 91.8 448 32z"/>
          </symbol>
        </svg>7 0 32 0S0 14.3 0 32C0 91.8 30.3 139.5 69.4 178.6c28 28 62.5 53.5 97.3 77.4z"/>
          </symbol>
        </svg>