<svg xmlns="http://www.w3.org/2000/svg">
          <symbol id="fw-icon-duotone-fire-extinguisher" viewBox="0 0 512 512">
            <path d="M500.3 7.3C507.7 13.3 512 22.4 512 32v96c0 9.6-4.3 18.7-11.7 24.7s-17.2 8.5-26.6 6.6l-160-32c-15-3-25.7-16.1-25.7-31.4V64c0-15.3 10.8-28.4 25.7-31.4l160-32c9.4-1.9 19.1 .6 26.6 6.6zM128 32c0-17.7 14.3-32 32-32h32c17.7 0 32 14.3 32 32V138.8c37.8 18 64 56.5 64 101.2V416H64V240c0-44.7 26.2-83.2 64-101.2V32zm48 64a16 16 0 1 0 0-32 16 16 0 1 0 0 32z"/>
          </symbol>
        </svg>