<svg xmlns="http://www.w3.org/2000/svg">
          <symbol id="fw-icon-duotone-truck-plane" viewBox="0 0 640 512">
            <path d="M336 128c-26.5 0-48 21.5-48 48V400c0 20.9 13.4 38.7 32 45.3V488c0 13.3 10.7 24 24 24h16c13.3 0 24-10.7 24-24V448H544v40c0 13.3 10.7 24 24 24h16c13.3 0 24-10.7 24-24V445.3c18.6-6.6 32-24.4 32-45.3V176c0-26.5-21.5-48-48-48H336zm16 176l15.8-49.3c3.3-8.7 11.2-14.7 20.5-14.7H539.7c9.2 0 17.2 6 20.5 14.7L576 304H352zm192 72a24 24 0 1 1 48 0 24 24 0 1 1 -48 0zM360 352a24 24 0 1 1 0 48 24 24 0 1 1 0-48z"/>
          </symbol>
        </svg>