<svg xmlns="http://www.w3.org/2000/svg">
          <symbol id="fw-icon-duotone-scale-unbalanced" viewBox="0 0 640 512">
            <path d="M521 62.4c16.8-5.6 25.8-23.7 20.2-40.5S517.5-3.9 500.7 1.6l-113 37.7C373.8 15.8 348.2 0 318.8 0c-44.2 0-80 35.8-80 80c0 3 .2 5.9 .5 8.8L116.7 129.6c-16.8 5.6-25.8 23.7-20.2 40.5s23.7 25.8 40.5 20.2l135.5-45.2c4.5 3.2 9.3 5.9 14.4 8.2V480c0 17.7 14.3 32 32 32h192c17.7 0 32-14.3 32-32s-14.3-32-32-32h-160V153.3c21-9.2 37.2-27 44.2-49L521 62.4z"/>
          </symbol>
        </svg>24.1 13.8L8.7 401.1C3 410.8-.6 422.1 2 433.1z"/>
          </symbol>
        </svg>