<svg xmlns="http://www.w3.org/2000/svg">
          <symbol id="fw-icon-duotone-cart-flatbed" viewBox="0 0 640 512">
            <path d="M32 0C14.3 0 0 14.3 0 32S14.3 64 32 64H48c8.8 0 16 7.2 16 16V368c0 44.2 35.8 80 80 80H608c17.7 0 32-14.3 32-32s-14.3-32-32-32H144c-8.8 0-16-7.2-16-16V80C128 35.8 92.2 0 48 0H32zM336 176c0 5.9 3.2 11.3 8.5 14.1s11.5 2.5 16.4-.8L400 163.2l39.1 26.1c4.9 3.3 11.2 3.6 16.4 .8s8.5-8.2 8.5-14.1V32H448 432 368 352 336V176z"/>
          </symbol>
        </svg> 2.7 16c0 26.5-21.5 48-48 48s-48-21.5-48-48z"/>
          </symbol>
        </svg>