<svg xmlns="http://www.w3.org/2000/svg">
          <symbol id="fw-icon-duotone-trash-list" viewBox="0 0 640 512">
            <path d="M147.8 0c-12.1 0-23.2 6.8-28.6 17.7L112 32H32C14.3 32 0 46.3 0 64S14.3 96 32 96H384c17.7 0 32-14.3 32-32s-14.3-32-32-32H304l-7.2-14.3C291.4 6.8 280.3 0 268.2 0H147.8zM448 160c0 17.7 14.3 32 32 32H608c17.7 0 32-14.3 32-32s-14.3-32-32-32H480c-17.7 0-32 14.3-32 32zm0 128c0 17.7 14.3 32 32 32h96c17.7 0 32-14.3 32-32s-14.3-32-32-32H480c-17.7 0-32 14.3-32 32zm32 96c-17.7 0-32 14.3-32 32s14.3 32 32 32h32c17.7 0 32-14.3 32-32s-14.3-32-32-32H480z"/>
          </symbol>
        </svg>