<svg xmlns="http://www.w3.org/2000/svg">
          <symbol id="fw-icon-duotone-sliders-up" viewBox="0 0 512 512">
            <path d="M96 128a32 32 0 1 1 0 64 32 32 0 1 1 0-64zm0 112A80 80 0 1 0 96 80a80 80 0 1 0 0 160zm160 80a32 32 0 1 1 0 64 32 32 0 1 1 0-64zm0 112a80 80 0 1 0 0-160 80 80 0 1 0 0 160zM384 192a32 32 0 1 1 64 0 32 32 0 1 1 -64 0zm112 0a80 80 0 1 0 -160 0 80 80 0 1 0 160 0z"/>
          </symbol>
        </svg> 425.3V480c0 17.7 14.3 32 32 32s32-14.3 32-32V425.3c-9.8 4.3-20.6 6.7-32 6.7s-22.2-2.4-32-6.7zM448 32c0-17.7-14.3-32-32-32s-32 14.3-32 32v86.7c9.8-4.3 20.6-6.7 32-6.7s22.2 2.4 32 6.7V32zM384 265.3V480c0 17.7 14.3 32 32 32s32-14.3 32-32V265.3c-9.8 4.3-20.6 6.7-32 6.7s-22.2-2.4-32-6.7z"/>
          </symbol>
        </svg>