<svg xmlns="http://www.w3.org/2000/svg">
          <symbol id="fw-icon-duotone-car-side-bolt" viewBox="0 0 640 512">
            <path d="M347.2 116.6c5.3 5.2 6.3 13.3 2.5 19.6L316.3 192H368c7.1 0 13.4 4.7 15.4 11.6s-.8 14.2-6.9 18l-128 80c-6.3 3.9-14.4 3-19.7-2.2s-6.3-13.3-2.5-19.6L259.7 224H208c-7.1 0-13.4-4.7-15.4-11.6s.8-14.2 6.9-18l128-80c6.3-3.9 14.4-3 19.7 2.2zM64 432a80 80 0 1 1 160 0A80 80 0 1 1 64 432zm352 0a80 80 0 1 1 160 0 80 80 0 1 1 -160 0z"/>
          </symbol>
        </svg>4.2-6.9 18l-128 80c-6.3 3.9-14.4 3-19.7-2.2s-6.3-13.3-2.5-19.6L259.7 224H208c-7.1 0-13.4-4.7-15.4-11.6s.8-14.2 6.9-18l128-80c6.3-3.9 14.4-3 19.7 2.2z"/>
          </symbol>
        </svg>