<svg xmlns="http://www.w3.org/2000/svg">
          <symbol id="fw-icon-duotone-arrow-progress" viewBox="0 0 512 512">
            <path d="M256 110.1V96H128c-35.3 0-64 28.7-64 64s28.7 64 64 64H384c70.7 0 128 57.3 128 128c0 62.2-44.4 114.1-103.2 125.6C398.1 498 376.7 512 352 512c-35.3 0-64-28.7-64-64s28.7-64 64-64c22.2 0 41.7 11.3 53.2 28.4c24.9-8.7 42.8-32.5 42.8-60.4c0-35.3-28.7-64-64-64H128C57.3 288 0 230.7 0 160S57.3 32 128 32H256V17.9C256 8 264 0 273.9 0c4 0 7.8 1.3 11 3.8l60.8 47.3c4 3.1 6.3 7.9 6.3 12.9s-2.3 9.8-6.3 12.9l-60.8 47.3c-3.1 2.4-7 3.8-11 3.8c-9.9 0-17.9-8-17.9-17.9z"/>
          </symbol>
        </svg>