<svg xmlns="http://www.w3.org/2000/svg">
          <symbol id="fw-icon-duotone-trash-can-list" viewBox="0 0 640 512">
            <path d="M119.2 17.7C124.6 6.8 135.7 0 147.8 0H268.2c12.1 0 23.2 6.8 28.6 17.7L304 32h80c17.7 0 32 14.3 32 32s-14.3 32-32 32H32C14.3 96 0 81.7 0 64S14.3 32 32 32h80l7.2-14.3zM480 128H608c17.7 0 32 14.3 32 32s-14.3 32-32 32H480c-17.7 0-32-14.3-32-32s14.3-32 32-32zm0 128h96c17.7 0 32 14.3 32 32s-14.3 32-32 32H480c-17.7 0-32-14.3-32-32s14.3-32 32-32zM448 416c0-17.7 14.3-32 32-32h32c17.7 0 32 14.3 32 32s-14.3 32-32 32H480c-17.7 0-32-14.3-32-32z"/>
          </symbol>
        </svg>