<svg xmlns="http://www.w3.org/2000/svg">
          <symbol id="fw-icon-duotone-lollipop" viewBox="0 0 512 512">
            <path d="M48 192c0 57.4 46.6 104 104 104h8c53 0 96-43 96-96v-8c0-35.3-28.7-64-64-64s-64 28.7-64 64c0 13.3 10.7 24 24 24s24-10.7 24-24v-8c0-13.3 10.7-24 24-24s24 10.7 24 24v8c0 39.8-32.2 72-72 72s-72-32.2-72-72c0-61.9 50.1-112 112-112s112 50.1 112 112v8c0 61.6-38.7 114.2-93.2 134.8C281.4 325.6 336 265.2 336 192c0-79.5-64.5-144-144-144S48 112.5 48 192zM0 192a192 192 0 1 1 384 0A192 192 0 1 1 0 192z"/>
          </symbol>
        </svg>