<svg xmlns="http://www.w3.org/2000/svg">
          <symbol id="fw-icon-duotone-bridge-lock" viewBox="0 0 640 512">
            <path d="M64 32C46.3 32 32 46.3 32 64s14.3 32 32 32h40v64H32V288c53 0 96 43 96 96v64c0 17.7 14.3 32 32 32h32c17.7 0 32-14.3 32-32V384c0-53 43-96 96-96c28.8 0 54.6 12.7 72.2 32.7c5.6-10 13.9-18.4 23.8-24.1V272c0-61.9 50.1-112 112-112h8V96h40c17.7 0 32-14.3 32-32s-14.3-32-32-32H64zM488 96v64H408V96h80zM360 96v64H280V96h80zM232 96v64H152V96h80z"/>
          </symbol>
        </svg>