<svg xmlns="http://www.w3.org/2000/svg">
          <symbol id="fw-icon-duotone-person-booth" viewBox="0 0 576 512">
            <path d="M64 32a48 48 0 1 1 0 96 48 48 0 1 1 0-96zm48 237.3v72.1l38.4 51.2c6.2 8.3 9.6 18.4 9.6 28.8V480c0 17.7-14.3 32-32 32s-32-14.3-32-32V426.7L64 384v96c0 17.7-14.3 32-32 32s-32-14.3-32-32V278.3l0-.9V221.6c0-34 27.6-61.6 61.6-61.6c20.3 0 39.7 8.1 54 22.4L157.3 224H224c17.7 0 32 14.3 32 32s-14.3 32-32 32H150.6c-12.7 0-24.9-5.1-33.9-14.1l-4.7-4.7z"/>
          </symbol>
        </svg>8.6-37.7 25.1s-28.6-20.3-25.1-37.7l30.9-154.6L288.3 36.5C287 27.3 289.7 18 295.8 11z"/>
          </symbol>
        </svg>