<svg xmlns="http://www.w3.org/2000/svg">
          <symbol id="fw-icon-duotone-user-astronaut" viewBox="0 0 448 512">
            <path d="M112 144c0-26.5 21.5-48 48-48H288c26.5 0 48 21.5 48 48v16c0 53-43 96-96 96H208c-53 0-96-43-96-96V144zm77.3 18.7l-6-21.2c-.9-3.3-3.9-5.5-7.3-5.5s-6.4 2.2-7.3 5.5l-6 21.2-21.2 6c-3.3 .9-5.5 3.9-5.5 7.3s2.2 6.4 5.5 7.3l21.2 6 6 21.2c.9 3.3 3.9 5.5 7.3 5.5s6.4-2.2 7.3-5.5l6-21.2 21.2-6c3.3-.9 5.5-3.9 5.5-7.3s-2.2-6.4-5.5-7.3l-21.2-6zM160 416H288c17.7 0 32 14.3 32 32v64H192V464c0-8.8-7.2-16-16-16s-16 7.2-16 16v48H128V448c0-17.7 14.3-32 32-32zm128 48a16 16 0 1 0 -32 0 16 16 0 1 0 32 0z"/>
          </symbol>
        </svg>3 512 0 498.7 0 482.3C0 407 46.7 342.6 112.7 316.5z"/>
          </symbol>
        </svg>