<svg xmlns="http://www.w3.org/2000/svg">
          <symbol id="fw-icon-duotone-eyes" viewBox="0 0 640 512">
            <path d="M65.3 231.8c-.8 7.9-1.3 15.9-1.3 24.2c0 36.2 8.5 69 22.4 95.3c3.1 .5 6.4 .7 9.6 .7c35.3 0 64-28.7 64-64s-28.7-64-64-64c-11.1 0-21.6 2.8-30.7 7.8zM374.4 351.3c3.1 .5 6.4 .7 9.6 .7c35.3 0 64-28.7 64-64s-28.7-64-64-64c-11.1 0-21.6 2.8-30.7 7.8c-.8 7.9-1.3 15.9-1.3 24.2c0 36.2 8.5 69 22.4 95.3z"/>
          </symbol>
        </svg>.3 69 127.4 69s96.8-28.2 127.4-69c6-8 11.6-16.6 16.6-25.7c5 9.1 10.5 17.6 16.6 25.7c30.6 40.8 75.3 69 127.4 69s96.8-28.2 127.4-69C622 370.2 640 315.3 640 256s-18-114.2-48.6-155C560.8 60.2 516.1 32 464 32s-96.8 28.2-127.4 69c-6 8-11.6 16.6-16.6 25.7zM352 256c0-46.8 14.3-87.9 35.8-116.6C409.3 110.8 436.6 96 464 96s54.7 14.8 76.2 43.4C561.7 168.1 576 209.2 576 256s-14.3 87.9-35.8 116.6S491.4 416 464 416s-54.7-14.8-76.2-43.4S352 302.8 352 256z"/>
          </symbol>
        </svg>