<svg xmlns="http://www.w3.org/2000/svg">
          <symbol id="fw-icon-duotone-hands" viewBox="0 0 576 512">
            <path d="M544 160c0-17.7-14.3-32-32-32s-32 14.3-32 32l-.1 49.3L426.1 116l0 0 0 0L368.6 16.5C362 5 347.3 1.1 335.8 7.7s-15.4 21.3-8.8 32.8l51.5 89.1c3.3 5.7 1.3 13.1-4.4 16.4s-13.1 1.3-16.4-4.4L290.3 24.8C283.6 13.3 269 9.4 257.5 16s-15.4 21.3-8.8 32.8l45.9 79.5c9.4 1 18.7 4.1 27.3 9.4l60.2 37.6C443 213.4 480 280.2 480 352v8c0 1.9 0 3.8-.1 5.7c40.1-32.1 64-80.9 64-133.1L544 160zM268.5 131L243.9 88.5c-6.6-11.5-21.3-15.4-32.8-8.8s-15.4 21.3-8.8 32.8l28.9 50c.8-1.5 1.6-3 2.5-4.4c8.4-13.4 20.8-22.6 34.7-27zm-44.1 67.5l-26.8-46.4c-6.6-11.5-21.3-15.4-32.8-8.8s-15.4 21.3-8.8 32.8L179 216h31.8l0 0H224h4.7c-2.2-5.6-3.7-11.4-4.3-17.4z"/>
          </symbol>
        </svg>