<svg xmlns="http://www.w3.org/2000/svg">
          <symbol id="fw-icon-duotone-truck-container-empty" viewBox="0 0 640 512">
            <path d="M456 144c-13.3 0-24 10.7-24 24v88 32 16H32c-17.7 0-32 14.3-32 32v16c0 8.8 3.6 16.8 9.4 22.6C24.8 342.3 57.8 320 96 320c33.4 0 62.8 17 80 42.9C193.2 337 222.6 320 256 320c41.8 0 77.4 26.7 90.5 64H432h21.5c13.2-37.3 48.7-64 90.5-64c38.2 0 71.2 22.3 86.6 54.6c5.8-5.8 9.4-13.8 9.4-22.6V288 272 261.7c0-9.2-3.2-18.2-9-25.3l-58.8-71.8c-10.6-13-26.5-20.5-43.3-20.5H456zM585 256H480V192h48.8c2.4 0 4.7 1.1 6.2 2.9L585 256z"/>
          </symbol>
        </svg>