<svg xmlns="http://www.w3.org/2000/svg">
          <symbol id="fw-icon-duotone-comet" viewBox="0 0 512 512">
            <path d="M206.3 208.9c-2.7-5.5-8.3-8.9-14.3-8.9s-11.7 3.5-14.3 8.9l-29.2 59.2-65.3 9.5c-6 .9-11 5.1-12.9 10.9s-.3 12.2 4 16.4l47.2 46-11.2 65c-1 6 1.4 12.1 6.4 15.7s11.5 4.1 16.8 1.2L192 402.1l58.4 30.7c5.4 2.8 11.9 2.4 16.8-1.2s7.4-9.6 6.4-15.7l-11.2-65 47.2-46c4.4-4.3 5.9-10.6 4-16.4s-6.9-10-12.9-10.9l-65.3-9.5-29.2-59.2z"/>
          </symbol>
        </svg> 4 16.4l47.2 46-11.2 65c-1 6 1.4 12.1 6.4 15.7s11.5 4.1 16.8 1.2L192 402.1l58.4 30.7c5.4 2.8 11.9 2.4 16.8-1.2s7.4-9.6 6.4-15.7l-11.2-65 47.2-46c4.4-4.3 5.9-10.6 4-16.4s-6.9-10-12.9-10.9l-65.3-9.5-29.2-59.2c-2.7-5.5-8.3-8.9-14.3-8.9z"/>
          </symbol>
        </svg>