<svg xmlns="http://www.w3.org/2000/svg">
          <symbol id="fw-icon-duotone-square-envelope" viewBox="0 0 448 512">
            <path d="M64.2 172.4L218 271.7c1.8 1.2 3.9 1.8 6 1.8s4.2-.6 6-1.8l153.8-99.3C382 156.4 368.5 144 352 144H96c-16.5 0-30 12.4-31.8 28.4zm319.8 38L247.4 298.6c-7 4.5-15.1 6.9-23.4 6.9s-16.4-2.4-23.4-6.9L64 210.4V336c0 17.7 14.3 32 32 32H352c17.7 0 32-14.3 32-32V210.4z"/>
          </symbol>
        </svg>-32V210.4l136.6 88.2c7 4.5 15.1 6.9 23.4 6.9s16.4-2.4 23.4-6.9z"/>
          </symbol>
        </svg>