<svg xmlns="http://www.w3.org/2000/svg">
          <symbol id="fw-icon-duotone-rupee-sign" viewBox="0 0 448 512">
            <path d="M32 32C14.3 32 0 46.3 0 64V288 448c0 17.7 14.3 32 32 32s32-14.3 32-32V320h42.3l56 139.9c6.6 16.4 25.2 24.4 41.6 17.8s24.4-25.2 17.8-41.6L170.3 307.7C220.8 285.3 256 234.8 256 176c0-79.5-64.5-144-144-144H32zm80 224H64V96h48c44.2 0 80 35.8 80 80s-35.8 80-80 80z"/>
          </symbol>
        </svg>.3-12.6-4.9-17.7-6.9c-2.5-1-4.6-1.8-6.3-2.5c-16.5-6.4-24.6-25-18.2-41.4s24.9-24.6 41.4-18.2c2.6 1 5.2 2 7.9 3.1c4.8 1.9 9.8 3.9 15.4 6c8.8 3.3 15.3 5.4 18.7 6c15.7 2.8 26.7 .8 32.9-2.3c5-2.5 8-6 9.1-13c1-6.9 .2-10.5-.5-12.3c-.6-1.7-1.8-3.5-4.5-5.9c-6.9-5.8-18.2-10.4-36.9-17c-1-.3-2-.7-3-1.1c-15.5-5.4-37-13-53.3-25.9c-9.5-7.5-18.3-17.6-23.7-31c-5.5-13.4-6.6-28-4.4-43.2c8.4-57.1 67-78 116.9-68.9c6.9 1.3 27.3 5.8 35.4 8.4c16.9 5.2 26.3 23.2 21.1 40.1s-23.2 26.3-40.1 21.1c-4.7-1.4-22.3-5.5-27.9-6.5l0 0c-14.6-2.7-25.8-.4-32.6 3.2z"/>
          </symbol>
        </svg>