<svg xmlns="http://www.w3.org/2000/svg">
          <symbol id="fw-icon-duotone-table-tree" viewBox="0 0 512 512">
            <path d="M144 368c-26.5 0-48-21.5-48-48V224 160h32v64c0 8.8 7.2 16 16 16h32c8.8 0 16 7.2 16 16s-7.2 16-16 16H144c-5.6 0-11-1-16-2.7V320c0 8.8 7.2 16 16 16h96c8.8 0 16 7.2 16 16s-7.2 16-16 16H144zm96-144H400c8.8 0 16 7.2 16 16v32c0 8.8-7.2 16-16 16H240c-8.8 0-16-7.2-16-16V240c0-8.8 7.2-16 16-16zm64 96h96c8.8 0 16 7.2 16 16v32c0 8.8-7.2 16-16 16H304c-8.8 0-16-7.2-16-16V336c0-8.8 7.2-16 16-16z"/>
          </symbol>
        </svg>