<svg xmlns="http://www.w3.org/2000/svg">
          <symbol id="fw-icon-duotone-closed-captioning" viewBox="0 0 576 512">
            <path d="M152 256c0-26.5 21.5-48 48-48c14.2 0 27 6.1 35.8 16c8.8 9.9 24 10.7 33.9 1.9s10.7-24 1.9-33.9c-17.5-19.6-43.1-32-71.5-32c-53 0-96 43-96 96s43 96 96 96c28.4 0 54-12.4 71.5-32c8.8-9.9 8-25-1.9-33.9s-25-8-33.9 1.9c-8.8 9.9-21.6 16-35.8 16c-26.5 0-48-21.5-48-48zm192 0c0-26.5 21.5-48 48-48c14.2 0 27 6.1 35.8 16c8.8 9.9 24 10.7 33.9 1.9s10.7-24 1.9-33.9c-17.5-19.6-43.1-32-71.5-32c-53 0-96 43-96 96s43 96 96 96c28.4 0 54-12.4 71.5-32c8.8-9.9 8-25-1.9-33.9s-25-8-33.9 1.9c-8.8 9.9-21.6 16-35.8 16c-26.5 0-48-21.5-48-48z"/>
          </symbol>
        </svg>25-8-33.9 1.9c-8.8 9.9-21.6 16-35.8 16c-26.5 0-48-21.5-48-48z"/>
          </symbol>
        </svg>