<svg xmlns="http://www.w3.org/2000/svg">
          <symbol id="fw-icon-duotone-sensor-cloud" viewBox="0 0 640 512">
            <path d="M0 96C0 60.7 28.7 32 64 32H384c35.3 0 64 28.7 64 64V234.8c-14.5-6.9-30.8-10.8-48-10.8c-60.1 0-109.1 47.3-111.9 106.7C250.2 348.7 224 387.3 224 432c0 17.2 3.9 33.5 10.8 48H64c-35.3 0-64-28.7-64-64V96zm88 0c-13.3 0-24 10.7-24 24V264c0 13.3 10.7 24 24 24s24-10.7 24-24V120c0-13.3-10.7-24-24-24zm96 0c-13.3 0-24 10.7-24 24V264c0 13.3 10.7 24 24 24s24-10.7 24-24V120c0-13.3-10.7-24-24-24z"/>
          </symbol>
        </svg>