<svg xmlns="http://www.w3.org/2000/svg">
          <symbol id="fw-icon-duotone-shish-kebab" viewBox="0 0 512 512">
            <path d="M393.4 73.4c12.5-12.5 32.8-12.5 45.3 0c10.4 10.4 12.2 26.4 5.1 38.6c-8.8 15.3-3.6 34.9 11.7 43.7s34.9 3.6 43.7-11.7c21.2-36.7 16.2-84.5-15.3-115.9c-37.5-37.5-98.3-37.5-135.8 0c-25.7 25.7-33.8 62.4-24.3 94.9c1.8 6.1 2.4 11.4 2.1 15.2c-.1 2-.5 2.9-.6 3.2l-31 31 45.3 45.3 31.1-31.1c13.1-13.1 18-29.4 19.1-43.4c1.1-13.8-1.3-27.2-4.5-38c-3.2-11-.5-23.1 8.1-31.7zM241.7 315.6l-45.3-45.3-30.1 30.1 45.3 45.3 30.1-30.1zm-128 128L68.4 398.3l-59 59c-12.5 12.5-12.5 32.8 0 45.3s32.8 12.5 45.3 0l59-59zM325.3 141.5a.1 .1 0 1 0 -.1-.2 .1 .1 0 1 0 .1 .2z"/>
          </symbol>
        </svg>