<svg xmlns="http://www.w3.org/2000/svg">
          <symbol id="fw-icon-duotone-brain-circuit" viewBox="0 0 512 512">
            <path d="M240 272V456h32V384h34.7c6.6 18.6 24.4 32 45.3 32c26.5 0 48-21.5 48-48s-21.5-48-48-48c-20.9 0-38.7 13.4-45.3 32H272V160h48c8.8 0 16 7.2 16 16v2.7c-18.6 6.6-32 24.4-32 45.3c0 26.5 21.5 48 48 48s48-21.5 48-48c0-20.9-13.4-38.7-32-45.3V176c0-26.5-21.5-48-48-48H272V56H240v72H205.3c-6.6-18.6-24.4-32-45.3-32c-26.5 0-48 21.5-48 48s21.5 48 48 48c20.9 0 38.7-13.4 45.3-32H240v80H192c-26.5 0-48 21.5-48 48v34.7c-18.6 6.6-32 24.4-32 45.3c0 26.5 21.5 48 48 48s48-21.5 48-48c0-20.9-13.4-38.7-32-45.3V288c0-8.8 7.2-16 16-16h48zM176 144a16 16 0 1 1 -32 0 16 16 0 1 1 32 0zm176 96a16 16 0 1 1 0-32 16 16 0 1 1 0 32zM176 368a16 16 0 1 1 -32 0 16 16 0 1 1 32 0zm192 0a16 16 0 1 1 -32 0 16 16 0 1 1 32 0z"/>
          </symbol>
        </svg>1.9 55.7-50.1c5.2 1.4 10.7 2.1 16.3 2.1c35.3 0 64-28.7 64-64c0-7.4-1.3-14.6-3.6-21.2C490.6 367.4 512 338.2 512 304c0-31.9-18.7-59.5-45.8-72.3C474.9 220.8 480 207 480 192c0-30.7-21.6-56.3-50.4-62.6c1.6-5.5 2.4-11.4 2.4-17.4c0-29.9-20.6-55.1-48.3-62.1C380.6 21.9 356.9 0 328 0c-30.9 0-56 25.1-56 56v72h48c26.5 0 48 21.5 48 48v2.7c18.6 6.6 32 24.4 32 45.3c0 26.5-21.5 48-48 48s-48-21.5-48-48c0-20.9 13.4-38.7 32-45.3V176c0-8.8-7.2-16-16-16H272z"/>
          </symbol>
        </svg>