<svg xmlns="http://www.w3.org/2000/svg">
          <symbol id="fw-icon-duotone-gallery-thumbnails" viewBox="0 0 576 512">
            <path d="M32 416c-17.7 0-32 14.3-32 32v32c0 17.7 14.3 32 32 32H64c17.7 0 32-14.3 32-32V448c0-17.7-14.3-32-32-32H32zm160 0c-17.7 0-32 14.3-32 32v32c0 17.7 14.3 32 32 32h32c17.7 0 32-14.3 32-32V448c0-17.7-14.3-32-32-32H192zm128 32v32c0 17.7 14.3 32 32 32h32c17.7 0 32-14.3 32-32V448c0-17.7-14.3-32-32-32H352c-17.7 0-32 14.3-32 32zm192-32c-17.7 0-32 14.3-32 32v32c0 17.7 14.3 32 32 32h32c17.7 0 32-14.3 32-32V448c0-17.7-14.3-32-32-32H512z"/>
          </symbol>
        </svg>