<svg xmlns="http://www.w3.org/2000/svg">
          <symbol id="fw-icon-duotone-line-columns" viewBox="0 0 512 512">
            <path d="M512 64c0-17.7-14.3-32-32-32H320c-17.7 0-32 14.3-32 32s14.3 32 32 32H480c17.7 0 32-14.3 32-32zm0 128c0-17.7-14.3-32-32-32H320c-17.7 0-32 14.3-32 32s14.3 32 32 32H480c17.7 0 32-14.3 32-32zM288 320c0 17.7 14.3 32 32 32H480c17.7 0 32-14.3 32-32s-14.3-32-32-32H320c-17.7 0-32 14.3-32 32zM512 448c0-17.7-14.3-32-32-32H320c-17.7 0-32 14.3-32 32s14.3 32 32 32H480c17.7 0 32-14.3 32-32z"/>
          </symbol>
        </svg>