<svg xmlns="http://www.w3.org/2000/svg">
          <symbol id="fw-icon-duotone-biohazard" viewBox="0 0 576 512">
            <path d="M122.1 146.5c2.6 16.4 7.6 32 14.6 46.4c-15.4 1.7-30.6 5.4-45.4 11.4c7.2-21 17.7-40.5 30.9-57.9zM80 267.9c21.3-4.2 43.4-3.3 64 4.1c0 55.4 31.3 103.5 77.2 127.6c-3.5 21.6-13.8 41.2-28.5 57.3C125.7 422.3 80 352.5 80 272c0-1.4 0-2.7 0-4.1zM363.9 149.6c-22-13.7-48.1-21.6-75.9-21.6s-53.9 7.9-75.9 21.6c-16.6-14.3-28-33.3-34.3-54C209.7 75.6 247.5 64 288 64s78.3 11.6 110.3 31.6c-6.3 20.8-17.7 39.7-34.3 54zm-9.1 250C400.7 375.5 432 327.4 432 272c20.6-7.3 42.7-8.3 64-4.1c0 1.3 0 2.7 0 4.1c0 80.5-45.7 150.3-112.7 184.9c-14.7-16.2-25.1-35.7-28.5-57.3zm-35.9 78.1c-10.1 1.5-20.4 2.3-30.9 2.3s-20.8-.8-30.9-2.3c11.9-9.1 22.2-19.5 30.9-31c8.7 11.4 19 21.9 30.9 31zM484.8 204.4c-14.8-6-30.1-9.8-45.4-11.4c7-14.4 11.9-30 14.6-46.4c13.2 17.4 23.6 36.9 30.9 57.9z"/>
          </symbol>
        </svg> 0 0-96 48 48 0 1 0 0 96z"/>
          </symbol>
        </svg>