<svg xmlns="http://www.w3.org/2000/svg">
          <symbol id="fw-icon-duotone-floppy-disk-circle-arrow-right" viewBox="0 0 576 512">
            <path d="M432 512a144 144 0 1 0 0-288 144 144 0 1 0 0 288zm19.3-211.3l56 56c6.2 6.2 6.2 16.4 0 22.6l-56 56c-6.2 6.2-16.4 6.2-22.6 0s-6.2-16.4 0-22.6L457.4 384H368c-8.8 0-16-7.2-16-16s7.2-16 16-16h89.4l-28.7-28.7c-6.2-6.2-6.2-16.4 0-22.6s16.4-6.2 22.6 0z"/>
          </symbol>
        </svg>4-64V96zm96 0c-17.7 0-32 14.3-32 32v64c0 17.7 14.3 32 32 32H288c17.7 0 32-14.3 32-32V128c0-17.7-14.3-32-32-32H96z"/>
          </symbol>
        </svg>