<svg xmlns="http://www.w3.org/2000/svg">
          <symbol id="fw-icon-duotone-trash-can-undo" viewBox="0 0 448 512">
            <path d="M163.8 0H284.2c12.1 0 23.2 6.8 28.6 17.7L320 32h96c17.7 0 32 14.3 32 32s-14.3 32-32 32H32C14.3 96 0 81.7 0 64S14.3 32 32 32h96l7.2-14.3C140.6 6.8 151.7 0 163.8 0zm54.1 167.9c8.9 9.9 8.1 25-1.8 33.9L182.5 232H240c48.6 0 88 39.4 88 88v40c0 13.3-10.7 24-24 24s-24-10.7-24-24V320c0-22.1-17.9-40-40-40H182.5l33.5 30.2c9.9 8.9 10.7 24 1.8 33.9s-24 10.7-33.9 1.8l-80-72c-5.1-4.6-7.9-11-7.9-17.8s2.9-13.3 7.9-17.8l80-72c9.9-8.9 25-8.1 33.9 1.8z"/>
          </symbol>
        </svg>