<svg xmlns="http://www.w3.org/2000/svg">
          <symbol id="fw-icon-duotone-grid-4" viewBox="0 0 448 512">
            <path d="M119.5 48v57.6c0 8.8 7.2 16 16 16h57.6c8.8 0 16-7.2 16-16V48c0-8.8-7.2-16-16-16H135.5c-8.8 0-16 7.2-16 16zM16 151.5c-8.8 0-16 7.2-16 16v57.6c0 8.8 7.2 16 16 16H73.6c8.8 0 16-7.2 16-16V167.5c0-8.8-7.2-16-16-16H16zm0 238.9c-8.8 0-16 7.2-16 16V464c0 8.8 7.2 16 16 16H73.6c8.8 0 16-7.2 16-16V406.4c0-8.8-7.2-16-16-16H16zM135.5 270.9c-8.8 0-16 7.2-16 16v57.6c0 8.8 7.2 16 16 16h57.6c8.8 0 16-7.2 16-16V286.9c0-8.8-7.2-16-16-16H135.5zM238.9 167.5v57.6c0 8.8 7.2 16 16 16h57.6c8.8 0 16-7.2 16-16V167.5c0-8.8-7.2-16-16-16H254.9c-8.8 0-16 7.2-16 16zm16 222.9c-8.8 0-16 7.2-16 16V464c0 8.8 7.2 16 16 16h57.6c8.8 0 16-7.2 16-16V406.4c0-8.8-7.2-16-16-16H254.9zM358.4 48v57.6c0 8.8 7.2 16 16 16H432c8.8 0 16-7.2 16-16V48c0-8.8-7.2-16-16-16H374.4c-8.8 0-16 7.2-16 16zm16 222.9c-8.8 0-16 7.2-16 16v57.6c0 8.8 7.2 16 16 16H432c8.8 0 16-7.2 16-16V286.9c0-8.8-7.2-16-16-16H374.4z"/>
          </symbol>
        </svg>