<svg xmlns="http://www.w3.org/2000/svg">
          <symbol id="fw-icon-duotone-bowling-ball-pin" viewBox="0 0 576 512">
            <path d="M0 304a208 208 0 1 1 416 0A208 208 0 1 1 0 304zM224 172a28 28 0 1 0 -56 0 28 28 0 1 0 56 0zM196 288a28 28 0 1 0 0-56 28 28 0 1 0 0 56zm-44-68a28 28 0 1 0 -56 0 28 28 0 1 0 56 0zm286.5-60h83.1c-1 5.7-1.5 11.4-1.5 17.2c0 5 .4 9.9 1.2 14.8H438.8c.8-4.9 1.2-9.9 1.2-14.8c0-5.8-.5-11.5-1.5-17.2z"/>
          </symbol>
        </svg>.5 435c7.6-19.1 11.5-39.4 11.5-59.9c0-19-3.4-37.9-10-55.8L525.9 210.4c-2.2-6-3.8-12.1-4.8-18.4H438.8zM196 200a28 28 0 1 0 0-56 28 28 0 1 0 0 56zm28 60a28 28 0 1 0 -56 0 28 28 0 1 0 56 0zM124 248a28 28 0 1 0 0-56 28 28 0 1 0 0 56z"/>
          </symbol>
        </svg>