<svg xmlns="http://www.w3.org/2000/svg">
          <symbol id="fw-icon-duotone-braille" viewBox="0 0 640 512">
            <path d="M64 160A64 64 0 1 0 64 32a64 64 0 1 0 0 128zm0 160a64 64 0 1 0 0-128 64 64 0 1 0 0 128zM288 96A64 64 0 1 0 160 96a64 64 0 1 0 128 0zm128 64a64 64 0 1 0 0-128 64 64 0 1 0 0 128z"/>
          </symbol>
        </svg>zM0 416a64 64 0 1 1 128 0A64 64 0 1 1 0 416zm240 0a16 16 0 1 0 -32 0 16 16 0 1 0 32 0zm-80 0a64 64 0 1 1 128 0 64 64 0 1 1 -128 0zM576 272a16 16 0 1 0 0-32 16 16 0 1 0 0 32zm0-80a64 64 0 1 1 0 128 64 64 0 1 1 0-128zm16 224a16 16 0 1 0 -32 0 16 16 0 1 0 32 0zm-80 0a64 64 0 1 1 128 0 64 64 0 1 1 -128 0zM416 272a16 16 0 1 0 0-32 16 16 0 1 0 0 32zm0-80a64 64 0 1 1 0 128 64 64 0 1 1 0-128zm16 224a16 16 0 1 0 -32 0 16 16 0 1 0 32 0zm-80 0a64 64 0 1 1 128 0 64 64 0 1 1 -128 0z"/>
          </symbol>
        </svg>