<svg xmlns="http://www.w3.org/2000/svg">
          <symbol id="fw-icon-duotone-rectangle-history-circle-plus" viewBox="0 0 640 512">
            <path d="M352 368a144 144 0 1 1 288 0 144 144 0 1 1 -288 0zm144-80c-8.8 0-16 7.2-16 16v48H432c-8.8 0-16 7.2-16 16s7.2 16 16 16h48v48c0 8.8 7.2 16 16 16s16-7.2 16-16V384h48c8.8 0 16-7.2 16-16s-7.2-16-16-16H512V304c0-8.8-7.2-16-16-16z"/>
          </symbol>
        </svg>-10.7 24-24zM416 24c0-13.3-10.7-24-24-24H120C106.7 0 96 10.7 96 24s10.7 24 24 24l272 0c13.3 0 24-10.7 24-24z"/>
          </symbol>
        </svg>