<svg xmlns="http://www.w3.org/2000/svg">
          <symbol id="fw-icon-duotone-user-robot" viewBox="0 0 448 512">
            <path d="M80 128c0-35.3 28.7-64 64-64H304c35.3 0 64 28.7 64 64V256c0 35.3-28.7 64-64 64H144c-35.3 0-64-28.7-64-64V128zm112 32a32 32 0 1 0 -64 0 32 32 0 1 0 64 0zm96 32a32 32 0 1 0 0-64 32 32 0 1 0 0 64zM144 256a16 16 0 1 0 32 0 16 16 0 1 0 -32 0zm80-16a16 16 0 1 0 0 32 16 16 0 1 0 0-32zm48 16a16 16 0 1 0 32 0 16 16 0 1 0 -32 0zM0 448c0-53 43-96 96-96H352c53 0 96 43 96 96v32c0 17.7-14.3 32-32 32H352V448c0-17.7-14.3-32-32-32H128c-17.7 0-32 14.3-32 32v64H32c-17.7 0-32-14.3-32-32V448z"/>
          </symbol>
        </svg>