<svg xmlns="http://www.w3.org/2000/svg">
          <symbol id="fw-icon-duotone-handcuffs" viewBox="0 0 640 512">
            <path d="M272 64a32 32 0 1 0 0-64 32 32 0 1 0 0 64zM224 80a32 32 0 1 0 -64 0 32 32 0 1 0 64 0zm-96 80h64c0-17.7-14.3-32-32-32s-32 14.3-32 32zm320 0h64c0-17.7-14.3-32-32-32s-32 14.3-32 32zM400 32a32 32 0 1 0 -64 0 32 32 0 1 0 64 0zm48 80a32 32 0 1 0 0-64 32 32 0 1 0 0 64z"/>
          </symbol>
        </svg>9-73.9c-.4-1.6-.5-3.3-.5-5.1V184c0-13.3 10.7-24 24-24h80c13.3 0 24 10.7 24 24v16c0 1.7-.2 3.4-.5 5.1C600.3 229.6 640 286.2 640 352c0 88.4-71.6 160-160 160c-62 0-115.8-35.3-142.4-86.9c9.3-22.5 14.4-47.2 14.4-73.1zm224 0a96 96 0 1 0 -192 0 96 96 0 1 0 192 0z"/>
          </symbol>
        </svg>