<svg xmlns="http://www.w3.org/2000/svg">
          <symbol id="fw-icon-duotone-square-phone-flip" viewBox="0 0 448 512">
            <path d="M269.5 140.3c3.9-9.3 14-14.2 23.7-11.6l44 12C346 143.1 352 151 352 160c0 123.7-100.3 224-224 224c-9 0-16.9-6-19.3-14.7l-12-44c-2.6-9.7 2.3-19.9 11.6-23.7l48-20c8.2-3.4 17.6-1 23.2 5.8L199.7 312c35.2-16.6 63.7-45.1 80.3-80.3l-24.7-20.2c-6.8-5.6-9.2-15-5.8-23.2l20-48z"/>
          </symbol>
        </svg>8 119 384 128 384c123.7 0 224-100.3 224-224c0-9-6-16.9-14.7-19.3l-44-12z"/>
          </symbol>
        </svg>