<svg xmlns="http://www.w3.org/2000/svg">
          <symbol id="fw-icon-duotone-person-sign" viewBox="0 0 512 512">
            <path d="M318.3 221.2l-28.8-10.8c-9.7-3.7-18.4-9.6-25.4-17.4L235 160.2c-18.2-20.5-44.3-32.2-71.8-32.2H135.6c-36.4 0-69.6 20.5-85.9 53.1L3.4 273.7c-7.9 15.8-1.5 35 14.3 42.9s35 1.5 42.9-14.3L80 263.6V480c0 17.7 14.3 32 32 32s32-14.3 32-32V352h20.2L192 407.6V480c0 17.7 14.3 32 32 32s32-14.3 32-32V407.6c0-9.9-2.3-19.7-6.8-28.6L216 312.4V235.2l.3 .3c13.8 15.6 31.2 27.5 50.7 34.8l29.3 11 21.9-60.1zM144 96a48 48 0 1 0 0-96 48 48 0 1 0 0 96z"/>
          </symbol>
        </svg>