<svg xmlns="http://www.w3.org/2000/svg">
          <symbol id="fw-icon-duotone-space-station-moon-construction" viewBox="0 0 512 512">
            <path d="M224 160a32 32 0 1 0 -64 0 32 32 0 1 0 64 0zm-112 0a80 80 0 1 1 160 0 80 80 0 1 1 -160 0zM6.8 314.8C4.1 303.2 2.1 291.3 1 279.1C73.2 304.7 160.8 320 256 320s182.8-15.3 255-40.9c-1.1 12.2-3 24.1-5.8 35.8C432.6 338.4 347.3 352 256 352s-176.6-13.6-249.2-37.2z"/>
          </symbol>
        </svg>2c-91.3 0-176.6-13.6-249.2-37.2zM112 160a80 80 0 1 1 160 0 80 80 0 1 1 -160 0z"/>
          </symbol>
        </svg>