<svg xmlns="http://www.w3.org/2000/svg">
          <symbol id="fw-icon-duotone-calendar-image" viewBox="0 0 448 512">
            <path d="M0 192H448V464c0 26.5-21.5 48-48 48H48c-26.5 0-48-21.5-48-48V192zM147.2 360.7L99.8 422.2c-8.1 10.5-.6 25.8 12.7 25.8H338.9c12.6 0 20.3-13.9 13.5-24.6L268.9 292.3c-6.1-9.7-20.1-9.9-26.7-.5L184 376l-11.4-15.1c-6.4-8.5-19-8.5-25.5-.2zM128 320a32 32 0 1 0 0-64 32 32 0 1 0 0 64z"/>
          </symbol>
        </svg>-.2L99.8 422.2z"/>
          </symbol>
        </svg>