<svg xmlns="http://www.w3.org/2000/svg">
          <symbol id="fw-icon-duotone-user-headset" viewBox="0 0 448 512">
            <path d="M224 32C135.6 32 64 103.6 64 192v16c0 8.8-7.2 16-16 16s-16-7.2-16-16V192C32 86 118 0 224 0S416 86 416 192v16c0 61.9-50.1 112-112 112H240 224 208c-17.7 0-32-14.3-32-32s14.3-32 32-32h32c17.7 0 32 14.3 32 32h32c44.2 0 80-35.8 80-80V192c0-88.4-71.6-160-160-160zM134.4 352H313.6C387.8 352 448 412.2 448 486.4c0 14.1-11.5 25.6-25.6 25.6H25.6C11.5 512 0 500.5 0 486.4C0 412.2 60.2 352 134.4 352z"/>
          </symbol>
        </svg>