<svg xmlns="http://www.w3.org/2000/svg">
          <symbol id="fw-icon-duotone-message-code" viewBox="0 0 512 512">
            <path d="M217 127c9.4 9.4 9.4 24.6 0 33.9l-47 47 47 47c9.4 9.4 9.4 24.6 0 33.9s-24.6 9.4-33.9 0l-64-64c-9.4-9.4-9.4-24.6 0-33.9l64-64c9.4-9.4 24.6-9.4 33.9 0zm78.1 0c9.4-9.4 24.6-9.4 33.9 0l64 64c9.4 9.4 9.4 24.6 0 33.9l-64 64c-9.4 9.4-24.6 9.4-33.9 0s-9.4-24.6 0-33.9l47-47-47-47c-9.4-9.4-9.4-24.6 0-33.9z"/>
          </symbol>
        </svg>4-33.9 0s-9.4 24.6 0 33.9l47 47-47 47c-9.4 9.4-9.4 24.6 0 33.9s24.6 9.4 33.9 0l64-64c9.4-9.4 9.4-24.6 0-33.9l-64-64z"/>
          </symbol>
        </svg>