<svg xmlns="http://www.w3.org/2000/svg">
          <symbol id="fw-icon-duotone-bell-exclamation" viewBox="0 0 448 512">
            <path d="M224 112c-13.3 0-24 10.7-24 24v96c0 13.3 10.7 24 24 24s24-10.7 24-24V136c0-13.3-10.7-24-24-24zm32 208a32 32 0 1 0 -64 0 32 32 0 1 0 64 0zm13.3 173.3c12-12 18.7-28.3 18.7-45.3H224 160c0 17 6.7 33.3 18.7 45.3s28.3 18.7 45.3 18.7s33.3-6.7 45.3-18.7z"/>
          </symbol>
        </svg>20a32 32 0 1 1 64 0 32 32 0 1 1 -64 0zm56-184v96c0 13.3-10.7 24-24 24s-24-10.7-24-24V136c0-13.3 10.7-24 24-24s24 10.7 24 24z"/>
          </symbol>
        </svg>