<svg xmlns="http://www.w3.org/2000/svg">
          <symbol id="fw-icon-duotone-coin-vertical" viewBox="0 0 384 512">
            <path d="M144 512c79.5 0 144-114.6 144-256S223.5 0 144 0S0 114.6 0 256S64.5 512 144 512zm-8-64c-20.5 0-36.7-10.5-48.2-22.6C76.5 413.4 67.7 397.7 61 381c-13.4-33.6-21-77.8-21-125s7.6-91.4 21-125c6.7-16.7 15.4-32.4 26.8-44.4C99.3 74.5 115.5 64 136 64s36.7 10.5 48.2 22.6c11.4 12 20.1 27.7 26.8 44.4c13.4 33.6 21 77.8 21 125s-7.6 91.4-21 125c-6.7 16.7-15.4 32.4-26.8 44.4C172.7 437.5 156.5 448 136 448zm64-192c0-88.4-28.7-160-64-160s-64 71.6-64 160s28.7 160 64 160s64-71.6 64-160z"/>
          </symbol>
        </svg>.7-15.4-32.4-26.8-44.4C172.7 74.5 156.5 64 136 64s-36.7 10.5-48.2 22.6C76.5 98.6 67.7 114.3 61 131c-13.4 33.6-21 77.8-21 125s7.6 91.4 21 125c6.7 16.7 15.4 32.4 26.8 44.4C99.3 437.5 115.5 448 136 448zm64-192c0 88.4-28.7 160-64 160s-64-71.6-64-160s28.7-160 64-160s64 71.6 64 160z"/>
          </symbol>
        </svg>