<svg xmlns="http://www.w3.org/2000/svg">
          <symbol id="fw-icon-duotone-ruler-horizontal" viewBox="0 0 640 512">
            <path d="M144 208l0-80H112v80c0 8.8 7.2 16 16 16s16-7.2 16-16zm96-80H208v80c0 8.8 7.2 16 16 16s16-7.2 16-16V128zm96 80V128H304v80c0 8.8 7.2 16 16 16s16-7.2 16-16zm96-80H400v80c0 8.8 7.2 16 16 16s16-7.2 16-16V128zm96 0H496v80c0 8.8 7.2 16 16 16s16-7.2 16-16V128z"/>
          </symbol>
        </svg>-7.2 16-16 16s-16-7.2-16-16l0-80-64 0c-26.5 0-48 21.5-48 48L0 336z"/>
          </symbol>
        </svg>