<svg xmlns="http://www.w3.org/2000/svg">
          <symbol id="fw-icon-duotone-hexagon-vertical-nft" viewBox="0 0 448 512">
            <path d="M77.9 160.9c7.5-1.5 15 2.6 17.9 9.8l33.1 82.9V176.6c0-8.8 7.2-16 16-16s16 7.2 16 16v160c0 7.7-5.4 14.3-13 15.7s-15-2.6-17.9-9.8L96.9 259.7v76.9c0 8.8-7.2 16-16 16s-16-7.2-16-16v-160c0-7.7 5.4-14.3 13-15.7zm115 15.7c0-8.8 7.2-16 16-16h48c8.8 0 16 7.2 16 16s-7.2 16-16 16h-32v48h32c8.8 0 16 7.2 16 16s-7.2 16-16 16h-32v64c0 8.8-7.2 16-16 16s-16-7.2-16-16v-80-80zm112-16h64c8.8 0 16 7.2 16 16s-7.2 16-16 16h-16v144c0 8.8-7.2 16-16 16s-16-7.2-16-16v-144h-16c-8.8 0-16-7.2-16-16s7.2-16 16-16z"/>
          </symbol>
        </svg>0 16-7.2 16-16s-7.2-16-16-16h-48c-8.8 0-16 7.2-16 16zm112-16c-8.8 0-16 7.2-16 16s7.2 16 16 16h16v144c0 8.8 7.2 16 16 16s16-7.2 16-16v-144h16c8.8 0 16-7.2 16-16s-7.2-16-16-16h-64z"/>
          </symbol>
        </svg>