<svg xmlns="http://www.w3.org/2000/svg">
          <symbol id="fw-icon-duotone-clarinet" viewBox="0 0 640 512">
            <path d="M240 128c-8.8 0-16 7.2-16 16s7.2 16 16 16h16v32h32V160h64v32h32V160h64v32h32V160h16c8.8 0 16-7.2 16-16s-7.2-16-16-16H464 368 272 240zm32 168a24 24 0 1 0 0-48 24 24 0 1 0 0 48zm120-24a24 24 0 1 0 -48 0 24 24 0 1 0 48 0zm72 24a24 24 0 1 0 0-48 24 24 0 1 0 0 48z"/>
          </symbol>
        </svg> 11.2-3.6 16.4-.8zM272 296a24 24 0 1 0 0-48 24 24 0 1 0 0 48zm120-24a24 24 0 1 0 -48 0 24 24 0 1 0 48 0zm72 24a24 24 0 1 0 0-48 24 24 0 1 0 0 48z"/>
          </symbol>
        </svg>