<svg xmlns="http://www.w3.org/2000/svg">
          <symbol id="fw-icon-duotone-dice-d6" viewBox="0 0 448 512">
            <path d="M7.8 170.2c4.9-2.9 10.9-3 15.8-.3l176 96c5.1 2.8 8.3 8.2 8.3 14V496c0 5.6-3 10.9-7.8 13.8s-10.9 3-15.8 .3L25 423.1C9.6 414.7 0 398.6 0 381V184c0-5.6 3-10.9 7.8-13.8zm432.3 0c4.9 2.9 7.8 8.1 7.8 13.8V381c0 17.6-9.6 33.7-25 42.1L263.7 510c-5 2.7-11 2.6-15.8-.3s-7.8-8.1-7.8-13.8V280c0-5.9 3.2-11.2 8.3-14l176-96c5-2.7 11-2.6 15.8 .3z"/>
          </symbol>
        </svg>