<svg xmlns="http://www.w3.org/2000/svg">
          <symbol id="fw-icon-duotone-telescope" viewBox="0 0 576 512">
            <path d="M375.7 40c-15.3 8.8-20.6 28.4-11.7 43.7L460 250c8.8 15.3 28.4 20.5 43.7 11.7l55.4-32c15.3-8.8 20.5-28.4 11.7-43.7l-96-166.3C466 4.4 446.4-.8 431.1 8L375.7 40zM364.3 356.5C376.6 342.5 384 324.1 384 304c0-44.2-35.8-80-80-80s-80 35.8-80 80c0 20.1 7.4 38.5 19.7 52.5L193.8 478.9c-5 12.3 .9 26.3 13.2 31.3s26.3-.9 31.3-13.2l47-115.3c6 1.5 12.3 2.2 18.8 2.2s12.8-.8 18.8-2.2l47 115.3c5 12.3 19 18.2 31.3 13.2s18.2-19 13.2-31.3L364.3 356.5zM272 304a32 32 0 1 1 64 0 32 32 0 1 1 -64 0z"/>
          </symbol>
        </svg>