<svg xmlns="http://www.w3.org/2000/svg">
          <symbol id="fw-icon-duotone-pickaxe" viewBox="0 0 512 512">
            <path d="M462.4 373.5l0 0 0 0c2.3 6.2 8.2 10.4 14.8 10.5s12.6-3.9 15.1-10C505 342.5 512 308 512 272C512 121.8 390.2 0 240 0c-36 0-70.5 7-102 19.8c-6.1 2.5-10.1 8.5-10 15.1s4.3 12.5 10.5 14.8l0 0 0 0 .2 .1 .8 .3c.7 .3 1.8 .7 3.3 1.3c2.9 1.2 7.2 3 12.7 5.5c11 5 26.7 12.6 45.3 23.1c37.3 21 86 53.6 132 99.5s78.5 94.7 99.5 132c10.5 18.6 18.1 34.3 23.1 45.3c2.5 5.5 4.3 9.8 5.5 12.7c.6 1.4 1 2.5 1.3 3.3l.3 .8 .1 .2z"/>
          </symbol>
        </svg>