<svg xmlns="http://www.w3.org/2000/svg">
          <symbol id="fw-icon-duotone-comment-smile" viewBox="0 0 512 512">
            <path d="M224 176a32 32 0 1 0 -64 0 32 32 0 1 0 64 0zm128 0a32 32 0 1 0 -64 0 32 32 0 1 0 64 0zM184.4 272c-8.8-9.9-24-10.7-33.9-1.9s-10.7 24-1.9 33.9c26.3 29.4 64.7 48 107.3 48s81-18.6 107.3-48c8.8-9.9 8-25-1.9-33.9s-25-8-33.9 1.9c-17.6 19.7-43.1 32-71.6 32s-53.9-12.3-71.6-32z"/>
          </symbol>
        </svg>.4-21.9 54.3-30.6c31.8 11.5 67 17.9 104.1 17.9zM192 144a32 32 0 1 1 0 64 32 32 0 1 1 0-64zm128 0a32 32 0 1 1 0 64 32 32 0 1 1 0-64zM150.5 270.1c9.9-8.8 25-8 33.9 1.9c17.6 19.7 43.1 32 71.6 32s53.9-12.3 71.6-32c8.8-9.9 24-10.7 33.9-1.9s10.7 24 1.9 33.9C337 333.4 298.6 352 256 352s-81-18.6-107.3-48c-8.8-9.9-8-25 1.9-33.9z"/>
          </symbol>
        </svg>