<svg xmlns="http://www.w3.org/2000/svg">
          <symbol id="fw-icon-duotone-watch-apple" viewBox="0 0 384 512">
            <path d="M112.3 0C85.6 0 64 21.6 64 48.3V65.6c5.2-1 10.5-1.6 16-1.6H304c5.5 0 10.8 .6 16 1.6V48.3C320 21.6 298.4 0 271.7 0H112.3zM64 464c0 26.5 21.5 48 48 48H272c26.5 0 48-21.5 48-48V446.4c-5.2 1-10.5 1.6-16 1.6H80c-5.5 0-10.8-.6-16-1.6V464zm181.3-80a32 32 0 1 0 0-64 32 32 0 1 0 0 64zm32-224a32 32 0 1 0 -64 0 32 32 0 1 0 64 0zM96 288a32 32 0 1 0 0-64 32 32 0 1 0 0 64z"/>
          </symbol>
        </svg>0 1 1 0 64 32 32 0 1 1 0-64z"/>
          </symbol>
        </svg>