<svg xmlns="http://www.w3.org/2000/svg">
          <symbol id="fw-icon-duotone-table-picnic" viewBox="0 0 512 512">
            <path d="M320.7 64h-1.5c.5 0 1 0 1.5 0zM416 128L96 128c-14.6 0-26.8-9.7-30.7-23c3.9 13.3 16.2 23 30.7 23h48.7l-38.4 96h68.9l38.4-96h84.7l38.4 96h68.9l-38.4-96H416zM0 256c0 17.7 14.3 32 32 32H80.7L34.3 404.1c-6.6 16.4 1.4 35 17.8 41.6s35-1.4 41.6-17.8l56-139.9H362.3l56 139.9c6.6 16.4 25.2 24.4 41.6 17.8s24.4-25.2 17.8-41.6L431.3 288H480L32 288c-17.7 0-32-14.3-32-32zM191.3 64c.5 0 1 0 1.5 0h-1.5zM64 96s0 0 0 0z"/>
          </symbol>
        </svg>