<svg xmlns="http://www.w3.org/2000/svg">
          <symbol id="fw-icon-duotone-tree-city" viewBox="0 0 640 512">
            <path d="M222 176c1-5 2-10 2-16c0-53-43-96-96-96c-54 0-96 43-96 96c0 6 0 11 1 16C13 190 0 214 0 240c0 45 35 80 80 80H96V480c0 18 14 32 32 32c17 0 32-14 32-32V320h16c44 0 80-35 80-80c0-26-14-50-34-64z"/>
          </symbol>
        </svg>16-16 16H368c-8.8 0-16-7.2-16-16V80c0-8.8 7.2-16 16-16zM352 176c0-8.8 7.2-16 16-16h32c8.8 0 16 7.2 16 16v32c0 8.8-7.2 16-16 16H368c-8.8 0-16-7.2-16-16V176zm16 80h32c8.8 0 16 7.2 16 16v32c0 8.8-7.2 16-16 16H368c-8.8 0-16-7.2-16-16V272c0-8.8 7.2-16 16-16zm144 16c0-8.8 7.2-16 16-16h32c8.8 0 16 7.2 16 16v32c0 8.8-7.2 16-16 16H528c-8.8 0-16-7.2-16-16V272zm16 80h32c8.8 0 16 7.2 16 16v32c0 8.8-7.2 16-16 16H528c-8.8 0-16-7.2-16-16V368c0-8.8 7.2-16 16-16z"/>
          </symbol>
        </svg>