<svg xmlns="http://www.w3.org/2000/svg">
          <symbol id="fw-icon-duotone-toilet-paper" viewBox="0 0 640 512">
            <path d="M512 384H399.6c9.1-47 16.4-110.1 16.4-192C416 86 459 0 512 0s96 86 96 192s-43 192-96 192zm0-128c17.7 0 32-28.7 32-64s-14.3-64-32-64s-32 28.7-32 64s14.3 64 32 64zM128 208a16 16 0 1 1 32 0 16 16 0 1 1 -32 0zm64 0a16 16 0 1 1 32 0 16 16 0 1 1 -32 0zm80-16a16 16 0 1 1 0 32 16 16 0 1 1 0-32zm48 16a16 16 0 1 1 32 0 16 16 0 1 1 -32 0z"/>
          </symbol>
        </svg>          </symbol>
        </svg>