<svg xmlns="http://www.w3.org/2000/svg">
          <symbol id="fw-icon-duotone-people-pulling" viewBox="0 0 576 512">
            <path d="M80 96A48 48 0 1 0 80 0a48 48 0 1 0 0 96zM64 128c-35.3 0-64 28.7-64 64V320c0 17.7 14.3 32 32 32c9.8 0 18.5-4.4 24.4-11.2L80.4 485.3c2.9 17.4 19.4 29.2 36.8 26.3s29.2-19.4 26.3-36.8L123.1 352h15.7l30 134.9c3.8 17.3 20.9 28.1 38.2 24.3s28.1-20.9 24.3-38.2l-58-260.8 102.4 42.6c-3.9-7.4-4.9-16.4-2-25l2.6-7.8c3.6-10.8 8.5-20.9 14.7-30.2L155.2 135.4c-11.7-4.9-24.2-7.4-36.9-7.4H64z"/>
          </symbol>
        </svg>2 13 11.2 20.8l23 92.1c4.3 17.1-6.1 34.5-23.3 38.8s-34.5-6.1-38.8-23.3l-22-88.1-70.7-77.1c-14.8-16.1-20.3-38.6-14.7-59.7l16.9-63.5zM324.7 398l25-62.4c2.1 3 4.5 5.8 7 8.6l40.7 44.4-14.5 36.2c-2.4 6-6 11.5-10.6 16.1l-61.7 61.7c-12.5 12.5-32.8 12.5-45.3 0s-12.5-32.8 0-45.3L324.7 398z"/>
          </symbol>
        </svg>