<svg xmlns="http://www.w3.org/2000/svg">
          <symbol id="fw-icon-duotone-chair-office" viewBox="0 0 448 512">
            <path d="M64 160c0-17.7-14.3-32-32-32s-32 14.3-32 32v64c0 17.7 14.3 32 32 32s32-14.3 32-32V160zm384 0c0-17.7-14.3-32-32-32s-32 14.3-32 32v64c0 17.7 14.3 32 32 32s32-14.3 32-32V160zM80 288c-12.1 0-23.2 6.8-28.6 17.7l-16 32c-5 9.9-4.4 21.7 1.4 31.1S52.9 384 64 384H384c11.1 0 21.4-5.7 27.2-15.2s6.4-21.2 1.4-31.1l-16-32C391.2 294.8 380.1 288 368 288H80z"/>
          </symbol>
        </svg>