<svg xmlns="http://www.w3.org/2000/svg">
          <symbol id="fw-icon-duotone-coffee-beans" viewBox="0 0 512 512">
            <path d="M278.4 235.4c-55.1-55.1-69.5-132.5-37.9-184.3c8.1 17.8 18.9 38.5 31.3 53.2c27.7 32.8 61.2 44.7 90.7 55.3l1 .4c30.1 10.8 56.2 20.3 78 46.2c10.9 12.8 21.4 33.6 29.5 52.3c1 2.3 2 4.6 2.9 6.8c-51.3 41.5-136.3 29.3-195.6-29.9zm181-181c55.1 55.1 69.5 132.5 37.9 184.3c-8.1-17.8-18.9-38.5-31.3-53.2c-27.7-32.8-61.2-44.7-90.7-55.3l-1-.4c-30.1-10.8-56.2-20.3-78-46.2c-10.9-12.8-21.4-33.6-29.5-52.3c-1-2.3-2-4.6-2.9-6.8C315.1-17 400.2-4.9 459.4 54.4zM0 352c0-77.9 44.5-142.8 103.5-157.1c-6.9 18.3-13.9 40.6-15.5 59.7c-3.6 42.8 11.6 74.9 25 103.2l.4 .9c13.7 28.9 25.3 54.1 22.5 87.8c-1.4 16.7-8.6 38.9-16.1 57.9c-.9 2.4-1.9 4.7-2.8 6.9C51.5 504.5 0 435.8 0 352zm256 0c0 77.9-44.5 142.8-103.5 157.1c6.9-18.3 13.9-40.6 15.5-59.8c3.6-42.8-11.6-74.9-25-103.2l-.4-.9c-13.7-28.9-25.3-54.1-22.5-87.8c1.4-16.7 8.6-38.9 16.1-57.9c.9-2.4 1.9-4.7 2.8-6.9C204.5 199.5 256 268.2 256 352z"/>
          </symbol>
        </svg>