<svg xmlns="http://www.w3.org/2000/svg">
          <symbol id="fw-icon-duotone-vial-virus" viewBox="0 0 512 512">
            <path d="M376 216c0-13.3-10.7-24-24-24s-24 10.7-24 24c0 28.8-34.9 43.3-55.2 22.9c-9.4-9.4-24.6-9.4-33.9 0s-9.4 24.6 0 33.9c20.4 20.4 5.9 55.2-22.9 55.2c-13.3 0-24 10.7-24 24s10.7 24 24 24c28.8 0 43.3 34.9 22.9 55.3c-9.4 9.4-9.4 24.6 0 33.9s24.6 9.4 33.9 0c20.4-20.4 55.2-6 55.2 22.8c0 13.3 10.7 24 24 24s24-10.7 24-24c0-28.8 34.8-43.2 55.2-22.8c9.4 9.4 24.6 9.4 33.9 0s9.4-24.6 0-33.9c-20.4-20.4-5.9-55.3 22.9-55.3c13.3 0 24-10.7 24-24s-10.7-24-24-24c-28.8 0-43.2-34.8-22.9-55.2c9.4-9.4 9.4-24.6 0-33.9s-24.6-9.4-33.9 0C410.9 259.3 376 244.8 376 216zM288.8 321.4a31.7 31.7 0 1 1 63.5 0 31.7 31.7 0 1 1 -63.5 0zm95.2 39.6a23.8 23.8 0 1 1 0 47.6 23.8 23.8 0 1 1 0-47.6z"/>
          </symbol>
        </svg>