<svg xmlns="http://www.w3.org/2000/svg">
          <symbol id="fw-icon-duotone-whiskey-glass-ice" viewBox="0 0 512 512">
            <path d="M83 192H429L398.3 402.3c-1.1 7.9-7.9 13.7-15.8 13.7h-253c-7.9 0-14.7-5.8-15.8-13.7L83 192zm93 32c-17.7 0-32 14.3-32 32v48c0 17.7 14.3 32 32 32h48c3.4 0 6.6-.5 9.7-1.5c-1.1-4.4-1.7-9-1.7-13.7v-1.7c0-14.9 5.9-29.1 16.4-39.6L256 272V256c0-17.7-14.3-32-32-32H176zm89.4 72.5c-6 6-9.4 14.1-9.4 22.6v1.7c0 8.5 3.4 16.6 9.4 22.6l31.2 31.2c6 6 14.1 9.4 22.6 9.4h1.7c8.5 0 16.6-3.4 22.6-9.4l31.2-31.2c6-6 9.4-14.1 9.4-22.6v-1.7c0-8.5-3.4-16.6-9.4-22.6l-31.2-31.2c-6-6-14.1-9.4-22.6-9.4h-1.7c-8.5 0-16.6 3.4-22.6 9.4l-31.2 31.2z"/>
          </symbol>
        </svg>