<svg xmlns="http://www.w3.org/2000/svg">
          <symbol id="fw-icon-duotone-person-military-rifle" viewBox="0 0 512 512">
            <path d="M178.1 19.5L334.1 .8C343.6-.4 352 7.1 352 16.6v46c0 8.8-7.2 16-16 16H181.7c-16.4 0-29.7-13.3-29.7-29.7c0-15 11.2-27.7 26.1-29.5zM113.7 289.4c9.4-15.8 21.7-29.3 36-40L331.1 508.6c-3.5 1.3-7.2 2-11.1 2H192c-17.7 0-32-14.3-32-32V368.3L106.4 459C95.2 478 70.7 484.3 51.7 473s-25.3-35.8-14.1-54.8l76.1-128.8zM352 478.6c0 1.3-.1 2.5-.2 3.8L177.5 233.5c16.6-7.1 34.6-10.9 53.3-10.9h50.4c48.1 0 92.6 25.4 117.1 66.8l76.1 128.8c11.2 19 4.9 43.5-14.1 54.8s-43.5 4.9-54.8-14.1L352 368.3V478.6zm-56-160a24 24 0 1 0 0-48 24 24 0 1 0 0 48z"/>
          </symbol>
        </svg>