<svg xmlns="http://www.w3.org/2000/svg">
          <symbol id="fw-icon-duotone-shield-dog" viewBox="0 0 512 512">
            <path d="M168 272l-22.1 44.2c-1.2 2.5-1.9 5.2-1.9 8c0 7.1 4.3 13.6 10.8 16.4l98.7 42.3c1.7 .7 3.4 1.1 5.2 1.1c7.3 0 13.3-5.9 13.3-13.3V320h48c44.2 0 80-35.8 80-80V208c0-8.8-7.2-16-16-16H320l-7.2-14.3c-5.4-10.8-16.5-17.7-28.6-17.7H232 208v72c0 22.1-17.9 40-40 40zm88-64a16 16 0 1 1 32 0 16 16 0 1 1 -32 0z"/>
          </symbol>
        </svg>3 13.3c-1.8 0-3.6-.4-5.2-1.1l-98.7-42.3c-6.6-2.8-10.8-9.3-10.8-16.4c0-2.8 .6-5.5 1.9-8L168 272h-8c-17.7 0-32-14.3-32-32V176c0-8.8 7.2-16 16-16h56z"/>
          </symbol>
        </svg>