<svg xmlns="http://www.w3.org/2000/svg">
          <symbol id="fw-icon-duotone-face-grin-stars" viewBox="0 0 512 512">
            <path d="M167.2 124.6c-1.3-2.8-4.1-4.6-7.2-4.6s-5.9 1.8-7.2 4.6l-16.6 34.7-38.1 5c-3.1 .4-5.6 2.5-6.6 5.5s-.1 6.2 2.1 8.3l27.9 26.5-7 37.8c-.6 3 .7 6.1 3.2 7.9s5.8 2 8.5 .6L160 232.5l33.8 18.3c2.7 1.5 6 1.3 8.5-.6s3.7-4.9 3.2-7.9l-7-37.8L226.4 178c2.2-2.1 3.1-5.3 2.1-8.3s-3.5-5.1-6.6-5.5l-38.1-5-16.6-34.7zm192 0c-1.3-2.8-4.1-4.6-7.2-4.6s-5.9 1.8-7.2 4.6l-16.6 34.7-38.1 5c-3.1 .4-5.6 2.5-6.6 5.5s-.1 6.2 2.1 8.3l27.9 26.5-7 37.8c-.6 3 .7 6.1 3.2 7.9s5.8 2 8.5 .6L352 232.5l33.8 18.3c2.7 1.5 6 1.3 8.5-.6s3.7-4.9 3.2-7.9l-7-37.8L418.4 178c2.2-2.1 3.1-5.3 2.1-8.3s-3.5-5.1-6.6-5.5l-38.1-5-16.6-34.7z"/>
          </symbol>
        </svg>.1 3.2 7.9s5.8 2 8.5 .6L352 232.5l33.8 18.3c2.7 1.5 6 1.3 8.5-.6s3.7-4.9 3.2-7.9l-7-37.8L418.4 178c2.2-2.1 3.1-5.3 2.1-8.3s-3.5-5.1-6.6-5.5l-38.1-5-16.6-34.7c-1.3-2.8-4.1-4.6-7.2-4.6z"/>
          </symbol>
        </svg>