<svg xmlns="http://www.w3.org/2000/svg">
          <symbol id="fw-icon-duotone-boot" viewBox="0 0 512 512">
            <path d="M32 0C14.3 0 0 14.3 0 32V96H320c17.7 0 32-14.3 32-32V32c0-17.7-14.3-32-32-32H32zM0 448v9.4c0 14.5 5.8 28.4 16 38.6s24.1 16 38.6 16H69.5c17 0 33.3-6.7 45.3-18.7l7.6-7.6c3.1-3.1 8.2-3.1 11.3 0l7.6 7.6c12 12 28.3 18.7 45.3 18.7h11c17 0 33.3-6.7 45.3-18.7l7.6-7.6c3.1-3.1 8.2-3.1 11.3 0l7.6 7.6c12 12 28.3 18.7 45.3 18.7h11c17 0 33.3-6.7 45.3-18.7l7.6-7.6c3.1-3.1 8.2-3.1 11.3 0l7.6 7.6c12 12 28.3 18.7 45.3 18.7h14.9c14.5 0 28.4-5.8 38.6-16s16-24.1 16-38.6V448H0z"/>
          </symbol>
        </svg>