<svg xmlns="http://www.w3.org/2000/svg">
          <symbol id="fw-icon-duotone-chess-rook-piece" viewBox="0 0 320 512">
            <path d="M48 416L72 264 47 232.8c-4.5-5.7-7-12.7-7-20V112c0-8.8 7.2-16 16-16H80c8.8 0 16 7.2 16 16v24c0 4.4 3.6 8 8 8h16c4.4 0 8-3.6 8-8V112c0-8.8 7.2-16 16-16h32c8.8 0 16 7.2 16 16v24c0 4.4 3.6 8 8 8h16c4.4 0 8-3.6 8-8V112c0-8.8 7.2-16 16-16h24c8.8 0 16 7.2 16 16V212.8c0 7.3-2.5 14.3-7 20L248 264l24 152H48zm88-135.1c0 3.9 3.2 7.1 7.1 7.1h33.8c3.9 0 7.1-3.2 7.1-7.1V248c0-13.3-10.7-24-24-24s-24 10.7-24 24v32.9z"/>
          </symbol>
        </svg>