<svg xmlns="http://www.w3.org/2000/svg">
          <symbol id="fw-icon-duotone-smoking" viewBox="0 0 640 512">
            <path d="M448 32c0-17.7-14.3-32-32-32s-32 14.3-32 32V43c0 55.2 21.9 108.1 60.9 147.1l21 21c9 9 14.1 21.2 14.1 33.9v11c0 17.7 14.3 32 32 32s32-14.3 32-32V245c0-29.7-11.8-58.2-32.8-79.2l-21-21C463.2 117.8 448 81.2 448 43V32zM576 256c0 17.7 14.3 32 32 32s32-14.3 32-32V245c0-55.2-21.9-108.1-60.9-147.1l-21-21c-9-9-14.1-21.2-14.1-33.9V32c0-17.7-14.3-32-32-32s-32 14.3-32 32V43c0 29.7 11.8 58.2 32.8 79.2l21 21c27 27 42.2 63.6 42.2 101.8v11z"/>
          </symbol>
        </svg>