<svg xmlns="http://www.w3.org/2000/svg">
          <symbol id="fw-icon-duotone-helmet-un" viewBox="0 0 512 512">
            <path d="M479.5 224C471.2 98.9 367.2 0 240 0C107.5 0 0 107.5 0 240v56.3C0 344.8 39.2 384 87.7 384H200h18.4l9.3-15.9L274.4 288H448h32c17.7 0 32-14.3 32-32s-14.3-32-32-32h-.5zM285.3 103.1l34.7 52V112c0-8.8 7.2-16 16-16s16 7.2 16 16v96c0 7.1-4.6 13.3-11.4 15.3s-14-.6-17.9-6.4l-34.7-52V208c0 8.8-7.2 16-16 16s-16-7.2-16-16V112c0-7.1 4.6-13.3 11.4-15.3s14 .6 17.9 6.4zM160 112v64c0 8.8 7.2 16 16 16s16-7.2 16-16V112c0-8.8 7.2-16 16-16s16 7.2 16 16v64c0 26.5-21.5 48-48 48s-48-21.5-48-48V112c0-8.8 7.2-16 16-16s16 7.2 16 16z"/>
          </symbol>
        </svg>