<svg xmlns="http://www.w3.org/2000/svg">
          <symbol id="fw-icon-duotone-envelopes-bulk" viewBox="0 0 640 512">
            <path d="M496 224h32c8.8 0 16 7.2 16 16v32c0 8.8-7.2 16-16 16H496c-8.8 0-16-7.2-16-16V240c0-8.8 7.2-16 16-16zM32 288c0-17.7 14.3-32 32-32H320c17.7 0 32 14.3 32 32v13L196.9 415.9c-1.4 1-3.1 1.6-4.9 1.6s-3.5-.6-4.9-1.6L32 301V288zM216 441.6L352 340.8V480c0 17.7-14.3 32-32 32H64c-17.7 0-32-14.3-32-32V340.8L168 441.6c6.9 5.1 15.3 7.9 24 7.9s17-2.8 24-7.9z"/>
          </symbol>
        </svg>L196.9 415.9c-1.4 1-3.1 1.6-4.9 1.6s-3.5-.6-4.9-1.6L32 301z"/>
          </symbol>
        </svg>