<svg xmlns="http://www.w3.org/2000/svg">
          <symbol id="fw-icon-duotone-hand-pointer" viewBox="0 0 448 512">
            <path d="M224 288c8.8 0 16 7.2 16 16v96c0 8.8-7.2 16-16 16s-16-7.2-16-16V304c0-8.8 7.2-16 16-16zm64 0c8.8 0 16 7.2 16 16v96c0 8.8-7.2 16-16 16s-16-7.2-16-16V304c0-8.8 7.2-16 16-16zm80 16v96c0 8.8-7.2 16-16 16s-16-7.2-16-16V304c0-8.8 7.2-16 16-16s16 7.2 16 16z"/>
          </symbol>
        </svg>4-140-79L8 336c-13.3-17.7-9.7-42.7 8-56s42.7-9.7 56 8l56 74.7V40zM240 304c0-8.8-7.2-16-16-16s-16 7.2-16 16v96c0 8.8 7.2 16 16 16s16-7.2 16-16V304zm48-16c-8.8 0-16 7.2-16 16v96c0 8.8 7.2 16 16 16s16-7.2 16-16V304c0-8.8-7.2-16-16-16zm80 16c0-8.8-7.2-16-16-16s-16 7.2-16 16v96c0 8.8 7.2 16 16 16s16-7.2 16-16V304z"/>
          </symbol>
        </svg>