<svg xmlns="http://www.w3.org/2000/svg">
          <symbol id="fw-icon-duotone-face-grin-hearts" viewBox="0 0 512 512">
            <path d="M158.4 152.7c4.8-17.8 23.1-28.4 40.8-23.6s28.4 23.1 23.6 40.8l-17.4 65c-2.3 8.5-11.1 13.6-19.6 11.3l-65.1-17.4c-17.8-4.8-28.4-23.1-23.6-40.8s23.1-28.4 40.8-23.6l16.1 4.3 4.3-16.1zm195.2 0l4.3 16.1 16.1-4.3c17.8-4.8 36.1 5.8 40.8 23.6s-5.8 36.1-23.6 40.8l-65.1 17.4c-8.5 2.3-17.3-2.8-19.6-11.3l-17.4-65c-4.8-17.8 5.8-36.1 23.6-40.8s36.1 5.8 40.9 23.6z"/>
          </symbol>
        </svg>-28.4 40.8-23.6zm154.3 23.6l4.3 16.1 16.1-4.3c17.8-4.8 36.1 5.8 40.8 23.6s-5.8 36.1-23.6 40.8l-65.1 17.4c-8.5 2.3-17.3-2.8-19.6-11.3l-17.4-65c-4.8-17.8 5.8-36.1 23.6-40.8s36.1 5.8 40.9 23.6z"/>
          </symbol>
        </svg>