<svg xmlns="http://www.w3.org/2000/svg">
          <symbol id="fw-icon-duotone-square-code" viewBox="0 0 448 512">
            <path d="M184.1 201.8c9.9-8.9 10.7-24 1.8-33.9s-24-10.7-33.9-1.8l-80 72c-5.1 4.6-7.9 11-7.9 17.8s2.9 13.3 7.9 17.8l80 72c9.9 8.9 25 8.1 33.9-1.8s8.1-25-1.8-33.9L123.9 256l60.2-54.2zm79.9 0L324.1 256l-60.2 54.2c-9.9 8.9-10.7 24-1.8 33.9s24 10.7 33.9 1.8l80-72c5.1-4.6 7.9-11 7.9-17.8s-2.9-13.3-7.9-17.8l-80-72c-9.9-8.9-25-8.1-33.9 1.8s-8.1 25 1.8 33.9z"/>
          </symbol>
        </svg>.3 7.9 17.8l80 72c9.9 8.9 25 8.1 33.9-1.8s8.1-25-1.8-33.9L123.9 256l60.2-54.2z"/>
          </symbol>
        </svg>