<svg xmlns="http://www.w3.org/2000/svg">
          <symbol id="fw-icon-duotone-phone-intercom" viewBox="0 0 512 512">
            <path d="M48 32C21.5 32 0 53.5 0 80V432c0 26.5 21.5 48 48 48H80c26.5 0 48-21.5 48-48V80c0-26.5-21.5-48-48-48H48zM368 320c-8.8 0-16 7.2-16 16s7.2 16 16 16h64c8.8 0 16-7.2 16-16s-7.2-16-16-16H368zm0 64c-8.8 0-16 7.2-16 16s7.2 16 16 16h64c8.8 0 16-7.2 16-16s-7.2-16-16-16H368z"/>
          </symbol>
        </svg>8.8 0-16-7.2-16-16zM256 96H416c17.7 0 32 14.3 32 32v96c0 17.7-14.3 32-32 32H256c-17.7 0-32-14.3-32-32V128c0-17.7 14.3-32 32-32z"/>
          </symbol>
        </svg>