<svg xmlns="http://www.w3.org/2000/svg">
          <symbol id="fw-icon-duotone-users-gear" viewBox="0 0 640 512">
            <path d="M144 160A80 80 0 1 0 144 0a80 80 0 1 0 0 160zm368 0A80 80 0 1 0 512 0a80 80 0 1 0 0 160zM0 298.7C0 310.4 9.6 320 21.3 320H234.7c.2 0 .4 0 .7 0c-26.6-23.5-43.3-57.8-43.3-96c0-7.6 .7-15 1.9-22.3c-13.6-6.3-28.7-9.7-44.6-9.7H106.7C47.8 192 0 239.8 0 298.7zM320 320c24 0 45.9-8.8 62.7-23.3c2.5-3.7 5.2-7.3 8-10.7c2.7-3.3 5.7-6.1 9-8.3C410 262.3 416 243.9 416 224c0-53-43-96-96-96s-96 43-96 96s43 96 96 96zm65.4 60.2c-10.3-5.9-18.1-16.2-20.8-28.2H261.3C187.7 352 128 411.7 128 485.3c0 14.7 11.9 26.7 26.7 26.7H455.2c-2.1-5.2-3.2-10.9-3.2-16.4v-3c-1.3-.7-2.7-1.5-4-2.3l-2.6 1.5c-16.8 9.7-40.5 8-54.7-9.7c-4.5-5.6-8.6-11.5-12.4-17.6l-.1-.2-.1-.2-2.4-4.1-.1-.2-.1-.2c-3.4-6.2-6.4-12.6-9-19.3c-8.2-21.2 2.2-42.6 19-52.3l2.7-1.5c0-.8 0-1.5 0-2.3s0-1.5 0-2.3l-2.7-1.5zM533.3 192H490.7c-15.9 0-31 3.5-44.6 9.7c1.3 7.2 1.9 14.7 1.9 22.3c0 17.4-3.5 33.9-9.7 49c2.5 .9 4.9 2 7.1 3.3l2.6 1.5c1.3-.8 2.6-1.6 4-2.3v-3c0-19.4 13.3-39.1 35.8-42.6c7.9-1.2 16-1.9 24.2-1.9s16.3 .6 24.2 1.9c22.5 3.5 35.8 23.2 35.8 42.6v3c1.3 .7 2.7 1.5 4 2.3l2.6-1.5c16.8-9.7 40.5-8 54.7 9.7c2.3 2.8 4.5 5.8 6.6 8.7c-2.1-57.1-49-102.7-106.6-102.7z"/>
          </symbol>
        </svg>