<svg xmlns="http://www.w3.org/2000/svg">
          <symbol id="fw-icon-duotone-link-simple-slash" viewBox="0 0 640 512">
            <path d="M121 191.4c-15.5 17.1-25 39.7-25 64.6c0 53 43 96 96 96h64c17.7 0 32 14.3 32 32s-14.3 32-32 32H192c-88.4 0-160-71.6-160-160c0-39.9 14.6-76.3 38.7-104.3L121 191.4zM399.7 288l-81.7-64H416c17.7 0 32 14.3 32 32s-14.3 32-32 32H399.7zM532.4 392l-56.3-44.1c39.3-12 67.9-48.6 67.9-91.8c0-53-43-96-96-96H384c-17.7 0-32-14.3-32-32s14.3-32 32-32h64c88.4 0 160 71.6 160 160c0 57.4-30.2 107.7-75.6 136zm-296-232L159.1 99.4C169.7 97.2 180.7 96 192 96h64c17.7 0 32 14.3 32 32s-14.3 32-32 32H236.4z"/>
          </symbol>
        </svg>