<svg xmlns="http://www.w3.org/2000/svg">
          <symbol id="fw-icon-duotone-cauldron" viewBox="0 0 448 512">
            <path d="M35.1 224C16.5 257 0 297.1 0 334.4c0 37.4 11.9 69.4 32 95.5V488c0 13.3 10.7 24 24 24s24-10.7 24-24V473c40.4 25.5 91.8 39 144 39s103.6-13.5 144-39v15c0 13.3 10.7 24 24 24s24-10.7 24-24V429.9c20.1-26.1 32-58.1 32-95.5c0-37.3-16.5-77.4-35.1-110.4H416c17.7 0 32-14.3 32-32s-14.3-32-32-32H368 224 160V288c0 17.7-14.3 32-32 32s-32-14.3-32-32V160H80 32c-17.7 0-32 14.3-32 32s14.3 32 32 32h3.1z"/>
          </symbol>
        </svg>