<svg xmlns="http://www.w3.org/2000/svg">
          <symbol id="fw-icon-duotone-trash-xmark" viewBox="0 0 448 512">
            <path d="M416 96H32L53.4 466.8c1.5 25.4 22.5 45.2 47.9 45.2H346.7c25.4 0 46.5-19.8 47.9-45.2L416 96zM143 207c9.4-9.4 24.6-9.4 33.9 0l47 47 47-47c9.4-9.4 24.6-9.4 33.9 0s9.4 24.6 0 33.9l-47 47 47 47c9.4 9.4 9.4 24.6 0 33.9s-24.6 9.4-33.9 0l-47-47-47 47c-9.4 9.4-24.6 9.4-33.9 0s-9.4-24.6 0-33.9l47-47-47-47c-9.4-9.4-9.4-24.6 0-33.9z"/>
          </symbol>
        </svg>7-47-47-47c-9.4-9.4-9.4-24.6 0-33.9z"/>
          </symbol>
        </svg>