<svg xmlns="http://www.w3.org/2000/svg">
          <symbol id="fw-icon-duotone-reel" viewBox="0 0 448 512">
            <path d="M384 64H64V88c0 13.3 10.7 24 24 24H360c13.3 0 24-10.7 24-24V64zM88 400c-13.3 0-24 10.7-24 24v24H384V424c0-13.3-10.7-24-24-24H88zM80 144c-8.8 0-16 7.2-16 16s7.2 16 16 16H368c8.8 0 16-7.2 16-16s-7.2-16-16-16H80zm0 64c-8.8 0-16 7.2-16 16s7.2 16 16 16H432c8.8 0 16-7.2 16-16s-7.2-16-16-16H80zm0 64c-8.8 0-16 7.2-16 16s7.2 16 16 16H368c8.8 0 16-7.2 16-16s-7.2-16-16-16H80zm0 64c-8.8 0-16 7.2-16 16s7.2 16 16 16H368c8.8 0 16-7.2 16-16s-7.2-16-16-16H80z"/>
          </symbol>
        </svg>