<svg xmlns="http://www.w3.org/2000/svg">
          <symbol id="fw-icon-duotone-toilets-portable" viewBox="0 0 576 512">
            <path d="M32 0C14.3 0 0 14.3 0 32V64H256V32c0-17.7-14.3-32-32-32H32zM352 0c-17.7 0-32 14.3-32 32V64H576V32c0-17.7-14.3-32-32-32H352zM192 224c-8.8 0-16 7.2-16 16v64c0 8.8 7.2 16 16 16s16-7.2 16-16V240c0-8.8-7.2-16-16-16zm336 16c0-8.8-7.2-16-16-16s-16 7.2-16 16v64c0 8.8 7.2 16 16 16s16-7.2 16-16V240z"/>
          </symbol>
        </svg>16 7.2 16 16v64c0 8.8-7.2 16-16 16s-16-7.2-16-16V240c0-8.8 7.2-16 16-16z"/>
          </symbol>
        </svg>