<svg xmlns="http://www.w3.org/2000/svg">
          <symbol id="fw-icon-duotone-blueberries" viewBox="0 0 512 512">
            <path d="M351.3 351.3C441.4 343.6 512 268 512 176C512 78.8 433.2 0 336 0C244 0 168.4 70.6 160.7 160.7c5.1-.4 10.2-.7 15.3-.7c97.2 0 176 78.8 176 176c0 5.2-.2 10.3-.7 15.3zM368 48c8.8 0 16 7.2 16 16V96h32c8.8 0 16 7.2 16 16s-7.2 16-16 16H384v32c0 8.8-7.2 16-16 16s-16-7.2-16-16V128H320c-8.8 0-16-7.2-16-16s7.2-16 16-16h32V64c0-8.8 7.2-16 16-16zM192 224c0-8.8-7.2-16-16-16s-16 7.2-16 16v32H128c-8.8 0-16 7.2-16 16s7.2 16 16 16h32v32c0 8.8 7.2 16 16 16s16-7.2 16-16V288h32c8.8 0 16-7.2 16-16s-7.2-16-16-16H192V224z"/>
          </symbol>
        </svg>