<svg xmlns="http://www.w3.org/2000/svg">
          <symbol id="fw-icon-duotone-person-skating" viewBox="0 0 448 512">
            <path d="M352 48a48 48 0 1 1 96 0 48 48 0 1 1 -96 0zM128 128c0-17.7 14.3-32 32-32H319.4c43.6 0 64.6 53.4 32.8 83.1l-74.4 69.4 60.2 60.2c9 9 14.1 21.2 14.1 33.9V416c0 17.7-14.3 32-32 32s-32-14.3-32-32V349.3l-77.9-77.8c-26.6-26.6-24.6-70.3 4.3-94.4l20.4-17H160c-17.7 0-32-14.3-32-32zM81.4 353.4l86.9-86.9c4.6 10 11 19.3 19.3 27.5l21.8 21.8-82.7 82.7c-12.5 12.5-32.8 12.5-45.3 0s-12.5-32.8 0-45.3z"/>
          </symbol>
        </svg>