<svg xmlns="http://www.w3.org/2000/svg">
          <symbol id="fw-icon-duotone-hourglass-half" viewBox="0 0 384 512">
            <path d="M0 32C0 49.7 14.3 64 32 64H352c17.7 0 32-14.3 32-32s-14.3-32-32-32H32C14.3 0 0 14.3 0 32zM0 480c0 17.7 14.3 32 32 32H352c17.7 0 32-14.3 32-32s-14.3-32-32-32H288V437c0-19-5.6-37.4-16-53H112c-10.3 15.6-16 34-16 53v11H32c-17.7 0-32 14.3-32 32zM259.9 142.9c4.6-4.6 8.6-9.6 12.1-14.9H112c3.5 5.3 7.6 10.3 12.1 14.9L192 210.7l67.9-67.9z"/>
          </symbol>
        </svg>/>
          </symbol>
        </svg>