<svg xmlns="http://www.w3.org/2000/svg">
          <symbol id="fw-icon-duotone-hashtag" viewBox="0 0 448 512">
            <path d="M207.6 69.3c2.9-17.4-8.9-33.9-26.3-36.8s-33.9 8.9-36.8 26.3L132.9 128h64.9l9.8-58.7zM187.1 192H122.2L80.4 442.7c-2.9 17.4 8.9 33.9 26.3 36.8s33.9-8.9 36.8-26.3L187.1 192zM367.6 69.3c2.9-17.4-8.9-33.9-26.3-36.8s-33.9 8.9-36.8 26.3L260.9 320h64.9L367.6 69.3zM315.1 384H250.2l-9.8 58.7c-2.9 17.4 8.9 33.9 26.3 36.8s33.9-8.9 36.8-26.3L315.1 384z"/>
          </symbol>
        </svg>