<svg xmlns="http://www.w3.org/2000/svg">
          <symbol id="fw-icon-duotone-face-smile-tear" viewBox="0 0 512 512">
            <path d="M144.4 208a32 32 0 1 1 64 0 32 32 0 1 1 -64 0zM400 369c0 26-21.5 47-48 47s-48-21-48-47c0-20 28.4-60.4 41.6-77.7c3.2-4.4 9.6-4.4 12.8 0C371.4 308.6 400 349 400 369zM336.4 176a32 32 0 1 1 0 64 32 32 0 1 1 0-64z"/>
          </symbol>
        </svg>.6-77.7c-3.2-4.4-9.6-4.4-12.8 0C332.4 308.6 304 349 304 369c0 26 21.5 47 48 47zM208.4 208a32 32 0 1 0 -64 0 32 32 0 1 0 64 0zm128 32a32 32 0 1 0 0-64 32 32 0 1 0 0 64z"/>
          </symbol>
        </svg>