<svg xmlns="http://www.w3.org/2000/svg">
          <symbol id="fw-icon-duotone-face-nose-steam" viewBox="0 0 512 512">
            <path d="M9.4 421.7c2.1 2.1 4.3 3.8 6.7 5.2C1.7 445.6 3 472.7 20.3 489.9s44.3 18.6 63.1 4.2c1.4 2.4 3.1 4.7 5.2 6.7c12.5 12.5 32.8 12.5 45.3 0c9.9-9.9 11.9-24.6 6.2-36.5c6-1.2 11.7-4.1 16.4-8.8c12.5-12.5 12.5-32.8 0-45.3c-3.6-3.6-7.9-6.2-12.5-7.7l44.9-69.8c1.8-2.8 1.4-6.5-.9-8.8c-2.3-2.3-5.9-2.7-8.7-1L108 367.5c-1.5-5-4.2-9.7-8.1-13.7c-12.5-12.5-32.8-12.5-45.3 0c-4.7 4.7-7.6 10.4-8.8 16.4c-11.9-5.7-26.6-3.6-36.5 6.2c-12.5 12.5-12.5 32.8 0 45.3zm491.5 .9c12.5-12.5 12.5-32.8 0-45.3c-9.9-9.9-24.6-11.9-36.5-6.2c-1.2-6-4.1-11.7-8.8-16.4c-12.5-12.5-32.8-12.5-45.3 0c-3.7 3.7-6.3 8.1-7.8 12.8L332.8 323c-2.8-1.8-6.5-1.4-8.8 1c-2.3 2.3-2.7 6-1 8.8l44.2 70.4c-4.9 1.5-9.6 4.1-13.4 8c-12.5 12.5-12.5 32.8 0 45.3c4.7 4.7 10.4 7.6 16.4 8.8c-5.7 11.9-3.6 26.6 6.2 36.5c12.5 12.5 32.8 12.5 45.3 0c2.1-2.1 3.8-4.3 5.2-6.7c18.8 14.5 45.9 13.1 63.1-4.2s18.6-44.3 4.2-63.1c2.4-1.4 4.7-3.1 6.7-5.2z"/>
          </symbol>
        </svg>2.3 73.7-44.1zm-266.1 0c35.5 11.8 64.4 34.8 73.7 44.1c6.2 6.2 16.4 6.2 22.6 0s6.2-16.4 0-22.6c-12-12-45-38.1-86.3-51.9c-8.4-2.8-17.4 1.7-20.2 10.1s1.7 17.4 10.1 20.2z"/>
          </symbol>
        </svg>