<svg xmlns="http://www.w3.org/2000/svg">
          <symbol id="fw-icon-duotone-comments-question-check" viewBox="0 0 640 512">
            <path d="M136.2 108.4l-.4 1c-3.7 10.4 1.8 21.8 12.2 25.5s21.8-1.8 25.5-12.2l.4-1c.9-2.7 3.5-4.4 6.3-4.4h48.5c7 0 12.6 5.7 12.6 12.6c0 4.5-2.4 8.7-6.3 10.9L198 162.1c-6.2 3.6-10 10.2-10 17.3v11.2c0 11 9 20 20 20c10.9 0 19.8-8.8 20-19.6l26.9-15.4c16.3-9.4 26.4-26.8 26.4-45.6c0-29.1-23.6-52.6-52.6-52.6H180.2c-19.8 0-37.4 12.4-44 31.1zM234.7 264a26.7 26.7 0 1 0 -53.3 0 26.7 26.7 0 1 0 53.3 0zM448 176c0 112.3-99.1 196.9-216.5 207C255.8 457.4 336.4 512 432 512c38.2 0 73.9-8.7 104.7-23.9c7.5 3.9 16 7.9 25.3 11.4c18.3 6.9 40.3 12.5 62.1 12.5c6.9 0 13.1-4.5 15.2-11.1c2.1-6.6-.2-13.8-5.8-17.9l0 0 0 0-.2-.2c-.2-.2-.6-.4-1.1-.8c-1-.8-2.5-2-4.3-3.7c-3.6-3.3-8.5-8.1-13.3-14.3c-5.5-7-10.7-15.4-14.2-24.7c24.9-29 39.6-64.7 39.6-103.4c0-92.8-84.9-168.9-192.6-175.5c.4 5.1 .6 10.3 .6 15.5zm-33 17.6c-9.9 84.3-90 151-190.2 157.8l0 0c100.1-6.8 180.3-73.5 190.2-157.8zM566.1 318.1l-80 80c-7.8 7.8-20.5 7.8-28.3 0l-40-40c-7.8-7.8-7.8-20.5 0-28.3s20.5-7.8 28.3 0L472 355.7l65.9-65.9c7.8-7.8 20.5-7.8 28.3 0s7.8 20.5 0 28.3z"/>
          </symbol>
        </svg>