<svg xmlns="http://www.w3.org/2000/svg">
          <symbol id="fw-icon-duotone-house-chimney-user" viewBox="0 0 576 512">
            <path d="M309.1 7.9C297-2.6 279-2.6 266.9 7.9l-256 224c-13.3 11.6-14.6 31.9-3 45.2s31.9 14.6 45.2 3L288 74.5 522.9 280.1c13.3 11.6 33.5 10.3 45.2-3s10.3-33.5-3-45.2L512 185.5V64c0-17.7-14.3-32-32-32H448c-17.7 0-32 14.3-32 32v37.5L309.1 7.9zM352 256a64 64 0 1 0 -128 0 64 64 0 1 0 128 0zm-96 96c-44.2 0-80 35.8-80 80c0 8.8 7.2 16 16 16H384c8.8 0 16-7.2 16-16c0-44.2-35.8-80-80-80H256z"/>
          </symbol>
        </svg>