<svg xmlns="http://www.w3.org/2000/svg">
          <symbol id="fw-icon-duotone-viruses" viewBox="0 0 640 512">
            <path d="M160 192a32 32 0 1 0 0-64 32 32 0 1 0 0 64zm352 48c0-8.8-7.2-16-16-16s-16 7.2-16 16c0 33-39.9 49.5-63.2 26.2c-6.2-6.2-16.4-6.2-22.6 0s-6.2 16.4 0 22.6C417.5 312.1 401 352 368 352c-8.8 0-16 7.2-16 16s7.2 16 16 16c33 0 49.5 39.9 26.2 63.2c-6.2 6.2-6.2 16.4 0 22.6s16.4 6.2 22.6 0C440.1 446.5 480 463 480 496c0 8.8 7.2 16 16 16s16-7.2 16-16c0-33 39.9-49.5 63.2-26.2c6.2 6.2 16.4 6.2 22.6 0s6.2-16.4 0-22.6C574.5 423.9 591 384 624 384c8.8 0 16-7.2 16-16s-7.2-16-16-16c-33 0-49.5-39.9-26.2-63.2c6.2-6.2 6.2-16.4 0-22.6s-16.4-6.2-22.6 0C551.9 289.5 512 273 512 240zM448 352a32 32 0 1 1 64 0 32 32 0 1 1 -64 0z"/>
          </symbol>
        </svg> 24-24zm48 224a16 16 0 1 0 0-32 16 16 0 1 0 0 32zm-48-64a32 32 0 1 0 -64 0 32 32 0 1 0 64 0zM480 320a32 32 0 1 1 0 64 32 32 0 1 1 0-64z"/>
          </symbol>
        </svg>