<svg xmlns="http://www.w3.org/2000/svg">
          <symbol id="fw-icon-duotone-puzzle" viewBox="0 0 512 512">
            <path d="M320 0H448c35.3 0 64 28.7 64 64V192c0 8.8-7.2 16-16 16H444c-6.6 0-12 5.4-12 12v4c0 17.7-14.3 32-32 32s-32-14.3-32-32v-4c0-6.6-5.4-12-12-12l-36 0c-8.8 0-16-7.2-16-16V160c0-8.8 7.2-16 16-16h16c17.7 0 32-14.3 32-32s-14.3-32-32-32H320c-8.8 0-16-7.2-16-16V16c0-8.8 7.2-16 16-16zM224 448v64H64c-35.3 0-64-28.7-64-64V288H64c8.8 0 16-7.2 16-16V256c0-17.7 14.3-32 32-32s32 14.3 32 32v16c0 8.8 7.2 16 16 16h64v64c0 8.8-7.2 16-16 16H192c-17.7 0-32 14.3-32 32s14.3 32 32 32h16c8.8 0 16 7.2 16 16z"/>
          </symbol>
        </svg>