<svg xmlns="http://www.w3.org/2000/svg">
          <symbol id="fw-icon-duotone-eye-low-vision" viewBox="0 0 640 512">
            <path d="M38.8 5.1C28.4-3.1 13.3-1.2 5.1 9.2S-1.2 34.7 9.2 42.9l592 464c10.4 8.2 25.5 6.3 33.7-4.1s6.3-25.5-4.1-33.7L38.8 5.1zM33.1 247.8c-1.8 6.8-1.3 14 1.4 20.5c14.9 35.7 46.2 87.7 93 131.1C174.5 443.2 239.2 480 320 480c3.1 0 6.1-.1 9.2-.2L33.1 247.8zM393.6 469.4c18.7-5.5 36.2-13 52.6-21.8L83.1 161.5c-11 14.4-20.5 28.7-28.4 42.2l339 265.7z"/>
          </symbol>
        </svg>96 43 96 96z"/>
          </symbol>
        </svg>