<svg xmlns="http://www.w3.org/2000/svg">
          <symbol id="fw-icon-duotone-calendar-xmark" viewBox="0 0 512 512">
            <path d="M480 192H32V464c0 26.5 21.5 48 48 48H432c26.5 0 48-21.5 48-48V192zM337 305l-47 47 47 47c9.4 9.4 9.4 24.6 0 33.9s-24.6 9.4-33.9 0l-47-47-47 47c-9.4 9.4-24.6 9.4-33.9 0s-9.4-24.6 0-33.9l47-47-47-47c-9.4-9.4-9.4-24.6 0-33.9s24.6-9.4 33.9 0l47 47 47-47c9.4-9.4 24.6-9.4 33.9 0s9.4 24.6 0 33.9z"/>
          </symbol>
        </svg>47 47c9.4 9.4 24.6 9.4 33.9 0s9.4-24.6 0-33.9l-47-47 47-47z"/>
          </symbol>
        </svg>