<svg xmlns="http://www.w3.org/2000/svg">
          <symbol id="fw-icon-duotone-circle-euro" viewBox="0 0 512 512">
            <path d="M144.2 240c-.7 5.5-1.1 11.1-1.1 16.8c0 5.2 .3 10.2 .9 15.2H128c-8.8 0-16 7.2-16 16s7.2 16 16 16h24.1c18.8 47.7 65.4 81.5 119.8 81.5H313c13.3 0 24-10.7 24-24s-10.7-24-24-24H271.9c-27 0-50.8-13.2-65.5-33.5H288c8.8 0 16-7.2 16-16s-7.2-16-16-16H192.6c-.9-4.9-1.4-10-1.4-15.2c0-5.7 .6-11.4 1.7-16.8H288c8.8 0 16-7.2 16-16s-7.2-16-16-16H207.5c14.7-19.4 38.1-32 64.4-32H313c13.3 0 24-10.7 24-24s-10.7-24-24-24H271.9c-53.9 0-100 33.1-119.2 80H128c-8.8 0-16 7.2-16 16s7.2 16 16 16h16.2z"/>
          </symbol>
        </svg> 16-16z"/>
          </symbol>
        </svg>