<svg xmlns="http://www.w3.org/2000/svg">
          <symbol id="fw-icon-duotone-house-medical" viewBox="0 0 576 512">
            <path d="M309.1 7.9C297-2.6 279-2.6 266.9 7.9l-256 224c-13.3 11.6-14.6 31.9-3 45.2s31.9 14.6 45.2 3L288 74.5 522.9 280.1c13.3 11.6 33.5 10.3 45.2-3s10.3-33.5-3-45.2l-256-224zM256 240v48H208c-8.8 0-16 7.2-16 16v32c0 8.8 7.2 16 16 16h48v48c0 8.8 7.2 16 16 16h32c8.8 0 16-7.2 16-16V352h48c8.8 0 16-7.2 16-16V304c0-8.8-7.2-16-16-16H320V240c0-8.8-7.2-16-16-16H272c-8.8 0-16 7.2-16 16z"/>
          </symbol>
        </svg>