<svg xmlns="http://www.w3.org/2000/svg">
          <symbol id="fw-icon-duotone-mug-marshmallows" viewBox="0 0 512 512">
            <path d="M96 160H32c-17.7 0-32 14.3-32 32V384c0 53 43 96 96 96H288c53 0 96-43 96-96h16c61.9 0 112-50.1 112-112s-50.1-112-112-112H352 160v64c0 17.7-14.3 32-32 32s-32-14.3-32-32V160zM384 320V224h16c26.5 0 48 21.5 48 48s-21.5 48-48 48H384z"/>
          </symbol>
        </svg>32 192 32H64C46.3 32 32 46.3 32 64zm128 96H96v64c0 17.7 14.3 32 32 32s32-14.3 32-32V160z"/>
          </symbol>
        </svg>