<svg xmlns="http://www.w3.org/2000/svg">
          <symbol id="fw-icon-duotone-scale-unbalanced-flip" viewBox="0 0 640 512">
            <path d="M128 163.8L55.6 288H200.4L128 163.8zM254 305.1C243.2 350 190.9 384 128 384S12.8 350 2 305.1c-2.6-11 1-22.3 6.7-32.1l95.2-163.2c5-8.6 14.2-13.8 24.1-13.8s19.1 5.3 24.1 13.8l95.2 163.2c5.7 9.8 9.3 21.1 6.7 32.1zm256.9-13.3L438.4 416H583.3L510.8 291.8zm126 141.3C626 478 573.7 512 510.8 512s-115.2-34-126-78.9c-2.6-11 1-22.3 6.7-32.1l95.2-163.2c5-8.6 14.2-13.8 24.1-13.8s19.1 5.3 24.1 13.8l95.2 163.2c5.7 9.8 9.3 21.1 6.7 32.1z"/>
          </symbol>
        </svg>