<svg xmlns="http://www.w3.org/2000/svg">
          <symbol id="fw-icon-duotone-border-top" viewBox="0 0 448 512">
            <path d="M64 160A32 32 0 1 0 0 160a32 32 0 1 0 64 0zm384 0a32 32 0 1 0 -64 0 32 32 0 1 0 64 0zm-256 0a32 32 0 1 0 64 0 32 32 0 1 0 -64 0zM64 352A32 32 0 1 0 0 352a32 32 0 1 0 64 0zm320 0a32 32 0 1 0 64 0 32 32 0 1 0 -64 0zm-128 0a32 32 0 1 0 -64 0 32 32 0 1 0 64 0zM0 256a32 32 0 1 0 64 0A32 32 0 1 0 0 256zm448 0a32 32 0 1 0 -64 0 32 32 0 1 0 64 0zm-256 0a32 32 0 1 0 64 0 32 32 0 1 0 -64 0zM64 448A32 32 0 1 0 0 448a32 32 0 1 0 64 0zm320 0a32 32 0 1 0 64 0 32 32 0 1 0 -64 0zm-128 0a32 32 0 1 0 -64 0 32 32 0 1 0 64 0zM96 256a32 32 0 1 0 64 0 32 32 0 1 0 -64 0zm64 192a32 32 0 1 0 -64 0 32 32 0 1 0 64 0zm128 0a32 32 0 1 0 64 0 32 32 0 1 0 -64 0zm64-192a32 32 0 1 0 -64 0 32 32 0 1 0 64 0z"/>
          </symbol>
        </svg>