<svg xmlns="http://www.w3.org/2000/svg">
          <symbol id="fw-icon-duotone-hand-holding-skull" viewBox="0 0 576 512">
            <path d="M363.6 250c-1.4-7 2-13.9 8-17.7C408.2 209 432 171 432 128C432 57.3 367.5 0 288 0S144 57.3 144 128c0 43 23.8 81 60.4 104.2c6 3.8 9.4 10.8 8 17.7l-4.1 20.6c-.2 .9-.3 1.9-.3 2.9c0 8 6.5 14.6 14.6 14.6H353.4c8 0 14.6-6.5 14.6-14.6c0-1-.1-1.9-.3-2.9L363.6 250zM208 144a32 32 0 1 1 64 0 32 32 0 1 1 -64 0zm128-32a32 32 0 1 1 0 64 32 32 0 1 1 0-64z"/>
          </symbol>
        </svg>