<svg xmlns="http://www.w3.org/2000/svg">
          <symbol id="fw-icon-duotone-face-raised-eyebrow" viewBox="0 0 512 512">
            <path d="M328.8 141.8c10.7-10.7 28.5-8.9 36.9 3.7l4.9 7.4c4.9 7.4 14.8 9.3 22.2 4.4s9.3-14.8 4.4-22.2l-4.9-7.4c-19.6-29.4-61.2-33.5-86.2-8.5l-29.5 29.5c-6.2 6.2-6.2 16.4 0 22.6s16.4 6.2 22.6 0l29.5-29.5zM128 144c-8.8 0-16 7.2-16 16s7.2 16 16 16h64c8.8 0 16-7.2 16-16s-7.2-16-16-16H128zm80.4 96a32 32 0 1 0 -64 0 32 32 0 1 0 64 0zm160 0a32 32 0 1 0 -64 0 32 32 0 1 0 64 0z"/>
          </symbol>
        </svg>22.6 0l29.5-29.5zM128 144c-8.8 0-16 7.2-16 16s7.2 16 16 16h64c8.8 0 16-7.2 16-16s-7.2-16-16-16H128z"/>
          </symbol>
        </svg>