<svg xmlns="http://www.w3.org/2000/svg">
          <symbol id="fw-icon-duotone-face-drooling" viewBox="0 0 512 512">
            <path d="M158.6 189.6c8.2-7.8 19.1-13.6 33.4-13.6c8.8 0 16-7.2 16-16s-7.2-16-16-16c-24.1 0-42.5 10.2-55.4 22.4c-12.6 12-20.4 26.3-23.8 36.5c-2.8 8.4 1.7 17.4 10.1 20.2s17.4-1.7 20.2-10.1c1.9-5.8 7-15.4 15.4-23.5zm194.8 0c8.4 8 13.5 17.7 15.4 23.5c2.8 8.4 11.9 12.9 20.2 10.1s12.9-11.9 10.1-20.2c-3.4-10.2-11.1-24.6-23.8-36.5C362.5 154.2 344.1 144 320 144c-8.8 0-16 7.2-16 16s7.2 16 16 16c14.3 0 25.2 5.8 33.4 13.6zM288 448c0 8.8 7.2 16 16 16s16-7.2 16-16V387.8c-9.9 4-20.6 7.2-32 9.3V448zm64 48c0 8.8 7.2 16 16 16s16-7.2 16-16V344.2c-9.1 9.4-19.7 18.6-32 26.8V496z"/>
          </symbol>
        </svg>3 0-25.2 5.8-33.4 13.6zm210.2 23.5c-1.9-5.8-7-15.4-15.4-23.5c-8.2-7.8-19-13.6-33.4-13.6c-8.8 0-16-7.2-16-16s7.2-16 16-16c24.1 0 42.5 10.2 55.4 22.4c12.6 12 20.4 26.3 23.8 36.5c2.8 8.4-1.7 17.4-10.1 20.2s-17.4-1.7-20.2-10.1z"/>
          </symbol>
        </svg>