<svg xmlns="http://www.w3.org/2000/svg">
          <symbol id="fw-icon-duotone-camera-movie" viewBox="0 0 576 512">
            <path d="M128 64a64 64 0 1 0 0 128 64 64 0 1 0 0-128zM352 256H128C57.3 256 0 198.7 0 128S57.3 0 128 0c48.2 0 90.2 26.6 112 66C261.8 26.6 303.8 0 352 0c70.7 0 128 57.3 128 128s-57.3 128-128 128zm0-192a64 64 0 1 0 0 128 64 64 0 1 0 0-128zM558.3 259.4c10.8 5.4 17.7 16.5 17.7 28.6V480c0 12.1-6.8 23.2-17.7 28.6s-23.8 4.3-33.5-3l-64-48L448 448V432 336 320l12.8-9.6 64-48c9.7-7.3 22.7-8.4 33.5-3z"/>
          </symbol>
        </svg>