<svg xmlns="http://www.w3.org/2000/svg">
          <symbol id="fw-icon-duotone-hexagon-vertical-nft-slanted" viewBox="0 0 448 512">
            <path d="M263.9 109.6c5 2.8 8.1 8.2 8.1 13.9c0 12.3-13.3 20-23.9 13.9l-24.2-13.8v117h32c8.8 0 16 7.2 16 16s-7.2 16-16 16h-32v128c0 8.8-7.2 16-16 16s-16-7.2-16-16v-144V96.3c0-1.6 .2-3.2 .6-4.7c.5-1.9 1.4-3.7 2.6-5.2c1.1-1.5 2.5-2.8 4-3.7c2.5-1.7 5.6-2.6 8.8-2.6c0 0 .1 0 .1 0c.5 0 1 0 1.4 .1c2.5 .2 4.8 1 6.8 2.2l47.8 27.3zm32.1 55.2c-5-2.8-8.1-8.2-8.1-13.9c0-12.3 13.3-20 23.9-13.9l72 41.1c7.7 4.4 10.3 14.2 6 21.8s-14.2 10.3-21.8 6l-16.2-9.3V352.6c0 8.8-7.2 16-16 16s-16-7.2-16-16V178.4l-23.8-13.6zM159.8 144.6v224c0 7.8-5.7 14.5-13.4 15.8s-15.3-3.3-17.7-10.7L95.8 275.2v61.4c0 8.8-7.2 16-16 16s-16-7.2-16-16v-160c0-7.8 5.7-14.5 13.4-15.8s15.3 3.3 17.7 10.7L127.8 270V144.6c0-8.8 7.2-16 16-16s16 7.2 16 16z"/>
          </symbol>
        </svg>0L95 171.5c-2.5-7.4-10-12-17.7-10.7s-13.4 7.9-13.4 15.8v160c0 8.8 7.2 16 16 16s16-7.2 16-16V275.2l32.8 98.5c2.5 7.4 10 12 17.7 10.7s13.4-7.9 13.4-15.8v-224c0-8.8-7.2-16-16-16z"/>
          </symbol>
        </svg>