<svg xmlns="http://www.w3.org/2000/svg">
          <symbol id="fw-icon-duotone-books-medical" viewBox="0 0 576 512">
            <path d="M96 0h64c17.7 0 32 14.3 32 32V96H64V32C64 14.3 78.3 0 96 0zM64 480V416H192v64c0 17.7-14.3 32-32 32H96c-17.7 0-32-14.3-32-32zM224 32c0-17.7 14.3-32 32-32h64c17.7 0 32 14.3 32 32V96H224V32zm0 96H352V384H224V128zm0 288H352v64c0 17.7-14.3 32-32 32H256c-17.7 0-32-14.3-32-32V416zM353.4 117.8L476.2 85l8.2 30.9L361.6 148.8l-8.2-30.9zm74.2 278.3l122.8-32.9 8.2 30.9L435.8 427l-8.2-30.9z"/>
          </symbol>
        </svg>16 7.2 16 16v32c0 8.8-7.2 16-16 16H128v48c0 8.8-7.2 16-16 16H80c-8.8 0-16-7.2-16-16V288H16c-8.8 0-16-7.2-16-16V240c0-8.8 7.2-16 16-16H64V176z"/>
          </symbol>
        </svg>