<svg xmlns="http://www.w3.org/2000/svg">
          <symbol id="fw-icon-duotone-pen-swirl" viewBox="0 0 512 512">
            <path d="M256 8c30.1 0 59 5.4 85.7 15.2L303.6 61.7C288.3 58 272.4 56 256 56C145.5 56 56 145.5 56 256s89.5 200 200 200c13.3 0 24 10.7 24 24s-10.7 24-24 24C119 504 8 393 8 256S119 8 256 8zM456 256c0-16-1.9-31.7-5.5-46.6L489 170.9c9.7 26.5 15 55.2 15 85.1c0 83.9-68.1 152-152 152c-13.1 0-25.8-1.7-38-4.8c-12.8-3.3-20.6-16.4-17.3-29.2s16.4-20.6 29.2-17.3c8.3 2.1 17 3.3 26 3.3c57.4 0 104-46.6 104-104z"/>
          </symbol>
        </svg>