<svg xmlns="http://www.w3.org/2000/svg">
          <symbol id="fw-icon-duotone-masks-theater" viewBox="0 0 640 512">
            <path d="M399.3 509.7c-58.2-8.8-108.2-72.8-137.6-119.7c-20-31.9-25.1-70.3-19.6-107.7L266.3 118c1.4-9.8 5.1-19.2 12.9-25.2c20.2-15.6 72.4-41.5 185.1-24.5s155.2 57.4 170 78.3c5.7 8 6.5 18.1 5.1 27.9L615.2 338.8c-5.5 37.3-21.5 72.6-49.8 97.2c-41.7 36.1-108 82.5-166.1 73.7zm17.1-277.7c.1-.5 .2-1.1 .3-1.6c3.2-21.8-11.6-42-33.1-45.3s-41.5 11.8-44.7 33.5c-.1 .5-.1 1.1-.2 1.6c-.6 5.4 5.2 8.4 10.3 6.7c9-3 18.8-3.9 28.7-2.4s19.1 5.3 26.8 10.8c4.4 3.1 10.8 2 11.8-3.3zm112.6 22.2c4.4 3.1 10.8 2 11.8-3.3c.1-.5 .2-1.1 .3-1.6c3.2-21.8-11.6-42-33.1-45.3s-41.5 11.8-44.7 33.5c-.1 .5-.1 1.1-.2 1.6c-.6 5.4 5.2 8.4 10.3 6.7c9-3 18.8-3.9 28.7-2.4s19.1 5.3 26.8 10.8zm-11.5 85.2c-28.8 12.8-61.4 17.8-94.9 12.8s-63.2-19.5-87-40.3c-6.3-5.5-16.2-1.7-15.2 6.7c5.9 48.5 43 89.1 93 96.7s97.2-20.2 116.8-64.9c3.4-7.7-5-14.3-12.6-10.9z"/>
          </symbol>
        </svg>