<svg xmlns="http://www.w3.org/2000/svg">
          <symbol id="fw-icon-duotone-sterling-sign" viewBox="0 0 320 512">
            <path d="M176.4 96c-35.5 0-64.4 28.8-64.4 64.4V332.5c0 29-7.9 57.5-22.8 82.3l-.7 1.1H288c17.7 0 32 14.3 32 32s-14.3 32-32 32H32c-11.5 0-22.2-6.2-27.8-16.2s-5.5-22.3 .4-32.2l29.8-49.6c9-14.9 13.7-32 13.7-49.4V160.4C48 89.5 105.5 32 176.4 32c13.8 0 27.5 2.2 40.6 6.6l81.2 27.1c16.8 5.6 25.8 23.7 20.2 40.5s-23.7 25.8-40.5 20.2L196.7 99.3c-6.6-2.2-13.4-3.3-20.4-3.3z"/>
          </symbol>
        </svg>