<svg xmlns="http://www.w3.org/2000/svg">
          <symbol id="fw-icon-duotone-symbols" viewBox="0 0 512 512">
            <path d="M500.3 7.3C507.7 13.3 512 22.4 512 32V176c0 26.5-28.7 48-64 48s-64-21.5-64-48s28.7-48 64-48V71L352 90.2V208c0 26.5-28.7 48-64 48s-64-21.5-64-48s28.7-48 64-48V64c0-15.3 10.8-28.4 25.7-31.4l160-32c9.4-1.9 19.1 .6 26.6 6.6zm-374 356.9l19.6 20.7 23.5-23.5c12.5-12.5 32.8-12.5 45.3 0s12.5 32.8 0 45.3l-24.7 24.7L215.2 458c12.2 12.8 11.6 33.1-1.2 45.2s-33.1 11.6-45.2-1.2l-24.1-25.4-12.8 12.8C117.4 503.9 97.7 512 77.3 512C34.6 512 0 477.4 0 434.7v-.9c0-19.4 7.2-38.2 20.3-52.6l14.5-15.9C23.2 353.7 16 337.7 16 320c0-35.3 28.7-64 64-64s64 28.7 64 64c0 17.1-6.7 32.7-17.7 44.2zM67.7 424.3c-2.4 2.6-3.7 6-3.7 9.5v.9c0 7.3 5.9 13.3 13.3 13.3c3.5 0 6.9-1.4 9.4-3.9l14-14L81.1 409.5 67.7 424.3zM96 320a16 16 0 1 0 -32 0 16 16 0 1 0 32 0z"/>
          </symbol>
        </svg>