<svg xmlns="http://www.w3.org/2000/svg">
          <symbol id="fw-icon-duotone-igloo" viewBox="0 0 576 512">
            <path d="M320 33.8c10.9 1.2 21.5 3 32 5.4V160H527.5c6.8 10.2 13 20.9 18.6 32H480V320h96v32l-192 0V480H352V352c0-35.3-28.7-64-64-64s-64 28.7-64 64V480H192V352L0 352V320H96V192H29.9c5.5-11.1 11.7-21.8 18.6-32H320V33.8zM197.5 320c13.2-37.3 48.7-64 90.5-64s77.4 26.7 90.5 64H448V192H128V320h69.5z"/>
          </symbol>
        </svg>8-48V352l192 0V480zM576 320l-96 0V192h66.1c19.2 38.6 29.9 82 29.9 128z"/>
          </symbol>
        </svg>