<svg xmlns="http://www.w3.org/2000/svg">
          <symbol id="fw-icon-duotone-bath" viewBox="0 0 512 512">
            <path d="M32 256c-17.7 0-32 14.3-32 32s14.3 32 32 32H480c17.7 0 32-14.3 32-32s-14.3-32-32-32H32zm448 96H32v16c0 28.4 12.4 54 32 71.6V480c0 17.7 14.3 32 32 32s32-14.3 32-32V464H384v16c0 17.7 14.3 32 32 32s32-14.3 32-32V439.6c19.6-17.6 32-43.1 32-71.6V352z"/>
          </symbol>
        </svg>-10.3 2-20.2 5.5-29.2L118.6 67.9c-2.5-2.5-5.9-3.9-9.4-3.9z"/>
          </symbol>
        </svg>