<svg xmlns="http://www.w3.org/2000/svg">
          <symbol id="fw-icon-duotone-face-disappointed" viewBox="0 0 512 512">
            <path d="M211.3 267.3l-7.4 7.4c-23.6 23.6-53.9 39.2-86.8 44.7l-2.5 .4c-8.7 1.5-17-4.4-18.4-13.2s4.4-17 13.2-18.4l2.5-.4c26.3-4.4 50.6-16.9 69.5-35.7l7.4-7.4c6.2-6.2 16.4-6.2 22.6 0s6.2 16.4 0 22.6zm89.4 0c-6.2-6.2-6.2-16.4 0-22.6s16.4-6.2 22.6 0l7.4 7.4c18.9 18.9 43.2 31.4 69.5 35.7l2.5 .4c8.7 1.5 14.6 9.7 13.2 18.4s-9.7 14.6-18.4 13.2l-2.5-.4c-32.9-5.5-63.3-21.1-86.8-44.7l-7.4-7.4z"/>
          </symbol>
        </svg>2.6 0s6.2 16.4 0 22.6zm89.4 0c-6.2-6.2-6.2-16.4 0-22.6s16.4-6.2 22.6 0l7.4 7.4c18.9 18.9 43.2 31.4 69.5 35.7l2.5 .4c8.7 1.5 14.6 9.7 13.2 18.4s-9.7 14.6-18.4 13.2l-2.5-.4c-32.9-5.5-63.3-21.1-86.8-44.7l-7.4-7.4z"/>
          </symbol>
        </svg>