<svg xmlns="http://www.w3.org/2000/svg">
          <symbol id="fw-icon-duotone-tornado" viewBox="0 0 448 512">
            <path d="M13.6 128C10.1 117.6 7.2 106.9 5 96H357.8c-3.8 8.3-5.8 17.3-5.8 26.6c0 1.8 .1 3.6 .2 5.4H13.6zm96.6 128c-13.7-9.5-26.3-20.2-37.8-32H412l6 8c5.7 7.5 10.6 15.6 14.7 24H110.2zM288 384c-.2-.5-.5-1-.7-1.5c-5.7-11.4-13.2-21.7-22.1-30.5H445c-2.3 11-5.8 21.8-10.4 32H288z"/>
          </symbol>
        </svg>.1c0-23-5.3-45.5-15.3-65.9H110.2c5.2 3.6 10.5 7 16 10.2zM288 384c10.3 21.4 13.8 45.5 9.9 69l-5.9 35.7c-2 12.2 7.4 23.4 19.8 23.4c5.3 0 10.4-2.1 14.2-5.9l78.2-78.2c12.8-12.8 23.1-27.7 30.4-43.9H288z"/>
          </symbol>
        </svg>