<svg xmlns="http://www.w3.org/2000/svg">
          <symbol id="fw-icon-duotone-pot-food" viewBox="0 0 640 512">
            <path d="M112 24c0 26.5 10.5 38.7 25.9 56.1l.4 .4C154.8 99 176 122.9 176 168c0 13.3-10.7 24-24 24s-24-10.7-24-24c0-26.5-10.5-38.7-25.9-56.1l-.4-.4C85.2 93 64 69.1 64 24C64 10.7 74.7 0 88 0s24 10.7 24 24zm112 0c0 26.5 10.5 38.7 25.9 56.1l.4 .4C266.8 99 288 122.9 288 168c0 13.3-10.7 24-24 24s-24-10.7-24-24c0-26.5-10.5-38.7-25.9-56.1l-.4-.4C197.2 93 176 69.1 176 24c0-13.3 10.7-24 24-24s24 10.7 24 24zm208 88c61.9 0 112 50.1 112 112H320c0-61.9 50.1-112 112-112z"/>
          </symbol>
        </svg>