<svg xmlns="http://www.w3.org/2000/svg">
          <symbol id="fw-icon-duotone-roller-coaster" viewBox="0 0 640 512">
            <path d="M158.1 96c-52 0-94.1 42.1-94.1 94.1V448c0 17.7-14.3 32-32 32s-32-14.3-32-32V190.1C0 102.8 70.8 32 158.1 32c51.8 0 100.3 25.4 129.8 67.9l129 185.7c15 21.5 39.5 34.4 65.7 34.4H496c44.2 0 80-35.8 80-80c0-32.8-19.7-61-48-73.3V264c0 13.3-10.7 24-24 24s-24-10.7-24-24V160.6c-14.2 1.5-28 5.8-40.7 12.5l-7.3 3.9v74.2L357.6 144.2l51.6-27.5C434.7 103.1 463.1 96 492 96h4c79.5 0 144 64.5 144 144c0 2.7-.1 5.4-.2 8h.2V448c0 17.7-14.3 32-32 32s-32-14.3-32-32V359.8c-22.9 15.3-50.4 24.2-80 24.2H482.6c-47.2 0-91.4-23.1-118.3-61.9l-129-185.7C217.7 111.1 188.9 96 158.1 96z"/>
          </symbol>
        </svg>