<svg xmlns="http://www.w3.org/2000/svg">
          <symbol id="fw-icon-duotone-crutches" viewBox="0 0 640 512">
            <path d="M470.6 9.4c-12.5-12.5-32.8-12.5-45.3 0s-12.5 32.8 0 45.3l160 160c12.5 12.5 32.8 12.5 45.3 0s12.5-32.8 0-45.3l-160-160zm-256 0c-12.5-12.5-32.8-12.5-45.3 0l-160 160c-12.5 12.5-12.5 32.8 0 45.3s32.8 12.5 45.3 0l1.4-1.4L188.2 345.4c2.7 2.7 5.5 5.1 8.4 7.5l17-17 10.1-45.5L101.3 168 168 101.3l86.3 86.3c5-7.9 10.9-15.3 17.6-22l25.4-25.4L213.3 56l1.4-1.4c12.5-12.5 12.5-32.8 0-45.3zM457.4 502.6c12.5 12.5 32.8 12.5 45.3 0s12.5-32.8 0-45.3l-64.1-64.1c-8.6 4-17.6 7.1-26.9 9.2l-44.5 9.9 90.2 90.2z"/>
          </symbol>
        </svg>