<svg xmlns="http://www.w3.org/2000/svg">
          <symbol id="fw-icon-duotone-hotdog" viewBox="0 0 512 512">
            <path d="M488.6 136.6c31.2-31.2 31.2-81.9 0-113.1s-81.9-31.2-113.1 0l-352 352c-31.2 31.2-31.2 81.9 0 113.1s81.9 31.2 113.1 0l352-352zm-45.3-21.3c-19.5 19.5-38.9 23.6-54.4 26.4l-.9 .2c-14.7 2.7-23.5 4.3-32.7 13.4c-9.6 9.6-12.3 20.5-15.7 36.1l-.2 1c-3.2 14.9-7.4 34.2-24.1 50.9s-36 20.9-50.9 24.1l-1 .2c-15.6 3.4-26.4 6-36.1 15.7s-12.3 20.5-15.7 36.1l-.2 1c-3.2 14.9-7.4 34.2-24.1 50.9c-16.4 16.4-34.2 19.5-48 22l-2.5 .4c-13.7 2.5-25.1 5.1-37.5 17.6c-6.2 6.2-16.4 6.2-22.6 0s-6.2-16.4 0-22.6c19.5-19.5 38.9-23.6 54.4-26.4l.9-.2 0 0c14.7-2.7 23.5-4.3 32.7-13.4c9.6-9.6 12.3-20.5 15.7-36.1l.2-1c3.2-14.9 7.4-34.2 24.1-50.9s36-20.9 50.9-24.1l1-.2c15.6-3.4 26.4-6 36.1-15.7s12.3-20.5 15.7-36.1l.2-1v0c3.2-14.9 7.4-34.2 24.1-50.9c16.4-16.4 34.2-19.5 48-22l2.5-.4c13.7-2.5 25.1-5.1 37.5-17.6c6.2-6.2 16.4-6.2 22.6 0s6.2 16.4 0 22.6z"/>
          </symbol>
        </svg>9.5 48-22l2.5-.4c13.7-2.5 25.1-5.1 37.5-17.6c6.2-6.2 16.4-6.2 22.6 0s6.2 16.4 0 22.6z"/>
          </symbol>
        </svg>