<svg xmlns="http://www.w3.org/2000/svg">
          <symbol id="fw-icon-duotone-face-smiling-hands" viewBox="0 0 640 512">
            <path d="M320 512c-32.1 0-62.8-5.9-91.1-16.7c17-21.6 27.1-48.9 27.1-78.5V386c18.1 8.4 39.4 14 64 14s45.9-5.6 64-14v30.8c0 29.6 10.1 56.9 27.1 78.5c-28.3 10.8-59 16.7-91.1 16.7zM64.3 242.6C71.3 107.5 183.1 0 320 0S568.7 107.5 575.7 242.6c-16.8-5.8-36.2-2-49.6 11.4L479 301.1c-9.4-13.7-25.1-22.7-43-22.7c-28.7 0-52 23.3-52 52v19.2c-16.8 10.6-38.1 18.4-64 18.4s-47.2-7.7-64-18.4V330.4c0-28.7-23.3-52-52-52c-17.9 0-33.6 9-43 22.7l-47.1-47.1c-13.4-13.4-32.8-17.2-49.6-11.4zm217.3-13.8l0 0 0 0c2.1 2.8 5.7 3.9 8.9 2.8s5.5-4.1 5.5-7.6c0-17.9-6.7-35.6-16.6-48.8c-9.8-13-23.9-23.2-39.4-23.2s-29.6 10.2-39.4 23.2C190.7 188.4 184 206.1 184 224c0 3.4 2.2 6.5 5.5 7.6s6.9 0 8.9-2.8l0 0 0 0 0 0 .2-.2c.2-.2 .4-.5 .7-.9c.6-.8 1.6-2 2.8-3.4c2.5-2.8 6-6.6 10.2-10.3c8.8-7.8 18.8-14 27.7-14s18.9 6.2 27.7 14c4.2 3.7 7.7 7.5 10.2 10.3c1.2 1.4 2.2 2.6 2.8 3.4c.3 .4 .6 .7 .7 .9l.2 .2 0 0 0 0zm160 0l0 0 0 0 0 0c2.1 2.8 5.7 3.9 8.9 2.8s5.5-4.1 5.5-7.6c0-17.9-6.7-35.6-16.6-48.8c-9.8-13-23.9-23.2-39.4-23.2s-29.6 10.2-39.4 23.2C350.7 188.4 344 206.1 344 224c0 3.4 2.2 6.5 5.5 7.6s6.9 0 8.9-2.8l0 0 0 0 0 0 .2-.2c.2-.2 .4-.5 .7-.9c.6-.8 1.6-2 2.8-3.4c2.5-2.8 6-6.6 10.2-10.3c8.8-7.8 18.8-14 27.7-14s18.9 6.2 27.7 14c4.2 3.7 7.7 7.5 10.2 10.3c1.2 1.4 2.2 2.6 2.8 3.4c.3 .4 .6 .7 .7 .9l.2 .2 0 0z"/>
          </symbol>
        </svg>4-6.2-22.6 0L529.4 360c-2.6 2.6-6.8 2.6-9.4 0s-2.6-6.8 0-9.4l51.3-51.3c6.2-6.2 6.2-16.4 0-22.6zM441.6 228.8l0 0 0 0 0 0c2.1 2.8 5.7 3.9 8.9 2.8s5.5-4.1 5.5-7.6c0-17.9-6.7-35.6-16.6-48.8c-9.8-13-23.9-23.2-39.4-23.2s-29.6 10.2-39.4 23.2C350.7 188.4 344 206.1 344 224c0 3.4 2.2 6.5 5.5 7.6s6.9 0 8.9-2.8l0 0 0 0 0 0 .2-.2c.2-.2 .4-.5 .7-.9c.6-.8 1.6-2 2.8-3.4c2.5-2.8 6-6.6 10.2-10.3c8.8-7.8 18.8-14 27.7-14s18.9 6.2 27.7 14c4.2 3.7 7.7 7.5 10.2 10.3c1.2 1.4 2.2 2.6 2.8 3.4c.3 .4 .6 .7 .7 .9l.2 .2 0 0z"/>
          </symbol>
        </svg>