<svg xmlns="http://www.w3.org/2000/svg">
          <symbol id="fw-icon-duotone-lightbulb-on" viewBox="0 0 640 512">
            <path d="M69.3 4l48 32c11 7.4 14 22.3 6.7 33.3s-22.3 14-33.3 6.7l-48-32c-11-7.4-14-22.3-6.7-33.3S58.3-3.3 69.3 4zM597.3 44l-48 32c-11 7.4-25.9 4.4-33.3-6.7s-4.4-25.9 6.7-33.3l48-32c11-7.4 25.9-4.4 33.3 6.7s4.4 25.9-6.7 33.3zM24 160H88c13.3 0 24 10.7 24 24s-10.7 24-24 24H24c-13.3 0-24-10.7-24-24s10.7-24 24-24zm528 0h64c13.3 0 24 10.7 24 24s-10.7 24-24 24H552c-13.3 0-24-10.7-24-24s10.7-24 24-24zM117.3 332l-48 32c-11 7.4-25.9 4.4-33.3-6.7s-4.4-25.9 6.7-33.3l48-32c11-7.4 25.9-4.4 33.3 6.7s4.4 25.9-6.7 33.3zm432-39.9l48 32c11 7.4 14 22.3 6.7 33.3s-22.3 14-33.3 6.7l-48-32c-11-7.4-14-22.3-6.7-33.3s22.3-14 33.3-6.7zM400 432c0 44.2-35.8 80-80 80s-80-35.8-80-80V384H400v48z"/>
          </symbol>
        </svg>