<svg xmlns="http://www.w3.org/2000/svg">
          <symbol id="fw-icon-duotone-motorcycle" viewBox="0 0 640 512">
            <path d="M128 416c26.9 0 49.9-16.5 59.3-40h66.4C242.5 435.2 190.5 480 128 480C57.3 480 0 422.7 0 352s57.3-128 128-128c62.5 0 114.5 44.8 125.8 104H187.3c-9.5-23.5-32.5-40-59.3-40c-35.3 0-64 28.7-64 64s28.7 64 64 64zm256-64c0-40 18.4-75.7 47.1-99.2l31.6 58.4C453.5 322.3 448 336.5 448 352c0 35.3 28.7 64 64 64s64-28.7 64-64s-28.7-64-64-64c-2.4 0-4.8 .1-7.1 .4L473.3 230c12.2-3.9 25.2-6 38.7-6c70.7 0 128 57.3 128 128s-57.3 128-128 128s-128-57.3-128-128z"/>
          </symbol>
        </svg>   </symbol>
        </svg>