<svg xmlns="http://www.w3.org/2000/svg">
          <symbol id="fw-icon-duotone-arrows-to-eye" viewBox="0 0 640 512">
            <path d="M49 15C39.6 5.7 24.4 5.7 15 15S5.7 39.6 15 49l63 63H40c-13.3 0-24 10.7-24 24s10.7 24 24 24h96c13.3 0 24-10.7 24-24V40c0-13.3-10.7-24-24-24s-24 10.7-24 24V78.1L49 15zM591 15l-63 63V40c0-13.3-10.7-24-24-24s-24 10.7-24 24v96c0 13.3 10.7 24 24 24h96c13.3 0 24-10.7 24-24s-10.7-24-24-24H561.9l63-63c9.4-9.4 9.4-24.6 0-33.9s-24.6-9.4-33.9 0zM15 497c9.4 9.4 24.6 9.4 33.9 0l63-63V472c0 13.3 10.7 24 24 24s24-10.7 24-24V376c0-13.3-10.7-24-24-24H40c-13.3 0-24 10.7-24 24s10.7 24 24 24H78.1L15 463c-9.4 9.4-9.4 24.6 0 33.9zm576 0c9.4 9.4 24.6 9.4 33.9 0s9.4-24.6 0-33.9l-63-63H600c13.3 0 24-10.7 24-24s-10.7-24-24-24H504c-13.3 0-24 10.7-24 24v96c0 13.3 10.7 24 24 24s24-10.7 24-24V433.9l63 63z"/>
          </symbol>
        </svg>