<svg xmlns="http://www.w3.org/2000/svg">
          <symbol id="fw-icon-duotone-hot-tub-person" viewBox="0 0 512 512">
            <path d="M248 0c13.3 0 24 10.7 24 24v5.2c0 20.4 8.7 39.9 23.8 53.5l16.4 14.8c25.3 22.8 39.7 55.2 39.7 89.2V200c0 13.3-10.7 24-24 24s-24-10.7-24-24V186.8c0-20.4-8.7-39.9-23.8-53.5l-16.4-14.8C238.4 95.7 224 63.3 224 29.2V24c0-13.3 10.7-24 24-24zM0 256c0-53 43-96 96-96c20.8 0 41 6.7 57.6 19.2L256 256H0zM384 24v5.2c0 20.4 8.7 39.9 23.8 53.5l16.4 14.8c25.3 22.8 39.7 55.2 39.7 89.2V200c0 13.3-10.7 24-24 24s-24-10.7-24-24V186.8c0-20.4-8.7-39.9-23.8-53.5l-16.4-14.8C350.4 95.7 336 63.3 336 29.2V24c0-13.3 10.7-24 24-24s24 10.7 24 24zM0 64a64 64 0 1 1 128 0A64 64 0 1 1 0 64z"/>
          </symbol>
        </svg>