<svg xmlns="http://www.w3.org/2000/svg">
          <symbol id="fw-icon-duotone-file-heart" viewBox="0 0 384 512">
            <path d="M384 160H256c-17.7 0-32-14.3-32-32V0L384 160zM80 301.3c0-33.8 27.4-61.3 61.3-61.3c16.2 0 31.8 6.5 43.3 17.9l7.4 7.4 7.4-7.4c11.5-11.5 27.1-17.9 43.3-17.9c33.8 0 61.3 27.4 61.3 61.3c0 16.2-6.5 31.8-17.9 43.3l-82.7 82.7c-6.2 6.2-16.4 6.2-22.6 0L97.9 344.6C86.5 333.1 80 317.5 80 301.3z"/>
          </symbol>
        </svg>9C107.4 240 80 267.4 80 301.3z"/>
          </symbol>
        </svg>