<svg xmlns="http://www.w3.org/2000/svg">
          <symbol id="fw-icon-duotone-face-cowboy-hat" viewBox="0 0 512 512">
            <path d="M48 304c0-49.4 17.2-94.7 45.9-130.4C136.6 204.9 193.5 224 256 224s119.4-19.1 162.1-50.4c28.7 35.7 45.9 81 45.9 130.4c0 114.9-93.1 208-208 208S48 418.9 48 304zm299.8 60.7c-27.9 7.8-59 12.1-91.6 12.1s-63.7-4.3-91.6-12.1c-12.4-3.5-24.3 7.3-18.6 18.8C166.2 424.1 208 452 256.2 452s90-27.9 110.2-68.6c5.7-11.5-6.2-22.2-18.6-18.8zM216 296a24 24 0 1 0 -48 0 24 24 0 1 0 48 0zm104 24a24 24 0 1 0 0-48 24 24 0 1 0 0 48z"/>
          </symbol>
        </svg>   </svg>