<svg xmlns="http://www.w3.org/2000/svg">
          <symbol id="fw-icon-duotone-crosshairs" viewBox="0 0 512 512">
            <path d="M42.4 224C56.3 130.3 130.3 56.3 224 42.4v65C165.7 119.9 119.9 165.7 107.4 224h-65zm0 64h65c12.5 58.3 58.4 104.1 116.6 116.6v65C130.3 455.7 56.3 381.7 42.4 288zM288 469.6v-65c58.3-12.5 104.1-58.4 116.6-116.6h65c-13.9 93.7-88 167.7-181.6 181.6zM469.6 224h-65C392.1 165.7 346.3 119.9 288 107.4v-65c93.7 13.9 167.7 88 181.6 181.6z"/>
          </symbol>
        </svg>96c17.7 0 32 14.3 32 32s-14.3 32-32 32z"/>
          </symbol>
        </svg>