<svg xmlns="http://www.w3.org/2000/svg">
          <symbol id="fw-icon-duotone-chess-clock" viewBox="0 0 640 512">
            <path d="M0 192c0-35.3 28.7-64 64-64H576c35.3 0 64 28.7 64 64V416c0 35.3-28.7 64-64 64H64c-35.3 0-64-28.7-64-64V192zM288 304A112 112 0 1 0 64 304a112 112 0 1 0 224 0zM464 416a112 112 0 1 0 0-224 112 112 0 1 0 0 224z"/>
          </symbol>
        </svg>2 22.6 0l48-48c6.2-6.2 6.2-16.4 0-22.6zM160 240v64c0 8.8 7.2 16 16 16s16-7.2 16-16V240c0-8.8-7.2-16-16-16s-16 7.2-16 16z"/>
          </symbol>
        </svg>