<svg xmlns="http://www.w3.org/2000/svg">
          <symbol id="fw-icon-duotone-dice-d10" viewBox="0 0 512 512">
            <path d="M0 299.1c0-5.2 3.6-9.8 8.7-10.9l133.1-29.6c4.4-1 8.9-.1 12.6 2.5l78.7 54.5c4.3 3 6.9 7.9 6.9 13.2V500.5c0 6.3-5.1 11.5-11.5 11.5c-2.9 0-5.7-1.1-7.8-3.1L3.6 307.3c-2.3-2.1-3.6-5.1-3.6-8.2zM283.5 512c-6.3 0-11.5-5.1-11.5-11.5V328.8c0-5.3 2.6-10.2 6.9-13.2l78.7-54.5c3.7-2.5 8.2-3.4 12.6-2.5l133.1 29.6c5.1 1.1 8.7 5.7 8.7 10.9c0 3.1-1.3 6.1-3.6 8.2L291.3 508.9c-2.1 2-4.9 3.1-7.8 3.1z"/>
          </symbol>
        </svg>2 0l-66.1-45.7c-5.8-4-8.3-11.5-6.1-18.2L246.6 6.8C248 2.7 251.7 0 256 0z"/>
          </symbol>
        </svg>