<svg xmlns="http://www.w3.org/2000/svg">
          <symbol id="fw-icon-duotone-stethoscope" viewBox="0 0 576 512">
            <path d="M122.1 62.4c16.8-5.6 25.8-23.7 20.2-40.5S118.6-3.9 101.9 1.6L75.8 10.3C49.6 19.1 32 43.5 32 71.1V192c0 88.4 71.6 160 160 160s160-71.6 160-160V71.1c0-27.5-17.6-52-43.8-60.7L282.1 1.6c-16.8-5.6-34.9 3.5-40.5 20.2s3.5 34.9 20.2 40.5L288 71.1V192c0 53-43 96-96 96s-96-43-96-96V71.1l26.1-8.7zM512 192a32 32 0 1 1 -64 0 32 32 0 1 1 64 0zm-32-80a80 80 0 1 0 0 160 80 80 0 1 0 0-160z"/>
          </symbol>
        </svg>