<svg xmlns="http://www.w3.org/2000/svg">
          <symbol id="fw-icon-duotone-hospitals" viewBox="0 0 576 512">
            <path d="M256 48c0-26.5 21.5-48 48-48H528c26.5 0 48 21.5 48 48V464c0 26.5-21.5 48-48 48H311.4c5.4-9.4 8.6-20.3 8.6-32V128c0-35.3-28.7-64-64-64V48zM424 80c-8.8 0-16 7.2-16 16v24H384c-8.8 0-16 7.2-16 16v16c0 8.8 7.2 16 16 16h24v24c0 8.8 7.2 16 16 16h16c8.8 0 16-7.2 16-16V168h24c8.8 0 16-7.2 16-16V136c0-8.8-7.2-16-16-16H456V96c0-8.8-7.2-16-16-16H424zM576 288H432c-8.8 0-16-7.2-16-16s7.2-16 16-16H576v32zm0 96V352H432c-8.8 0-16 7.2-16 16s7.2 16 16 16H576z"/>
          </symbol>
        </svg>96c-8.8 0-16-7.2-16-16V232c0-8.8 7.2-16 16-16h24V192c0-8.8 7.2-16 16-16z"/>
          </symbol>
        </svg>