<svg xmlns="http://www.w3.org/2000/svg">
          <symbol id="fw-icon-duotone-chess" viewBox="0 0 512 512">
            <path d="M304 208v51.9c0 7.8 2.8 15.3 8 21.1L339.2 312 337 384H462.5l-3.3-72 28.3-30.8c5.4-5.9 8.5-13.6 8.5-21.7V208c0-8.8-7.2-16-16-16H464c-8.8 0-16 7.2-16 16v16H424V208c0-8.8-7.2-16-16-16H392c-8.8 0-16 7.2-16 16v16H352V208c0-8.8-7.2-16-16-16H320c-8.8 0-16 7.2-16 16zm80 96c0-8.8 7.2-16 16-16s16 7.2 16 16v32H384V304zM292.8 473.6c-3.1 4.2-4.8 9.2-4.8 14.4c0 13.3 10.7 24 24 24H488c13.3 0 24-10.7 24-24c0-5.2-1.7-10.2-4.8-14.4L464 416H336l-43.2 57.6z"/>
          </symbol>
        </svg>48z"/>
          </symbol>
        </svg>