<svg xmlns="http://www.w3.org/2000/svg">
          <symbol id="fw-icon-duotone-ruler-combined" viewBox="0 0 512 512">
            <path d="M112 96c-8.8 0-16 7.2-16 16s7.2 16 16 16l80 0V96H112zm80 96l-80 0c-8.8 0-16 7.2-16 16s7.2 16 16 16h80V192zm0 96l-80 0c-8.8 0-16 7.2-16 16s7.2 16 16 16l80 0v80c0 8.8 7.2 16 16 16s16-7.2 16-16V320H192V288zm128 32H288v80c0 8.8 7.2 16 16 16s16-7.2 16-16V320zm96 80V320H384v80c0 8.8 7.2 16 16 16s16-7.2 16-16z"/>
          </symbol>
        </svg>.8 0-16-7.2-16-16s7.2-16 16-16l80 0 0-48c0-26.5-21.5-48-48-48L48 0C21.5 0 0 21.5 0 48L0 368l0 96c0 1.7 .1 3.3 .2 4.9z"/>
          </symbol>
        </svg>