<svg xmlns="http://www.w3.org/2000/svg">
          <symbol id="fw-icon-duotone-signal-weak" viewBox="0 0 640 512">
            <path d="M608 32c0-17.7-14.3-32-32-32s-32 14.3-32 32V480c0 17.7 14.3 32 32 32s32-14.3 32-32V32zM480 128c0-17.7-14.3-32-32-32s-32 14.3-32 32V480c0 17.7 14.3 32 32 32s32-14.3 32-32V128zM320 192c-17.7 0-32 14.3-32 32V480c0 17.7 14.3 32 32 32s32-14.3 32-32V224c0-17.7-14.3-32-32-32zM224 320c0-17.7-14.3-32-32-32s-32 14.3-32 32V480c0 17.7 14.3 32 32 32s32-14.3 32-32V320z"/>
          </symbol>
        </svg>