<svg xmlns="http://www.w3.org/2000/svg">
          <symbol id="fw-icon-duotone-closed-captioning-slash" viewBox="0 0 640 512">
            <path d="M32 121.2V416c0 35.3 28.7 64 64 64H487.4L295 328.4c-16.8 14.7-38.9 23.6-63 23.6c-53 0-96-43-96-96c0-16 3.9-31.1 10.8-44.3L32 121.2zM255.9 297.6l-70-55.1c-1.3 4.3-1.9 8.8-1.9 13.5c0 26.5 21.5 48 48 48c8.7 0 16.9-2.3 23.9-6.4zM303.5 192c6.1 6.8 7.6 16.2 4.7 24.3l22.4 17.5c10-42.3 48-73.8 93.4-73.8c28.4 0 54 12.4 71.5 32c8.8 9.9 8 25-1.9 33.9s-25 8-33.9-1.9c-8.8-9.9-21.6-16-35.8-16c-26.5 0-48 21.5-48 48c0 5.4 .9 10.5 2.5 15.4l41.4 32.5c1.3 .1 2.7 .2 4.1 .2c14.2 0 27-6.1 35.8-16c8.8-9.9 24-10.7 33.9-1.9s10.7 24 1.9 33.9c-7.8 8.7-17.2 16-27.7 21.4L600.8 445.6c4.6-8.8 7.2-18.9 7.2-29.6V96c0-35.3-28.7-64-64-64H96c-6.7 0-13.1 1-19.2 2.9L236.6 160.1c26.6 1.2 50.4 13.3 67 31.9z"/>
          </symbol>
        </svg>