<svg xmlns="http://www.w3.org/2000/svg">
          <symbol id="fw-icon-duotone-clipboard-user" viewBox="0 0 384 512">
            <path d="M113.2 66.3C119.6 28.7 152.5 0 192 0s72.4 28.7 78.8 66.3C290.1 72.6 304 90.7 304 112v24c0 13.3-10.7 24-24 24H192 104c-13.3 0-24-10.7-24-24V112c0-21.3 13.9-39.4 33.2-45.7zM216 80a24 24 0 1 0 -48 0 24 24 0 1 0 48 0zM128 256a64 64 0 1 1 128 0 64 64 0 1 1 -128 0zM80 432c0-44.2 35.8-80 80-80h64c44.2 0 80 35.8 80 80c0 8.8-7.2 16-16 16H96c-8.8 0-16-7.2-16-16z"/>
          </symbol>
        </svg>8.8 0-16-7.2-16-16z"/>
          </symbol>
        </svg>