<svg xmlns="http://www.w3.org/2000/svg">
          <symbol id="fw-icon-duotone-school-flag" viewBox="0 0 576 512">
            <path d="M297.4 1.4c2-.9 4.2-1.4 6.6-1.4h96c8.8 0 16 7.2 16 16V80c0 8.8-7.2 16-16 16H320 304 256V32c0-17.7 14.3-32 32-32c3.3 0 6.4 .5 9.4 1.4zM80 224h32c8.8 0 16 7.2 16 16v64c0 8.8-7.2 16-16 16H80c-8.8 0-16-7.2-16-16V240c0-8.8 7.2-16 16-16zm384 0h32c8.8 0 16 7.2 16 16v64c0 8.8-7.2 16-16 16H464c-8.8 0-16-7.2-16-16V240c0-8.8 7.2-16 16-16zM64 368c0-8.8 7.2-16 16-16h32c8.8 0 16 7.2 16 16v64c0 8.8-7.2 16-16 16H80c-8.8 0-16-7.2-16-16V368zm400-16h32c8.8 0 16 7.2 16 16v64c0 8.8-7.2 16-16 16H464c-8.8 0-16-7.2-16-16V368c0-8.8 7.2-16 16-16z"/>
          </symbol>
        </svg>.2 16 16v64c0 8.8-7.2 16-16 16H464c-8.8 0-16-7.2-16-16V368z"/>
          </symbol>
        </svg>