<svg xmlns="http://www.w3.org/2000/svg">
          <symbol id="fw-icon-duotone-list-tree" viewBox="0 0 512 512">
            <path d="M160 96c0-17.7 14.3-32 32-32H480c17.7 0 32 14.3 32 32s-14.3 32-32 32H192c-17.7 0-32-14.3-32-32zM288 256c0-17.7 14.3-32 32-32H480c17.7 0 32 14.3 32 32s-14.3 32-32 32H320c-17.7 0-32-14.3-32-32zm32 128H480c17.7 0 32 14.3 32 32s-14.3 32-32 32H320c-17.7 0-32-14.3-32-32s14.3-32 32-32z"/>
          </symbol>
        </svg>4-10.7 24-24V72c0-13.3-10.7-24-24-24H24z"/>
          </symbol>
        </svg>