<svg xmlns="http://www.w3.org/2000/svg">
          <symbol id="fw-icon-duotone-moped" viewBox="0 0 640 512">
            <path d="M128 96c-17.7 0-32 14.3-32 32s14.3 32 32 32h96c17.7 0 32-14.3 32-32s-14.3-32-32-32H128zM512 336a48 48 0 1 1 0 96 48 48 0 1 1 0-96zm0 144a96 96 0 1 0 0-192 96 96 0 1 0 0 192zM64 384c0 53 43 96 96 96s96-43 96-96H208c0 26.5-21.5 48-48 48s-48-21.5-48-48H64z"/>
          </symbol>
        </svg>4.2 542.6 272 512 272c-55.1 0-101 39.8-110.3 92.3c-2 11.5-12 19.8-23.6 19.8H336c-.9 0-1.7 0-2.6-.1H32c-17.7 0-32-14.3-32-32V320c0-70.7 57.3-128 128-128h96c17.7 0 32 14.3 32 32v64c0 17.7 14.3 32 32 32h77.3c16.8-38.5 48.4-69.2 87.6-84.7L400.8 85.4c-1.1-3.2-4.2-5.4-7.6-5.4H352c-13.3 0-24-10.7-24-24z"/>
          </symbol>
        </svg>