<svg xmlns="http://www.w3.org/2000/svg">
          <symbol id="fw-icon-duotone-hourglass-start" viewBox="0 0 384 512">
            <path d="M0 480c0 17.7 14.3 32 32 32H352c17.7 0 32-14.3 32-32s-14.3-32-32-32H32c-17.7 0-32 14.3-32 32zM0 32C0 49.7 14.3 64 32 64l64 0V75c0 25.5 10.1 49.9 28.1 67.9L192 210.7l67.9-67.9c18-18 28.1-42.4 28.1-67.9V64l64 0c17.7 0 32-14.3 32-32s-14.3-32-32-32H32C14.3 0 0 14.3 0 32z"/>
          </symbol>
        </svg>56 78.9 323.9l22.6 22.6L78.9 323.9C48.9 353.9 32 394.6 32 437z"/>
          </symbol>
        </svg>