<svg xmlns="http://www.w3.org/2000/svg">
          <symbol id="fw-icon-duotone-file-chart-column" viewBox="0 0 384 512">
            <path d="M384 160L224 0V128c0 17.7 14.3 32 32 32H384zM216 248c0-13.3-10.7-24-24-24s-24 10.7-24 24V424c0 13.3 10.7 24 24 24s24-10.7 24-24V248zm88 64c0-13.3-10.7-24-24-24s-24 10.7-24 24V424c0 13.3 10.7 24 24 24s24-10.7 24-24V312zM128 376c0-13.3-10.7-24-24-24s-24 10.7-24 24v48c0 13.3 10.7 24 24 24s24-10.7 24-24V376z"/>
          </symbol>
        </svg>7 24 24 24s24-10.7 24-24V376z"/>
          </symbol>
        </svg>