<svg xmlns="http://www.w3.org/2000/svg">
          <symbol id="fw-icon-duotone-face-grin-tongue-squint" viewBox="0 0 512 512">
            <path d="M133.5 130.7c-7.9-4.2-17.5 1.5-17.5 10.5c0 2.8 1 5.5 2.8 7.6l36 43.2-36 43.2c-1.8 2.1-2.8 4.8-2.8 7.6c0 9 9.6 14.7 17.5 10.5l89.9-47.9c10.7-5.7 10.7-21.1 0-26.8l-89.9-47.9zm245 0l-89.9 47.9c-10.7 5.7-10.7 21.1 0 26.8l89.9 47.9c7.9 4.2 17.5-1.5 17.5-10.5c0-2.8-1-5.5-2.8-7.6l-36-43.2 36-43.2c1.8-2.1 2.8-4.8 2.8-7.6c0-9-9.6-14.7-17.5-10.5zM320 448V402.6c0-14.7-11.9-26.6-26.6-26.6h-2c-11.3 0-21.1 7.9-23.6 18.9c-2.8 12.6-20.8 12.6-23.6 0c-2.5-11.1-12.3-18.9-23.6-18.9h-2c-14.7 0-26.6 11.9-26.6 26.6V448c0 35.3 28.7 64 64 64s64-28.7 64-64z"/>
          </symbol>
        </svg>.9 47.9c7.9 4.2 17.5-1.5 17.5-10.5c0-2.8-1-5.5-2.8-7.6l-36-43.2 36-43.2c1.8-2.1 2.8-4.8 2.8-7.6z"/>
          </symbol>
        </svg>