<svg xmlns="http://www.w3.org/2000/svg">
          <symbol id="fw-icon-duotone-guitars" viewBox="0 0 512 512">
            <path d="M80 24C80 10.7 90.7 0 104 0h48c13.3 0 24 10.7 24 24V76.2c0 6.2-1.4 12.3-4.2 17.9L152 133.7V272c-6.7-5-15-8-24-8s-17.3 3-24 8V133.7L84.2 94.1C81.4 88.6 80 82.4 80 76.2V24zM338.6 124.1c-6.7-7.6-9.3-17.9-7.2-27.8l13.9-64.8C349.2 13.1 365.4 0 384.2 0c22 0 39.8 17.8 39.8 39.8v4.6c0 12.4-6.4 23.3-16 29.7V238.9c-4.8 .7-10.1 1.1-16 1.1H376c-5.9 0-11.2-.5-16-1.5V148.6l-21.4-24.5zM352 304h64c8.8 0 16 7.2 16 16s-7.2 16-16 16H352c-8.8 0-16-7.2-16-16s7.2-16 16-16zm0 64h64c8.8 0 16 7.2 16 16s-7.2 16-16 16H352c-8.8 0-16-7.2-16-16s7.2-16 16-16z"/>
          </symbol>
        </svg>0 16-7.2 16-16s-7.2-16-16-16H352c-8.8 0-16 7.2-16 16zM231.2 346.5c5.9 6.5 10.9 13.7 14.8 21.3c-2.3 4.9-4.7 9.6-7 13.9c-8.8 16.3-15 35.6-15 56.5c0 11.6 1.9 22.8 5.4 33.3C205.9 496.1 169.3 512 128 512C57.3 512 0 465.4 0 408c0-23 9.2-44.3 24.8-61.5c10.3-11.4 11.1-30.4 2.9-43.4C20.2 291.3 16 278 16 264c0-42.1 37.7-77.3 88-86v94c-9.7 7.3-16 18.9-16 32c0 22.1 17.9 40 40 40s40-17.9 40-40c0-13.1-6.3-24.7-16-32V178c50.3 8.6 88 43.8 88 86c0 14-4.2 27.3-11.6 39.1c-8.2 13-7.5 32 2.9 43.4z"/>
          </symbol>
        </svg>