<svg xmlns="http://www.w3.org/2000/svg">
          <symbol id="fw-icon-duotone-person-hiking" viewBox="0 0 384 512">
            <path d="M192 48a48 48 0 1 1 96 0 48 48 0 1 1 -96 0zm51.3 182.7L224.2 307l49.7 49.7c9 9 14.1 21.2 14.1 33.9V480c0 17.7-14.3 32-32 32s-32-14.3-32-32V397.3l-73.9-73.9c-15.8-15.8-22.2-38.6-16.9-60.3l20.4-84c8.3-34.1 42.7-54.9 76.7-46.4c19 4.8 35.6 16.4 46.4 32.7L305.1 208H352c17.7 0 32 14.3 32 32s-14.3 32-32 32H296.6c-16 0-31-8-39.9-21.4l-13.3-20zM81.1 471.9L117.3 334c3 4.2 6.4 8.2 10.1 11.9l41.9 41.9L142.9 488.1c-4.5 17.1-22 27.3-39.1 22.8s-27.3-22-22.8-39.1z"/>
          </symbol>
        </svg>