<svg xmlns="http://www.w3.org/2000/svg">
          <symbol id="fw-icon-duotone-stars" viewBox="0 0 512 512">
            <path d="M312 104l13.8 48.3c1.3 4.6 5.5 7.7 10.2 7.7s8.9-3.1 10.2-7.7L360 104l48.3-13.8c4.6-1.3 7.7-5.5 7.7-10.2s-3.1-8.9-7.7-10.2L360 56 346.2 7.7C344.9 3.1 340.7 0 336 0s-8.9 3.1-10.2 7.7L312 56 263.7 69.8c-4.6 1.3-7.7 5.5-7.7 10.2s3.1 8.9 7.7 10.2L312 104zM428.8 243.2l11 38.6c1 3.6 4.4 6.2 8.2 6.2s7.1-2.5 8.2-6.2l11-38.6 38.6-11c3.6-1 6.2-4.4 6.2-8.2s-2.5-7.1-6.2-8.2l-38.6-11-11-38.6c-1-3.6-4.4-6.2-8.2-6.2s-7.1 2.5-8.2 6.2l-11 38.6-38.6 11c-3.6 1-6.2 4.4-6.2 8.2s2.5 7.1 6.2 8.2l38.6 11z"/>
          </symbol>
        </svg>