<svg xmlns="http://www.w3.org/2000/svg">
          <symbol id="fw-icon-duotone-diploma" viewBox="0 0 640 512">
            <path d="M302 59.7l18 20.6 18-20.6C353.4 42.1 375.6 32 399 32h1c44.2 0 80 35.8 80 80c0 11.4-2.4 22.2-6.7 32H400c17.7 0 32-14.3 32-32s-14.3-32-32-32h-1c-1.2 0-2.3 .1-3.5 .2c-8.2 .9-15.8 4.8-21.3 11.1l-34.5 39.5c-4.5 5.2-.9 13.3 6 13.3H368h16v16V464c0 6.2-3.6 11.9-9.2 14.5s-12.3 1.8-17-2.2L320 444.8l-37.8 31.5c-4.8 4-11.4 4.8-17 2.2s-9.2-8.3-9.2-14.5V160 144h16 22.4c6.9 0 10.5-8.1 6-13.3L265.9 91.3C259.6 84.1 250.5 80 241 80h-1c-17.7 0-32 14.3-32 32s14.3 32 32 32H166.7c-4.3-9.8-6.7-20.6-6.7-32c0-44.2 35.8-80 80-80h1c23.4 0 45.6 10.1 61 27.7z"/>
          </symbol>
        </svg>