<svg xmlns="http://www.w3.org/2000/svg">
          <symbol id="fw-icon-duotone-file-word" viewBox="0 0 384 512">
            <path d="M384 160L224 0V128c0 17.7 14.3 32 32 32H384zM111 257.1c-3.8-12.7-17.2-19.9-29.9-16.1s-19.9 17.2-16.1 29.9l48 160c3 10 12 16.9 22.4 17.1s19.8-6.2 23.2-16.1L192 336.6l33.3 95.3c3.4 9.8 12.8 16.3 23.2 16.1s19.5-7.1 22.4-17.1l48-160c3.8-12.7-3.4-26.1-16.1-29.9s-26.1 3.4-29.9 16.1l-26.8 89.2-31.6-90.3c-3.4-9.6-12.5-16.1-22.7-16.1s-19.3 6.4-22.7 16.1l-31.6 90.3L111 257.1z"/>
          </symbol>
        </svg>.7 16.1l-31.6 90.3L111 257.1z"/>
          </symbol>
        </svg>