<svg xmlns="http://www.w3.org/2000/svg">
          <symbol id="fw-icon-duotone-flatbread-stuffed" viewBox="0 0 576 512">
            <path d="M465.4 64c6.8 .4 13.2 3.7 17.4 9C519.1 118.8 544 175.3 544 240c0 150.2-121.8 272-272 272c-64.7 0-121.2-24.9-166.9-61.2c-5.4-4.3-8.6-10.6-9-17.4s2.2-13.5 7-18.3l86-86 86-86 86-86 43-43 43-43c4.8-4.8 11.5-7.4 18.3-7zM272 448a16 16 0 1 0 0-32 16 16 0 1 0 0 32zm80-16a16 16 0 1 0 -32 0 16 16 0 1 0 32 0zm-48-48a16 16 0 1 0 0-32 16 16 0 1 0 0 32z"/>
          </symbol>
        </svg>14.6 11.4-26.8 25.7-29.6l67.1-13.3c6.5-1.3 12.5-4.6 17.1-9.5l46.8-49.8zm48.1 181.2L159.3 313.5C149.6 299.4 144 282.4 144 264c0-48.6 39.4-88 88-88c18.4 0 35.4 5.6 49.5 15.3z"/>
          </symbol>
        </svg>