<svg xmlns="http://www.w3.org/2000/svg">
          <symbol id="fw-icon-duotone-spider-web" viewBox="0 0 576 512">
            <path d="M133.8 22.2c4.8-12.7 18-20.2 31.4-17.7l69 12.9c35.6 6.7 72.1 6.7 107.6 0l69-12.9c13.4-2.5 26.6 5 31.4 17.7l28.9 77.2c11.5 30.7 28.1 59.2 49.1 84.4l45.3 54.3c8.7 10.4 8.7 25.5 0 35.9l-45.3 54.3c-21 25.2-37.6 53.7-49.1 84.4l-28.9 77.2c-4.8 12.7-18 20.2-31.4 17.7l-69-12.9c-35.6-6.7-72.1-6.7-107.6 0l-69 12.9c-13.4 2.5-26.6-5-31.4-17.7l-28.9-77.2C93.3 382 76.7 353.4 55.7 328.2L10.5 273.9c-8.7-10.4-8.7-25.5 0-35.9l45.3-54.3c21-25.2 37.6-53.7 49.1-84.4l28.9-77.2zM178 63.9L157.3 119c-13.7 36.6-33.5 70.6-58.5 100.6L68.4 256l30.3 36.4c25 30 44.8 64 58.5 100.6L178 448.1l45.9-8.6c42.4-7.9 85.9-7.9 128.3 0l45.9 8.6L418.7 393c13.7-36.6 33.5-70.6 58.5-100.6L507.6 256l-30.3-36.4c-25-30-44.8-64-58.5-100.6L398 63.9l-45.9 8.6c-42.4 7.9-85.9 7.9-128.3 0L178 63.9z"/>
          </symbol>
        </svg>bol>
        </svg>