<svg xmlns="http://www.w3.org/2000/svg">
          <symbol id="fw-icon-duotone-hourglass-end" viewBox="0 0 384 512">
            <path d="M32 75V64H96V75c0 25.5 10.1 49.9 28.1 67.9L192 210.7l67.9-67.9c18-18 28.1-42.4 28.1-67.9V64h64V75c0 42.4-16.9 83.1-46.9 113.1L237.3 256l67.9 67.9c30 30 46.9 70.7 46.9 113.1v11H288V437c0-25.5-10.1-49.9-28.1-67.9L192 301.3l-67.9 67.9c-18 18-28.1 42.4-28.1 67.9v11H32V437c0-42.4 16.9-83.1 46.9-113.1L146.7 256 78.9 188.1l22.6-22.6L78.9 188.1C48.9 158.1 32 117.4 32 75z"/>
          </symbol>
        </svg>