<svg xmlns="http://www.w3.org/2000/svg">
          <symbol id="fw-icon-duotone-cowbell-circle-plus" viewBox="0 0 576 512">
            <path d="M128 96H112c-21.4 0-40.3 14.2-46.2 34.8l-64 224c-4.1 14.5-1.2 30.1 7.8 42.1S32.9 416 48 416H262.6c-4.3-15.3-6.6-31.4-6.6-48c0-86.4 62.3-158.3 144.4-173.2l-18.3-64C376.3 110.2 357.4 96 336 96H320V40c0-22.1-17.9-40-40-40H168c-22.1 0-40 17.9-40 40V96zM275.2 448H160c0 35.3 28.7 64 64 64c29.2 0 53.9-19.6 61.5-46.4c-3.8-5.7-7.2-11.5-10.3-17.6zM176 96V48h96V96H176z"/>
          </symbol>
        </svg>