<svg xmlns="http://www.w3.org/2000/svg">
          <symbol id="fw-icon-duotone-tractor" viewBox="0 0 640 512">
            <path d="M128 192c0-17.7 14.3-32 32-32h32c17.7 0 32 14.3 32 32v8.2c4.8 1.7 9.5 3.7 14.1 5.8l5.8-5.8c12.5-12.5 32.8-12.5 45.3 0l22.6 22.6c12.5 12.5 12.5 32.8 0 45.3l-5.8 5.8c2.2 4.6 4.1 9.3 5.8 14.1H320c17.7 0 32 14.3 32 32v32c0 17.7-14.3 32-32 32h-8.2c-1.7 4.8-3.7 9.5-5.8 14.1l5.8 5.8c12.5 12.5 12.5 32.8 0 45.3l-22.6 22.6c-12.5 12.5-32.8 12.5-45.3 0l-5.8-5.8c-4.6 2.2-9.3 4.1-14.1 5.8V480c0 17.7-14.3 32-32 32H160c-17.7 0-32-14.3-32-32v-8.2c-4.8-1.7-9.5-3.7-14.1-5.8l-5.8 5.8c-12.5 12.5-32.8 12.5-45.3 0L40.2 449.1c-12.5-12.5-12.5-32.8 0-45.3l5.8-5.8c-2.2-4.6-4.1-9.3-5.8-14.1H32c-17.7 0-32-14.3-32-32V320c0-17.7 14.3-32 32-32h8.2c1.7-4.8 3.7-9.5 5.8-14.1l-5.8-5.8c-12.5-12.5-12.5-32.8 0-45.3l22.6-22.6c12.5-12.5 32.8-12.5 45.3 0l5.8 5.8c4.6-2.2 9.3-4.1 14.1-5.8V192zM256 336A80 80 0 1 0 96 336a80 80 0 1 0 160 0zm296 88a24 24 0 1 0 -48 0 24 24 0 1 0 48 0zm-112 0a88 88 0 1 1 176 0 88 88 0 1 1 -176 0z"/>
          </symbol>
        </svg>