<svg xmlns="http://www.w3.org/2000/svg">
          <symbol id="fw-icon-duotone-binary" viewBox="0 0 384 512">
            <path d="M336 32c0-10.3-4.9-19.9-13.3-26s-19.1-7.7-28.8-4.4l-48 16c-16.8 5.6-25.8 23.7-20.2 40.5s23.7 25.8 40.5 20.2l5.9-2V160H256c-17.7 0-32 14.3-32 32s14.3 32 32 32h48 48c17.7 0 32-14.3 32-32s-14.3-32-32-32H336V32zM112 320c0-10.3-4.9-19.9-13.3-26s-19.1-7.7-28.8-4.4l-48 16C5.1 311.2-3.9 329.4 1.6 346.1s23.7 25.8 40.5 20.2l5.9-2V448H32c-17.7 0-32 14.3-32 32s14.3 32 32 32H80h48c17.7 0 32-14.3 32-32s-14.3-32-32-32H112V320z"/>
          </symbol>
        </svg>