<svg xmlns="http://www.w3.org/2000/svg">
          <symbol id="fw-icon-duotone-square-question" viewBox="0 0 448 512">
            <path d="M190.6 128c-23.7 0-44.8 14.9-52.8 37.3l-.4 1.2c-4.4 12.5 2.1 26.2 14.6 30.6s26.2-2.1 30.6-14.6l.4-1.2c1.1-3.2 4.2-5.3 7.5-5.3h58.3c8.4 0 15.1 6.8 15.1 15.1c0 5.4-2.9 10.4-7.6 13.1l-44.3 25.4c-7.5 4.3-12.1 12.2-12.1 20.8V264c0 13.3 10.7 24 24 24c13.1 0 23.8-10.5 24-23.6l32.3-18.5c19.6-11.3 31.7-32.2 31.7-54.8c0-34.9-28.3-63.1-63.1-63.1H190.6zM224 384a32 32 0 1 0 0-64 32 32 0 1 0 0 64z"/>
          </symbol>
        </svg>2-14.6-30.6l.4-1.2zM192 352a32 32 0 1 1 64 0 32 32 0 1 1 -64 0z"/>
          </symbol>
        </svg>