<svg xmlns="http://www.w3.org/2000/svg">
          <symbol id="fw-icon-duotone-earth-oceania" viewBox="0 0 512 512">
            <path d="M273.8 142.5c-9.5-9.5-23-13.6-36.1-10.9l-38.5 7.7c-15.3 3.1-17.6 24-3.4 30.3l42.8 19c5.1 2.3 10.6 3.4 16.2 3.4h29.9c14.3 0 21.4-17.2 11.3-27.3l-22.2-22.2zM169.6 343.8l39 13.5c2.4 .8 4.7 2 6.9 3.4L240.9 377c7.1 4.6 15.3 7 23.7 7c13.4 0 26.1-6.2 34.4-16.8L311 351.8c5.8-7.4 9-16.6 9-26s-3.2-18.6-9-26l-17.9-22.9c-4.8-6.1-8.7-12.9-11.5-20.2l-10.1-25.9c-1.6-4.1-5.6-6.8-10-6.8c-3.4 0-6.7 1.6-8.7 4.4l-10.4 14.2c-4.7 6.4-12.7 9.5-20.4 7.9c-3.2-.7-6.1-2.5-8.1-5.1l-4.6-6.1c-7.2-9.6-18.6-15.3-30.6-15.3s-23.4 5.7-30.6 15.3l-5.3 7c-1.6 2.1-3.6 3.7-5.9 4.8l-35.3 16.8c-20.5 9.8-28.8 34.6-18.2 54.7l3.3 6.2c9 17.1 29 25.4 47.5 19.5l15.3-4.9c6.6-2.1 13.6-2 20.1 .3zM248 432c0 8.8 7.2 16 16 16h16c8.8 0 16-7.2 16-16s-7.2-16-16-16H264c-8.8 0-16 7.2-16 16zM431.2 298.9c-2.8-8.4-11.9-12.9-20.2-10.1s-12.9 11.9-10.1 20.2l8 24c2.8 8.4 11.9 12.9 20.2 10.1s12.9-11.9 10.1-20.2l-8-24zm-19.9 80.4c6.2-6.2 6.2-16.4 0-22.6s-16.4-6.2-22.6 0l-32 32c-6.2 6.2-6.2 16.4 0 22.6s16.4 6.2 22.6 0l32-32z"/>
          </symbol>
        </svg>0 22.6z"/>
          </symbol>
        </svg>