<svg xmlns="http://www.w3.org/2000/svg">
          <symbol id="fw-icon-duotone-calendar-plus" viewBox="0 0 512 512">
            <path d="M32 192H480V464c0 26.5-21.5 48-48 48H80c-26.5 0-48-21.5-48-48V192zm224 56c-13.3 0-24 10.7-24 24v56H176c-13.3 0-24 10.7-24 24s10.7 24 24 24h56v56c0 13.3 10.7 24 24 24s24-10.7 24-24V376h56c13.3 0 24-10.7 24-24s-10.7-24-24-24H280V272c0-13.3-10.7-24-24-24z"/>
          </symbol>
        </svg>-24-24s10.7-24 24-24h56V272c0-13.3 10.7-24 24-24z"/>
          </symbol>
        </svg>