<svg xmlns="http://www.w3.org/2000/svg">
          <symbol id="fw-icon-duotone-sprinkler-ceiling" viewBox="0 0 384 512">
            <path d="M0 96c0 15.3 10.8 28.4 25.7 31.4L128 147.8V82.6L64 69.8V0H0V96zm256 51.8l102.3-20.5c15-3 25.7-16.1 25.7-31.4V0H320V69.8L256 82.6v65.3zM224 64c0-17.7-14.3-32-32-32s-32 14.3-32 32V192H96c-17.7 0-32 14.3-32 32s14.3 32 32 32h96 96c17.7 0 32-14.3 32-32s-14.3-32-32-32H224V64z"/>
          </symbol>
        </svg>24 24 0 1 1 48 0 24 24 0 1 1 -48 0zm136-24a24 24 0 1 1 0 48 24 24 0 1 1 0-48z"/>
          </symbol>
        </svg>