<svg xmlns="http://www.w3.org/2000/svg">
          <symbol id="fw-icon-duotone-square-right" viewBox="0 0 448 512">
            <path d="M362.5 242.2L262.6 135.1c-4.2-4.5-10.1-7.1-16.3-7.1C234 128 224 138 224 150.3l0 57.7-96 0c-17.7 0-32 14.3-32 32l0 32c0 17.7 14.3 32 32 32l96 0 0 57.7c0 12.3 10 22.3 22.3 22.3c6.2 0 12.1-2.6 16.3-7.1l99.9-107.1c3.5-3.8 5.5-8.7 5.5-13.8s-2-10.1-5.5-13.8z"/>
          </symbol>
        </svg>7 14.3-32 32-32l96 0 0-57.7c0-12.3 10-22.3 22.3-22.3c6.2 0 12.1 2.6 16.3 7.1z"/>
          </symbol>
        </svg>