<svg xmlns="http://www.w3.org/2000/svg">
          <symbol id="fw-icon-duotone-person-circle-exclamation" viewBox="0 0 576 512">
            <path d="M160 96a48 48 0 1 0 0-96 48 48 0 1 0 0 96zm-8 384V352h16V480c0 17.7 14.3 32 32 32s32-14.3 32-32V256.9l28.6 47.5c1.4 2.3 3.1 4.5 4.9 6.3c7.9-23 20.5-43.9 36.6-61.5l-44.9-74.7c-17.4-28.9-48.6-46.6-82.3-46.6H145.1c-33.7 0-64.9 17.7-82.3 46.6l-58.3 97c-9.1 15.1-4.2 34.8 10.9 43.9s34.8 4.2 43.9-10.9L88 256.9V480c0 17.7 14.3 32 32 32s32-14.3 32-32z"/>
          </symbol>
        </svg>