<svg xmlns="http://www.w3.org/2000/svg">
          <symbol id="fw-icon-duotone-face-spiral-eyes" viewBox="0 0 512 512">
            <path d="M154.4 124c6.6-.3 11.8-5.8 11.5-12.5s-5.8-11.8-12.5-11.5c-59.9 2.4-106.5 56.7-101 110.5c2.9 53.9 53.7 94.3 102.5 89.1c49.1-3 85.9-47.9 80.6-91.2c-3.3-43.5-44.7-74.4-82.9-69.3c-38.4 3.4-65.7 39.2-60.3 72.1c3.8 33 35.9 54.5 63.6 49.2c27.7-4.1 45.3-30.8 39.5-53.6c-2.4-11.5-9.5-20-17.9-24.8c-8-4.7-18.3-6.6-27.5-3.3c-8.9 2.8-14.9 9-17.8 16c-2.6 6.3-3.2 15 1.8 21.8c4.2 6.3 11.1 9.2 17.6 8.5c5.3-.6 15.1-5.3 14.1-16.4c-.2-2.7-1.3-5.1-3-6.9c.8 .3 1.7 .6 2.6 1.2c3.1 1.8 5.7 4.9 6.5 9.2l.1 .4 .1 .4c2.1 7.7-4.7 21.9-19.9 24l-.3 0-.3 .1c-14 2.8-33.3-9.1-35.5-28.6l0-.4-.1-.4c-3.1-18.3 13.2-42.4 38.9-44.5l.3 0 .3 0c24.7-3.5 53.8 17.7 56 47.5l0 .3 0 .3c3.7 28.8-22.1 62.5-58.4 64.5l-.3 0-.3 0c-35.4 4-74.2-26.5-76.2-66.7l0-.3 0-.3c-4.2-39.3 31.1-82.4 78.1-84.3zM357.6 292c-6.6 .3-11.8 5.8-11.5 12.5s5.8 11.8 12.5 11.5c59.9-2.4 106.5-56.7 101-110.5c-2.9-53.9-53.7-94.3-102.5-89.1c-49.1 3-85.9 47.9-80.6 91.2c3.3 43.5 44.7 74.4 82.9 69.3c38.4-3.4 65.7-39.2 60.3-72.1c-3.8-33-35.9-54.5-63.6-49.2c-27.7 4.1-45.3 30.8-39.5 53.6c2.4 11.5 9.6 20 17.9 24.8c8 4.7 18.3 6.6 27.5 3.3c8.9-2.8 14.9-9 17.8-16c2.6-6.3 3.2-15-1.8-21.8c-4.2-6.3-11.1-9.2-17.6-8.5c-5.3 .6-15.1 5.3-14.1 16.4c.2 2.7 1.3 5.1 3 6.9c-.8-.3-1.7-.6-2.6-1.2c-3.1-1.8-5.7-4.9-6.5-9.2l-.1-.4-.1-.4c-2.1-7.7 4.7-21.9 19.9-24l.3 0 .3-.1c14-2.8 33.3 9.1 35.5 28.6l0 .4 .1 .4c3.1 18.3-13.2 42.4-38.9 44.5l-.3 0-.3 0c-24.7 3.5-53.9-17.7-56-47.5l0-.3 0-.3c-3.7-28.8 22.1-62.5 58.4-64.5l.3 0 .3 0c35.4-4 74.2 26.5 76.2 66.7l0 .3 0 .3c4.2 39.3-31.1 82.4-78.1 84.3z"/>
          </symbol>
        </svg>.1 .4 .1 .4c.9 4.3 3.4 7.4 6.5 9.2c.9 .5 1.8 .9 2.6 1.2c-1.7-1.9-2.8-4.2-3-6.9c-1-11.1 8.8-15.8 14.1-16.4c6.6-.8 13.4 2.2 17.6 8.5c5 6.8 4.4 15.6 1.8 21.8c-2.9 7-8.9 13.2-17.8 16c-9.2 3.3-19.4 1.3-27.5-3.3c-8.3-4.9-15.5-13.4-17.9-24.8c-5.8-22.8 11.9-49.5 39.5-53.6c27.7-5.3 59.8 16.2 63.6 49.2c5.4 33-21.9 68.7-60.3 72.1c-38.2 5.2-79.6-25.8-82.9-69.3c-5.4-43.3 31.5-88.2 80.6-91.2c48.8-5.3 99.6 35.2 102.5 89.1c5.5 53.8-41.1 108.1-101 110.5c-6.6 .3-12.2-4.9-12.5-11.5s4.9-12.2 11.5-12.5z"/>
          </symbol>
        </svg>