<svg xmlns="http://www.w3.org/2000/svg">
          <symbol id="fw-icon-duotone-grid" viewBox="0 0 448 512">
            <path d="M0 72C0 49.9 17.9 32 40 32H88c22.1 0 40 17.9 40 40v48c0 22.1-17.9 40-40 40H40c-22.1 0-40-17.9-40-40V72zM0 392c0-22.1 17.9-40 40-40H88c22.1 0 40 17.9 40 40v48c0 22.1-17.9 40-40 40H40c-22.1 0-40-17.9-40-40V392zM288 232v48c0 22.1-17.9 40-40 40H200c-22.1 0-40-17.9-40-40V232c0-22.1 17.9-40 40-40h48c22.1 0 40 17.9 40 40zM320 72c0-22.1 17.9-40 40-40h48c22.1 0 40 17.9 40 40v48c0 22.1-17.9 40-40 40H360c-22.1 0-40-17.9-40-40V72zM448 392v48c0 22.1-17.9 40-40 40H360c-22.1 0-40-17.9-40-40V392c0-22.1 17.9-40 40-40h48c22.1 0 40 17.9 40 40z"/>
          </symbol>
        </svg>