<svg xmlns="http://www.w3.org/2000/svg">
          <symbol id="fw-icon-duotone-barcode-read" viewBox="0 0 576 512">
            <path d="M48 56c0-4.4 3.6-8 8-8h80c13.3 0 24-10.7 24-24s-10.7-24-24-24H56C25.1 0 0 25.1 0 56v80c0 13.3 10.7 24 24 24s24-10.7 24-24V56zm480 0v80c0 13.3 10.7 24 24 24s24-10.7 24-24V56c0-30.9-25.1-56-56-56H440c-13.3 0-24 10.7-24 24s10.7 24 24 24h80c4.4 0 8 3.6 8 8zM56 464c-4.4 0-8-3.6-8-8V376c0-13.3-10.7-24-24-24s-24 10.7-24 24v80c0 30.9 25.1 56 56 56h80c13.3 0 24-10.7 24-24s-10.7-24-24-24H56zm472-8c0 4.4-3.6 8-8 8H440c-13.3 0-24 10.7-24 24s10.7 24 24 24h80c30.9 0 56-25.1 56-56V376c0-13.3-10.7-24-24-24s-24 10.7-24 24v80z"/>
          </symbol>
        </svg>