<svg xmlns="http://www.w3.org/2000/svg">
          <symbol id="fw-icon-duotone-compass-drafting" viewBox="0 0 512 512">
            <path d="M343.2 136.2c5.6-12.2 8.8-25.8 8.8-40.2c0-53-43-96-96-96s-96 43-96 96c0 14.3 3.1 27.9 8.8 40.2L6.5 416.5C2.2 423.9 0 432.2 0 440.6V496c0 5.5 2.9 10.7 7.6 13.6s10.6 3.2 15.6 .7l55.4-27.7c8.4-4.2 15.4-10.8 20.1-18.9L256 192h0c0 0 0 0 0 0l68 117.5c33.7-10.7 63.9-29.2 88.6-53.4L343.2 136.2zM224 96a32 32 0 1 1 64 0 32 32 0 1 1 -64 0zM356.7 365.9l56.6 97.8c4.7 8.1 11.7 14.7 20.1 18.9l55.4 27.7c5 2.5 10.9 2.2 15.6-.7s7.6-8.1 7.6-13.6V440.6c0-8.4-2.2-16.7-6.5-24.1l-60-103.7c-25.9 22.7-55.9 40.8-88.8 53z"/>
          </symbol>
        </svg>