<svg xmlns="http://www.w3.org/2000/svg">
          <symbol id="fw-icon-duotone-face-tongue-money" viewBox="0 0 512 512">
            <path d="M176 88c8.8 0 16 7.2 16 16v9.8c4.6 .8 8.7 1.8 12.1 2.7c8.5 2.3 13.6 11 11.3 19.6s-11 13.6-19.6 11.3c-8.3-2.2-18.8-4-27-3.2c-4 .4-6.1 1.4-7.1 2.1c-2.6 1.9-2.6 5.6-.2 7.2c6.9 4.8 15 6.9 23.3 9.1c8.3 2.2 16.7 4.4 23.9 9.4c4.8 3.3 9.5 8 12.4 14.6c3 6.6 3.5 13.9 2.2 21.2c-2 11.5-7.9 20.4-17 25.9c-4.6 2.8-9.5 4.4-14.4 5.2V248c0 8.8-7.2 16-16 16s-16-7.2-16-16V237.2c-8.4-1.9-16-4.4-21.1-6c-8.4-2.8-12.9-11.9-10.1-20.2s11.9-12.9 20.2-10.1c9.5 3.1 21.9 6.9 32 7.1c5 .1 7.6-.8 8.8-1.5l0 0c2.8-1.7 3.2-6.2 .6-8c-3.5-2.4-9.3-4.3-18.8-7l-1.1-.3c-7.9-2.2-18.8-5.4-27.2-11.2c-4.8-3.3-9.5-8-12.4-14.6c-3-6.6-3.5-13.9-2.2-21.2c1.8-10.2 6.9-18.2 14.4-23.6c5.3-3.9 11.3-6 17-7.1V104c0-8.8 7.2-16 16-16zm160 0c8.8 0 16 7.2 16 16v9.8c4.6 .8 8.7 1.8 12.1 2.7c8.5 2.3 13.6 11 11.3 19.6s-11 13.6-19.6 11.3c-8.3-2.2-18.8-4-27-3.2c-4 .4-6.1 1.4-7.1 2.1c-2.6 1.9-2.6 5.6-.2 7.2c6.9 4.8 15 6.9 23.3 9.1c8.3 2.2 16.7 4.4 23.9 9.4c4.8 3.3 9.5 8 12.4 14.6c3 6.6 3.5 13.9 2.2 21.2c-2 11.5-7.9 20.4-17 25.9c-4.6 2.8-9.5 4.4-14.4 5.2V248c0 8.8-7.2 16-16 16s-16-7.2-16-16V237.2c-8.4-1.9-16-4.4-21.1-6c-8.4-2.8-12.9-11.9-10.1-20.2s11.9-12.9 20.2-10.1c9.5 3.1 21.9 6.9 32 7.1c5 .1 7.6-.8 8.8-1.5l0 0c2.8-1.7 3.2-6.2 .6-8c-3.5-2.4-9.3-4.3-18.8-7l-1.1-.3c-7.9-2.2-18.8-5.4-27.2-11.2c-4.8-3.3-9.5-8-12.4-14.6c-3-6.6-3.5-13.9-2.2-21.2c1.8-10.2 6.9-18.2 14.4-23.6c5.3-3.9 11.3-6 17-7.1V104c0-8.8 7.2-16 16-16zm0 264v80c0 44.2-35.8 80-80 80s-80-35.8-80-80V352H336zm-80 16c-5.9 0-10.7 4.9-10.7 10.9v6.4c-3.8 .8-7.8 2.2-11.3 4.9c-5 3.7-8.4 9.2-9.6 16.1c-.8 5-.5 9.9 1.5 14.4c1.9 4.5 5.1 7.7 8.3 9.9c5.6 4 12.9 6.1 18.1 7.6l.8 .2c6.4 1.9 10.2 3.1 12.6 4.8c1.7 1.2 1.4 4.4-.4 5.5c-.8 .5-2.5 1.1-5.9 1c-6.8-.1-15-2.7-21.3-4.8c-5.6-1.9-11.6 1.2-13.5 6.9s1.2 11.9 6.8 13.8c3.4 1.1 8.4 2.8 14 4.1v7.3c0 6 4.8 10.9 10.7 10.9s10.7-4.9 10.7-10.9V471c3.2-.6 6.5-1.7 9.6-3.6c6.1-3.7 10-9.8 11.3-17.7c.8-5 .5-9.9-1.5-14.4c-1.9-4.5-5.1-7.7-8.3-9.9c-4.8-3.4-10.4-4.9-15.9-6.4c-5.5-1.5-10.9-3-15.5-6.2c-1.6-1.1-1.6-3.6 .2-4.9c.7-.5 2.1-1.1 4.7-1.4c5.4-.6 12.5 .6 18 2.2c5.7 1.5 11.5-1.9 13-7.7s-1.9-11.8-7.6-13.3c-2.3-.6-5-1.3-8.1-1.8v-6.7c0-6-4.8-10.9-10.7-10.9z"/>
          </symbol>
        </svg>