<svg xmlns="http://www.w3.org/2000/svg">
          <symbol id="fw-icon-duotone-temperature-list" viewBox="0 0 512 512">
            <path d="M320 64c0-17.7 14.3-32 32-32H480c17.7 0 32 14.3 32 32s-14.3 32-32 32H352c-17.7 0-32-14.3-32-32zM192 368c0 26.5-21.5 48-48 48s-48-21.5-48-48c0-20.9 13.4-38.7 32-45.3V176c0-8.8 7.2-16 16-16s16 7.2 16 16V322.7c18.6 6.6 32 24.4 32 45.3zM352 160H480c17.7 0 32 14.3 32 32s-14.3 32-32 32H352c-17.7 0-32-14.3-32-32s14.3-32 32-32zm0 160c0-17.7 14.3-32 32-32h96c17.7 0 32 14.3 32 32s-14.3 32-32 32H384c-17.7 0-32-14.3-32-32z"/>
          </symbol>
        </svg>bol>
        </svg>