<svg xmlns="http://www.w3.org/2000/svg">
          <symbol id="fw-icon-duotone-ferry" viewBox="0 0 576 512">
            <path d="M192 32H116.9C96.3 32 85.3 56.3 98.8 71.8L120 96H456l21.2-24.2C490.8 56.3 479.7 32 459.1 32H384c0-17.7-14.3-32-32-32H224c-17.7 0-32 14.3-32 32zm288 96H96c-17.7 0-32 14.3-32 32V283.5c0 13.3 4.2 26.3 11.9 37.2l51.4 71.9c1.9 1.1 3.8 2.2 5.6 3.5c15.5 10.7 34 18 51 19.9h16.6c18.2-1.9 35.8-9.7 50.6-19.9c22.1-15.5 51.6-15.5 73.7 0c15.8 10.9 33.7 18.1 50.8 19.9h16.5c17-1.8 35.6-9.2 51-19.9c1.8-1.3 3.6-2.4 5.5-3.5l51.4-71.9c7.8-10.9 11.9-23.9 11.9-37.2V160c0-17.7-14.3-32-32-32zm-32 64v96H128V192H448z"/>
          </symbol>
        </svg> 165.1 448 192 448c27.5 0 55-10.6 77.5-26.1z"/>
          </symbol>
        </svg>