<svg xmlns="http://www.w3.org/2000/svg">
          <symbol id="fw-icon-duotone-house-chimney-medical" viewBox="0 0 576 512">
            <path d="M266.9 7.9C279-2.6 297-2.6 309.1 7.9L416 101.5V64c0-17.7 14.3-32 32-32h32c17.7 0 32 14.3 32 32V185.5l53.1 46.4c13.3 11.6 14.6 31.9 3 45.2s-31.9 14.6-45.2 3L288 74.5 53.1 280.1c-13.3 11.6-33.5 10.3-45.2-3s-10.3-33.5 3-45.2l256-224zM256 240c0-8.8 7.2-16 16-16h32c8.8 0 16 7.2 16 16v48h48c8.8 0 16 7.2 16 16v32c0 8.8-7.2 16-16 16H320v48c0 8.8-7.2 16-16 16H272c-8.8 0-16-7.2-16-16V352H208c-8.8 0-16-7.2-16-16V304c0-8.8 7.2-16 16-16h48V240z"/>
          </symbol>
        </svg>