<svg xmlns="http://www.w3.org/2000/svg">
          <symbol id="fw-icon-duotone-user-doctor-hair" viewBox="0 0 448 512">
            <path d="M120 112h56c34.6 0 65-18.3 81.9-45.8C269.2 84.1 289.2 96 312 96h36C333.8 40.8 283.6 0 224 0C160.3 0 107.5 46.5 97.7 107.4c6.8 3 14.4 4.6 22.3 4.6zM288 304.2c-2.7-.1-5.3-.2-8-.2H168c-2.7 0-5.3 .1-8 .2v66.1c23.1 6.9 40 28.3 40 53.7c0 30.9-25.1 56-56 56s-56-25.1-56-56c0-25.4 16.9-46.8 40-53.7V308.8C54.5 326.7 0 393 0 472v8c0 17.7 14.3 32 32 32H416c17.7 0 32-14.3 32-32v-8c0-79-54.5-145.3-128-163.2V362c27.6 7.1 48 32.2 48 62v40c0 8.8-7.2 16-16 16H336c-8.8 0-16-7.2-16-16s7.2-16 16-16V424c0-17.7-14.3-32-32-32s-32 14.3-32 32v24c8.8 0 16 7.2 16 16s-7.2 16-16 16H256c-8.8 0-16-7.2-16-16V424c0-29.8 20.4-54.9 48-62V304.2zM168 424a24 24 0 1 0 -48 0 24 24 0 1 0 48 0z"/>
          </symbol>
        </svg>