<svg xmlns="http://www.w3.org/2000/svg">
          <symbol id="fw-icon-duotone-farm" viewBox="0 0 576 512">
            <path d="M0 96H192c0-53-43-96-96-96S0 43 0 96zm181.4 32H0V464c0 26.5 21.5 48 48 48h88.6c-5.4-9.4-8.6-20.3-8.6-32V270.3c0-8.4 1.6-16.6 4.8-24.4l48.6-118zM344 224c-13.3 0-24 10.7-24 24v48c0 13.3 10.7 24 24 24h48c13.3 0 24-10.7 24-24V248c0-13.3-10.7-24-24-24H344z"/>
          </symbol>
        </svg> 12.2zM344 224h48c13.3 0 24 10.7 24 24v48c0 13.3-10.7 24-24 24H344c-13.3 0-24-10.7-24-24V248c0-13.3 10.7-24 24-24z"/>
          </symbol>
        </svg>