<svg xmlns="http://www.w3.org/2000/svg">
          <symbol id="fw-icon-duotone-magnifying-glass-chart" viewBox="0 0 512 512">
            <path d="M104 216c0-13.3 10.7-24 24-24s24 10.7 24 24l0 64c0 13.3-10.7 24-24 24s-24-10.7-24-24V216zm80-96c0-13.3 10.7-24 24-24s24 10.7 24 24V280c0 13.3-10.7 24-24 24s-24-10.7-24-24l0-160zm80 64c0-13.3 10.7-24 24-24s24 10.7 24 24v96c0 13.3-10.7 24-24 24s-24-10.7-24-24V184zM457.4 502.6L330.7 376C348 363.3 363.3 348 376 330.7L502.6 457.4c12.5 12.5 12.5 32.8 0 45.3s-32.8 12.5-45.3 0z"/>
          </symbol>
        </svg>