<svg xmlns="http://www.w3.org/2000/svg">
          <symbol id="fw-icon-duotone-school-circle-xmark" viewBox="0 0 640 512">
            <path d="M352 368a144 144 0 1 1 288 0 144 144 0 1 1 -288 0zm203.3-59.3c-6.2-6.2-16.4-6.2-22.6 0L496 345.4l-36.7-36.7c-6.2-6.2-16.4-6.2-22.6 0s-6.2 16.4 0 22.6L473.4 368l-36.7 36.7c-6.2 6.2-6.2 16.4 0 22.6s16.4 6.2 22.6 0L496 390.6l36.7 36.7c6.2 6.2 16.4 6.2 22.6 0s6.2-16.4 0-22.6L518.6 368l36.7-36.7c6.2-6.2 6.2-16.4 0-22.6z"/>
          </symbol>
        </svg>8-48H166.3L302.2 5.4zM80 208v64c0 8.8 7.2 16 16 16h32c8.8 0 16-7.2 16-16V208c0-8.8-7.2-16-16-16H96c-8.8 0-16 7.2-16 16zm0 128v64c0 8.8 7.2 16 16 16h32c8.8 0 16-7.2 16-16V336c0-8.8-7.2-16-16-16H96c-8.8 0-16 7.2-16 16zM336 144v16h16c8.8 0 16 7.2 16 16s-7.2 16-16 16H320c-8.8 0-16-7.2-16-16V144c0-8.8 7.2-16 16-16s16 7.2 16 16z"/>
          </symbol>
        </svg>