<svg xmlns="http://www.w3.org/2000/svg">
          <symbol id="fw-icon-duotone-city" viewBox="0 0 640 512">
            <path d="M112 24c0-13.3-10.7-24-24-24S64 10.7 64 24V96h48V24zm112 0c0-13.3-10.7-24-24-24s-24 10.7-24 24V96h48V24zm16 136H208c-8.8 0-16 7.2-16 16v32c0 8.8 7.2 16 16 16h32c8.8 0 16-7.2 16-16V176c0-8.8-7.2-16-16-16zM576 272c0-8.8-7.2-16-16-16H528c-8.8 0-16 7.2-16 16v32c0 8.8 7.2 16 16 16h32c8.8 0 16-7.2 16-16V272zM112 416c8.8 0 16-7.2 16-16V368c0-8.8-7.2-16-16-16H80c-8.8 0-16 7.2-16 16v32c0 8.8 7.2 16 16 16h32zm144-16V368c0-8.8-7.2-16-16-16H208c-8.8 0-16 7.2-16 16v32c0 8.8 7.2 16 16 16h32c8.8 0 16-7.2 16-16zm320-32c0-8.8-7.2-16-16-16H528c-8.8 0-16 7.2-16 16v32c0 8.8 7.2 16 16 16h32c8.8 0 16-7.2 16-16V368zM128 176c0-8.8-7.2-16-16-16H80c-8.8 0-16 7.2-16 16v32c0 8.8 7.2 16 16 16h32c8.8 0 16-7.2 16-16V176zM240 320c8.8 0 16-7.2 16-16V272c0-8.8-7.2-16-16-16H208c-8.8 0-16 7.2-16 16v32c0 8.8 7.2 16 16 16h32zM128 304V272c0-8.8-7.2-16-16-16H80c-8.8 0-16 7.2-16 16v32c0 8.8 7.2 16 16 16h32c8.8 0 16-7.2 16-16z"/>
          </symbol>
        </svg> 8.8 7.2 16 16 16h32c8.8 0 16-7.2 16-16zm272-48H368c-8.8 0-16 7.2-16 16v32c0 8.8 7.2 16 16 16h32c8.8 0 16-7.2 16-16V272c0-8.8-7.2-16-16-16zM416 80c0-8.8-7.2-16-16-16H368c-8.8 0-16 7.2-16 16v32c0 8.8 7.2 16 16 16h32c8.8 0 16-7.2 16-16V80zm-16 80H368c-8.8 0-16 7.2-16 16v32c0 8.8 7.2 16 16 16h32c8.8 0 16-7.2 16-16V176c0-8.8-7.2-16-16-16z"/>
          </symbol>
        </svg>