<svg xmlns="http://www.w3.org/2000/svg">
          <symbol id="fw-icon-duotone-bag-seedling" viewBox="0 0 512 512">
            <path d="M64 64H448l18.6 74.5c8.9 35.5 13.4 72 13.4 108.7v17.7c0 36.6-4.5 73.1-13.4 108.7L448 448H64L45.4 373.5C36.5 338 32 301.5 32 264.8V247.2c0-36.6 4.5-73.1 13.4-108.7L64 64zm80 96c-8.8 0-16 7.2-16 16c0 59.2 45.9 107.6 104 111.7V328c0 13.3 10.7 24 24 24s24-10.7 24-24V287.7c58.1-4.1 104-52.6 104-111.7c0-8.8-7.2-16-16-16h-2c-47.3 0-88.4 26-110 64.5C234.4 186 193.3 160 146 160h-2z"/>
          </symbol>
        </svg>47.3 0-88.4 26-110 64.5C234.4 186 193.3 160 146 160h-2z"/>
          </symbol>
        </svg>