<svg xmlns="http://www.w3.org/2000/svg">
          <symbol id="fw-icon-duotone-calendar-lines" viewBox="0 0 448 512">
            <path d="M0 192H448V464c0 26.5-21.5 48-48 48H48c-26.5 0-48-21.5-48-48V192zM96 296c0 13.3 10.7 24 24 24H328c13.3 0 24-10.7 24-24s-10.7-24-24-24H120c-13.3 0-24 10.7-24 24zm24 72c-13.3 0-24 10.7-24 24s10.7 24 24 24H232c13.3 0 24-10.7 24-24s-10.7-24-24-24H120z"/>
          </symbol>
        </svg>24 24H120c-13.3 0-24-10.7-24-24s10.7-24 24-24z"/>
          </symbol>
        </svg>