<svg xmlns="http://www.w3.org/2000/svg">
          <symbol id="fw-icon-duotone-chart-column" viewBox="0 0 512 512">
            <path d="M480 96c0-17.7-14.3-32-32-32s-32 14.3-32 32V320c0 17.7 14.3 32 32 32s32-14.3 32-32V96zM288 160c0-17.7-14.3-32-32-32s-32 14.3-32 32V320c0 17.7 14.3 32 32 32s32-14.3 32-32V160zm-96 96c0-17.7-14.3-32-32-32s-32 14.3-32 32v64c0 17.7 14.3 32 32 32s32-14.3 32-32V256zm160-64c-17.7 0-32 14.3-32 32v96c0 17.7 14.3 32 32 32s32-14.3 32-32V224c0-17.7-14.3-32-32-32z"/>
          </symbol>
        </svg>