<svg xmlns="http://www.w3.org/2000/svg">
          <symbol id="fw-icon-duotone-gifts" viewBox="0 0 640 512">
            <path d="M48 96C21.5 96 0 117.5 0 144V464c0 26.5 21.5 48 48 48H200.6c-5.4-9.4-8.6-20.3-8.6-32V256c0-29.9 20.5-55 48.2-62c1.8-31 17.1-58.2 40.1-76.1C271.7 104.7 256.9 96 240 96H48zm315.5 89.5L393.1 224H344c-13.3 0-24-10.7-24-24c0-13.1 10.8-24 24.2-24c7.6 0 14.7 3.5 19.3 9.5zM344 272h56 16v80H224v32H416V512h32V384H640V352H448V272h72c39.8 0 72-32.2 72-72c0-39.9-32.5-72-72.2-72c-22.4 0-43.6 10.4-57.3 28.2L432 195.8l-30.5-39.6c-13.7-17.8-35-28.2-57.3-28.2c-39.7 0-72.2 32.1-72.2 72c0 39.8 32.2 72 72 72zm175.8-96c13.4 0 24.2 10.9 24.2 24c0 13.3-10.7 24-24 24H470.9l29.6-38.5c4.6-5.9 11.7-9.5 19.3-9.5z"/>
          </symbol>
        </svg>