<svg xmlns="http://www.w3.org/2000/svg">
          <symbol id="fw-icon-duotone-icons" viewBox="0 0 512 512">
            <path d="M500.3 7.3C507.7 13.3 512 22.4 512 32V176c0 26.5-28.7 48-64 48s-64-21.5-64-48s28.7-48 64-48V71L352 90.2V208c0 26.5-28.7 48-64 48s-64-21.5-64-48s28.7-48 64-48V64c0-15.3 10.8-28.4 25.7-31.4l160-32c9.4-1.9 19.1 .6 26.6 6.6zM74.7 304l11.8-17.8c5.9-8.9 15.9-14.2 26.6-14.2h61.7c10.7 0 20.7 5.3 26.6 14.2L213.3 304H256c17.7 0 32 14.3 32 32V480c0 17.7-14.3 32-32 32H32c-17.7 0-32-14.3-32-32V336c0-17.7 14.3-32 32-32H74.7zM192 408a48 48 0 1 0 -96 0 48 48 0 1 0 96 0z"/>
          </symbol>
        </svg>