<svg xmlns="http://www.w3.org/2000/svg">
          <symbol id="fw-icon-duotone-diagram-venn" viewBox="0 0 640 512">
            <path d="M352 352H288c-7.4-9.8-13.7-20.6-18.7-32H370.7c6.5-14.9 10.8-31.1 12.5-48H256.8c-.5-5.3-.8-10.6-.8-16s.3-10.7 .8-16H383.2c-1.7-16.9-6-33.1-12.5-48H269.3c5-11.4 11.3-22.2 18.7-32h64c-29.2-38.9-75.7-64-128-64C135.6 96 64 167.6 64 256s71.6 160 160 160c52.3 0 98.8-25.1 128-64zM0 256a224 224 0 1 1 448 0A224 224 0 1 1 0 256z"/>
          </symbol>
        </svg>4-224 224c-34.4 0-66.9-7.7-96-21.6c12.2-5.8 23.8-12.7 34.6-20.5c10.5-7.5 20.3-16 29.3-25.2z"/>
          </symbol>
        </svg>