<svg xmlns="http://www.w3.org/2000/svg">
          <symbol id="fw-icon-duotone-taxi-bus" viewBox="0 0 640 512">
            <path d="M32 416H48v32c0 17.7 14.3 32 32 32H96c17.7 0 32-14.3 32-32V416h64V352c0-32.8 16.5-61.8 41.6-79.1L249.9 224H208V96h88c13.3 0 24 10.7 24 24v16.4c5.7-2.4 11.7-4.3 17.8-5.6C343.6 110.7 362.1 96 384 96V74.5c0-16.2-9.2-31-23.7-38.3C312.8 12.4 260.3 0 207.1 0H176.9C123.7 0 71.2 12.4 23.7 36.2C9.2 43.4 0 58.2 0 74.5V384c0 17.7 14.3 32 32 32zM88 96h88V224H88c-13.3 0-24-10.7-24-24V120c0-13.3 10.7-24 24-24zm8 200a24 24 0 1 1 0 48 24 24 0 1 1 0-48z"/>
          </symbol>
        </svg>8 0 24 24 0 1 1 -48 0z"/>
          </symbol>
        </svg>