<svg xmlns="http://www.w3.org/2000/svg">
          <symbol id="fw-icon-duotone-pizza" viewBox="0 0 576 512">
            <path d="M108.9 403.1c81.2 81.2 212.9 81.2 294.2 0L278.6 278.6c-12.5-12.5-12.5-32.8 0-45.3L403.1 108.9c-81.2-81.2-212.9-81.2-294.2 0s-81.2 212.9 0 294.2zM128 256a32 32 0 1 1 64 0 32 32 0 1 1 -64 0zM224 96a32 32 0 1 1 0 64 32 32 0 1 1 0-64zm0 288a32 32 0 1 1 64 0 32 32 0 1 1 -64 0zM479.6 120.4L366.6 233.4c-12.5 12.5-12.5 32.8 0 45.3l112 112c31.6-36.7 50.5-84.4 50.3-136.6c-.2-51-18.8-97.6-49.4-133.6zM416 256a32 32 0 1 1 64 0 32 32 0 1 1 -64 0z"/>
          </symbol>
        </svg>8a32 32 0 1 1 64 0 32 32 0 1 1 -64 0zM128 256a32 32 0 1 1 64 0 32 32 0 1 1 -64 0zM256 416a32 32 0 1 0 0-64 32 32 0 1 0 0 64zM416 256a32 32 0 1 1 64 0 32 32 0 1 1 -64 0z"/>
          </symbol>
        </svg>