<svg xmlns="http://www.w3.org/2000/svg">
          <symbol id="fw-icon-duotone-taxi" viewBox="0 0 512 512">
            <path d="M135.2 149.4L109.1 224H402.9l-26.1-74.6c-4.5-12.8-16.6-21.4-30.2-21.4H165.4c-13.6 0-25.7 8.6-30.2 21.4zM39.6 228.8L74.8 128.3C88.3 89.8 124.6 64 165.4 64H346.6c40.8 0 77.1 25.8 90.6 64.3l35.2 100.5c23.2 9.6 39.6 32.5 39.6 59.2V432H0V288c0-26.7 16.4-49.6 39.6-59.2zM128 320a32 32 0 1 0 -64 0 32 32 0 1 0 64 0zm288 32a32 32 0 1 0 0-64 32 32 0 1 0 0 64z"/>
          </symbol>
        </svg>