<svg xmlns="http://www.w3.org/2000/svg">
          <symbol id="fw-icon-duotone-route-highway" viewBox="0 0 448 512">
            <path d="M32 192H416c0 1.1 0 2.2 0 3.2c0 14.9 2.8 29.7 8.4 43.6l14.3 35.7c6.2 15.4 9.3 31.9 9.3 48.5c0 49.5-28 94.8-72.2 116.9L238.3 508.6c-9 4.5-19.6 4.5-28.6 0L72.2 439.9C28 417.8 0 372.5 0 323c0-16.6 3.2-33.1 9.3-48.5l14.3-35.7C29.2 225 32 210.2 32 195.2c0-1.1 0-2.2 0-3.2zM384 323l0 .1v-.2l0 .1z"/>
          </symbol>
        </svg>-2.8z"/>
          </symbol>
        </svg>