<svg xmlns="http://www.w3.org/2000/svg">
          <symbol id="fw-icon-duotone-face-tongue-sweat" viewBox="0 0 576 512">
            <path d="M227.3 148.7c6.2 6.2 6.2 16.4 0 22.6l-7.4 7.4c-23.6 23.6-53.9 39.2-86.8 44.7l-2.5 .4c-8.7 1.5-17-4.4-18.4-13.2s4.4-17 13.2-18.4l2.5-.4c26.3-4.4 50.6-16.9 69.5-35.7l7.4-7.4c6.2-6.2 16.4-6.2 22.6 0zM207.6 240a32 32 0 1 1 0 64 32 32 0 1 1 0-64zm160 0a32 32 0 1 1 0 64 32 32 0 1 1 0-64zm-18.9-68.7c-6.2-6.2-6.2-16.4 0-22.6s16.4-6.2 22.6 0l7.4 7.4c18.9 18.9 43.2 31.4 69.5 35.7l2.5 .4c8.7 1.5 14.6 9.7 13.2 18.4s-9.7 14.6-18.4 13.2l-2.5-.4c-32.9-5.5-63.3-21.1-86.8-44.7l-7.4-7.4zM352 402.6V448c0 35.3-28.7 64-64 64s-64-28.7-64-64V402.6c0-14.7 11.9-26.6 26.6-26.6h2c11.3 0 21.1 7.9 23.6 18.9c2.8 12.6 20.8 12.6 23.6 0c2.5-11.1 12.3-18.9 23.6-18.9h2c14.7 0 26.6 11.9 26.6 26.6zM48 416c-26.5 0-48-21-48-47c0-20 28.6-60.4 41.6-77.7c3.2-4.4 9.6-4.4 12.8 0C67.6 308.6 96 349 96 369c0 26-21.5 47-48 47z"/>
          </symbol>
        </svg>2l-2.5-.4c-32.9-5.5-63.3-21.1-86.8-44.7l-7.4-7.4z"/>
          </symbol>
        </svg>