<svg xmlns="http://www.w3.org/2000/svg">
          <symbol id="fw-icon-duotone-saxophone" viewBox="0 0 640 512">
            <path d="M319 225L353 191l-8-8c-9.4-9.4-24.6-9.4-33.9 0s-9.4 24.6 0 33.9l8 8zm48-48L401 143l-8-8c-9.4-9.4-24.6-9.4-33.9 0s-9.4 24.6 0 33.9l8 8zm48-48L449 95l-8-8c-9.4-9.4-24.6-9.4-33.9 0s-9.4 24.6 0 33.9l8 8zM152 224a24 24 0 1 0 -48 0 24 24 0 1 0 48 0zm-32 96a24 24 0 1 0 -48 0 24 24 0 1 0 48 0z"/>
          </symbol>
        </svg> 5.2 41 14.8l24.3 20.3c3.7 3.1 5.9 7.7 5.9 12.6c0 9-7.3 16.3-16.3 16.3H559.5c-9.8 0-19 4.5-25.1 12.1L288.6 418.6C257.9 457.4 211.2 480 161.8 480C72.4 480 0 407.6 0 318.2v-3.1c0-12.7 1.5-25.4 4.4-37.8L28.2 176H24c-13.3 0-24-10.7-24-24s10.7-24 24-24H264c13.3 0 24 10.7 24 24s-10.7 24-24 24H246.7zM120 320a24 24 0 1 0 -48 0 24 24 0 1 0 48 0zm8-72a24 24 0 1 0 0-48 24 24 0 1 0 0 48z"/>
          </symbol>
        </svg>