<svg xmlns="http://www.w3.org/2000/svg">
          <symbol id="fw-icon-duotone-scanner-gun" viewBox="0 0 576 512">
            <path d="M440 32c-13.3 0-24 10.7-24 24V72c0 13.3 10.7 24 24 24H552c13.3 0 24-10.7 24-24V56c0-13.3-10.7-24-24-24H440zm0 160c-13.3 0-24 10.7-24 24v16c0 13.3 10.7 24 24 24H552c13.3 0 24-10.7 24-24V216c0-13.3-10.7-24-24-24H440zM416 440v16c0 13.3 10.7 24 24 24H552c13.3 0 24-10.7 24-24V440c0-13.3-10.7-24-24-24H440c-13.3 0-24 10.7-24 24zm16-312c-8.8 0-16 7.2-16 16s7.2 16 16 16H560c8.8 0 16-7.2 16-16s-7.2-16-16-16H432zM416 304c0 8.8 7.2 16 16 16H560c8.8 0 16-7.2 16-16s-7.2-16-16-16H432c-8.8 0-16 7.2-16 16zm16 48c-8.8 0-16 7.2-16 16s7.2 16 16 16H560c8.8 0 16-7.2 16-16s-7.2-16-16-16H432z"/>
          </symbol>
        </svg>