<svg xmlns="http://www.w3.org/2000/svg">
          <symbol id="fw-icon-duotone-rectangle-barcode" viewBox="0 0 576 512">
            <path d="M96 152c0-13.3 10.7-24 24-24s24 10.7 24 24V360c0 13.3-10.7 24-24 24s-24-10.7-24-24V152zm80-8c0-8.8 7.2-16 16-16s16 7.2 16 16V368c0 8.8-7.2 16-16 16s-16-7.2-16-16V144zm88-16c13.3 0 24 10.7 24 24V360c0 13.3-10.7 24-24 24s-24-10.7-24-24V152c0-13.3 10.7-24 24-24zm88 24c0-13.3 10.7-24 24-24s24 10.7 24 24V360c0 13.3-10.7 24-24 24s-24-10.7-24-24V152zm112-24c8.8 0 16 7.2 16 16V368c0 8.8-7.2 16-16 16s-16-7.2-16-16V144c0-8.8 7.2-16 16-16z"/>
          </symbol>
        </svg>16 7.2 16 16V368c0 8.8-7.2 16-16 16s-16-7.2-16-16V144c0-8.8 7.2-16 16-16z"/>
          </symbol>
        </svg>