<svg xmlns="http://www.w3.org/2000/svg">
          <symbol id="fw-icon-duotone-square-left" viewBox="0 0 448 512">
            <path d="M85.5 269.8l99.9 107.1c4.2 4.5 10.1 7.1 16.3 7.1c12.3 0 22.3-10 22.3-22.3l0-57.7 96 0c17.7 0 32-14.3 32-32l0-32c0-17.7-14.3-32-32-32l-96 0 0-57.7c0-12.3-10-22.3-22.3-22.3c-6.2 0-12.1 2.6-16.3 7.1L85.5 242.2C82 245.9 80 250.9 80 256s2 10.1 5.5 13.8z"/>
          </symbol>
        </svg>4.3 32-32 32l-96 0 0 57.7c0 12.3-10 22.3-22.3 22.3c-6.2 0-12.1-2.6-16.3-7.1z"/>
          </symbol>
        </svg>