<svg xmlns="http://www.w3.org/2000/svg">
          <symbol id="fw-icon-duotone-user-robot-xmarks" viewBox="0 0 448 512">
            <path d="M240 16c0-8.8-7.2-16-16-16s-16 7.2-16 16V64h32V16zM64 128c-17.7 0-32 14.3-32 32v64c0 17.7 14.3 32 32 32H80V128H64zM176 464c0-8.8-7.2-16-16-16s-16 7.2-16 16v48h32V464zm64 0c0-8.8-7.2-16-16-16s-16 7.2-16 16v48h32V464zm48-16c-8.8 0-16 7.2-16 16v48h32V464c0-8.8-7.2-16-16-16zM416 160c0-17.7-14.3-32-32-32H368V256h16c17.7 0 32-14.3 32-32V160z"/>
          </symbol>
        </svg>7 17 0s4.7-12.3 0-17L177 160l23.5-23.5c4.7-4.7 4.7-12.3 0-17s-12.3-4.7-17 0L160 143l-23.5-23.5zm111 0c-4.7 4.7-4.7 12.3 0 17L271 160l-23.5 23.5c-4.7 4.7-4.7 12.3 0 17s12.3 4.7 17 0L288 177l23.5 23.5c4.7 4.7 12.3 4.7 17 0s4.7-12.3 0-17L305 160l23.5-23.5c4.7-4.7 4.7-12.3 0-17s-12.3-4.7-17 0L288 143l-23.5-23.5c-4.7-4.7-12.3-4.7-17 0zM0 448c0-53 43-96 96-96H352c53 0 96 43 96 96v32c0 17.7-14.3 32-32 32H352V448c0-17.7-14.3-32-32-32H128c-17.7 0-32 14.3-32 32v64H32c-17.7 0-32-14.3-32-32V448z"/>
          </symbol>
        </svg>