<svg xmlns="http://www.w3.org/2000/svg">
          <symbol id="fw-icon-duotone-head-side-mask" viewBox="0 0 576 512">
            <path d="M20.7 121.7c7.9-10.6 22.9-12.9 33.6-5L284.9 288H544v21.6c0 6.9-1.1 13.7-3.3 20.2L528 368H368c-8.8 0-16 7.2-16 16s7.2 16 16 16H517.3l-10.7 32H368c-8.8 0-16 7.2-16 16s7.2 16 16 16H496l-1.4 4.2c-8.7 26.1-33.2 43.8-60.7 43.8H272V338.2L25.7 155.3c-10.6-7.9-12.9-22.9-5-33.6z"/>
          </symbol>
        </svg>192a32 32 0 1 1 64 0 32 32 0 1 1 -64 0z"/>
          </symbol>
        </svg>