<svg xmlns="http://www.w3.org/2000/svg">
          <symbol id="fw-icon-duotone-fire-flame" viewBox="0 0 384 512">
            <path d="M183 156l5.8-7.8c2-2.7 5.2-4.3 8.5-4.3c5.9 0 10.7 4.8 10.7 10.7v11.4c0 8.9 3.6 17.4 9.9 23.6l51.5 50.7C291.5 262.2 304 292 304 323c0 60.2-48.8 109-109 109h-3c-61.9 0-112-50.1-112-112v-8.2c0-21.2 7.8-41.6 21.8-57.4l6.9-7.8c2.1-2.4 5.1-3.7 8.3-3.7c6.1 0 11 4.9 11 11v44c0 24.3 19.8 44 44.1 44c24.2 0 43.9-19.6 43.9-43.8c0-11.6-4.6-22.8-12.8-31l-13.2-13.2c-14-14-21.9-33.1-21.9-53c0-16.2 5.3-32 15-44.9z"/>
          </symbol>
        </svg>6 21.8-57.4l6.9-7.8c2.1-2.4 5.1-3.7 8.3-3.7c6.1 0 11 4.9 11 11v44c0 24.3 19.8 44 44.1 44c24.2 0 43.9-19.6 43.9-43.8c0-11.6-4.6-22.8-12.8-31l-13.2-13.2c-14-14-21.9-33.1-21.9-53c0-16.2 5.3-32 15-44.9l5.8-7.8z"/>
          </symbol>
        </svg>