<svg xmlns="http://www.w3.org/2000/svg">
          <symbol id="fw-icon-duotone-route" viewBox="0 0 512 512">
            <path d="M358.6 192c17.1 26 35.4 48 44.1 58c3.3 3.9 8.2 6 13.3 6H320c-17.7 0-32 14.3-32 32s14.3 32 32 32h96c53 0 96 43 96 96s-43 96-96 96H96c5.1 0 9.9-2.1 13.3-6c8.7-10.1 27-32 44.1-58H416c17.7 0 32-14.3 32-32s-14.3-32-32-32H320c-53 0-96-43-96-96s43-96 96-96h38.6z"/>
          </symbol>
        </svg>96zm64 0a32 32 0 1 1 64 0 32 32 0 1 1 -64 0z"/>
          </symbol>
        </svg>