<svg xmlns="http://www.w3.org/2000/svg">
          <symbol id="fw-icon-duotone-book-arrow-up" viewBox="0 0 448 512">
            <path d="M96 0C43 0 0 43 0 96V416c0 53 43 96 96 96H216V448H96c-17.7 0-32-14.3-32-32s14.3-32 32-32H216l0-174.1-39 39c-9.4 9.4-24.6 9.4-33.9 0s-9.4-24.6 0-33.9l80-80c9.4-9.4 24.6-9.4 33.9 0l80 80c9.4 9.4 9.4 24.6 0 33.9s-24.6 9.4-33.9 0l-39-39V384h88 64c17.7 0 32-14.3 32-32V32c0-17.7-14.3-32-32-32H384 96zM264 448v64H384h32c17.7 0 32-14.3 32-32s-14.3-32-32-32H352 264z"/>
          </symbol>
        </svg>