<svg xmlns="http://www.w3.org/2000/svg">
          <symbol id="fw-icon-duotone-paw" viewBox="0 0 512 512">
            <path d="M69.2 401.2C121.6 259.9 214.7 224 256 224s134.4 35.9 186.8 177.2c3.6 9.7 5.2 20.1 5.2 30.5v1.6c0 25.8-20.9 46.7-46.7 46.7c-11.5 0-22.9-1.4-34-4.2l-88-22c-15.3-3.8-31.3-3.8-46.6 0l-88 22c-11.1 2.8-22.5 4.2-34 4.2C84.9 480 64 459.1 64 433.3v-1.6c0-10.4 1.6-20.8 5.2-30.5z"/>
          </symbol>
        </svg>32.3-10.6-46.9-53.9-32.6-96.8s52.1-69.1 84.4-58.5s46.9 53.9 32.6 96.8s-52.1 69.1-84.4 58.5z"/>
          </symbol>
        </svg>