<svg xmlns="http://www.w3.org/2000/svg">
          <symbol id="fw-icon-duotone-cash-register" viewBox="0 0 512 512">
            <path d="M0 448V378.4c0-4.8 .4-9.6 1.1-14.4L23.8 214.4C28.5 183.1 55.4 160 87 160H425c31.6 0 58.5 23.1 63.3 54.4l22.7 149.6c.7 4.8 1.1 9.6 1.1 14.4V448c0 35.3-28.7 64-64 64H64c-35.3 0-64-28.7-64-64zm64-16c0 8.8 7.2 16 16 16H432c8.8 0 16-7.2 16-16s-7.2-16-16-16H80c-8.8 0-16 7.2-16 16zm48-216a24 24 0 1 0 0 48 24 24 0 1 0 0-48zm72 24a24 24 0 1 0 48 0 24 24 0 1 0 -48 0zm-24 56a24 24 0 1 0 0 48 24 24 0 1 0 0-48zm120-56a24 24 0 1 0 48 0 24 24 0 1 0 -48 0zm-24 56a24 24 0 1 0 0 48 24 24 0 1 0 0-48zm120-56a24 24 0 1 0 48 0 24 24 0 1 0 -48 0zm-24 56a24 24 0 1 0 0 48 24 24 0 1 0 0-48z"/>
          </symbol>
        </svg>