<svg xmlns="http://www.w3.org/2000/svg">
          <symbol id="fw-icon-duotone-clapperboard-play" viewBox="0 0 512 512">
            <path d="M448 32H361.9l-1 1-127 127h92.1l1-1L453.8 32.3c-1.9-.2-3.8-.3-5.8-.3zm64 128V96c0-15.1-5.3-29.1-14-40l-104 104H512zM294.1 32H201.9l-1 1L73.9 160h92.1l1-1 127-127zM64 32C28.7 32 0 60.7 0 96v64H6.1l1-1 127-127H64zM216.5 241.9c-5.2 2.8-8.5 8.2-8.5 14.1V384c0 5.9 3.2 11.3 8.5 14.1s11.5 2.5 16.4-.8l96-64c4.4-3 7.1-8 7.1-13.3s-2.7-10.3-7.1-13.3l-96-64c-4.9-3.3-11.2-3.6-16.4-.8z"/>
          </symbol>
        </svg>