<svg xmlns="http://www.w3.org/2000/svg">
          <symbol id="fw-icon-duotone-person-snowmobiling" viewBox="0 0 640 512">
            <path d="M288 48a48 48 0 1 0 -96 0 48 48 0 1 0 96 0zM112 288H264l-72-32 32-48 29.3 29.3c12 12 28.3 18.7 45.3 18.7H312l48-64H304l-61.7-55.6c-11.8-10.6-27-16.4-42.8-16.4h-.9c-23.7 0-45.5 13.1-56.6 34.1l-35.3 66.6c-11.4 21.6-9.4 47.8 5.3 67.4zM450 416l36 48H440c-13.3 0-24 10.7-24 24s10.7 24 24 24H576c6.4 0 12.5-2.5 17-7l40-40c9.4-9.4 9.4-24.6 0-33.9s-24.6-9.4-33.9 0l-33 33H546l-46-61.3L480 416H450zM0 464c0 26.5 21.5 48 48 48H272c26.5 0 48-21.5 48-48s-21.5-48-48-48H48c-26.5 0-48 21.5-48 48z"/>
          </symbol>
        </svg>