<svg xmlns="http://www.w3.org/2000/svg">
          <symbol id="fw-icon-duotone-calendar-star" viewBox="0 0 512 512">
            <path d="M160 0c-17.7 0-32 14.3-32 32V64H80c-26.5 0-48 21.5-48 48v80H480V112c0-26.5-21.5-48-48-48H384V32c0-17.7-14.3-32-32-32s-32 14.3-32 32V64H192V32c0-17.7-14.3-32-32-32zM265.3 250.9c-3.8-7.7-14.8-7.7-18.7 0l-23.6 47.8-52.7 7.7c-8.5 1.2-11.9 11.7-5.8 17.7l38.2 37.2-9 52.5c-1.5 8.5 7.5 15 15.1 11L256 400l47.2 24.8c7.6 4 16.5-2.5 15.1-11l-9-52.5 38.2-37.2c6.2-6 2.8-16.5-5.8-17.7l-52.7-7.7-23.6-47.8z"/>
          </symbol>
        </svg>