<svg xmlns="http://www.w3.org/2000/svg">
          <symbol id="fw-icon-duotone-cat-space" viewBox="0 0 640 512">
            <path d="M288 160a160 160 0 1 1 320 0 160 160 0 1 1 -320 0zm64 0c0 53 43 96 96 96s96-43 96-96V42.7c0-5.9-4.8-10.7-10.7-10.7c-3.4 0-6.5 1.6-8.5 4.3l-40 53.3c-3 4-7.8 6.4-12.8 6.4H424c-5 0-9.8-2.4-12.8-6.4l-40-53.3c-2-2.7-5.2-4.3-8.5-4.3c-5.9 0-10.7 4.8-10.7 10.7V160zM231.5 12.3l10.7 28.8c.8 2.2 2.5 3.9 4.7 4.7l28.8 10.7c7 2.6 7 12.4 0 15L246.9 82.2c-2.2 .8-3.9 2.5-4.7 4.7l-10.7 28.8c-2.6 7-12.4 7-15 0L205.8 86.9c-.8-2.2-2.5-3.9-4.7-4.7L172.3 71.5c-7-2.6-7-12.4 0-15l28.8-10.7c2.2-.8 3.9-2.5 4.7-4.7l10.7-28.8c2.6-7 12.4-7 15 0z"/>
          </symbol>
        </svg>-35.7s18.2-30 35.7-27.8l7.9 1c48 6 84.1 46.8 84.1 95.3v85.3z"/>
          </symbol>
        </svg>