<svg xmlns="http://www.w3.org/2000/svg">
          <symbol id="fw-icon-duotone-gif" viewBox="0 0 576 512">
            <path d="M64 32C28.7 32 0 60.7 0 96V416c0 35.3 28.7 64 64 64H512c35.3 0 64-28.7 64-64V96c0-35.3-28.7-64-64-64H64zM192 192c-35.3 0-64 28.7-64 64s28.7 64 64 64c11.7 0 22.6-3.1 32-8.6V280H184c-8.8 0-16-7.2-16-16s7.2-16 16-16h56c8.8 0 16 7.2 16 16v56c0 5-2.4 9.8-6.4 12.8c-16 12.1-36 19.2-57.6 19.2c-53 0-96-43-96-96s43-96 96-96c21.6 0 41.6 7.1 57.6 19.2c7.1 5.3 8.5 15.3 3.2 22.4s-15.3 8.5-22.4 3.2c-10.7-8-24-12.8-38.4-12.8zm112-32c8.8 0 16 7.2 16 16V336c0 8.8-7.2 16-16 16s-16-7.2-16-16V176c0-8.8 7.2-16 16-16zm48 16c0-8.8 7.2-16 16-16h96c8.8 0 16 7.2 16 16s-7.2 16-16 16H384v48h64c8.8 0 16 7.2 16 16s-7.2 16-16 16H384v64c0 8.8-7.2 16-16 16s-16-7.2-16-16V256 176z"/>
          </symbol>
        </svg>