<svg xmlns="http://www.w3.org/2000/svg">
          <symbol id="fw-icon-duotone-ship" viewBox="0 0 576 512">
            <path d="M224 0c-17.7 0-32 14.3-32 32V64H144c-26.5 0-48 21.5-48 48V240L51.6 254.8c-23.1 7.7-29.5 37.5-11.5 53.9l101 92.6c16.2 9.4 34.7 15.1 50.9 15.1c21.1 0 42-8.5 59.2-20.3c22.1-15.5 51.6-15.5 73.7 0c18.4 12.7 39.6 20.3 59.2 20.3c16.2 0 34.7-5.7 50.9-15.1l101-92.6c18-16.5 11.6-46.2-11.5-53.9L480 240V112c0-26.5-21.5-48-48-48H384V32c0-17.7-14.3-32-32-32H224zm43.8 182.7L160 218.7V128H416v90.7L308.2 182.7c-13.1-4.4-27.3-4.4-40.5 0z"/>
          </symbol>
        </svg>c18.1-4.2 36.2-13.3 50.6-25.2c11.1-9.4 27.3-10.1 39.2-1.7l0 0C136.7 437.2 165.1 448 192 448c27.5 0 55-10.6 77.5-26.1z"/>
          </symbol>
        </svg>