<svg xmlns="http://www.w3.org/2000/svg">
          <symbol id="fw-icon-duotone-alarm-clock" viewBox="0 0 512 512">
            <path d="M14.9 146.4L160 25.4C143 9.6 120.2 0 95.2 0C42.6 0 0 42.6 0 95.2c0 18.8 5.5 36.3 14.9 51.1zM256 160c-13.3 0-24 10.7-24 24V288c0 6.4 2.5 12.5 7 17l48 48c9.4 9.4 24.6 9.4 33.9 0s9.4-24.6 0-33.9l-41-41V184c0-13.3-10.7-24-24-24zM352 25.4L497.1 146.4C506.5 131.6 512 114 512 95.2C512 42.6 469.4 0 416.8 0C391.8 0 369 9.6 352 25.4z"/>
          </symbol>
        </svg>-4.5-4.5-7-10.6-7-17V184c0-13.3 10.7-24 24-24s24 10.7 24 24z"/>
          </symbol>
        </svg>