<svg xmlns="http://www.w3.org/2000/svg">
          <symbol id="fw-icon-duotone-badminton" viewBox="0 0 576 512">
            <path d="M512 352c-26.5 0-48 21.5-48 48v32h96V400c0-26.5-21.5-48-48-48zm-50.3 96l-13 43.4c-2.5 8.5 2.3 17.4 10.7 19.9s17.4-2.3 19.9-10.7L495.1 448H461.7zm34.3 0v48c0 8.8 7.2 16 16 16s16-7.2 16-16V448H496zm32.9 0l15.8 52.6c2.5 8.5 11.5 13.3 19.9 10.7s13.3-11.5 10.7-19.9l-13-43.4H528.9zM110.6 369.4c-12.5-12.5-32.8-12.5-45.3 0l-56 56c-12.5 12.5-12.5 32.8 0 45.3l32 32c12.5 12.5 32.8 12.5 45.3 0l56-56c12.5-12.5 12.5-32.8 0-45.3l-32-32z"/>
          </symbol>
        </svg>.9 128 236 128 221c0-54.2 23.4-110.5 66.9-154z"/>
          </symbol>
        </svg>