<svg xmlns="http://www.w3.org/2000/svg">
          <symbol id="fw-icon-duotone-rectangle-pro" viewBox="0 0 640 512">
            <path d="M80 184v80 64c0 13.3 10.7 24 24 24s24-10.7 24-24V288h32c35.3 0 64-28.7 64-64s-28.7-64-64-64H104c-13.3 0-24 10.7-24 24zm48 56V208h32c8.8 0 16 7.2 16 16s-7.2 16-16 16H128zm112-56v80 64c0 13.3 10.7 24 24 24s24-10.7 24-24V288h18.7l33 52.7c7 11.2 21.8 14.7 33.1 7.6s14.7-21.8 7.6-33.1l-24.1-38.5C373 265.2 384 245.9 384 224c0-35.3-28.7-64-64-64H264c-13.3 0-24 10.7-24 24zm48 56V208h32c8.8 0 16 7.2 16 16s-7.2 16-16 16H288zm200-80c-48.6 0-88 39.4-88 88v16c0 48.6 39.4 88 88 88s88-39.4 88-88V248c0-48.6-39.4-88-88-88zm-40 88c0-22.1 17.9-40 40-40s40 17.9 40 40v16c0 22.1-17.9 40-40 40s-40-17.9-40-40V248z"/>
          </symbol>
        </svg>s40-17.9 40-40V248c0-22.1-17.9-40-40-40s-40 17.9-40 40z"/>
          </symbol>
        </svg>