<svg xmlns="http://www.w3.org/2000/svg">
          <symbol id="fw-icon-duotone-input-numeric" viewBox="0 0 640 512">
            <path d="M294.6 214.4c5.7-8 17.5-8.6 24-1.2c5.2 5.9 5 14.7-.3 20.5l-72 78c-6.5 7-8.2 17.2-4.3 25.9s12.5 14.4 22 14.4h88c13.3 0 24-10.7 24-24s-10.7-24-24-24H318.8l34.8-37.7c22-23.8 22.4-60.3 1.1-84.7c-26.9-30.7-75.4-28.4-99.2 4.9l-11.1 15.6c-7.7 10.8-5.2 25.8 5.6 33.5s25.8 5.2 33.5-5.6l11.1-15.6zM128 160c-13.3 0-24 10.7-24 24s10.7 24 24 24h8v96H120c-13.3 0-24 10.7-24 24s10.7 24 24 24h80c13.3 0 24-10.7 24-24s-10.7-24-24-24H184V184c0-13.3-10.7-24-24-24H128z"/>
          </symbol>
        </svg>