<svg xmlns="http://www.w3.org/2000/svg">
          <symbol id="fw-icon-duotone-folder-music" viewBox="0 0 512 512">
            <path d="M345.1 178.8c4.3 3 6.9 7.9 6.9 13.2v32V352c0 17.7-21.5 32-48 32s-48-14.3-48-32s21.5-32 48-32c5.6 0 11 .6 16 1.8V247.1l-96 36V384c0 17.7-21.5 32-48 32s-48-14.3-48-32s21.5-32 48-32c5.6 0 11 .6 16 1.8V272 240c0-6.7 4.1-12.6 10.4-15l128-48c4.9-1.8 10.4-1.2 14.7 1.8z"/>
          </symbol>
        </svg> 14.3-48 32s21.5 32 48 32s48-14.3 48-32V283.1l96-36v74.7c-5-1.2-10.4-1.8-16-1.8c-26.5 0-48 14.3-48 32s21.5 32 48 32s48-14.3 48-32V224 192z"/>
          </symbol>
        </svg>