<svg xmlns="http://www.w3.org/2000/svg">
          <symbol id="fw-icon-duotone-mask-face" viewBox="0 0 640 512">
            <path d="M320 64c-27.2 0-53.8 8-76.4 23.1l-37.1 24.8c-15.8 10.5-34.3 16.1-53.3 16.1H128c-17.7 0-32 14.3-32 32v64c0 123.7 100.3 224 224 224s224-100.3 224-224V160c0-17.7-14.3-32-32-32H486.8c-19 0-37.5-5.6-53.3-16.1L396.4 87.1C373.8 72 347.2 64 320 64zM192 208c0-8.8 7.2-16 16-16H432c8.8 0 16 7.2 16 16s-7.2 16-16 16H208c-8.8 0-16-7.2-16-16zm16 48H432c8.8 0 16 7.2 16 16s-7.2 16-16 16H208c-8.8 0-16-7.2-16-16s7.2-16 16-16zm16 80c0-8.8 7.2-16 16-16H400c8.8 0 16 7.2 16 16s-7.2 16-16 16H240c-8.8 0-16-7.2-16-16z"/>
          </symbol>
        </svg>