<svg xmlns="http://www.w3.org/2000/svg">
          <symbol id="fw-icon-duotone-cloud-showers" viewBox="0 0 512 512">
            <path d="M136 376c0-13.3-10.7-24-24-24s-24 10.7-24 24v80c0 13.3 10.7 24 24 24s24-10.7 24-24V376zm192 0c0-13.3-10.7-24-24-24s-24 10.7-24 24v80c0 13.3 10.7 24 24 24s24-10.7 24-24V376zm-120 8c-13.3 0-24 10.7-24 24v80c0 13.3 10.7 24 24 24s24-10.7 24-24V408c0-13.3-10.7-24-24-24zm216 24c0-13.3-10.7-24-24-24s-24 10.7-24 24v80c0 13.3 10.7 24 24 24s24-10.7 24-24V408z"/>
          </symbol>
        </svg>