<svg xmlns="http://www.w3.org/2000/svg">
          <symbol id="fw-icon-duotone-square-phone-hangup" viewBox="0 0 448 512">
            <path d="M332.7 318.5c9.9 3.8 21.4 .2 26.7-8.5l21.7-35.2c4.8-7.8 3.4-17.5-3.4-23.8c-84.9-78.6-222.6-78.6-307.5 0c-6.8 6.3-8.2 16.1-3.4 23.8L88.6 310c5.3 8.6 16.8 12.3 26.7 8.5l46.2-17.6c8.7-3.3 14.1-11.6 13.1-20.3L171.7 254c33.8-10.8 70.8-10.8 104.6 0l-2.9 26.7c-.9 8.7 4.4 16.9 13.1 20.3l46.2 17.6z"/>
          </symbol>
        </svg>51c84.9-78.6 222.6-78.6 307.5 0c6.8 6.3 8.2 16.1 3.4 23.8L359.4 310z"/>
          </symbol>
        </svg>