<svg xmlns="http://www.w3.org/2000/svg">
          <symbol id="fw-icon-duotone-bicycle" viewBox="0 0 640 512">
            <path d="M312 32c-13.3 0-24 10.7-24 24s10.7 24 24 24h25.7l34.6 64H222.9l-27.4-38C191 99.7 183.7 96 176 96H120c-13.3 0-24 10.7-24 24s10.7 24 24 24h43.7l22.1 30.7-77 153.9c-9 18.1 4.1 39.4 24.3 39.4H304c8.5 0 16.3-4.5 20.7-11.8l84.8-143.5 81.4 150.7c6.3 11.7 20.9 16 32.5 9.7s16-20.9 9.7-32.5L375.4 48.8C369.8 38.4 359 32 347.2 32H312zM166.8 320l50.7-101.3 72.9 101.2-.1 .1H166.8zm90.6-128H365.9L317 274.8 257.4 192z"/>
          </symbol>
        </svg>          </symbol>
        </svg>