<svg xmlns="http://www.w3.org/2000/svg">
          <symbol id="fw-icon-duotone-face-sad-cry" viewBox="0 0 512 512">
            <path d="M195.2 233.6c-17.6-23.5-52.8-23.5-70.4 0c-5.3 7.1-15.3 8.5-22.4 3.2s-8.5-15.3-3.2-22.4c30.4-40.5 91.2-40.5 121.6 0c5.3 7.1 3.9 17.1-3.2 22.4s-17.1 3.9-22.4-3.2zM128 477.8V288c0-8.8 7.2-16 16-16s16 7.2 16 16V493.4c-11.1-4.5-21.8-9.7-32-15.6zm224 15.6V288c0-8.8 7.2-16 16-16s16 7.2 16 16V477.8c-10.2 5.9-20.9 11.2-32 15.6zM316.8 233.6c-5.3 7.1-15.3 8.5-22.4 3.2s-8.5-15.3-3.2-22.4c30.4-40.5 91.2-40.5 121.6 0c5.3 7.1 3.9 17.1-3.2 22.4s-17.1 3.9-22.4-3.2c-17.6-23.5-52.8-23.5-70.4 0z"/>
          </symbol>
        </svg>1 3.2 22.4s17.1 3.9 22.4-3.2zM208 336v32c0 26.5 21.5 48 48 48s48-21.5 48-48V336c0-26.5-21.5-48-48-48s-48 21.5-48 48z"/>
          </symbol>
        </svg>