<svg xmlns="http://www.w3.org/2000/svg">
          <symbol id="fw-icon-duotone-trillium" viewBox="0 0 448 512">
            <path d="M214.1 8.9C189.6 31.8 128 95.9 128 160c0 15.7 3.8 30.4 10.4 43.5c-16.3 0-32.7 4.2-47.8 12.9c-55.5 32-80.2 117.5-87.8 150.2c-1.8 7.5 2.5 14.9 9.9 17.1c32.1 9.7 118.4 31.1 173.9-1c16.6-9.6 29.2-23.3 37.4-39.2c8.1 15.8 20.8 29.6 37.4 39.2c55.5 32 141.8 10.7 173.9 1c7.4-2.2 11.6-9.6 9.9-17.1c-7.6-32.7-32.3-118.1-87.8-150.2c-15-8.7-31.5-12.8-47.7-12.9c6.6-13.1 10.4-27.8 10.4-43.5c0-64.1-61.6-128.2-86.1-151.1c-5.6-5.3-14.1-5.3-19.8 0zM224 200a40 40 0 1 1 0 80 40 40 0 1 1 0-80z"/>
          </symbol>
        </svg>7.7 8.2c-4.8 53.1-25.4 90.2-36 106.3c-9.1 13.7-28.8 13.7-37.9 0c-10.6-16-31.2-53.2-36-106.3z"/>
          </symbol>
        </svg>