<svg xmlns="http://www.w3.org/2000/svg">
          <symbol id="fw-icon-duotone-file-contract" viewBox="0 0 384 512">
            <path d="M384 160L224 0V128c0 17.7 14.3 32 32 32H384zM134.2 381.8L144 349l16.7 55.6c1.9 6.3 7.4 10.8 13.9 11.3s12.8-2.9 15.7-8.8l8.8-17.7c1.7-3.4 5.1-5.5 8.8-5.5s7.2 2.1 8.8 5.5l8.8 17.7c2.7 5.4 8.3 8.8 14.3 8.8h64c8.8 0 16-7.2 16-16s-7.2-16-16-16H249.9l-4.4-8.8C238.4 361 223.9 352 208 352c-10 0-19.4 3.5-26.8 9.7l-11.6-38.6C166.2 311.7 155.8 304 144 304s-22.2 7.7-25.6 19.1l-14.9 49.5c-2 6.8-8.3 11.4-15.3 11.4H80c-8.8 0-16 7.2-16 16s7.2 16 16 16h8.2c21.2 0 39.9-13.9 46-34.2z"/>
          </symbol>
        </svg> 0-19.4 3.5-26.8 9.7l-11.6-38.6C166.2 311.7 155.8 304 144 304s-22.2 7.7-25.6 19.1l-14.9 49.5c-2 6.8-8.3 11.4-15.3 11.4H80c-8.8 0-16 7.2-16 16s7.2 16 16 16h8.2c21.2 0 39.9-13.9 46-34.2z"/>
          </symbol>
        </svg>