<svg xmlns="http://www.w3.org/2000/svg">
          <symbol id="fw-icon-duotone-audio-description" viewBox="0 0 576 512">
            <path d="M192 160c9.1 0 17.4 5.1 21.5 13.3l72 144c5.9 11.9 1.1 26.3-10.7 32.2s-26.3 1.1-32.2-10.7l-9.4-18.9H150.9l-9.4 18.9c-5.9 11.9-20.3 16.7-32.2 10.7s-16.7-20.3-10.7-32.2l72-144c4.1-8.1 12.4-13.3 21.5-13.3zM170.9 279.8h42.2L192 237.7l-21.1 42.2zM304 184c0-13.3 10.7-24 24-24h56c53 0 96 43 96 96s-43 96-96 96H328c-13.3 0-24-10.7-24-24V184zm48 24v96h32c26.5 0 48-21.5 48-48s-21.5-48-48-48H352z"/>
          </symbol>
        </svg>24 24-24zm24 144h32c26.5 0 48-21.5 48-48s-21.5-48-48-48H352v96z"/>
          </symbol>
        </svg>