<svg xmlns="http://www.w3.org/2000/svg">
          <symbol id="fw-icon-duotone-cart-circle-plus" viewBox="0 0 640 512">
            <path d="M496 224a144 144 0 1 1 0 288 144 144 0 1 1 0-288zm80 144c0-8.8-7.2-16-16-16l-48 0 0-48c0-8.8-7.2-16-16-16s-16 7.2-16 16l0 48-48 0c-8.8 0-16 7.2-16 16s7.2 16 16 16l48 0 0 48c0 8.8 7.2 16 16 16s16-7.2 16-16l0-48 48 0c8.8 0 16-7.2 16-16z"/>
          </symbol>
        </svg>4 32 531.1 32h-411C111 12.8 91.6 0 69.5 0H24zM176 512a48 48 0 1 0 0-96 48 48 0 1 0 0 96z"/>
          </symbol>
        </svg>