<svg xmlns="http://www.w3.org/2000/svg">
          <symbol id="fw-icon-duotone-car-bus" viewBox="0 0 640 512">
            <path d="M48 416H32c-17.7 0-32-14.3-32-32V74.5c0-16.2 9.2-31 23.7-38.3C71.2 12.4 123.7 0 176.9 0h30.3c53.2 0 105.6 12.4 153.2 36.2C374.8 43.4 384 58.2 384 74.5V128H362.6c-14.9 0-29.4 3-42.6 8.4V120c0-13.3-10.7-24-24-24H208V224h41.9l-16.3 48.9C208.5 290.2 192 319.2 192 352v64H128v32c0 17.7-14.3 32-32 32H80c-17.7 0-32-14.3-32-32V416zM64 120v80c0 13.3 10.7 24 24 24h88V96H88c-13.3 0-24 10.7-24 24zm56 200a24 24 0 1 0 -48 0 24 24 0 1 0 48 0z"/>
          </symbol>
        </svg> </symbol>
        </svg>