<svg xmlns="http://www.w3.org/2000/svg">
          <symbol id="fw-icon-duotone-sidebar-flip" viewBox="0 0 512 512">
            <path d="M448 32c35.3 0 64 28.7 64 64V416c0 35.3-28.7 64-64 64H288V32H448zM424 96H376c-13.3 0-24 10.7-24 24s10.7 24 24 24h48c13.3 0 24-10.7 24-24s-10.7-24-24-24zm24 120c0-13.3-10.7-24-24-24H376c-13.3 0-24 10.7-24 24s10.7 24 24 24h48c13.3 0 24-10.7 24-24zm-24 72H376c-13.3 0-24 10.7-24 24s10.7 24 24 24h48c13.3 0 24-10.7 24-24s-10.7-24-24-24z"/>
          </symbol>
        </svg>