<svg xmlns="http://www.w3.org/2000/svg">
          <symbol id="fw-icon-duotone-tent-arrow-left-right" viewBox="0 0 576 512">
            <path d="M454.2 7.9c8.9-9.9 24-10.7 33.9-1.8l80 72c5.1 4.6 7.9 11 7.9 17.8s-2.9 13.3-7.9 17.8l-80 72c-9.9 8.9-25 8.1-33.9-1.8s-8.1-25 1.8-33.9L489.5 120 86.5 120l33.5 30.2c9.9 8.9 10.7 24 1.8 33.9s-24 10.7-33.9 1.8l-80-72C2.9 109.3 0 102.8 0 96s2.9-13.3 7.9-17.8l80-72c9.9-8.9 25-8.1 33.9 1.8s8.1 25-1.8 33.9L86.5 72l402.9 0L455.9 41.8c-9.9-8.9-10.7-24-1.8-33.9z"/>
          </symbol>
        </svg>