<svg xmlns="http://www.w3.org/2000/svg">
          <symbol id="fw-icon-duotone-high-definition" viewBox="0 0 576 512">
            <path d="M160 184c0-13.3-10.7-24-24-24s-24 10.7-24 24v72 72c0 13.3 10.7 24 24 24s24-10.7 24-24V280h64v48c0 13.3 10.7 24 24 24s24-10.7 24-24V256 184c0-13.3-10.7-24-24-24s-24 10.7-24 24v48H160V184zm168-24c-13.3 0-24 10.7-24 24V328c0 13.3 10.7 24 24 24h56c53 0 96-43 96-96s-43-96-96-96H328zm56 144H352V208h32c26.5 0 48 21.5 48 48s-21.5 48-48 48z"/>
          </symbol>
        </svg>4-10.7-24-24V184zm48 120h32c26.5 0 48-21.5 48-48s-21.5-48-48-48H352v96z"/>
          </symbol>
        </svg>