<svg xmlns="http://www.w3.org/2000/svg">
          <symbol id="fw-icon-duotone-wagon-covered" viewBox="0 0 640 512">
            <path d="M96 256c-17.7 0-32 14.3-32 32s14.3 32 32 32h1.6c20.2-19.8 47.9-32 78.4-32c61.9 0 112 50.1 112 112c0 5.4-.4 10.8-1.1 16h66.3c-.7-5.2-1.1-10.6-1.1-16c0-61.9 50.1-112 112-112c30.5 0 58.2 12.2 78.4 32H544c17.7 0 32-14.3 32-32s-14.3-32-32-32H96z"/>
          </symbol>
        </svg>5-46 46zm124 32H192v46c22.5-5.8 40.2-23.5 46-46zm0-32c-5.8-22.5-23.5-40.2-46-46v46h46zm114 16a112 112 0 1 1 224 0 112 112 0 1 1 -224 0zm96 62V416H402c5.8 22.5 23.5 40.2 46 46zm-46-78h46V338c-22.5 5.8-40.2 23.5-46 46zm124 32H480v46c22.5-5.8 40.2-23.5 46-46zm0-32c-5.8-22.5-23.5-40.2-46-46v46h46zM595.2 4.1c28.7-1.9 50 26.2 40.3 53.4L576 224H416V45.9c0-16.8 13.1-30.8 29.9-31.9l149.3-10z"/>
          </symbol>
        </svg>