<svg xmlns="http://www.w3.org/2000/svg">
          <symbol id="fw-icon-duotone-vent-damper" viewBox="0 0 640 512">
            <path d="M128 64c-35.3 0-64 28.7-64 64V384c0 35.3 28.7 64 64 64H512c35.3 0 64-28.7 64-64V128c0-35.3-28.7-64-64-64H128zm56 80H456c13.3 0 24 10.7 24 24s-10.7 24-24 24H184c-13.3 0-24-10.7-24-24s10.7-24 24-24zm0 88H456c13.3 0 24 10.7 24 24s-10.7 24-24 24H184c-13.3 0-24-10.7-24-24s10.7-24 24-24zm0 88H456c13.3 0 24 10.7 24 24s-10.7 24-24 24H184c-13.3 0-24-10.7-24-24s10.7-24 24-24z"/>
          </symbol>
        </svg>