<svg xmlns="http://www.w3.org/2000/svg">
          <symbol id="fw-icon-duotone-face-shush" viewBox="0 0 512 512">
            <path d="M272 416c0 13.3 10.7 24 24 24s24-10.7 24-24H272zm8-168c0-13.3-10.7-24-24-24s-24 10.7-24 24h48zm98.4 207.4c8.5-10.2 7.1-25.3-3.1-33.8s-25.3-7.1-33.8 3.1l36.9 30.7zm-44 15.4l18.4 15.4-18.4-15.4zM280 464H232v48h48V464zm-56-8V432H176v24h48zm0-24V408H176v24h48zm8-32h32V352H232v48zm40 8v8h48v-8H272zm21.8 60.3l-80-56-27.5 39.3 80 56 27.5-39.3zM232 248v72h48V248H232zm48 264h17.5V464H280v48zm72.8-25.9l25.6-30.7-36.9-30.7L316 455.4l36.9 30.7zM297.5 512c21.4 0 41.6-9.5 55.3-25.9L316 455.4c-4.6 5.5-11.3 8.6-18.4 8.6v48zM264 400c4.4 0 8 3.6 8 8h48c0-30.9-25.1-56-56-56v48zm-40 8c0-4.4 3.6-8 8-8V352c-30.9 0-56 25.1-56 56h48zm8 56c-4.4 0-8-3.6-8-8H176c0 30.9 25.1 56 56 56V464z"/>
          </symbol>
        </svg>