<svg xmlns="http://www.w3.org/2000/svg">
          <symbol id="fw-icon-duotone-scroll-old" viewBox="0 0 576 512">
            <path d="M32 160h96V96c0-35.3-28.7-64-64-64S0 60.7 0 96v32c0 17.7 14.3 32 32 32zM288 384v16c0 44.2-35.8 80-80 80H480c53 0 96-43 96-96c0-17.7-14.3-32-32-32H424h-1.4c-4.2 0-8.3 1.7-11.3 4.7l-21.7 21.7c-3.1 3.1-8.2 3.1-11.3 0l-21.7-21.7c-3-3-7.1-4.7-11.3-4.7H344 320c-17.7 0-32 14.3-32 32z"/>
          </symbol>
        </svg>c-3.1-3.1-3.1-8.2 0-11.3l21.7-21.7c3-3 4.7-7.1 4.7-11.3V216 200v-1.4c0-4.2-1.7-8.3-4.7-11.3l-21.7-21.7c-3.1-3.1-3.1-8.2 0-11.3l21.7-21.7c3-3 4.7-7.1 4.7-11.3V120 96c0-35.3-28.7-64-64-64H64c35.3 0 64 28.7 64 64z"/>
          </symbol>
        </svg>