<svg xmlns="http://www.w3.org/2000/svg">
          <symbol id="fw-icon-duotone-envelope-open-text" viewBox="0 0 512 512">
            <path d="M96 32C78.3 32 64 46.3 64 64V249.7L236.7 377.6c5.6 4.1 12.4 6.4 19.3 6.4s13.7-2.2 19.3-6.4L448 249.7V64c0-17.7-14.3-32-32-32H96zm80 96H336c8.8 0 16 7.2 16 16s-7.2 16-16 16H176c-8.8 0-16-7.2-16-16s7.2-16 16-16zm0 64H336c8.8 0 16 7.2 16 16s-7.2 16-16 16H176c-8.8 0-16-7.2-16-16s7.2-16 16-16z"/>
          </symbol>
        </svg>3.9-33.5 11L194.2 32H317.8L289.5 11.1zM176 128c-8.8 0-16 7.2-16 16s7.2 16 16 16H336c8.8 0 16-7.2 16-16s-7.2-16-16-16H176zm0 64c-8.8 0-16 7.2-16 16s7.2 16 16 16H336c8.8 0 16-7.2 16-16s-7.2-16-16-16H176z"/>
          </symbol>
        </svg>