<svg xmlns="http://www.w3.org/2000/svg">
          <symbol id="fw-icon-duotone-files-medical" viewBox="0 0 448 512">
            <path d="M352 64V0l96 96H384c-17.7 0-32-14.3-32-32zM24 96c13.3 0 24 10.7 24 24V376c0 48.6 39.4 88 88 88H328c13.3 0 24 10.7 24 24s-10.7 24-24 24H136C60.9 512 0 451.1 0 376V120c0-13.3 10.7-24 24-24zm216 80c0-8.8 7.2-16 16-16h32c8.8 0 16 7.2 16 16v48h48c8.8 0 16 7.2 16 16v32c0 8.8-7.2 16-16 16H304v48c0 8.8-7.2 16-16 16H256c-8.8 0-16-7.2-16-16V288H192c-8.8 0-16-7.2-16-16V240c0-8.8 7.2-16 16-16h48V176z"/>
          </symbol>
        </svg>