<svg xmlns="http://www.w3.org/2000/svg">
          <symbol id="fw-icon-duotone-bowl-rice" viewBox="0 0 512 512">
            <path d="M176 56c0-13.3 10.7-24 24-24h16c13.3 0 24 10.7 24 24s-10.7 24-24 24H200c-13.3 0-24-10.7-24-24zm24 48h16c13.3 0 24 10.7 24 24s-10.7 24-24 24H200c-13.3 0-24-10.7-24-24s10.7-24 24-24zM32 200c0-13.3 10.7-24 24-24H72c13.3 0 24 10.7 24 24s-10.7 24-24 24H56c-13.3 0-24-10.7-24-24zm192 0c0-13.3 10.7-24 24-24h16c13.3 0 24 10.7 24 24s-10.7 24-24 24H248c-13.3 0-24-10.7-24-24zm-96 0c0-13.3 10.7-24 24-24h16c13.3 0 24 10.7 24 24s-10.7 24-24 24H152c-13.3 0-24-10.7-24-24zm-24-96h16c13.3 0 24 10.7 24 24s-10.7 24-24 24H104c-13.3 0-24-10.7-24-24s10.7-24 24-24zm216 96c0-13.3 10.7-24 24-24h16c13.3 0 24 10.7 24 24s-10.7 24-24 24H344c-13.3 0-24-10.7-24-24zm-24-96h16c13.3 0 24 10.7 24 24s-10.7 24-24 24H296c-13.3 0-24-10.7-24-24s10.7-24 24-24zm120 96c0-13.3 10.7-24 24-24h16c13.3 0 24 10.7 24 24s-10.7 24-24 24H440c-13.3 0-24-10.7-24-24zm-24-96h16c13.3 0 24 10.7 24 24s-10.7 24-24 24H392c-13.3 0-24-10.7-24-24s10.7-24 24-24zM296 32h16c13.3 0 24 10.7 24 24s-10.7 24-24 24H296c-13.3 0-24-10.7-24-24s10.7-24 24-24z"/>
          </symbol>
        </svg>