<svg xmlns="http://www.w3.org/2000/svg">
          <symbol id="fw-icon-duotone-lightbulb-cfl-on" viewBox="0 0 640 512">
            <path d="M53.3 4l48 32c11 7.4 14 22.3 6.7 33.3s-22.3 14-33.3 6.7l-48-32c-11-7.4-14-22.3-6.7-33.3S42.3-3.3 53.3 4zM613.3 44l-48 32c-11 7.4-25.9 4.4-33.3-6.7s-4.4-25.9 6.7-33.3l48-32c11-7.4 25.9-4.4 33.3 6.7s4.4 25.9-6.7 33.3zM24 160H88c13.3 0 24 10.7 24 24s-10.7 24-24 24H24c-13.3 0-24-10.7-24-24s10.7-24 24-24zm528 0h64c13.3 0 24 10.7 24 24s-10.7 24-24 24H552c-13.3 0-24-10.7-24-24s10.7-24 24-24zM101.3 332l-48 32c-11 7.4-25.9 4.4-33.3-6.7s-4.4-25.9 6.7-33.3l48-32c11-7.4 25.9-4.4 33.3 6.7s4.4 25.9-6.7 33.3zm464-39.9l48 32c11 7.4 14 22.3 6.7 33.3s-22.3 14-33.3 6.7l-48-32c-11-7.4-14-22.3-6.7-33.3s22.3-14 33.3-6.7zM224 416c0-17.7 14.3-32 32-32H384c17.7 0 32 14.3 32 32v32c0 17.7-14.3 32-32 32H352c0 17.7-14.3 32-32 32s-32-14.3-32-32H256c-17.7 0-32-14.3-32-32V416z"/>
          </symbol>
        </svg>