<svg xmlns="http://www.w3.org/2000/svg">
          <symbol id="fw-icon-duotone-book-medical" viewBox="0 0 448 512">
            <path d="M96 0C43 0 0 43 0 96V416c0 53 43 96 96 96H384h32c17.7 0 32-14.3 32-32s-14.3-32-32-32H352 256 96c-17.7 0-32-14.3-32-32s14.3-32 32-32H256h96 64c17.7 0 32-14.3 32-32V32c0-17.7-14.3-32-32-32H384 96zM208 112c0-8.8 7.2-16 16-16h32c8.8 0 16 7.2 16 16v48h48c8.8 0 16 7.2 16 16v32c0 8.8-7.2 16-16 16H272v48c0 8.8-7.2 16-16 16H224c-8.8 0-16-7.2-16-16V224H160c-8.8 0-16-7.2-16-16V176c0-8.8 7.2-16 16-16h48V112z"/>
          </symbol>
        </svg>