<svg xmlns="http://www.w3.org/2000/svg">
          <symbol id="fw-icon-duotone-star-and-crescent" viewBox="0 0 512 512">
            <path d="M256 0C114.6 0 0 114.6 0 256S114.6 512 256 512c33 0 64.6-6.3 93.6-17.7c7.4-2.9 11.5-10.7 9.8-18.4s-8.8-13-16.7-12.4c-4.8 .3-9.7 .5-14.6 .5c-114.9 0-208-93.1-208-208s93.1-208 208-208c4.9 0 9.8 .2 14.6 .5c7.9 .5 15-4.7 16.7-12.4s-2.4-15.5-9.8-18.4C320.6 6.3 289 0 256 0z"/>
          </symbol>
        </svg>16.4l70.4-10.2c3.1-.5 5.8-2.4 7.2-5.3l31.5-63.8z"/>
          </symbol>
        </svg>