<svg xmlns="http://www.w3.org/2000/svg">
          <symbol id="fw-icon-duotone-microscope" viewBox="0 0 512 512">
            <path d="M128 64c0-17.7 14.3-32 32-32h96c17.7 0 32 14.3 32 32V288c0 17.7-14.3 32-32 32c0 17.7-14.3 32-32 32H192c-17.7 0-32-14.3-32-32c-17.7 0-32-14.3-32-32V64zM512 320c0 49.2-18.5 94-48.9 128H480c17.7 0 32 14.3 32 32s-14.3 32-32 32H320 32c-17.7 0-32-14.3-32-32s14.3-32 32-32H320c70.7 0 128-57.3 128-128s-57.3-128-128-128V128c106 0 192 86 192 192z"/>
          </symbol>
        </svg>