<svg xmlns="http://www.w3.org/2000/svg">
          <symbol id="fw-icon-duotone-cloud-drizzle" viewBox="0 0 512 512">
            <path d="M64 352c13.3 0 24 10.7 24 24v48c0 13.3-10.7 24-24 24s-24-10.7-24-24V376c0-13.3 10.7-24 24-24zm96 64c13.3 0 24 10.7 24 24v48c0 13.3-10.7 24-24 24s-24-10.7-24-24V440c0-13.3 10.7-24 24-24zm216 24v48c0 13.3-10.7 24-24 24s-24-10.7-24-24V440c0-13.3 10.7-24 24-24s24 10.7 24 24zM256 352c13.3 0 24 10.7 24 24v48c0 13.3-10.7 24-24 24s-24-10.7-24-24V376c0-13.3 10.7-24 24-24zm216 24v48c0 13.3-10.7 24-24 24s-24-10.7-24-24V376c0-13.3 10.7-24 24-24s24 10.7 24 24z"/>
          </symbol>
        </svg>