<svg xmlns="http://www.w3.org/2000/svg">
          <symbol id="fw-icon-duotone-border-left" viewBox="0 0 448 512">
            <path d="M128 416a32 32 0 1 0 0 64 32 32 0 1 0 0-64zm0-384a32 32 0 1 0 0 64 32 32 0 1 0 0-64zm0 256a32 32 0 1 0 0-64 32 32 0 1 0 0 64zM320 416a32 32 0 1 0 0 64 32 32 0 1 0 0-64zm0-320a32 32 0 1 0 0-64 32 32 0 1 0 0 64zm0 128a32 32 0 1 0 0 64 32 32 0 1 0 0-64zM224 480a32 32 0 1 0 0-64 32 32 0 1 0 0 64zm0-448a32 32 0 1 0 0 64 32 32 0 1 0 0-64zm0 256a32 32 0 1 0 0-64 32 32 0 1 0 0 64zM416 416a32 32 0 1 0 0 64 32 32 0 1 0 0-64zm0-320a32 32 0 1 0 0-64 32 32 0 1 0 0 64zm0 128a32 32 0 1 0 0 64 32 32 0 1 0 0-64zM224 384a32 32 0 1 0 0-64 32 32 0 1 0 0 64zm192-64a32 32 0 1 0 0 64 32 32 0 1 0 0-64zm0-128a32 32 0 1 0 0-64 32 32 0 1 0 0 64zM224 128a32 32 0 1 0 0 64 32 32 0 1 0 0-64z"/>
          </symbol>
        </svg>