<svg xmlns="http://www.w3.org/2000/svg">
          <symbol id="fw-icon-duotone-face-hand-peeking" viewBox="0 0 640 512">
            <path d="M232 208c8.8 0 16-7.2 16-16s-7.2-16-16-16H118.2c-7.1 0-10.7-8.6-5.7-13.7l28.8-28.8c7.8-7.8 7.8-20.5 0-28.3s-20.5-7.8-28.3 0L51.9 166.4l-.8 .8C14.7 204.4 15 264.1 51.9 301c17.9 17.9 42.1 27.9 67.3 27.9l64.8 0c8.8 0 16-7.2 16-16s-7.2-16-16-16l-14 0c-2.5 0-4.5-2-4.5-4.5s2-4.5 4.5-4.5h62c8.8 0 16-7.2 16-16s-7.2-16-16-16H169.6c-2.2 0-4-1.8-4-4s1.8-4 4-4l78.4 0c8.8 0 16-7.2 16-16s-7.2-16-16-16H169.6c-2.2 0-4-1.8-4-4s1.8-4 4-4l62.4 0zm182.7-19c-7.2-5.1-8.9-15.1-3.7-22.3s15.1-8.9 22.3-3.7l81.8 58.4c2.3 1.6 5.1 2.3 7.8 2c9.3-1.1 13.2-12.4 6.6-19l-14.8-14.8c-7.8-7.8-7.8-20.5 0-28.3s20.5-7.8 28.3 0l45.1 45.1 .8 .8c36.4 37.2 36.1 96.9-.8 133.8c-17.9 17.9-42.1 27.9-67.3 27.9H456c-8.8 0-16-7.2-16-16s7.2-16 16-16h19.5c2.5 0 4.5-2 4.5-4.5s-2-4.5-4.5-4.5L408 328c-8.8 0-16-7.2-16-16s7.2-16 16-16h68c2.2 0 4-1.8 4-4s-1.8-4-4-4H392c-8.8 0-16-7.2-16-16s7.2-16 16-16l74.6 0c7.4 0 13.4-6 13.4-13.4c0-4.3-2.1-8.4-5.6-10.9L414.7 189z"/>
          </symbol>
        </svg>