<svg xmlns="http://www.w3.org/2000/svg">
          <symbol id="fw-icon-duotone-vacuum-robot" viewBox="0 0 512 512">
            <path d="M212.7 212.7c6.2-6.2 16.4-6.2 22.6 0l64 64c6.2 6.2 6.2 16.4 0 22.6s-16.4 6.2-22.6 0l-64-64c-6.2-6.2-6.2-16.4 0-22.6zm-80 16c6.2-6.2 16.4-6.2 22.6 0l128 128c6.2 6.2 6.2 16.4 0 22.6s-16.4 6.2-22.6 0l-128-128c-6.2-6.2-6.2-16.4 0-22.6zm-16 102.6c-6.2-6.2-6.2-16.4 0-22.6s16.4-6.2 22.6 0l64 64c6.2 6.2 6.2 16.4 0 22.6s-16.4 6.2-22.6 0l-64-64z"/>
          </symbol>
        </svg>s-6.2 16.4 0 22.6l128 128c6.2 6.2 16.4 6.2 22.6 0s6.2-16.4 0-22.6l-128-128zm-38.6 80c-6.2 6.2-6.2 16.4 0 22.6l64 64c6.2 6.2 16.4 6.2 22.6 0s6.2-16.4 0-22.6l-64-64c-6.2-6.2-16.4-6.2-22.6 0z"/>
          </symbol>
        </svg>