<svg xmlns="http://www.w3.org/2000/svg">
          <symbol id="fw-icon-duotone-tower-observation" viewBox="0 0 512 512">
            <path d="M270.3 3.4c-9-4.5-19.6-4.5-28.6 0l-160 80c-15.8 7.9-22.2 27.1-14.3 42.9C73 137.5 84.3 144 96 144v80c0 17.7 14.3 32 32 32h4.9 64.9H314.2h64.9H384c17.7 0 32-14.3 32-32V144c11.7 0 23-6.5 28.6-17.7c7.9-15.8 1.5-35-14.3-42.9l-160-80zM480 448H411.1 314.5h-117H100.9 32c-17.7 0-32 14.3-32 32s14.3 32 32 32h95.5c.4 0 .8 0 1.1 0H383.4c.4 0 .8 0 1.1 0H480c17.7 0 32-14.3 32-32s-14.3-32-32-32zM160 144c0-8.8 7.2-16 16-16H336c8.8 0 16 7.2 16 16s-7.2 16-16 16H176c-8.8 0-16-7.2-16-16z"/>
          </symbol>
        </svg>