<svg xmlns="http://www.w3.org/2000/svg">
          <symbol id="fw-icon-duotone-face-relieved" viewBox="0 0 512 512">
            <path d="M207.2 74.9c2.8 8.4-1.7 17.4-10.1 20.2l-6.3 2.1c-23.6 7.9-44 23.4-57.8 44.1l-7.6 11.5c-4.9 7.4-14.8 9.3-22.2 4.4s-9.3-14.8-4.4-22.2l7.6-11.5c17.8-26.6 43.9-46.6 74.3-56.7l6.3-2.1c8.4-2.8 17.4 1.7 20.2 10.1zM124.8 238.4c17.6 23.5 52.8 23.5 70.4 0c5.3-7.1 15.3-8.5 22.4-3.2s8.5 15.3 3.2 22.4c-30.4 40.5-91.2 40.5-121.6 0c-5.3-7.1-3.9-17.1 3.2-22.4s17.1-3.9 22.4 3.2zm192 0c17.6 23.5 52.8 23.5 70.4 0c5.3-7.1 15.3-8.5 22.4-3.2s8.5 15.3 3.2 22.4c-30.4 40.5-91.2 40.5-121.6 0c-5.3-7.1-3.9-17.1 3.2-22.4s17.1-3.9 22.4 3.2zM314.9 95.2c-8.4-2.8-12.9-11.9-10.1-20.2s11.9-12.9 20.2-10.1l6.3 2.1c30.4 10.1 56.5 30.1 74.3 56.7l7.6 11.5c4.9 7.4 2.9 17.3-4.4 22.2s-17.3 2.9-22.2-4.4L379 141.4c-13.8-20.7-34.1-36.3-57.8-44.1l-6.3-2.1z"/>
          </symbol>
        </svg>1zM314.9 95.2c-8.4-2.8-12.9-11.9-10.1-20.2s11.9-12.9 20.2-10.1l6.3 2.1c30.4 10.1 56.5 30.1 74.3 56.7l7.6 11.5c4.9 7.4 2.9 17.3-4.4 22.2s-17.3 2.9-22.2-4.4L379 141.4c-13.8-20.7-34.1-36.3-57.8-44.1l-6.3-2.1z"/>
          </symbol>
        </svg>