<svg xmlns="http://www.w3.org/2000/svg">
          <symbol id="fw-icon-duotone-water-ladder" viewBox="0 0 576 512">
            <path d="M223.7 32C170.9 32 128 74.9 128 127.7V361c1.7 1 3.3 2 4.9 3.1c18 12.4 40.1 20.3 59.1 20.3V288H384v96.5s0 0 0 0c19 0 41.2-7.9 59.2-20.3c1.6-1.1 3.2-2.1 4.8-3.1V127.7c0-17.5 14.2-31.7 31.7-31.7c16 0 29.5 11.9 31.5 27.8l1 8.2c2.2 17.5 18.2 30 35.7 27.8s30-18.2 27.8-35.7l-1-8.2C568.7 68 528 32 479.7 32C426.9 32 384 74.9 384 127.7V224H192V127.7c0-17.5 14.2-31.7 31.7-31.7c16 0 29.5 11.9 31.5 27.8l1 8.2c2.2 17.5 18.2 30 35.7 27.8s30-18.2 27.8-35.7l-1-8.2C312.7 68 272 32 223.7 32z"/>
          </symbol>
        </svg>1.7l0 0C136.7 405.2 165.1 416 192 416c27.5 0 55-10.6 77.5-26.1z"/>
          </symbol>
        </svg>