<svg xmlns="http://www.w3.org/2000/svg">
          <symbol id="fw-icon-duotone-brain-arrow-curved-right" viewBox="0 0 640 512">
            <path d="M184 0c30.9 0 56 25.1 56 56V456c0 30.9-25.1 56-56 56c-28.9 0-52.7-21.9-55.7-50.1c-5.2 1.4-10.7 2.1-16.3 2.1c-35.3 0-64-28.7-64-64c0-7.4 1.3-14.6 3.6-21.2C21.4 367.4 0 338.2 0 304c0-31.9 18.7-59.5 45.8-72.3C37.1 220.8 32 207 32 192c0-30.7 21.6-56.3 50.4-62.6C80.8 123.9 80 118 80 112c0-29.9 20.6-55.1 48.3-62.1C131.3 21.9 155.1 0 184 0zM328 0c28.9 0 52.6 21.9 55.7 49.9c27.8 7 48.3 32.1 48.3 62.1c0 6-.8 11.9-2.4 17.4c28.8 6.2 50.4 31.9 50.4 62.6c0 15-5.1 28.8-13.8 39.7c5.7 2.7 11.1 6.1 16 10c-1.4 4.6-2.2 9.4-2.2 14.3v16H448c-79.5 0-144 64.5-144 144c0 43.3 17.3 75 33.5 95.2c-3.1 .5-6.3 .8-9.5 .8c-30.9 0-56-25.1-56-56V56c0-30.9 25.1-56 56-56z"/>
          </symbol>
        </svg>