<svg xmlns="http://www.w3.org/2000/svg">
          <symbol id="fw-icon-duotone-shovel-snow" viewBox="0 0 512 512">
            <path d="M172.8 166.4c12.7-9.6 30.6-8.3 41.8 3l128 128c11.3 11.3 12.5 29.1 3 41.8l-120 160c-5.6 7.4-14.1 12.1-23.3 12.7s-18.3-2.7-24.9-9.3l-168-168C2.8 328.1-.6 319 .1 309.7s5.3-17.8 12.7-23.3l160-120zm30.5 100.9c6.2-6.2 6.2-16.4 0-22.6s-16.4-6.2-22.6 0l-80 80c-6.2 6.2-6.2 16.4 0 22.6s16.4 6.2 22.6 0l80-80zm64 64c6.2-6.2 6.2-16.4 0-22.6s-16.4-6.2-22.6 0l-80 80c-6.2 6.2-6.2 16.4 0 22.6s16.4 6.2 22.6 0l80-80z"/>
          </symbol>
        </svg>64l-80 80c-6.2 6.2-16.4 6.2-22.6 0s-6.2-16.4 0-22.6l80-80c6.2-6.2 16.4-6.2 22.6 0s6.2 16.4 0 22.6z"/>
          </symbol>
        </svg>