<svg xmlns="http://www.w3.org/2000/svg">
          <symbol id="fw-icon-duotone-peanut" viewBox="0 0 512 512">
            <path d="M416 147.2a19.2 19.2 0 1 0 0-38.4 19.2 19.2 0 1 0 0 38.4zm0 64a19.2 19.2 0 1 0 0-38.4 19.2 19.2 0 1 0 0 38.4zm-64 0a19.2 19.2 0 1 0 0-38.4 19.2 19.2 0 1 0 0 38.4zm-224 224a19.2 19.2 0 1 0 0-38.4 19.2 19.2 0 1 0 0 38.4zM211.2 416a19.2 19.2 0 1 0 -38.4 0 19.2 19.2 0 1 0 38.4 0zm0-64a19.2 19.2 0 1 0 -38.4 0 19.2 19.2 0 1 0 38.4 0z"/>
          </symbol>
        </svg>4.2-30.1 31.3-47.2c4-9.5 6.9-19.6 8.8-30c4.8-24.5 12.6-49.1 30.3-66.7s42.2-25.4 66.7-30.3c10.4-1.9 20.5-4.9 30-8.8c17.3-7.2 33.5-17.7 47.6-31.7l.9-.9C495.6 225.4 512 188.6 512 148V80c0-44.2-35.8-80-80-80zM396.8 128a19.2 19.2 0 1 1 38.4 0 19.2 19.2 0 1 1 -38.4 0zm0 64a19.2 19.2 0 1 1 38.4 0 19.2 19.2 0 1 1 -38.4 0zm-64 0a19.2 19.2 0 1 1 38.4 0 19.2 19.2 0 1 1 -38.4 0zm-224 224a19.2 19.2 0 1 1 38.4 0 19.2 19.2 0 1 1 -38.4 0zM192 396.8a19.2 19.2 0 1 1 0 38.4 19.2 19.2 0 1 1 0-38.4zm0-64a19.2 19.2 0 1 1 0 38.4 19.2 19.2 0 1 1 0-38.4z"/>
          </symbol>
        </svg>