<svg xmlns="http://www.w3.org/2000/svg">
          <symbol id="fw-icon-duotone-lira-sign" viewBox="0 0 320 512">
            <path d="M48 192v64H32c-17.7 0-32-14.3-32-32s14.3-32 32-32H48zm0 96v44.5c0 6.6-.7 13.1-2 19.5H32c-17.7 0-32-14.3-32-32s14.3-32 32-32H48zm62.8 64c.8-6.4 1.2-12.9 1.2-19.5V288H224c17.7 0 32 14.3 32 32s-14.3 32-32 32H110.8zm1.2-96V192H224c17.7 0 32 14.3 32 32s-14.3 32-32 32H112z"/>
          </symbol>
        </svg>-40.5 20.2L196.7 99.3c-6.6-2.2-13.4-3.3-20.4-3.3z"/>
          </symbol>
        </svg>