<svg xmlns="http://www.w3.org/2000/svg">
          <symbol id="fw-icon-duotone-fish-fins" viewBox="0 0 576 512">
            <path d="M182 150.4C221.3 120.9 273.7 96 336 96s114.7 24.9 154 54.4c39.2 29.4 67.2 64.7 81.6 89.5c5.8 9.9 5.8 22.2 0 32.1c-14.4 24.8-42.5 60.1-81.6 89.5C450.7 391.1 398.3 416 336 416s-114.7-24.9-154-54.4c-15.3-11.5-29-23.9-40.7-36.3L48.1 379.6c-12.5 7.3-28.4 5.3-38.7-4.9S-3 348.7 4.2 336.1L50 256 4.2 175.9c-7.2-12.6-5-28.4 5.3-38.6s26.1-12.2 38.7-4.9l93.1 54.3c11.8-12.3 25.4-24.8 40.7-36.3zM448 256a32 32 0 1 0 -64 0 32 32 0 1 0 64 0z"/>
          </symbol>
        </svg>