<svg xmlns="http://www.w3.org/2000/svg">
          <symbol id="fw-icon-duotone-arrow-down-up-lock" viewBox="0 0 640 512">
            <path d="M246.6 406.6l-96 96c-12.5 12.5-32.8 12.5-45.3 0l-96-96c-12.5-12.5-12.5-32.8 0-45.3s32.8-12.5 45.3 0L96 402.7V288H32c-17.7 0-32-14.3-32-32s14.3-32 32-32l64 0h64l128 0V109.3l-41.4 41.4c-12.5 12.5-32.8 12.5-45.3 0s-12.5-32.8 0-45.3l96-96c6-6 14.1-9.4 22.6-9.4s16.6 3.4 22.6 9.4l96 96c12.5 12.5 12.5 32.8 0 45.3s-32.8 12.5-45.3 0L352 109.3V224h74.8c-6.9 14.5-10.8 30.8-10.8 48v16H160V402.7l41.4-41.4c12.5-12.5 32.8-12.5 45.3 0s12.5 32.8 0 45.3zM160 64V192H96V64c0-17.7 14.3-32 32-32s32 14.3 32 32zM288 448V320h64V448c0 17.7-14.3 32-32 32s-32-14.3-32-32z"/>
          </symbol>
        </svg>