<svg xmlns="http://www.w3.org/2000/svg">
          <symbol id="fw-icon-duotone-hand-point-up" viewBox="0 0 384 512">
            <path d="M128 160c0-17.7 14.3-32 32-32s32 14.3 32 32v48c0 17.7-14.3 32-32 32s-32-14.3-32-32V160zm96 32c0-17.7 14.3-32 32-32s32 14.3 32 32v64c0 17.7-14.3 32-32 32s-32-14.3-32-32V192zm128 0c17.7 0 32 14.3 32 32v64c0 17.7-14.3 32-32 32s-32-14.3-32-32V224c0-17.7 14.3-32 32-32z"/>
          </symbol>
        </svg> 0 40 17.9 40 40s-17.9 40-40 40H96c-8.8 0-16 7.2-16 16s7.2 16 16 16h56c39.8 0 72-32.2 72-72z"/>
          </symbol>
        </svg>