<svg xmlns="http://www.w3.org/2000/svg">
          <symbol id="fw-icon-duotone-tent-arrows-down" viewBox="0 0 576 512">
            <path d="M208.1 145.8c9.9-8.9 10.7-24 1.8-33.9s-24-10.7-33.9-1.8l-39.9 36L136 24c0-13.3-10.7-24-24-24S88 10.7 88 24l0 122.1-39.9-36c-9.9-8.9-25-8.1-33.9 1.8s-8.1 25 1.8 33.9l80 72c9.1 8.2 23 8.2 32.1 0l80-72zm352 0c9.9-8.9 10.7-24 1.8-33.9s-24-10.7-33.9-1.8l-39.9 36V24c0-13.3-10.7-24-24-24s-24 10.7-24 24V146.1l-39.9-36c-9.9-8.9-25-8.1-33.9 1.8s-8.1 25 1.8 33.9l80 72c9.1 8.2 23 8.2 32.1 0l80-72z"/>
          </symbol>
        </svg>