<svg xmlns="http://www.w3.org/2000/svg">
          <symbol id="fw-icon-duotone-medal" viewBox="0 0 512 512">
            <path d="M256 512a176 176 0 1 0 0-352 176 176 0 1 0 0 352zm30.8-225.5c1.4 2.8 4 4.7 7 5.1l50.1 7.3c7.7 1.1 10.7 10.5 5.2 16l-36.3 35.4c-2.2 2.2-3.2 5.2-2.7 8.3l8.6 49.9c1.3 7.6-6.7 13.5-13.6 9.9l-44.8-23.6c-2.7-1.4-6-1.4-8.7 0l-44.8 23.6c-6.9 3.6-14.9-2.2-13.6-9.9l8.6-49.9c.5-3-.5-6.1-2.7-8.3l-36.3-35.4c-5.6-5.4-2.5-14.8 5.2-16l50.1-7.3c3-.4 5.7-2.4 7-5.1l22.4-45.4c3.4-7 13.3-7 16.8 0l22.4 45.4z"/>
          </symbol>
        </svg>