<svg xmlns="http://www.w3.org/2000/svg">
          <symbol id="fw-icon-duotone-cassette-tape" viewBox="0 0 576 512">
            <path d="M240 208c0 11.4-2.4 22.2-6.7 32H342.7c-4.3-9.8-6.7-20.6-6.7-32s2.4-22.2 6.7-32H233.3c4.3 9.8 6.7 20.6 6.7 32zm176 80H160c-44.2 0-80-35.8-80-80s35.8-80 80-80H416c44.2 0 80 35.8 80 80s-35.8 80-80 80zM160 224a16 16 0 1 0 0-32 16 16 0 1 0 0 32zm272-16a16 16 0 1 0 -32 0 16 16 0 1 0 32 0z"/>
          </symbol>
        </svg>0 80 80H416c44.2 0 80-35.8 80-80s-35.8-80-80-80H160z"/>
          </symbol>
        </svg>