<svg xmlns="http://www.w3.org/2000/svg">
          <symbol id="fw-icon-duotone-face-smile-horns" viewBox="0 0 640 512">
            <path d="M566.1 185.1C550.5 131 517.6 84.3 473.8 51.3c17-3.3 39.7-8.6 63-15.5c29.8-8.9 59.1-20.2 78.4-33.1c5.4-3.6 12.4-3.6 17.8 0s8.1 10.1 6.8 16.4c-6.2 31-29.3 106.6-73.6 166zM103.3 35.8c23.3 7 46 12.2 63 15.5c-43.8 33-76.7 79.7-92.3 133.8C29.6 125.8 6.5 50.1 .3 19.1C-1 12.8 1.7 6.3 7.1 2.7s12.4-3.6 17.8 0c19.3 12.9 48.5 24.2 78.4 33.1zM240.4 304c-17.7 0-32-14.3-32-32c0-8.8 3.6-16.8 9.3-22.6l-30.7-10.2c-8.4-2.8-12.9-11.9-10.1-20.2s11.9-12.9 20.2-10.1l96 32c8.4 2.8 12.9 11.9 10.1 20.2s-11.9 12.9-20.2 10.1l-10.9-3.6c.2 1.5 .3 2.9 .3 4.4c0 17.7-14.3 32-32 32zm192-32c0 17.7-14.3 32-32 32s-32-14.3-32-32c0-1.6 .1-3.2 .3-4.7l-11.7 3.9c-8.4 2.8-17.4-1.7-20.2-10.1s1.7-17.4 10.1-20.2l96-32c8.4-2.8 17.4 1.7 20.2 10.1s-1.7 17.4-10.1 20.2l-30.2 10.1c5.9 5.8 9.5 13.9 9.5 22.8z"/>
          </symbol>
        </svg>