<svg xmlns="http://www.w3.org/2000/svg">
          <symbol id="fw-icon-duotone-scanner-touchscreen" viewBox="0 0 512 512">
            <path d="M152 0c-13.3 0-24 10.7-24 24V64h64V24c0-13.3-10.7-24-24-24H152zM312 0c-13.3 0-24 10.7-24 24V64h64V24c0-13.3-10.7-24-24-24H312zM224 16V64h32V16c0-8.8-7.2-16-16-16s-16 7.2-16 16zM400 0c-8.8 0-16 7.2-16 16V272c0 8.8 7.2 16 16 16s16-7.2 16-16V16c0-8.8-7.2-16-16-16zm48 24V264c0 13.3 10.7 24 24 24h16c13.3 0 24-10.7 24-24V24c0-13.3-10.7-24-24-24H472c-13.3 0-24 10.7-24 24zM88 160c-13.3 0-24 10.7-24 24V424c0 13.3 10.7 24 24 24H264c13.3 0 24-10.7 24-24V184c0-13.3-10.7-24-24-24H88z"/>
          </symbol>
        </svg>