<svg xmlns="http://www.w3.org/2000/svg">
          <symbol id="fw-icon-duotone-truck-clock" viewBox="0 0 640 512">
            <path d="M0 48C0 21.5 21.5 0 48 0H368c26.5 0 48 21.5 48 48V96h50.7c17 0 33.3 6.7 45.3 18.7L589.3 192c12 12 18.7 28.3 18.7 45.3V256v32 64c17.7 0 32 14.3 32 32s-14.3 32-32 32H576h-1.1c-7.8-54.3-54.4-96-110.9-96s-103.1 41.7-110.9 96H286.9c-7.8-54.3-54.4-96-110.9-96s-103.1 41.7-110.9 96H48c-26.5 0-48-21.5-48-48V48zM416 256H544V237.3L466.7 160H416v96zM208 288a112 112 0 1 0 0-224 112 112 0 1 0 0 224z"/>
          </symbol>
        </svg>