<svg xmlns="http://www.w3.org/2000/svg">
          <symbol id="fw-icon-duotone-unicorn" viewBox="0 0 640 512">
            <path d="M560 90.7l73.6-24.5c3.8-1.3 6.4-4.8 6.4-8.8c0-5.1-4.2-9.3-9.3-9.3H551.4c5.4 9.4 8.6 20.3 8.6 32V90.7zM48 256c0-13.4 6.6-25.2 16.7-32.5c-.4-3.5-.7-7.1-.7-10.7c0-16.1 4.5-31.2 12.3-44.1C33.2 174.5 0 211.4 0 256v56c0 13.3 10.7 24 24 24s24-10.7 24-24V256z"/>
          </symbol>
        </svg>-20.6 62.2-10 93.9l17.5 52.4c4.4 13.1 16.6 21.9 30.4 21.9h33.7c21.8 0 37.3-21.4 30.4-42.1l-20.8-62.5c-2.1-6.4-.5-13.4 4.3-18.2l12.7-12.7c13.2-13.2 20.6-31.1 20.6-49.7c0-2.3-.1-4.6-.3-6.9l84 24c4.1 1.2 8.2 2.1 12.3 2.8V480c0 17.7 14.3 32 32 32h32c17.7 0 32-14.3 32-32V315.7c19.2-19.2 31.5-45.7 32-75.7h0v-1.9zM496 64a16 16 0 1 1 0 32 16 16 0 1 1 0-32z"/>
          </symbol>
        </svg>