<svg xmlns="http://www.w3.org/2000/svg">
          <symbol id="fw-icon-duotone-meat" viewBox="0 0 512 512">
            <path d="M343.9 168.1c-15.3-15.3-20.4-34.9-11.5-43.8s28.5-3.7 43.8 11.5s20.4 34.9 11.5 43.8s-28.5 3.7-43.8-11.5zm-220 146.5l6.3-6.3c7.9 36.7 36.8 65.6 73.5 73.5l-6.3 6.3c-12.3 12.3-11.4 32.5-7.2 49.4c1.1 4.6 1.8 9.5 1.8 14.5c0 33.1-26.9 60-60 60s-60-26.9-60-60c0-6.3-5.7-12-12-12c-33.1 0-60-26.9-60-60s26.9-60 60-60c5 0 9.8 .6 14.5 1.8c16.9 4.2 37.1 5.2 49.4-7.2z"/>
          </symbol>
        </svg>