<svg xmlns="http://www.w3.org/2000/svg">
          <symbol id="fw-icon-duotone-store-slash" viewBox="0 0 640 512">
            <path d="M365.5 384H160V250.6c-11.2 3.5-23.2 5.4-35.6 5.4c-5.5 0-11-.4-16.3-1.1l-.1 0c-4.1-.6-8.1-1.3-12-2.3V384v64c0 35.3 28.7 64 64 64H480c12.9 0 24.8-3.8 34.9-10.3L365.5 384zM48.9 134.5c-6.1 40.6 19.5 82.8 63.3 88.7c4 .5 8.1 .8 12.1 .8c11 0 21.4-2 31-5.6L48.9 134.5zM480 350.9l64 50.2V384 252.6c-4 1-8 1.8-12.3 2.3l-.1 0c-5.3 .7-10.7 1.1-16.2 1.1c-12.4 0-24.3-1.9-35.4-5.3V350.9zM94.9 49.1L301.2 210.7c7-4.4 13.3-9.7 18.8-15.7c15.9 17.6 39.1 29 65.2 29c26.2 0 49.3-11.4 65.2-29c16 17.6 39.1 29 65.2 29c4.1 0 8.1-.3 12.1-.8c55.5-7.4 81.8-72.5 52.1-119.4L522.3 13.1C517.2 5 508.1 0 498.4 0H141.6c-9.7 0-18.8 5-23.9 13.1l-22.7 36z"/>
          </symbol>
        </svg>