<svg xmlns="http://www.w3.org/2000/svg">
          <symbol id="fw-icon-duotone-microchip-ai" viewBox="0 0 512 512">
            <path d="M176 24c0-13.3-10.7-24-24-24s-24 10.7-24 24V64h48V24zM280 64V24c0-13.3-10.7-24-24-24s-24 10.7-24 24V64h48zm104 0V24c0-13.3-10.7-24-24-24s-24 10.7-24 24V64h48zm64 112h40c13.3 0 24-10.7 24-24s-10.7-24-24-24H448v48zm0 104h40c13.3 0 24-10.7 24-24s-10.7-24-24-24H448v48zm0 104h40c13.3 0 24-10.7 24-24s-10.7-24-24-24H448v48zM336 448v40c0 13.3 10.7 24 24 24s24-10.7 24-24V448H336zm-104 0v40c0 13.3 10.7 24 24 24s24-10.7 24-24V448H232zm-104 0v40c0 13.3 10.7 24 24 24s24-10.7 24-24V448H128zM64 336H24c-13.3 0-24 10.7-24 24s10.7 24 24 24H64V336zm0-104H24c-13.3 0-24 10.7-24 24s10.7 24 24 24H64V232zm0-104H24c-13.3 0-24 10.7-24 24s10.7 24 24 24H64V128z"/>
          </symbol>
        </svg>