<svg xmlns="http://www.w3.org/2000/svg">
          <symbol id="fw-icon-duotone-wheat" viewBox="0 0 512 512">
            <path d="M384 88c0-48.6 39.4-88 88-88h24c8.8 0 16 7.2 16 16V40c0 48.6-39.4 88-88 88H400c-8.8 0-16-7.2-16-16V88zM181 129.1c6.2-6.2 16.4-6.2 22.6 0L215 140.5c34.1 34.1 44.9 82.6 32.5 125.9c43.3-12.4 91.8-1.5 125.9 32.5l11.3 11.3c6.2 6.2 6.2 16.4 0 22.6l-11.3 11.3c-37.5 37.5-98.3 37.5-135.8 0L215 321.5l0 0-45.3-45.3c-37.5-37.5-37.5-98.3 0-135.8L181 129.1zM282.8 27.3c6.2-6.2 16.4-6.2 22.6 0l11.3 11.3c34.1 34.1 44.9 82.6 32.5 125.9c43.3-12.4 91.8-1.5 125.9 32.5l11.3 11.3c6.2 6.2 6.2 16.4 0 22.6l-11.3 11.3c-37.5 37.5-98.3 37.5-135.8 0l-22.6-22.6 0 0-45.3-45.3c-37.5-37.5-37.5-98.3 0-135.8l11.3-11.3zM79.2 231c6.2-6.2 16.4-6.2 22.6 0l11.3 11.3c34.1 34.1 44.9 82.6 32.5 125.9c43.3-12.4 91.8-1.5 125.9 32.5L282.8 412c6.2 6.2 6.2 16.4 0 22.6l-11.3 11.3c-37.5 37.5-98.3 37.5-135.8 0l-22.6-22.6s0 0 0 0L67.9 378c-37.5-37.5-37.5-98.3 0-135.8L79.2 231z"/>
          </symbol>
        </svg>