<svg xmlns="http://www.w3.org/2000/svg">
          <symbol id="fw-icon-duotone-colon-sign" viewBox="0 0 384 512">
            <path d="M224 128c-70.7 0-128 57.3-128 128s57.3 128 128 128c28.9 0 55.4-9.5 76.8-25.6c14.1-10.6 34.2-7.8 44.8 6.4s7.8 34.2-6.4 44.8C307.1 433.7 267.2 448 224 448C118 448 32 362 32 256S118 64 224 64c43.2 0 83.1 14.3 115.2 38.4c14.1 10.6 17 30.7 6.4 44.8s-30.7 17-44.8 6.4C279.4 137.5 252.9 128 224 128z"/>
          </symbol>
        </svg>4 239 384 224 384c-8.3 0-16.5-.8-24.4-2.3zm-43.5 54l-13 52.1c-4.3 17.1-21.7 27.6-38.8 23.3s-27.6-21.7-23.3-38.8l17.7-70.8c16.8 14.5 36.2 26.2 57.4 34.2zm28 8.2c12.9 2.7 26.2 4.2 39.9 4.2c8.6 0 17.1-.6 25.4-1.7L239 487.8c-4.3 17.1-21.7 27.6-38.8 23.3s-27.6-21.7-23.3-38.8l7.1-28.4zM336 100c-17.6-12.7-37.5-22.4-58.8-28.6L289 24.2C293.2 7.1 310.6-3.3 327.8 1s27.6 21.7 23.3 38.8L336 100z"/>
          </symbol>
        </svg>