<svg xmlns="http://www.w3.org/2000/svg">
          <symbol id="fw-icon-duotone-piggy-bank" viewBox="0 0 576 512">
            <path d="M507 115.9l-13.8 55.2c15.8 14.8 28.7 32.8 37.5 52.9H544c17.7 0 32 14.3 32 32v96c0 17.7-14.3 32-32 32H512c-9.1 12.1-19.9 22.9-32 32v64c0 17.7-14.3 32-32 32H416c-17.7 0-32-14.3-32-32V448H256v32c0 17.7-14.3 32-32 32H192c-17.7 0-32-14.3-32-32V416c-34.9-26.2-58.7-66.3-63.2-112H68c-37.6 0-68-30.4-68-68s30.4-68 68-68h4c13.3 0 24 10.7 24 24s-10.7 24-24 24H68c-11 0-20 9-20 20s9 20 20 20H99.2C114 183 178.6 128 256 128H384c7.8 0 15.5 .6 23 1.6C424.6 109.1 450.8 96 480 96h11.5c10.4 0 18 9.8 15.5 19.9zM424 288a24 24 0 1 0 0-48 24 24 0 1 0 0 48z"/>
          </symbol>
        </svg>