<svg xmlns="http://www.w3.org/2000/svg">
          <symbol id="fw-icon-duotone-id-card-clip" viewBox="0 0 576 512">
            <path d="M256 0c-17.7 0-32 14.3-32 32v96H352V32c0-17.7-14.3-32-32-32H256zm96 288a64 64 0 1 0 -128 0 64 64 0 1 0 128 0zM176 437.3c0 5.9 4.8 10.7 10.7 10.7H389.3c5.9 0 10.7-4.8 10.7-10.7c0-29.5-23.9-53.3-53.3-53.3H229.3c-29.5 0-53.3 23.9-53.3 53.3z"/>
          </symbol>
        </svg>3.3-53.3-53.3H229.3c-29.5 0-53.3 23.9-53.3 53.3zM288 352a64 64 0 1 0 0-128 64 64 0 1 0 0 128z"/>
          </symbol>
        </svg>