<svg xmlns="http://www.w3.org/2000/svg">
          <symbol id="fw-icon-duotone-handshake-angle" viewBox="0 0 640 512">
            <path d="M218.2 128c-38.4 0-73.1 22.9-88.2 58.2L101 253.7 26.3 328.4c-21.9 21.9-21.9 57.3 0 79.2l78.1 78.1c21.9 21.9 57.3 21.9 79.2 0l37.7-37.7c.9 0 1.8 .1 2.7 .1H384c26.5 0 48-21.5 48-48c0-5.6-1-11-2.7-16H432c26.5 0 48-21.5 48-48c0-12.8-5-24.4-13.2-33c25.8-5 45.2-27.7 45.2-55c0-30.9-25.1-56-56-56H320v64c0 26.5-21.5 48-48 48s-48-21.5-48-48V128h-5.8z"/>
          </symbol>
        </svg>