<svg xmlns="http://www.w3.org/2000/svg">
          <symbol id="fw-icon-duotone-kidneys" viewBox="0 0 640 512">
            <path d="M196.3 233c-1.4-16.8 3.2-33.5 12.8-47.3l64 32c19 9.5 31 28.9 31 50.1V488c0 13.3-10.7 24-24 24s-24-10.7-24-24V267.8c0-3-1.7-5.8-4.4-7.2L196.3 233zm234.7-47.3c9.6 13.7 14.2 30.4 12.8 47.3l-55.3 27.7c-2.7 1.4-4.4 4.1-4.4 7.2V488c0 13.3-10.7 24-24 24s-24-10.7-24-24V267.8c0-21.2 12-40.6 31-50.1l64-32z"/>
          </symbol>
        </svg>3.5 54.7-7.1 79.1c-7.1 48-48.8 80.9-95.3 80.9c-58.4 0-104-50.4-98.2-108.5l4.1-41.2c2-20.1-4.5-40.1-17.9-55.1l-18.2-20.5C392.4 141.6 384 119.6 384 96.7c0-31.2 15.6-60.2 41.5-77.5l3.4-2.3C445.5 5.9 464.9 0 484.8 0H488c21.5 0 45.5 6.3 64.3 23.8z"/>
          </symbol>
        </svg>