<svg xmlns="http://www.w3.org/2000/svg">
          <symbol id="fw-icon-duotone-raygun" viewBox="0 0 576 512">
            <path d="M64 24.6V74.8C78.5 67.9 94.8 64 112 64h80L102.2 4.1C98.2 1.4 93.4 0 88.6 0C75 0 64 11 64 24.6zM336 56c0-13.3-10.7-24-24-24s-24 10.7-24 24V296c0 13.3 10.7 24 24 24s24-10.7 24-24V56zm80 32c0-13.3-10.7-24-24-24s-24 10.7-24 24V264c0 13.3 10.7 24 24 24s24-10.7 24-24V88z"/>
          </symbol>
        </svg>72 24a24 24 0 1 1 48 0 24 24 0 1 1 -48 0z"/>
          </symbol>
        </svg>