<svg xmlns="http://www.w3.org/2000/svg">
          <symbol id="fw-icon-duotone-face-explode" viewBox="0 0 512 512">
            <path d="M481.4 265.2L512 253.5c0 .8 0 1.7 0 2.5c0 141.4-114.6 256-256 256S0 397.4 0 256c0-.8 0-1.7 0-2.5l30.5 11.7c14.1 5.4 29.9 3.9 42.7-4.1l20.7-12.9c5.2-3.2 11.8-3.2 17 0L128.2 259c15.6 9.7 35.3 9.7 50.9 0l17.3-10.8c5.2-3.2 11.8-3.2 17 0L230.6 259c15.6 9.7 35.3 9.7 50.9 0l17.3-10.8c5.2-3.2 11.8-3.2 17 0L333 259c15.6 9.7 35.3 9.7 50.9 0l17.3-10.8c5.2-3.2 11.8-3.2 17 0l20.7 12.9c12.8 8 28.6 9.5 42.7 4.1zM176.4 368a32 32 0 1 0 0-64 32 32 0 1 0 0 64zm192-32a32 32 0 1 0 -64 0 32 32 0 1 0 64 0zm-123 48c-29.5 0-53.3 23.9-53.3 53.3c0 5.9 4.8 10.7 10.7 10.7H309.3c5.9 0 10.7-4.8 10.7-10.7c0-29.5-23.9-53.3-53.3-53.3H245.3z"/>
          </symbol>
        </svg>