<svg xmlns="http://www.w3.org/2000/svg">
          <symbol id="fw-icon-duotone-steak" viewBox="0 0 576 512">
            <path d="M236.3 448C167.4 448 64 430.5 64 369.5c0-29.8 19.8-38.3 51.7-51.9c31.1-13.3 73.6-31.5 120.6-79c28.1-28.5 41.9-62.8 54.2-93.4C308.4 100.7 323.1 64 374.2 64C443.1 64 512 151.3 512 238.5C512 343.3 370.9 448 236.3 448zM384 256a32 32 0 1 0 0-64 32 32 0 1 0 0 64z"/>
          </symbol>
        </svg>9 392.8 576 323.9 576 240c0-60.4-23.6-117.6-57.5-160C485.7 39 433 0 368 0zM236.3 448C167.4 448 64 430.5 64 369.5c0-29.8 19.8-38.3 51.7-51.9c31.1-13.3 73.6-31.5 120.6-79c28.1-28.5 41.9-62.8 54.2-93.4C308.4 100.7 323.1 64 374.2 64C443.1 64 512 151.3 512 238.5C512 343.3 370.9 448 236.3 448z"/>
          </symbol>
        </svg>