<svg xmlns="http://www.w3.org/2000/svg">
          <symbol id="fw-icon-duotone-temperature-high" viewBox="0 0 512 512">
            <path d="M416 64a32 32 0 1 1 0 64 32 32 0 1 1 0-64zm0 128A96 96 0 1 0 416 0a96 96 0 1 0 0 192zM144 96c-8.8 0-16 7.2-16 16V322.7c-18.6 6.6-32 24.4-32 45.3c0 26.5 21.5 48 48 48s48-21.5 48-48c0-20.9-13.4-38.7-32-45.3V112c0-8.8-7.2-16-16-16z"/>
          </symbol>
        </svg>3 .2 .6c.2 .6 .8 1.6 1.7 2.8c18.9 24.4 30.1 55 30.1 88.1c0 79.5-64.5 144-144 144S0 447.5 0 368c0-33.2 11.2-63.8 30.1-88.1c.9-1.2 1.5-2.2 1.7-2.8c.1-.3 .2-.5 .2-.6V112z"/>
          </symbol>
        </svg>