<svg xmlns="http://www.w3.org/2000/svg">
          <symbol id="fw-icon-duotone-screwdriver-wrench" viewBox="0 0 512 512">
            <path d="M47 7c8.5-8.5 22-9.4 31.6-2.1l104 80c5.9 4.5 9.4 11.6 9.4 19v54.1l109 109c29-14.7 65.4-10 89.6 14.3l112 112c12.5 12.5 12.5 32.8 0 45.3l-64 64c-12.5 12.5-32.8 12.5-45.3 0l-112-112c-24.2-24.2-29-60.6-14.3-89.6l-109-109H104c-7.5 0-14.5-3.5-19-9.4L5 78.6C-2.4 69.1-1.5 55.6 7 47L47 7z"/>
          </symbol>
        </svg>l63.9-63.9c8.1-8.1 5.2-21.8-6-24.2C388.7 1.1 378.5 0 368 0C288.5 0 224 64.5 224 144c0 .3 0 .5 0 .8l85.3 85.3c36-9.1 75.8 .5 104 28.7L429 274.5zM80 408a24 24 0 1 1 0 48 24 24 0 1 1 0-48z"/>
          </symbol>
        </svg>