<svg xmlns="http://www.w3.org/2000/svg">
          <symbol id="fw-icon-duotone-star-of-david" viewBox="0 0 512 512">
            <path d="M283 112L256 68 140.6 256l-32.9-53.5 111.7-182C227.2 7.7 241.1 0 256 0s28.8 7.7 36.6 20.5L348.7 112H283zm100.1 56L490.5 343c3.6 5.9 5.5 12.7 5.5 19.6c0 20.7-16.8 37.4-37.4 37.4H348.7l34.4-56h42.3l-108-176h65.7zM283 400H53.4C32.8 400 16 383.2 16 362.6c0-6.9 1.9-13.7 5.5-19.6l53.4-87 32.9 53.5L86.6 344H317.4L283 400z"/>
          </symbol>
        </svg>    </svg>