<svg xmlns="http://www.w3.org/2000/svg">
          <symbol id="fw-icon-duotone-pencil" viewBox="0 0 512 512">
            <path d="M432.7 208.7L302.7 78.7 58.6 322.9c-10.4 10.4-18 23.3-22.2 37.4L1 480.7c-2.5 8.4-.2 17.5 6.1 23.7s15.3 8.5 23.7 6.1l120.3-35.4c14.1-4.2 27-11.8 37.4-22.2L432.7 208.7zM89.3 360.5l22.7-9.1v32c0 8.8 7.2 16 16 16h32l-9.1 22.7c-4 3.1-8.5 5.4-13.3 6.9L59.4 452l23-78.1c1.4-4.9 3.8-9.4 6.9-13.3zm226-196.4c6.2 6.2 6.2 16.4 0 22.6l-144 144c-6.2 6.2-16.4 6.2-22.6 0s-6.2-16.4 0-22.6l144-144c6.2-6.2 16.4-6.2 22.6 0z"/>
          </symbol>
        </svg>