<svg xmlns="http://www.w3.org/2000/svg">
          <symbol id="fw-icon-duotone-house-chimney-heart" viewBox="0 0 576 512">
            <path d="M266.9 7.9C279-2.6 297-2.6 309.1 7.9L416 101.5V64c0-17.7 14.3-32 32-32h32c17.7 0 32 14.3 32 32V185.5l53.1 46.4c13.3 11.6 14.6 31.9 3 45.2s-31.9 14.6-45.2 3L288 74.5 53.1 280.1c-13.3 11.6-33.5 10.3-45.2-3s-10.3-33.5 3-45.2l256-224zM237.3 256c16.2 0 31.8 6.5 43.3 17.9l7.4 7.4 7.4-7.4c11.5-11.5 27.1-17.9 43.3-17.9c33.8 0 61.3 27.4 61.3 61.3c0 16.2-6.5 31.8-17.9 43.3l-82.7 82.7c-6.2 6.2-16.4 6.2-22.6 0l-82.7-82.7c-11.5-11.5-17.9-27.1-17.9-43.3c0-33.8 27.4-61.3 61.3-61.3z"/>
          </symbol>
        </svg>