<svg xmlns="http://www.w3.org/2000/svg">
          <symbol id="fw-icon-duotone-face-head-bandage" viewBox="0 0 576 512">
            <path d="M476.2 82.4c-16.4-17.8-35.3-33.2-56.1-45.7c-41.3 5.1-81.2 14.4-119.5 27.4c60 .8 118.7 7.1 175.6 18.4zM506 121.8c-32.7-7.9-66.1-14-100.1-18.3C367.3 98.5 328 96 288 96c-23.1 0-46.1 .8-68.8 2.5c-51 3.7-100.9 11.6-149.3 23.2c-14.1 22.8-24.6 47.9-31 74.7c19.1-5.7 38.5-10.8 58.1-15.3c45.4-10.2 92.2-16.9 140-19.7c16.9-1 33.8-1.5 51-1.5c86.6 0 170.2 12.7 249 36.4c-6.4-26.8-17-51.9-31-74.7zM177 199.3c-43.4 5.8-85.7 14.9-126.6 27.1c-6.2 6.7-12.3 13.5-18.2 20.5c-.1 3-.2 6.1-.2 9.1c0 28 4.5 54.9 12.8 80.1c35.7-52.9 80.5-99.3 132.2-136.7zm41.6 10.3c-14.6 9.4-28.6 19.6-42.1 30.4c0 17.7 14.3 32 32 32s32-14.3 32-32c0-14.1-9.2-26.1-21.9-30.4zM368.4 272a32 32 0 1 0 0-64 32 32 0 1 0 0 64z"/>
          </symbol>
        </svg>>
        </svg>