<svg xmlns="http://www.w3.org/2000/svg">
          <symbol id="fw-icon-duotone-cloud-moon" viewBox="0 0 640 512">
            <path d="M304 192.2C304 86.1 389.8 0 495.8 0c5.5 0 10.9 .2 16.3 .7c7 .6 12.8 5.7 14.3 12.5s-1.6 13.9-7.7 17.3c-44.4 25.2-74.4 73-74.4 127.8c0 81 65.5 146.6 146.2 146.6c8.6 0 17-.7 25.1-2.1c6.9-1.2 13.8 2.2 17 8.5s1.9 13.8-3.1 18.7c-34.5 33.6-81.7 54.4-133.6 54.4c-3.5 0-7-.1-10.5-.3c-13.6-28.6-39-50.6-69.9-59.6c-5.7-55.6-52-99.1-108.8-100.4c-1.7-10.4-2.6-21-2.6-31.8z"/>
          </symbol>
        </svg>