<svg xmlns="http://www.w3.org/2000/svg">
          <symbol id="fw-icon-duotone-flux-capacitor" viewBox="0 0 448 512">
            <path d="M171.3 180.7c3-6.3 4.7-13.3 4.7-20.7c0-26.5-21.5-48-48-48s-48 21.5-48 48s21.5 48 48 48c7.4 0 14.4-1.7 20.7-4.7L208 262.6v44.1c-18.6 6.6-32 24.4-32 45.3c0 26.5 21.5 48 48 48s48-21.5 48-48c0-20.9-13.4-38.7-32-45.3V262.6l59.3-59.3c6.3 3 13.3 4.7 20.7 4.7c26.5 0 48-21.5 48-48s-21.5-48-48-48s-48 21.5-48 48c0 7.4 1.7 14.4 4.7 20.7L224 233.4l-52.7-52.7z"/>
          </symbol>
        </svg>-44.2-35.8-80-80-80s-80 35.8-80 80s35.8 80 80 80c16.3 0 31.5-4.9 44.1-13.3z"/>
          </symbol>
        </svg>