<svg xmlns="http://www.w3.org/2000/svg">
          <symbol id="fw-icon-duotone-trash-can-arrow-up" viewBox="0 0 448 512">
            <path d="M163.8 0c-12.1 0-23.2 6.8-28.6 17.7L128 32H32C14.3 32 0 46.3 0 64S14.3 96 32 96H416c17.7 0 32-14.3 32-32s-14.3-32-32-32H320l-7.2-14.3C307.4 6.8 296.3 0 284.2 0H163.8zM248 241.9l39 39c9.4 9.4 24.6 9.4 33.9 0s9.4-24.6 0-33.9l-80-80c-4.5-4.5-10.6-7-17-7s-12.5 2.5-17 7l-80 80c-9.4 9.4-9.4 24.6 0 33.9s24.6 9.4 33.9 0l39-39V376c0 13.3 10.7 24 24 24s24-10.7 24-24V241.9z"/>
          </symbol>
        </svg>