<svg xmlns="http://www.w3.org/2000/svg">
          <symbol id="fw-icon-duotone-hands-holding-child" viewBox="0 0 640 512">
            <path d="M280 40a40 40 0 1 1 80 0 40 40 0 1 1 -80 0zM384.5 181l-19.8-16.7L375.8 253c1.6 13.2-7.7 25.1-20.8 26.8s-25.1-7.7-26.8-20.8l-4.4-35h-7.6l-4.4 35c-1.6 13.2-13.6 22.5-26.8 20.8s-22.5-13.6-20.8-26.8l11.1-88.8L255.5 181c-10.1 8.6-25.3 7.3-33.8-2.8s-7.3-25.3 2.8-33.8L266 109.2c10.1-8.5 22.9-13.2 36.2-13.2h35.6c13.2 0 26 4.7 36.2 13.2l41.5 35.1c10.1 8.6 11.4 23.7 2.8 33.8s-23.7 11.4-33.8 2.8z"/>
          </symbol>
        </svg>.3-21.3 9.6-31 3.1c-12.9-8.6-14.7-26.9-3.7-37.8l15.2-15.2 32-32c12.5-12.5 12.5-32.8 0-45.3s-32.8-12.5-45.3 0l-32 32-15.2 15.2 0 0-25.3 25.3c-21 21-32.8 49.5-32.8 79.2V464c0 26.5 21.5 48 48 48h66.7c17 0 33.3-6.7 45.3-18.7l99.9-99.9c18-18 28.1-42.4 28.1-67.9V224 160 104c0-22.1-17.9-40-40-40s-40 17.9-40 40z"/>
          </symbol>
        </svg>