<svg xmlns="http://www.w3.org/2000/svg">
          <symbol id="fw-icon-duotone-scarf" viewBox="0 0 512 512">
            <path d="M396.1 232.2C409 213.7 416 191.6 416 168.8c0-19-4.9-37.7-14.2-54.2L360.3 40.8C346.1 15.6 319.5 0 290.6 0H221.4c-28.9 0-55.6 15.6-69.7 40.8l-41.5 73.8C100.9 131.1 96 149.8 96 168.8c0 29.3 11.7 57.5 32.4 78.2L276.7 395.3 288 406.6l11.3-11.3 48-48 48-48L406.6 288l-11.3-11.3L384 265.4l-9.4-9.4L256 137.4 218.2 99.6C228.9 97.5 241.7 96 256 96s27.1 1.5 37.8 3.6l-15.1 15.1L396.1 232.2z"/>
          </symbol>
        </svg> 406.6 288 507.3 388.7c6.2 6.2 6.2 16.4 0 22.6s-16.4 6.2-22.6 0z"/>
          </symbol>
        </svg>