<svg xmlns="http://www.w3.org/2000/svg">
          <symbol id="fw-icon-duotone-arrows-rotate" viewBox="0 0 512 512">
            <path d="M105.1 202.6c7.7-21.8 20.2-42.3 37.8-59.8c62.5-62.5 163.8-62.5 226.3 0L386.3 160H336c-17.7 0-32 14.3-32 32s14.3 32 32 32H463.5c0 0 0 0 0 0h.4c17.7 0 32-14.3 32-32V64c0-17.7-14.3-32-32-32s-32 14.3-32 32v51.2L414.4 97.6c-87.5-87.5-229.3-87.5-316.8 0C73.2 122 55.6 150.7 44.8 181.4c-5.9 16.7 2.9 34.9 19.5 40.8s34.9-2.9 40.8-19.5z"/>
          </symbol>
        </svg>