<svg xmlns="http://www.w3.org/2000/svg">
          <symbol id="fw-icon-duotone-deer-rudolph" viewBox="0 0 576 512">
            <path d="M320 96l-50.4 12.6c-8 2-13.6 9.2-13.6 17.4c0 9.9 8 18 18 18h38l-9.6 32H196.3c-.8 0-1.7 0-2.5 0c-.6 0-1.2 0-1.7 0H128 113.9h-7.9C51.7 176 6.6 217.8 2.4 272L.1 302.2c-1 13.2 8.9 24.8 22.1 25.8c13 1 24.4-8.6 25.7-21.5c2.4 3.3 5.2 6.5 8.1 9.5c9 9 9 23.5 2.4 34.4c-17.4 28.6-21.5 63.9-10 96.3l15.5 44C68.4 503.4 80.5 512 94.1 512H128c22.1 0 37.5-21.8 30.2-42.6l-19.3-54.7c-2.2-6.2-.6-13 4-17.7l10.6-10.6c12.1-12.1 19.8-27.9 21.9-44.8c21 16.5 47.5 26.4 76.3 26.4H288V480c0 17.7 14.3 32 32 32h32c17.7 0 32-14.3 32-32V368 304l26.7-80H416h50.7c25 0 45.3-20.3 45.3-45.3c0-1.2 0-2.4-.1-3.6C493.7 171.4 480 155.3 480 136c0-2.5 .2-5 .7-7.3L443.4 91.4C425.9 73.9 402.1 64 377.3 64c-5.7 0-11.3 .9-16.6 2.5c4.4 2.8 7.3 7.8 7.3 13.5c0 8.8-7.2 16-16 16l-32 0zm80 32a16 16 0 1 1 0 32 16 16 0 1 1 0-32z"/>
          </symbol>
        </svg>