<svg xmlns="http://www.w3.org/2000/svg">
          <symbol id="fw-icon-duotone-shield-cross" viewBox="0 0 512 512">
            <path d="M288 10.8L269.4 2.9C265.2 1 260.7 0 256 0s-9.2 1-13.4 2.9L224 10.8V128c0 17.7-14.3 32-32 32H16.6c1.1 19.4 3.6 41.1 8.1 64H192c17.7 0 32 14.3 32 32V500.4c1.9 .9 3.7 1.8 5.6 2.7c16.7 8 36.1 8 52.8 0c1.9-.9 3.8-1.8 5.6-2.7V256c0-17.7 14.3-32 32-32H487.3c4.5-22.9 7.1-44.6 8.1-64H320c-17.7 0-32-14.3-32-32V10.8z"/>
          </symbol>
        </svg>          </symbol>
        </svg>