<svg xmlns="http://www.w3.org/2000/svg">
          <symbol id="fw-icon-duotone-bottle-water" viewBox="0 0 320 512">
            <path d="M120 0C106.7 0 96 10.7 96 24V96H224V24c0-13.3-10.7-24-24-24H120zM96 240c0 8.8 7.2 16 16 16h96c8.8 0 16-7.2 16-16s-7.2-16-16-16H112c-8.8 0-16 7.2-16 16zm0 128c0 8.8 7.2 16 16 16h96c8.8 0 16-7.2 16-16s-7.2-16-16-16H112c-8.8 0-16 7.2-16 16z"/>
          </symbol>
        </svg>8.6 21.5 23.3 21.5 40s-8.5 31.4-21.5 40c12.9 8.6 21.5 23.3 21.5 40c0 26.5-21.5 48-48 48H80c-26.5 0-48-21.5-48-48c0-16.7 8.5-31.4 21.5-40C40.5 415.4 32 400.7 32 384s8.5-31.4 21.5-40C40.5 335.4 32 320.7 32 304s8.5-31.4 21.5-40C40.5 255.4 32 240.7 32 224c0-15.6 7.4-29.4 18.9-38.2C39.5 178.7 32 166.1 32 151.7zM96 240c0 8.8 7.2 16 16 16h96c8.8 0 16-7.2 16-16s-7.2-16-16-16H112c-8.8 0-16 7.2-16 16zm16 112c-8.8 0-16 7.2-16 16s7.2 16 16 16h96c8.8 0 16-7.2 16-16s-7.2-16-16-16H112z"/>
          </symbol>
        </svg>