<svg xmlns="http://www.w3.org/2000/svg">
          <symbol id="fw-icon-duotone-socks" viewBox="0 0 512 512">
            <path d="M320 128H512V96H320v32zm0 32v80c0 20.1-9.5 39.1-25.6 51.2l-64 48C206.2 357.3 192 385.8 192 416c0 53 43 96 96 96c20.8 0 41-6.7 57.6-19.2l115.2-86.4C493 382.2 512 344.3 512 304V160H320zM512 64V48c0-26.5-21.5-48-48-48H368c-26.5 0-48 21.5-48 48V64H512zM128 64V96H288V64H128zm160 64H128v32H288V128z"/>
          </symbol>
        </svg> 64V96H512V64H320zm192 64H320v32H512V128z"/>
          </symbol>
        </svg>