<svg xmlns="http://www.w3.org/2000/svg">
          <symbol id="fw-icon-duotone-podium-star" viewBox="0 0 448 512">
            <path d="M182.4 72H168c-22.1 0-40 17.9-40 40v32H424c13.3 0 24 10.7 24 24s-10.7 24-24 24H24c-13.3 0-24-10.7-24-24s10.7-24 24-24H80V112c0-48.6 39.4-88 88-88h14.4C190.7 9.7 206.2 0 224 0h64c26.5 0 48 21.5 48 48s-21.5 48-48 48H224c-17.8 0-33.3-9.7-41.6-24z"/>
          </symbol>
        </svg> 3.5-13.1-1.9-11.8-8.9l9.4-49.1c.5-2.8-.4-5.8-2.4-7.7l-35.4-34c-5-4.8-2.3-13.5 4.5-14.3l47.9-5.9c2.8-.3 5.2-2.1 6.3-4.8l20.2-45.4c2.9-6.4 11.7-6.4 14.5 0z"/>
          </symbol>
        </svg>