<svg xmlns="http://www.w3.org/2000/svg">
          <symbol id="fw-icon-duotone-bed-pulse" viewBox="0 0 640 512">
            <path d="M483.2 9.6C478.1 2.9 469.9-.7 461.6 .1s-15.7 6-19.3 13.7l-45.9 97.5L372 74.7C367.5 68 360 64 352 64H216c-13.3 0-24 10.7-24 24s10.7 24 24 24H339.2L380 173.3c4.8 7.2 13.1 11.3 21.7 10.6s16.3-5.9 19.9-13.7l47-99.9 24.1 32.1c4.5 6 11.6 9.6 19.2 9.6H616c13.3 0 24-10.7 24-24s-10.7-24-24-24H524L483.2 9.6zM64 96c0-17.7-14.3-32-32-32S0 78.3 0 96V480c0 17.7 14.3 32 32 32s32-14.3 32-32V448H576v32c0 17.7 14.3 32 32 32s32-14.3 32-32V384 352H608 64V96z"/>
          </symbol>
        </svg>