<svg xmlns="http://www.w3.org/2000/svg">
          <symbol id="fw-icon-duotone-file-invoice" viewBox="0 0 384 512">
            <path d="M384 160L224 0V128c0 17.7 14.3 32 32 32H384zM96 224c-17.7 0-32 14.3-32 32v64c0 17.7 14.3 32 32 32H288c17.7 0 32-14.3 32-32V256c0-17.7-14.3-32-32-32H96zm0 32H288v64H96V256zM240 416c-8.8 0-16 7.2-16 16s7.2 16 16 16h64c8.8 0 16-7.2 16-16s-7.2-16-16-16H240z"/>
          </symbol>
        </svg> 14.3-32 32-32H288c17.7 0 32 14.3 32 32v64c0 17.7-14.3 32-32 32H96c-17.7 0-32-14.3-32-32V256zM224 432c0-8.8 7.2-16 16-16h64c8.8 0 16 7.2 16 16s-7.2 16-16 16H240c-8.8 0-16-7.2-16-16z"/>
          </symbol>
        </svg>