<svg xmlns="http://www.w3.org/2000/svg">
          <symbol id="fw-icon-duotone-temperature-arrow-down" viewBox="0 0 576 512">
            <path d="M480 352h32c12.9 0 24.6 7.8 29.6 19.8s2.2 25.7-6.9 34.9l-64 64c-12.5 12.5-32.8 12.5-45.3 0l-64-64c-9.2-9.2-11.9-22.9-6.9-34.9s16.6-19.8 29.6-19.8h32V64c0-17.7 14.3-32 32-32s32 14.3 32 32V352zM224 368c0 26.5-21.5 48-48 48s-48-21.5-48-48c0-20.9 13.4-38.7 32-45.3V272c0-8.8 7.2-16 16-16s16 7.2 16 16v50.7c18.6 6.6 32 24.4 32 45.3z"/>
          </symbol>
        </svg>0-33.2 11.2-63.8 30.1-88.1c.9-1.2 1.5-2.2 1.7-2.8c.1-.3 .2-.5 .2-.6V112z"/>
          </symbol>
        </svg>