<svg xmlns="http://www.w3.org/2000/svg">
          <symbol id="fw-icon-duotone-shower" viewBox="0 0 512 512">
            <path d="M384 224a32 32 0 1 0 0-64 32 32 0 1 0 0 64zm-64 64a32 32 0 1 0 0-64 32 32 0 1 0 0 64zm-32 32a32 32 0 1 0 -64 0 32 32 0 1 0 64 0zm32 96a32 32 0 1 0 -64 0 32 32 0 1 0 64 0zm64-64a32 32 0 1 0 -64 0 32 32 0 1 0 64 0zm64-64a32 32 0 1 0 -64 0 32 32 0 1 0 64 0zm32-32a32 32 0 1 0 0-64 32 32 0 1 0 0 64z"/>
          </symbol>
        </svg> 99.9 96z"/>
          </symbol>
        </svg>