<svg xmlns="http://www.w3.org/2000/svg">
          <symbol id="fw-icon-duotone-face-grin-squint-tears" viewBox="0 0 512 512">
            <path d="M382.2 33.2c-1.5 4.8-2.9 9.6-4.1 14.3c-4.8 18.9-8 38.5-9.7 50.3c-4 26.8 18.9 49.7 45.7 45.8c11.9-1.6 31.5-4.8 50.4-9.6c4.7-1.2 9.5-2.5 14.3-4.1C534.2 227.5 520.2 353.8 437 437c-83.2 83.2-209.5 97.2-307.2 41.8c1.5-4.8 2.8-9.6 4-14.3c4.8-18.9 8-38.5 9.7-50.3c4-26.8-18.9-49.7-45.7-45.8c-11.9 1.6-31.5 4.8-50.4 9.7c-4.7 1.2-9.5 2.5-14.3 4.1C-22.2 284.5-8.2 158.2 75 75C158.2-8.3 284.5-22.2 382.2 33.2zm34.3 169.1c-4.8-11.9-20.9-10.9-26.9 .4c-19.4 36.7-46.3 73.2-79.8 106.7s-70 60.3-106.7 79.8c-11.3 6-12.3 22.1-.4 26.9c59.4 24.1 129.9 12.2 177.9-35.8s59.9-118.5 35.8-177.9zM87.1 285.1c2 2 4.6 3.2 7.3 3.4l56.1 5.1 5.1 56.1c.3 2.8 1.5 5.4 3.4 7.3c6.3 6.3 17.2 3.6 19.8-4.9l29.7-97.4c3.5-11.6-7.3-22.5-19-19L92 265.3c-8.6 2.6-11.3 13.4-4.9 19.8zM265.3 92l-29.7 97.4c-3.5 11.6 7.3 22.5 19 19l97.4-29.7c8.6-2.6 11.3-13.4 4.9-19.8c-2-2-4.6-3.2-7.3-3.4l-56.1-5.1-5.1-56.1c-.3-2.8-1.5-5.4-3.4-7.3c-6.3-6.3-17.2-3.6-19.8 4.9z"/>
          </symbol>
        </svg>