<svg xmlns="http://www.w3.org/2000/svg">
          <symbol id="fw-icon-duotone-hammer-crash" viewBox="0 0 640 512">
            <path d="M302.2 318.4l-18.3 60.1c-1.9 6.3 .2 13.1 5.3 17.2s12.2 4.6 17.9 1.4l91.4-52.2 59.7 86.8c3.7 5.4 10.3 8 16.7 6.5s11.2-6.7 12.2-13.1l16.2-104.1 105.1 7.4c6.5 .5 12.7-3.1 15.5-9s1.8-12.9-2.6-17.8L550.1 224l71.3-77.5c4.4-4.8 5.5-11.9 2.6-17.8s-9-9.5-15.5-9l-105.1 7.4L487.3 23c-1-6.5-5.9-11.7-12.2-13.1s-13 1.1-16.7 6.5L405.6 93c12 18.4 14.2 42.5 3.7 63.6l-64 128c-8.9 17.8-25 29.7-43.1 33.8z"/>
          </symbol>
        </svg>