<svg xmlns="http://www.w3.org/2000/svg">
          <symbol id="fw-icon-duotone-mountain-city" viewBox="0 0 640 512">
            <path d="M336 0c-26.5 0-48 21.5-48 48v92.1l71.4 118.4c2.5-1.6 5.4-2.5 8.6-2.5h32c8.8 0 16 7.2 16 16v32c0 8.8-7.2 16-16 16h-3.5l73.8 122.4c12.4 20.6 12.9 46.3 1.2 67.3c-.4 .8-.9 1.6-1.4 2.3H592c26.5 0 48-21.5 48-48V240c0-26.5-21.5-48-48-48H568V120c0-13.3-10.7-24-24-24s-24 10.7-24 24v72H480V48c0-26.5-21.5-48-48-48H336zm32 64h32c8.8 0 16 7.2 16 16v32c0 8.8-7.2 16-16 16H368c-8.8 0-16-7.2-16-16V80c0-8.8 7.2-16 16-16zM352 176c0-8.8 7.2-16 16-16h32c8.8 0 16 7.2 16 16v32c0 8.8-7.2 16-16 16H368c-8.8 0-16-7.2-16-16V176zm160 96c0-8.8 7.2-16 16-16h32c8.8 0 16 7.2 16 16v32c0 8.8-7.2 16-16 16H528c-8.8 0-16-7.2-16-16V272zm16 80h32c8.8 0 16 7.2 16 16v32c0 8.8-7.2 16-16 16H528c-8.8 0-16-7.2-16-16V368c0-8.8 7.2-16 16-16z"/>
          </symbol>
        </svg>