<svg xmlns="http://www.w3.org/2000/svg">
          <symbol id="fw-icon-duotone-person-harassing" viewBox="0 0 576 512">
            <path d="M432 288a48 48 0 1 0 0-96 48 48 0 1 0 0 96zm88 0c-30.9 0-56 25.1-56 56v58.7l-41.4-41.4c-7.3-7.3-17.6-10.6-27.8-9s-18.9 8.1-23.5 17.3l-48 96c-7.9 15.8-1.5 35 14.3 42.9s35 1.5 42.9-14.3L408.8 438l54.7 54.7c12.4 12.4 29.1 19.3 46.6 19.3c36.4 0 65.9-29.5 65.9-65.9V344c0-30.9-25.1-56-56-56z"/>
          </symbol>
        </svg>14.3-32-32V256.9zM288 48c0-8.8 7.2-16 16-16h56c8.8 0 16 7.2 16 16s-7.2 16-16 16H304c-8.8 0-16-7.2-16-16zm-.8 49.7l48 24c7.9 4 11.1 13.6 7.2 21.5s-13.6 11.1-21.5 7.2l-48-24c-7.9-4-11.1-13.6-7.2-21.5s13.6-11.1 21.5-7.2z"/>
          </symbol>
        </svg>