<svg xmlns="http://www.w3.org/2000/svg">
          <symbol id="fw-icon-duotone-mill-sign" viewBox="0 0 384 512">
            <path d="M112 160c-26.5 0-48 21.5-48 48V416c0 17.7-14.3 32-32 32s-32-14.3-32-32V208 128c0-17.7 14.3-32 32-32c10.9 0 20.5 5.4 26.3 13.7C74.2 101 92.5 96 112 96c31.3 0 59.7 12.9 80 33.6C212.3 108.9 240.7 96 272 96c61.9 0 112 50.1 112 112V416c0 17.7-14.3 32-32 32s-32-14.3-32-32V208c0-26.5-21.5-48-48-48s-48 21.5-48 48V416c0 17.7-14.3 32-32 32s-32-14.3-32-32V208c0-26.5-21.5-48-48-48z"/>
          </symbol>
        </svg>