<svg xmlns="http://www.w3.org/2000/svg">
          <symbol id="fw-icon-duotone-scale-balanced" viewBox="0 0 640 512">
            <path d="M126.8 195.8L199.3 320H54.4l72.4-124.2zM.9 337.1C11.7 382 64 416 126.8 416s115.2-34 126-78.9c2.6-11-1-22.3-6.7-32.1L150.9 141.8c-5-8.6-14.2-13.8-24.1-13.8s-19.1 5.3-24.1 13.8L7.6 305.1c-5.7 9.8-9.3 21.1-6.7 32.1zM512 195.8L584.4 320H439.6L512 195.8zM386 337.1C396.8 382 449.1 416 512 416s115.2-34 126-78.9c2.6-11-1-22.3-6.7-32.1L536.1 141.8c-5-8.6-14.2-13.8-24.1-13.8s-19.1 5.3-24.1 13.8L392.7 305.1c-5.7 9.8-9.3 21.1-6.7 32.1z"/>
          </symbol>
        </svg>