<svg xmlns="http://www.w3.org/2000/svg">
          <symbol id="fw-icon-duotone-cards" viewBox="0 0 640 512">
            <path d="M27.8 118.8C1.2 134.2-7.9 168.2 7.5 194.9l167 289.3c15.4 26.6 49.4 35.8 76.1 20.4L443.4 393.2c26.6-15.4 35.8-49.4 20.4-76.1L296.8 27.8C281.4 1.2 247.3-7.9 220.7 7.5L27.8 118.8zm143.6 55.5c3-11.1 14.4-17.7 25.6-14.8l26.9 7.2 76.1 20.4c26 7 41.4 33.7 34.4 59.7s-33.7 41.4-59.7 34.4l-8.8-2.4c-.4-.1-.8-.2-1.1-.3l17.7 30.7 12.1-7c6.7-3.8 15.2-1.6 19 5.1s1.6 15.2-5.1 19l-48.2 27.8c-6.7 3.8-15.2 1.6-19-5.1s-1.6-15.2 5.1-19l12.1-7-17.7-30.7c-.1 .4-.2 .7-.3 1.1l-2.4 8.8c-7 26-33.7 41.4-59.7 34.4s-41.4-33.7-34.4-59.7l20.4-76.1 7.2-26.9z"/>
          </symbol>
        </svg>