<svg xmlns="http://www.w3.org/2000/svg">
          <symbol id="fw-icon-duotone-head-side-medical" viewBox="0 0 512 512">
            <path d="M208 96c-8.8 0-16 7.2-16 16v48l-48 0c-8.8 0-16 7.2-16 16v32c0 8.8 7.2 16 16 16h48v48c0 8.8 7.2 16 16 16h32c8.8 0 16-7.2 16-16V224h48c8.8 0 16-7.2 16-16V176c0-8.8-7.2-16-16-16l-48 0V112c0-8.8-7.2-16-16-16H208z"/>
          </symbol>
        </svg>-32.5-17.1-45.8C16.6 322.4 0 274.1 0 224.2zM192 112v48H144c-8.8 0-16 7.2-16 16v32c0 8.8 7.2 16 16 16h48v48c0 8.8 7.2 16 16 16h32c8.8 0 16-7.2 16-16V224h48c8.8 0 16-7.2 16-16V176c0-8.8-7.2-16-16-16H256V112c0-8.8-7.2-16-16-16H208c-8.8 0-16 7.2-16 16z"/>
          </symbol>
        </svg>