<svg xmlns="http://www.w3.org/2000/svg">
          <symbol id="fw-icon-duotone-person-pinball" viewBox="0 0 640 512">
            <path d="M544 0c-17.7 0-32 14.3-32 32V74.8c0 6.9 1.1 13.7 3.3 20.2l32.8 98.5-295 49.2c1.9 4 2.9 8.6 2.9 13.3c0 17.7-14.3 32-32 32H192V480c0 17.7 14.3 32 32 32s32-14.3 32-32V384H576v96c0 17.7 14.3 32 32 32s32-14.3 32-32V224v-8V178.2 32c0-17.7-14.3-32-32-32H544zM256 312a24 24 0 1 1 48 0 24 24 0 1 1 -48 0z"/>
          </symbol>
        </svg>v0c0 17.7-14.3 32-32 32s-32-14.3-32-32z"/>
          </symbol>
        </svg>