<svg xmlns="http://www.w3.org/2000/svg">
          <symbol id="fw-icon-duotone-snowman-head" viewBox="0 0 448 512">
            <path d="M64 64C64 28.7 92.7 0 128 0H320c35.3 0 64 28.7 64 64v96H64V64zm88 224a24 24 0 1 1 0 48 24 24 0 1 1 0-48zm144 0a24 24 0 1 1 0 48 24 24 0 1 1 0-48zM32 192H416c17.7 0 32 14.3 32 32s-14.3 32-32 32H32c-17.7 0-32-14.3-32-32s14.3-32 32-32z"/>
          </symbol>
        </svg>10.2-3.5 14.7l-23.8 46.3c-.9 1.7-2.7 2.8-4.7 2.8s-3.8-1.1-4.7-2.8l-23.8-46.3z"/>
          </symbol>
        </svg>