<svg xmlns="http://www.w3.org/2000/svg">
          <symbol id="fw-icon-duotone-comment-question" viewBox="0 0 512 512">
            <path d="M222.6 112c-23.7 0-44.8 14.9-52.8 37.3l-.4 1.2c-4.4 12.5 2.1 26.2 14.6 30.6s26.2-2.1 30.6-14.6l.4-1.2c1.1-3.2 4.2-5.3 7.5-5.3h58.3c8.4 0 15.1 6.8 15.1 15.1c0 5.4-2.9 10.4-7.6 13.1l-44.3 25.4c-7.5 4.3-12.1 12.2-12.1 20.8V248c0 13.3 10.7 24 24 24c13.1 0 23.8-10.5 24-23.6l32.3-18.5c19.6-11.3 31.7-32.2 31.7-54.8c0-34.9-28.3-63.1-63.1-63.1H222.6zM256 368a32 32 0 1 0 0-64 32 32 0 1 0 0 64z"/>
          </symbol>
        </svg>.1c0 22.6-12.1 43.5-31.7 54.8L280 248.4c-.2 13-10.9 23.6-24 23.6c-13.3 0-24-10.7-24-24V234.5c0-8.6 4.6-16.5 12.1-20.8l44.3-25.4c4.7-2.7 7.6-7.7 7.6-13.1c0-8.4-6.8-15.1-15.1-15.1H222.6c-3.4 0-6.4 2.1-7.5 5.3l-.4 1.2c-4.4 12.5-18.2 19-30.6 14.6s-19-18.2-14.6-30.6l.4-1.2zM224 336a32 32 0 1 1 64 0 32 32 0 1 1 -64 0z"/>
          </symbol>
        </svg>