<svg xmlns="http://www.w3.org/2000/svg">
          <symbol id="fw-icon-duotone-truck-flatbed" viewBox="0 0 640 512">
            <path d="M640 384c0 17.7-14.3 32-32 32H574.9c-7.8-54.3-54.4-96-110.9-96s-103.1 41.7-110.9 96H352 286.9c-3.6-24.9-15.3-47.2-32.5-64H352V128c0-17.7 14.3-32 32-32h16 16 50.7c17 0 33.3 6.7 45.3 18.7L589.3 192c12 12 18.7 28.3 18.7 45.3V256v32 64c17.7 0 32 14.3 32 32zM97.6 352c-17.1 16.8-28.9 39.1-32.5 64H32c-17.7 0-32-14.3-32-32s14.3-32 32-32H97.6zM544 256V237.3L466.7 160H416v96H544z"/>
          </symbol>
        </svg>