<svg xmlns="http://www.w3.org/2000/svg">
          <symbol id="fw-icon-duotone-ethernet" viewBox="0 0 512 512">
            <path d="M112 320c8.8 0 16 7.2 16 16V448H96V336c0-8.8 7.2-16 16-16zm96 0c8.8 0 16 7.2 16 16V448H192V336c0-8.8 7.2-16 16-16zm96 0c8.8 0 16 7.2 16 16V448H288V336c0-8.8 7.2-16 16-16zm96 0c8.8 0 16 7.2 16 16V448H384V336c0-8.8 7.2-16 16-16z"/>
          </symbol>
        </svg>7.7-14.3-32-32-32H384V96c0-17.7-14.3-32-32-32H160c-17.7 0-32 14.3-32 32v32H96c-17.7 0-32 14.3-32 32v32H32c-17.7 0-32 14.3-32 32z"/>
          </symbol>
        </svg>