<svg xmlns="http://www.w3.org/2000/svg">
          <symbol id="fw-icon-duotone-memory" viewBox="0 0 576 512">
            <path d="M192 160v64c0 17.7-14.3 32-32 32s-32-14.3-32-32V160c0-17.7 14.3-32 32-32s32 14.3 32 32zm128 0v64c0 17.7-14.3 32-32 32s-32-14.3-32-32V160c0-17.7 14.3-32 32-32s32 14.3 32 32zm128 0v64c0 17.7-14.3 32-32 32s-32-14.3-32-32V160c0-17.7 14.3-32 32-32s32 14.3 32 32zM0 416V320H576v96c0 17.7-14.3 32-32 32H496V416c0-8.8-7.2-16-16-16s-16 7.2-16 16v32H368V416c0-8.8-7.2-16-16-16s-16 7.2-16 16v32H240V416c0-8.8-7.2-16-16-16s-16 7.2-16 16v32H112V416c0-8.8-7.2-16-16-16s-16 7.2-16 16v32H32c-17.7 0-32-14.3-32-32z"/>
          </symbol>
        </svg>      </symbol>
        </svg>