<svg xmlns="http://www.w3.org/2000/svg">
          <symbol id="fw-icon-duotone-bowl-scoops" viewBox="0 0 448 512">
            <path d="M242.3 146.6C230.7 164.2 224 185.3 224 208c0 17.2 3.9 33.5 10.8 48H437.2c6.9-14.5 10.8-30.8 10.8-48c0-61.9-50.1-112-112-112l-1.1 0c-38.7 .4-72.7 20.4-92.6 50.6zM10.8 256H200.2c-5.3-15-8.2-31.2-8.2-48c0-22 4.9-42.8 13.7-61.4c-19.8-30.2-53.8-50.2-92.6-50.6L112 96C50.1 96 0 146.1 0 208c0 17.2 3.9 33.5 10.8 48zM224 0c-44.8 0-83.5 26.3-101.4 64.4c40.9 3 77.1 23 101.4 53.1c24.3-30.1 60.5-50.1 101.4-53.1C307.5 26.3 268.8 0 224 0z"/>
          </symbol>
        </svg>