<svg xmlns="http://www.w3.org/2000/svg">
          <symbol id="fw-icon-duotone-waffle" viewBox="0 0 512 512">
            <path d="M272 64c0-8.8-7.2-16-16-16s-16 7.2-16 16v80l-64 0V96c0-8.8-7.2-16-16-16s-16 7.2-16 16v48H96c-8.8 0-16 7.2-16 16s7.2 16 16 16h48v64H64c-8.8 0-16 7.2-16 16s7.2 16 16 16h80v64H96c-8.8 0-16 7.2-16 16s7.2 16 16 16h48v48c0 8.8 7.2 16 16 16s16-7.2 16-16V368h64v80c0 8.8 7.2 16 16 16s16-7.2 16-16V368h64v48c0 8.8 7.2 16 16 16s16-7.2 16-16V368h48c8.8 0 16-7.2 16-16s-7.2-16-16-16H368V272h80c8.8 0 16-7.2 16-16s-7.2-16-16-16H368V176h48c8.8 0 16-7.2 16-16s-7.2-16-16-16H368V96c0-8.8-7.2-16-16-16s-16 7.2-16 16v48l-64 0V64zm64 272H272V272h64v64zm-96 0H176V272h64v64zm0-96H176V176l64 0v64zm96 0H272V176h64v64z"/>
          </symbol>
        </svg>176V176h64z"/>
          </symbol>
        </svg>