<svg xmlns="http://www.w3.org/2000/svg">
          <symbol id="fw-icon-duotone-address-book" viewBox="0 0 512 512">
            <path d="M496 64c8.8 0 16 7.2 16 16v64c0 8.8-7.2 16-16 16s-16-7.2-16-16V80c0-8.8 7.2-16 16-16zm0 128c8.8 0 16 7.2 16 16v64c0 8.8-7.2 16-16 16s-16-7.2-16-16V208c0-8.8 7.2-16 16-16zm16 144v64c0 8.8-7.2 16-16 16s-16-7.2-16-16V336c0-8.8 7.2-16 16-16s16 7.2 16 16zM128 368c0-44.2 35.8-80 80-80h64c44.2 0 80 35.8 80 80c0 8.8-7.2 16-16 16H144c-8.8 0-16-7.2-16-16zM240 128a64 64 0 1 1 0 128 64 64 0 1 1 0-128z"/>
          </symbol>
        </svg>