<svg xmlns="http://www.w3.org/2000/svg">
          <symbol id="fw-icon-duotone-industry-windows" viewBox="0 0 576 512">
            <path d="M32 64c0-17.7 14.3-32 32-32h64c17.7 0 32 14.3 32 32V210.1v5.3 50L352 155.6v54.4 5.3 50L544 155.6V304 432c0 26.5-21.5 48-48 48H80c-26.5 0-48-21.5-48-48V352 304 64zM136 312c-8.8 0-16 7.2-16 16v48c0 8.8 7.2 16 16 16h48c8.8 0 16-7.2 16-16V328c0-8.8-7.2-16-16-16H136zm128 0c-8.8 0-16 7.2-16 16v48c0 8.8 7.2 16 16 16h48c8.8 0 16-7.2 16-16V328c0-8.8-7.2-16-16-16H264zm112 16v48c0 8.8 7.2 16 16 16h48c8.8 0 16-7.2 16-16V328c0-8.8-7.2-16-16-16H392c-8.8 0-16 7.2-16 16z"/>
          </symbol>
        </svg>  </svg>