<svg xmlns="http://www.w3.org/2000/svg">
          <symbol id="fw-icon-duotone-person-circle-plus" viewBox="0 0 576 512">
            <path d="M288 368a144 144 0 1 1 288 0 144 144 0 1 1 -288 0zm144-80c-8.8 0-16 7.2-16 16v48H368c-8.8 0-16 7.2-16 16s7.2 16 16 16h48v48c0 8.8 7.2 16 16 16s16-7.2 16-16V384h48c8.8 0 16-7.2 16-16s-7.2-16-16-16H448V304c0-8.8-7.2-16-16-16z"/>
          </symbol>
        </svg> 34.8 10.9 43.9s34.8 4.2 43.9-10.9L88 256.9V480c0 17.7 14.3 32 32 32s32-14.3 32-32z"/>
          </symbol>
        </svg>