<svg xmlns="http://www.w3.org/2000/svg">
          <symbol id="fw-icon-duotone-lungs" viewBox="0 0 640 512">
            <path d="M352 32c0-17.7-14.3-32-32-32s-32 14.3-32 32V164.1c0 16.4-8.4 31.7-22.2 40.5L126.8 293c-14.9 9.5-19.3 29.3-9.8 44.2s29.3 19.3 44.2 9.8l139-88.4c7.3-4.6 13.9-10.1 19.9-16.1c5.9 6 12.6 11.5 19.9 16.1l139 88.4c14.9 9.5 34.7 5.1 44.2-9.8s5.1-34.7-9.8-44.2l-139-88.4c-13.8-8.8-22.2-24.1-22.2-40.5V32z"/>
          </symbol>
        </svg>4.1 30 82.5 72.7 93.1l72.7 18.2c7.1 1.8 14.3 2.7 21.6 2.7c49.1 0 89-39.8 89-89v-7c0-1.3-.1-2.7-.2-4c-7.2-57.9-33.1-119.4-59.6-170.3c-26.8-51.5-55.6-94.8-71-116.9c-13-18.6-34-28.8-55.8-28.8C415 96 384 127 384 165.3v45.5L513.2 293c14.9 9.5 19.3 29.3 9.8 44.2s-29.3 19.3-44.2 9.8z"/>
          </symbol>
        </svg>