<svg xmlns="http://www.w3.org/2000/svg">
          <symbol id="fw-icon-duotone-hands-bubbles" viewBox="0 0 576 512">
            <path d="M315.1 175c-9.4-15-29.1-19.5-44.1-10.2l-60.2 37.6C159.3 234.7 128 291.2 128 352v8c0 8.9 .8 17.6 2.2 26.1c35.4 8.2 61.8 40 61.8 77.9c0 6.3-.7 12.5-2.1 18.4C215.1 501 246.3 512 280 512H456c13.3 0 24-10.7 24-24s-10.7-24-24-24H364c-6.6 0-12-5.4-12-12s5.4-12 12-12H488c13.3 0 24-10.7 24-24s-10.7-24-24-24H364c-6.6 0-12-5.4-12-12s5.4-12 12-12H520c13.3 0 24-10.7 24-24s-10.7-24-24-24H364c-6.6 0-12-5.4-12-12s5.4-12 12-12H488c13.3 0 24-10.7 24-24s-10.7-24-24-24H352l0 0 0 0H258.8L305 219.1c15-9.4 19.5-29.1 10.2-44.1z"/>
          </symbol>
        </svg>5.9l-26.8 46.4c-.6 6-2.1 11.8-4.3 17.4H352h13.3l0 0H397l23-39.8c6.6-11.5 2.7-26.2-8.8-32.8s-26.2-2.7-32.8 8.8zM544 160a32 32 0 1 0 -64 0 32 32 0 1 0 64 0zM112 512a48 48 0 1 0 0-96 48 48 0 1 0 0 96z"/>
          </symbol>
        </svg>