<svg xmlns="http://www.w3.org/2000/svg">
          <symbol id="fw-icon-duotone-square-nfi" viewBox="0 0 448 512">
            <path d="M93.7 167.8c-3.7-6.2-11.1-9.1-18-7.2S64 168.8 64 176V336c0 8.8 7.2 16 16 16s16-7.2 16-16V233.8l66.3 110.5c3.7 6.2 11.1 9.1 18 7.2s11.7-8.2 11.7-15.4V176c0-8.8-7.2-16-16-16s-16 7.2-16 16V278.2L93.7 167.8zM240 160c-8.8 0-16 7.2-16 16v64 96c0 8.8 7.2 16 16 16s16-7.2 16-16V256h48c8.8 0 16-7.2 16-16s-7.2-16-16-16H256V192h48c8.8 0 16-7.2 16-16s-7.2-16-16-16H240zm144 16c0-8.8-7.2-16-16-16s-16 7.2-16 16V336c0 8.8 7.2 16 16 16s16-7.2 16-16V176z"/>
          </symbol>
        </svg> 0c0-8.8-7.2-16-16-16s-16 7.2-16 16V336c0 8.8 7.2 16 16 16s16-7.2 16-16V176z"/>
          </symbol>
        </svg>