<svg xmlns="http://www.w3.org/2000/svg">
          <symbol id="fw-icon-duotone-handshake" viewBox="0 0 640 512">
            <path d="M512 352V128h-1.5l-71-47.3C423.2 69.8 404.1 64 384.5 64c-20.7 0-40.9 6.5-57.7 18.5l-98.6 70.4c-21.6 15.4-26.6 45.4-11.2 67s45.4 26.6 67 11.2l57.2-40.8L496.4 332.6c6 5.5 10.3 12.2 12.8 19.4H512zm32 0c0 17.7 14.3 32 32 32h32c17.7 0 32-14.3 32-32V144c0-8.8-7.2-16-16-16H544V352zm48-32a16 16 0 1 1 0 32 16 16 0 1 1 0-32z"/>
          </symbol>
        </svg>-17.9 19.6-48.2 21-67.8 3.1L156.2 352zM0 144c0-8.8 7.2-16 16-16H96V352c0 17.7-14.3 32-32 32H32c-17.7 0-32-14.3-32-32V144zM64 336a16 16 0 1 0 -32 0 16 16 0 1 0 32 0z"/>
          </symbol>
        </svg>