<svg xmlns="http://www.w3.org/2000/svg">
          <symbol id="fw-icon-duotone-bowl-hot" viewBox="0 0 512 512">
            <path d="M176 24c0-13.3-10.7-24-24-24s-24 10.7-24 24v8c0 32.7 15.4 63.6 41.6 83.2C183.7 125.8 192 142.4 192 160v8c0 13.3 10.7 24 24 24s24-10.7 24-24v-8c0-32.7-15.4-63.6-41.6-83.2C184.3 66.2 176 49.6 176 32V24zm128 0c0-13.3-10.7-24-24-24s-24 10.7-24 24v8c0 32.7 15.4 63.6 41.6 83.2C311.7 125.8 320 142.4 320 160v8c0 13.3 10.7 24 24 24s24-10.7 24-24v-8c0-32.7-15.4-63.6-41.6-83.2C312.3 66.2 304 49.6 304 32V24z"/>
          </symbol>
        </svg>