<svg xmlns="http://www.w3.org/2000/svg">
          <symbol id="fw-icon-duotone-cabin" viewBox="0 0 512 512">
            <path d="M32 280c0-13.3 10.7-24 24-24H168c13.3 0 24 10.7 24 24v16c0 13.3-10.7 24-24 24H56c-13.3 0-24-10.7-24-24V280zm24 72H168c13.3 0 24 10.7 24 24v16c0 13.3-10.7 24-24 24H56c-13.3 0-24-10.7-24-24V376c0-13.3 10.7-24 24-24zm0 96H168c13.3 0 24 10.7 24 24v16c0 13.3-10.7 24-24 24H56c-13.3 0-24-10.7-24-24V472c0-13.3 10.7-24 24-24zM344 256H456c13.3 0 24 10.7 24 24v16c0 13.3-10.7 24-24 24H344c-13.3 0-24-10.7-24-24V280c0-13.3 10.7-24 24-24zM320 472c0-13.3 10.7-24 24-24H456c13.3 0 24 10.7 24 24v16c0 13.3-10.7 24-24 24H344c-13.3 0-24-10.7-24-24V472zm24-120H456c13.3 0 24 10.7 24 24v16c0 13.3-10.7 24-24 24H344c-13.3 0-24-10.7-24-24V376c0-13.3 10.7-24 24-24z"/>
          </symbol>
        </svg>