<svg xmlns="http://www.w3.org/2000/svg">
          <symbol id="fw-icon-duotone-file-code" viewBox="0 0 384 512">
            <path d="M384 160L224 0V128c0 17.7 14.3 32 32 32H384zM153 289c9.4-9.4 9.4-24.6 0-33.9s-24.6-9.4-33.9 0L71 303c-9.4 9.4-9.4 24.6 0 33.9l48 48c9.4 9.4 24.6 9.4 33.9 0s9.4-24.6 0-33.9l-31-31 31-31zM265 255c-9.4-9.4-24.6-9.4-33.9 0s-9.4 24.6 0 33.9l31 31-31 31c-9.4 9.4-9.4 24.6 0 33.9s24.6 9.4 33.9 0l48-48c9.4-9.4 9.4-24.6 0-33.9l-48-48z"/>
          </symbol>
        </svg>4-9.4 9.4-24.6 0-33.9l-48-48z"/>
          </symbol>
        </svg>