<svg xmlns="http://www.w3.org/2000/svg">
          <symbol id="fw-icon-duotone-people-dress-simple" viewBox="0 0 512 512">
            <path d="M50.7 206.4c7.8-27.5 33-46.4 61.5-46.4h31.4c28.6 0 53.7 18.9 61.5 46.4l39.1 136.8c5.8 20.4-9.5 40.8-30.8 40.8H192v80c0 26.5-21.5 48-48 48H112c-26.5 0-48-21.5-48-48V384H42.4c-21.3 0-36.6-20.3-30.8-40.8L50.7 206.4zm256 0c7.8-27.5 33-46.4 61.5-46.4h31.4c28.6 0 53.7 18.9 61.5 46.4l39.1 136.8c5.8 20.4-9.5 40.8-30.8 40.8H448v80c0 26.5-21.5 48-48 48H368c-26.5 0-48-21.5-48-48V384H298.4c-21.3 0-36.6-20.3-30.8-40.8l39.1-136.8z"/>
          </symbol>
        </svg>