<svg xmlns="http://www.w3.org/2000/svg">
          <symbol id="fw-icon-duotone-folder-grid" viewBox="0 0 512 512">
            <path d="M80 264c0-13.3 10.7-24 24-24h48c13.3 0 24 10.7 24 24v48c0 13.3-10.7 24-24 24H104c-13.3 0-24-10.7-24-24V264zm128 0c0-13.3 10.7-24 24-24h48c13.3 0 24 10.7 24 24v48c0 13.3-10.7 24-24 24H232c-13.3 0-24-10.7-24-24V264zm152-24h48c13.3 0 24 10.7 24 24v48c0 13.3-10.7 24-24 24H360c-13.3 0-24-10.7-24-24V264c0-13.3 10.7-24 24-24z"/>
          </symbol>
        </svg>V264c0-13.3-10.7-24-24-24H232zm104 24v48c0 13.3 10.7 24 24 24h48c13.3 0 24-10.7 24-24V264c0-13.3-10.7-24-24-24H360c-13.3 0-24 10.7-24 24z"/>
          </symbol>
        </svg>