<svg xmlns="http://www.w3.org/2000/svg">
          <symbol id="fw-icon-duotone-cart-shopping-fast" viewBox="0 0 640 512">
            <path d="M64 24C64 10.7 74.7 0 88 0h45.5c26.9 0 50 19.1 55 45.5l51.6 271c2.2 11.3 12.1 19.5 23.6 19.5H552c13.3 0 24 10.7 24 24s-10.7 24-24 24H263.7c-34.6 0-64.3-24.6-70.7-58.5l-51.6-271c-.7-3.8-4-6.5-7.9-6.5H88C74.7 48 64 37.3 64 24zM192 464a48 48 0 1 1 96 0 48 48 0 1 1 -96 0zm336-48a48 48 0 1 1 0 96 48 48 0 1 1 0-96z"/>
          </symbol>
        </svg>-10.7-24-24s10.7-24 24-24z"/>
          </symbol>
        </svg>