<svg xmlns="http://www.w3.org/2000/svg">
          <symbol id="fw-icon-duotone-grid-dividers" viewBox="0 0 512 512">
            <path d="M64 96c-17.7 0-32 14.3-32 32v64c0 17.7 14.3 32 32 32h64c17.7 0 32-14.3 32-32V128c0-17.7-14.3-32-32-32H64zm0 288c-17.7 0-32 14.3-32 32v64c0 17.7 14.3 32 32 32h64c17.7 0 32-14.3 32-32V416c0-17.7-14.3-32-32-32H64zM192 128v64c0 17.7 14.3 32 32 32h64c17.7 0 32-14.3 32-32V128c0-17.7-14.3-32-32-32H224c-17.7 0-32 14.3-32 32zm32 256c-17.7 0-32 14.3-32 32v64c0 17.7 14.3 32 32 32h64c17.7 0 32-14.3 32-32V416c0-17.7-14.3-32-32-32H224zM352 128v64c0 17.7 14.3 32 32 32h64c17.7 0 32-14.3 32-32V128c0-17.7-14.3-32-32-32H384c-17.7 0-32 14.3-32 32zm32 256c-17.7 0-32 14.3-32 32v64c0 17.7 14.3 32 32 32h64c17.7 0 32-14.3 32-32V416c0-17.7-14.3-32-32-32H384z"/>
          </symbol>
        </svg>