<svg xmlns="http://www.w3.org/2000/svg">
          <symbol id="fw-icon-duotone-dungeon" viewBox="0 0 512 512">
            <path d="M256 176c8.8 0 16 7.2 16 16V464c0 8.8-7.2 16-16 16s-16-7.2-16-16V192c0-8.8 7.2-16 16-16zm-64 32c8.8 0 16 7.2 16 16V464c0 8.8-7.2 16-16 16s-16-7.2-16-16V224c0-8.8 7.2-16 16-16zm128 0c8.8 0 16 7.2 16 16V464c0 8.8-7.2 16-16 16s-16-7.2-16-16V224c0-8.8 7.2-16 16-16z"/>
          </symbol>
        </svg>2-12.7 .6c-12.1 1.2-24.4-4.7-29-16L184 36.8C178.8 24 185.5 9.4 199 6.4C217.3 2.2 236.4 0 256 0s38.7 2.2 57 6.4zM70.5 118.5C59.1 110.9 56.3 95.2 65.5 85C82 66.6 101.1 50.6 122.3 37.6c11.9-7.3 26.9-1.4 32.1 11.6l30.5 76.2c4.4 11.1-.2 23.6-9.5 31.2c-1.3 1.1-2.7 2.2-4 3.3c-9.3 8.2-23 10.5-33.4 3.6L70.5 118.5zm319 73.1l68.6-45.7c11.7-7.8 27.6-4 33.1 8.9c10.4 24.1 17.2 50.1 19.7 77.3c1.2 13.2-9.6 24-22.9 24H408c-13.3 0-23.8-10.8-26.2-23.9c-.6-3.4-1.4-6.7-2.3-10c-3.1-11.4 .2-24 10-30.5zM20.8 154.7c5.5-12.9 21.4-16.6 33.1-8.9l68.6 45.7c9.8 6.5 13.2 19.2 10 30.5c-.9 3.3-1.7 6.6-2.3 10c-2.5 13-13 23.9-26.2 23.9H24C10.7 256-.1 245.2 1.1 232c2.5-27.2 9.3-53.2 19.7-77.3zM128 312v48c0 13.3-10.7 24-24 24H24c-13.3 0-24-10.7-24-24V312c0-13.3 10.7-24 24-24h80c13.3 0 24 10.7 24 24zm256 0c0-13.3 10.7-24 24-24h80c13.3 0 24 10.7 24 24v48c0 13.3-10.7 24-24 24H408c-13.3 0-24-10.7-24-24V312zM0 440c0-13.3 10.7-24 24-24h80c13.3 0 24 10.7 24 24v48c0 13.3-10.7 24-24 24H24c-13.3 0-24-10.7-24-24V440zm384 0c0-13.3 10.7-24 24-24h80c13.3 0 24 10.7 24 24v48c0 13.3-10.7 24-24 24H408c-13.3 0-24-10.7-24-24V440z"/>
          </symbol>
        </svg>