<svg xmlns="http://www.w3.org/2000/svg">
          <symbol id="fw-icon-duotone-engine-warning" viewBox="0 0 640 512">
            <path d="M128 144c-17.7 0-32 14.3-32 32V352c0 17.7 14.3 32 32 32h44.8l32 40c12.1 15.2 30.5 24 50 24H448c35.3 0 64-28.7 64-64V238.8c0-19.4-8.8-37.8-24-50L449.5 158c-11.3-9.1-25.4-14-40-14H208 160 128zm196 64v88c0 11-9 20-20 20s-20-9-20-20V208c0-11 9-20 20-20s20 9 20 20zM304 344a24 24 0 1 1 0 48 24 24 0 1 1 0-48z"/>
          </symbol>
        </svg>/symbol>
        </svg>