<svg xmlns="http://www.w3.org/2000/svg">
          <symbol id="fw-icon-duotone-square-poll-vertical" viewBox="0 0 448 512">
            <path d="M192 160c0-17.7 14.3-32 32-32s32 14.3 32 32V352c0 17.7-14.3 32-32 32s-32-14.3-32-32V160zM96 256c0-17.7 14.3-32 32-32s32 14.3 32 32v96c0 17.7-14.3 32-32 32s-32-14.3-32-32V256zm224 32c17.7 0 32 14.3 32 32v32c0 17.7-14.3 32-32 32s-32-14.3-32-32V320c0-17.7 14.3-32 32-32z"/>
          </symbol>
        </svg>3 32 32v32c0 17.7-14.3 32-32 32s-32-14.3-32-32V320c0-17.7 14.3-32 32-32z"/>
          </symbol>
        </svg>