<svg xmlns="http://www.w3.org/2000/svg">
          <symbol id="fw-icon-duotone-charging-station" viewBox="0 0 576 512">
            <path d="M480 80c0-8.8-7.2-16-16-16s-16 7.2-16 16v48H432c-8.8 0-16 7.2-16 16v32c0 35.8 23.5 66.1 56 76.3V376c0 13.3-10.7 24-24 24s-24-10.7-24-24V344c0-48.6-39.4-88-88-88H320v48h16c22.1 0 40 17.9 40 40v32c0 39.8 32.2 72 72 72s72-32.2 72-72V252.3c32.5-10.2 56-40.5 56-76.3V144c0-8.8-7.2-16-16-16H544V80c0-8.8-7.2-16-16-16s-16 7.2-16 16v48H480V80zM0 480c0 17.7 14.3 32 32 32H320c17.7 0 32-14.3 32-32s-14.3-32-32-32H32c-17.7 0-32 14.3-32 32z"/>
          </symbol>
        </svg>