<svg xmlns="http://www.w3.org/2000/svg">
          <symbol id="fw-icon-duotone-bell-plus" viewBox="0 0 448 512">
            <path d="M224 152c13.3 0 24 10.7 24 24v40h40c13.3 0 24 10.7 24 24s-10.7 24-24 24H248v40c0 13.3-10.7 24-24 24s-24-10.7-24-24V264H160c-13.3 0-24-10.7-24-24s10.7-24 24-24h40V176c0-13.3 10.7-24 24-24zm45.3 341.3c-12 12-28.3 18.7-45.3 18.7s-33.3-6.7-45.3-18.7s-18.7-28.3-18.7-45.3h64 64c0 17-6.7 33.3-18.7 45.3z"/>
          </symbol>
        </svg>0.7 24-24 24H248v40c0 13.3-10.7 24-24 24s-24-10.7-24-24V264H160c-13.3 0-24-10.7-24-24s10.7-24 24-24h40V176c0-13.3 10.7-24 24-24z"/>
          </symbol>
        </svg>