<svg xmlns="http://www.w3.org/2000/svg">
          <symbol id="fw-icon-duotone-head-side-headphones" viewBox="0 0 512 512">
            <path d="M256 64V.2c-2.7-.1-5.3-.2-8-.2H224c-22.2 0-43.7 3.2-64 9.3V64 86.6c0 12.4-7.4 23.3-17.4 30.5C114.4 137.4 96 170.6 96 208c0 61.9 50.1 112 112 112s112-50.1 112-112c0-37.4-18.4-70.6-46.6-90.9c-10-7.2-17.4-18.2-17.4-30.5V64zM144 208a64 64 0 1 1 128 0 64 64 0 1 1 -128 0zm96 0a32 32 0 1 0 -64 0 32 32 0 1 0 64 0z"/>
          </symbol>
        </svg>0-32-14.3-32-32V407.3c0-16.7-6.9-32.5-17.1-45.8C16.6 322.4 0 274.1 0 224.2C0 122.8 67.4 36.9 160 9.3z"/>
          </symbol>
        </svg>