<svg xmlns="http://www.w3.org/2000/svg">
          <symbol id="fw-icon-duotone-user-visor" viewBox="0 0 448 512">
            <path d="M336 176c2.4 0 4.7-.3 7-.8C324.2 222.5 278 256 224 256s-100.2-33.5-119-80.8c2.3 .5 4.6 .8 7 .8H336zM224 0c40.4 0 76.5 18.7 99.9 48H124.1C147.5 18.7 183.6 0 224 0zM328.9 437.4c-9.5 0-22.5 11.4-31.7 19.5c-2.6 2.2-4.8 4.2-6.6 5.6c-2.8 2-6.8 .1-6.5-3.5c3.9-36.5 15.9-66.5 35.7-89.5c1.5-1.8 4.9-1.9 6.1 .1c18.9 24.6 29 55 30.1 90.2c0 3.9-4.9 5.7-7.3 2.5c-12.2-17.2-17.6-23-19.9-25z"/>
          </symbol>
        </svg> 23-31.9 53-35.7 89.5c-.3 3.5 3.7 5.5 6.5 3.5c1.8-1.4 4.1-3.4 6.6-5.6l0 0c9.2-8.1 22.3-19.5 31.7-19.5c2.3 2 7.6 7.8 19.9 25z"/>
          </symbol>
        </svg>