<svg xmlns="http://www.w3.org/2000/svg">
          <symbol id="fw-icon-duotone-rectangle-terminal" viewBox="0 0 512 512">
            <path d="M103.8 185.7c-9.8-9-10.4-24.1-1.5-33.9s24.1-10.4 33.9-1.5l96 88c5 4.5 7.8 11 7.8 17.7s-2.8 13.1-7.8 17.7l-96 88c-9.8 9-25 8.3-33.9-1.5s-8.3-25 1.5-33.9L180.5 256l-76.7-70.3zM248 336H392c13.3 0 24 10.7 24 24s-10.7 24-24 24H248c-13.3 0-24-10.7-24-24s10.7-24 24-24z"/>
          </symbol>
        </svg>24 10.7-24 24s10.7 24 24 24H392c13.3 0 24-10.7 24-24s-10.7-24-24-24H248z"/>
          </symbol>
        </svg>