<svg xmlns="http://www.w3.org/2000/svg">
          <symbol id="fw-icon-duotone-dumpster-fire" viewBox="0 0 640 512">
            <path d="M48 32h92.5L114.9 160H32c-9.9 0-19.2-4.5-25.2-12.3S-1.4 129.8 1 120.2l16-64C20.5 42 33.3 32 48 32zM272 160H147.5L173.1 32H272V160zm32 0V32h98.9l14.4 72.1c-1.7 1.1-3.3 2.4-4.8 3.8c-18.4 16.4-35.4 34-50.5 52.1H304zm209.9-23.7c-1.7 1.6-3.4 3.2-5 4.8C498 129.6 486.7 118.6 475 108c-7.6-6.9-17-10.8-26.6-11.8L435.5 32H528c14.7 0 27.5 10 31 24.2l16 64c1.2 4.8 1.3 9.8 .2 14.6c-17.8-14.7-44.1-14.2-61.3 1.5zM530 401c-15 10-31 15-49 15c-45 0-81-29-81-78c0-24 15-45 45-82c4 5 62 79 62 79l36-42c3 4 5 8 7 12c18 33 10 75-20 96z"/>
          </symbol>
        </svg>6 37.2-107.4c3.8-6.2 7.9-12.5 12.3-18.7H32z"/>
          </symbol>
        </svg>