<svg xmlns="http://www.w3.org/2000/svg">
          <symbol id="fw-icon-duotone-shuffle" viewBox="0 0 512 512">
            <path d="M352 416c-30.2 0-58.7-14.2-76.8-38.4L121.6 172.8c-6-8.1-15.5-12.8-25.6-12.8H32c-17.7 0-32-14.3-32-32s14.3-32 32-32H96c30.2 0 58.7 14.2 76.8 38.4L326.4 339.2c6 8.1 15.5 12.8 25.6 12.8h32V320c0-12.9 7.8-24.6 19.8-29.6s25.7-2.2 34.9 6.9l64 64c6 6 9.4 14.1 9.4 22.6s-3.4 16.6-9.4 22.6l-64 64c-9.2 9.2-22.9 11.9-34.9 6.9s-19.8-16.6-19.8-29.6V416H352z"/>
          </symbol>
        </svg> 309.3z"/>
          </symbol>
        </svg>