<svg xmlns="http://www.w3.org/2000/svg">
          <symbol id="fw-icon-duotone-user-tie-hair" viewBox="0 0 448 512">
            <path d="M120 112c-7.9 0-15.5-1.7-22.3-4.6C107.5 46.5 160.3 0 224 0c59.6 0 109.8 40.8 124 96H312c-22.8 0-42.8-11.9-54.1-29.8C241 93.7 210.6 112 176 112H120zm89.1 247.2l-18.6-31c-6.4-10.7 1.3-24.2 13.7-24.2H224h19.7c12.4 0 20.1 13.6 13.7 24.2l-18.6 31 33.4 123.9 39.5-161.2c77.2 12 136.3 78.8 136.3 159.4c0 17-13.8 30.7-30.7 30.7H265.1 182.9 30.7C13.8 512 0 498.2 0 481.3c0-80.6 59.1-147.4 136.3-159.4l39.5 161.2 33.4-123.9z"/>
          </symbol>
        </svg>