<svg xmlns="http://www.w3.org/2000/svg">
          <symbol id="fw-icon-duotone-menorah" viewBox="0 0 640 512">
            <path d="M64 160c0-17.7-14.3-32-32-32s-32 14.3-32 32V288c0 53 43 96 96 96H288v64H160c-17.7 0-32 14.3-32 32s14.3 32 32 32H320 480c17.7 0 32-14.3 32-32s-14.3-32-32-32H352V384H544c53 0 96-43 96-96V160c0-17.7-14.3-32-32-32s-32 14.3-32 32V288c0 17.7-14.3 32-32 32H352V160c0-17.7-14.3-32-32-32s-32 14.3-32 32V320H96c-17.7 0-32-14.3-32-32V160zm96 0c0-17.7-14.3-32-32-32s-32 14.3-32 32v96 32h64V256 160zm96 0c0-17.7-14.3-32-32-32s-32 14.3-32 32v96 32h64V256 160zm192 0c0-17.7-14.3-32-32-32s-32 14.3-32 32v96 32h64V256 160zm96 0c0-17.7-14.3-32-32-32s-32 14.3-32 32v96 32h64V256 160z"/>
          </symbol>
        </svg>4.3-32-32V62.8c0-4.5 .9-8.9 2.7-13.1zM404.8 7.4C406.8 2.9 411.1 0 416 0s9.2 2.9 11.2 7.4l18.2 42.4c1.8 4.1 2.7 8.6 2.7 13.1V64c0 17.7-14.3 32-32 32s-32-14.3-32-32V62.8c0-4.5 .9-8.9 2.7-13.1L404.8 7.4zm77.8 42.4L500.8 7.4C502.8 2.9 507.1 0 512 0s9.2 2.9 11.2 7.4l18.2 42.4c1.8 4.1 2.7 8.6 2.7 13.1V64c0 17.7-14.3 32-32 32s-32-14.3-32-32V62.8c0-4.5 .9-8.9 2.7-13.1zM596.8 7.4C598.8 2.9 603.1 0 608 0s9.2 2.9 11.2 7.4l18.2 42.4c1.8 4.1 2.7 8.6 2.7 13.1V64c0 17.7-14.3 32-32 32s-32-14.3-32-32V62.8c0-4.5 .9-8.9 2.7-13.1L596.8 7.4z"/>
          </symbol>
        </svg>