<svg xmlns="http://www.w3.org/2000/svg">
          <symbol id="fw-icon-duotone-grill-fire" viewBox="0 0 576 512">
            <path d="M379.7 160c3.5 0 7 1.3 9.8 3.8c19.7 17.8 38.2 37 55.5 57.7c7.9-9.9 16.8-20.7 26.5-29.5c5.6-5.1 14.4-5.1 20 0c24.7 22.7 45.6 52.7 60.4 81.1c14.5 28 24.2 58.8 24.2 79C576 440 504.7 512 416 512c-89.7 0-160-72.1-160-159.8c0-26.4 12.7-60.7 32.4-92.6c20-32.4 48.1-66.1 81.4-95.8c2.8-2.5 6.4-3.8 10-3.7zM417 448c18 0 34-5 49-15c30-21 38-63 20-96c-2-4-4-8-7-12l-36 42s-58-74-62-79c-30 37-45 58-45 82c0 49 36 78 81 78z"/>
          </symbol>
        </svg>         </symbol>
        </svg>