<svg xmlns="http://www.w3.org/2000/svg">
          <symbol id="fw-icon-duotone-starship-freighter" viewBox="0 0 576 512">
            <path d="M0 256C0 379.7 100.3 480 224 480c34.3 0 68.3-5.2 100.9-15.3c-1-1.1-2-2.2-2.9-3.4L225.2 336l-1.2 0c-44.2 0-80-35.8-80-80s35.8-80 80-80s80 35.8 80 80c0 7.4-1 14.5-2.9 21.3L383.6 384H432c17.7 0 33.2 9.6 41.5 23.9l82.1-31.9c12.3-4.8 20.4-16.6 20.4-29.8V304c0-8.8-7.2-16-16-16H445.7 432c-8.8 0-16-7.2-16-16V240c0-8.8 7.2-16 16-16h13.7H560c8.8 0 16-7.2 16-16V165.9c0-13.2-8.1-25-20.4-29.8L347.6 55.2C308.2 39.9 266.3 32 224 32C100.3 32 0 132.3 0 256zm64 0a16 16 0 1 1 32 0 16 16 0 1 1 -32 0zm48-112a16 16 0 1 1 0 32 16 16 0 1 1 0-32zM96 352a16 16 0 1 1 32 0 16 16 0 1 1 -32 0z"/>
          </symbol>
        </svg>