<svg xmlns="http://www.w3.org/2000/svg">
          <symbol id="fw-icon-duotone-face-holding-back-tears" viewBox="0 0 512 512">
            <path d="M191.4 116.4l-1.5 5.2c-10.6 37-42.2 64.1-80.4 68.9L98 191.9c-8.8 1.1-16.8-5.1-17.9-13.9s5.1-16.8 13.9-17.9l11.5-1.4c25.5-3.2 46.6-21.3 53.6-45.9l1.5-5.2c2.4-8.5 11.3-13.4 19.8-11s13.4 11.3 11 19.8zm129.2 0c-2.4-8.5 2.5-17.4 11-19.8s17.4 2.5 19.8 11l1.5 5.2c7 24.7 28.1 42.7 53.6 45.9l11.5 1.4c8.8 1.1 15 9.1 13.9 17.9s-9.1 15-17.9 13.9l-11.5-1.4c-38.2-4.8-69.8-31.9-80.4-68.9l-1.5-5.2zM128 232c17.7 0 32-14.3 32-32c0-5.8-1.5-11.2-4.2-15.8c1.4-.1 2.8-.2 4.2-.2c30.9 0 56 25.1 56 56s-25.1 56-56 56s-56-25.1-56-56c0-5.7 .8-11.2 2.4-16.4c5.7 5.2 13.3 8.4 21.6 8.4zm224-32c0-5.8-1.5-11.2-4.2-15.8c1.4-.1 2.8-.2 4.2-.2c30.9 0 56 25.1 56 56s-25.1 56-56 56s-56-25.1-56-56c0-5.7 .8-11.2 2.4-16.4c5.7 5.2 13.3 8.4 21.6 8.4c17.7 0 32-14.3 32-32z"/>
          </symbol>
        </svg>2-46.6-21.3-53.6-45.9l-1.5-5.2c-2.4-8.5-11.3-13.4-19.8-11s-13.4 11.3-11 19.8l1.5 5.2c4.2 14.8 11.8 28 21.9 38.8c-40.4 4-72 38.1-72 79.6c0 44.2 35.8 80 80 80c11.4 0 22.2-2.4 32-6.7z"/>
          </symbol>
        </svg>