<svg xmlns="http://www.w3.org/2000/svg">
          <symbol id="fw-icon-duotone-speakers" viewBox="0 0 640 512">
            <path d="M176 224c31.3 0 59.7 12.9 80 33.6V414.4c-20.3 20.7-48.7 33.6-80 33.6c-61.9 0-112-50.1-112-112s50.1-112 112-112zm0-160a48 48 0 1 1 0 96 48 48 0 1 1 0-96zm64 272a64 64 0 1 0 -128 0 64 64 0 1 0 128 0zM416 112a48 48 0 1 1 96 0 48 48 0 1 1 -96 0zM352 336a112 112 0 1 1 224 0 112 112 0 1 1 -224 0zm112 64a64 64 0 1 0 0-128 64 64 0 1 0 0 128z"/>
          </symbol>
        </svg>4a112 112 0 1 1 0 224 112 112 0 1 1 0-224zM416 112a48 48 0 1 1 96 0 48 48 0 1 1 -96 0z"/>
          </symbol>
        </svg>