<svg xmlns="http://www.w3.org/2000/svg">
          <symbol id="fw-icon-duotone-people-robbery" viewBox="0 0 576 512">
            <path d="M32 48a48 48 0 1 1 96 0A48 48 0 1 1 32 48zM8 192c0-35.3 28.7-64 64-64h32.7c27.4 0 52.9 14 67.5 37.1L209.6 224H240c17.7 0 32 14.3 32 32s-14.3 32-32 32H192c-11 0-21.1-5.6-27-14.9l-13-20.5V480c0 17.7-14.3 32-32 32s-32-14.3-32-32V352H72V480c0 17.7-14.3 32-32 32s-32-14.3-32-32V288.6l0-.6V192z"/>
          </symbol>
        </svg>9.6 358.3 128 400 128zM352 48a48 48 0 1 1 96 0 48 48 0 1 1 -96 0z"/>
          </symbol>
        </svg>