<svg xmlns="http://www.w3.org/2000/svg">
          <symbol id="fw-icon-duotone-code-pull-request" viewBox="0 0 512 512">
            <path d="M80 56a24 24 0 1 1 0 48 24 24 0 1 1 0-48zm0 104A80 80 0 1 0 80 0a80 80 0 1 0 0 160zm0 248a24 24 0 1 1 0 48 24 24 0 1 1 0-48zm0 104a80 80 0 1 0 0-160 80 80 0 1 0 0 160zm328-80a24 24 0 1 1 48 0 24 24 0 1 1 -48 0zm104 0a80 80 0 1 0 -160 0 80 80 0 1 0 160 0z"/>
          </symbol>
        </svg>.3 17.2 7.9 25.8 4.1s14.2-12.4 14.2-21.9V128h16c35.3 0 64 28.7 64 64V358.7z"/>
          </symbol>
        </svg>