<svg xmlns="http://www.w3.org/2000/svg">
          <symbol id="fw-icon-duotone-house-night" viewBox="0 0 640 512">
            <path d="M378.3 104.5c12.3-11.3 31.2-11.3 43.4 0l208 192c9.7 8.9 12.9 22.9 8.1 35.2S621.2 352 608 352H576V464c0 26.5-21.5 48-48 48H272c-26.5 0-48-21.5-48-48V352H192c-13.2 0-25-8.1-29.8-20.3s-1.6-26.2 8.1-35.2l208-192zM368 288c-8.8 0-16 7.2-16 16v64c0 8.8 7.2 16 16 16h64c8.8 0 16-7.2 16-16V304c0-8.8-7.2-16-16-16H368z"/>
          </symbol>
        </svg>4 44.6 263.5 12.3c-2.6-7-12.4-7-15 0zm-160 320L76.6 364.6 44.3 376.5c-7 2.6-7 12.4 0 15l32.3 11.9 11.9 32.3c2.6 7 12.4 7 15 0l11.9-32.3 32.3-11.9c7-2.6 7-12.4 0-15l-32.3-11.9-11.9-32.3c-2.6-7-12.4-7-15 0z"/>
          </symbol>
        </svg>