<svg xmlns="http://www.w3.org/2000/svg">
          <symbol id="fw-icon-duotone-trash-can-slash" viewBox="0 0 640 512">
            <path d="M431.5 436l66.3 52.2C486.1 502.7 468.1 512 448 512H192c-35.3 0-64-28.7-64-64V196.8l80 63V432c0 8.8 7.2 16 16 16s16-7.2 16-16V285.1l64 50.4V432c0 8.8 7.2 16 16 16s16-7.2 16-16V360.7l64 50.4V432c0 8.8 7.2 16 16 16c7.5 0 13.7-5.1 15.5-12zM336 208c0-8.8-7.2-16-16-16s-16 7.2-16 16v5L195.6 128H512V376l-80-62.7V208c0-8.8-7.2-16-16-16s-16 7.2-16 16v80.2L336 238V208zM512 96H154.8L98.4 51.8C103.2 40.2 114.6 32 128 32h96l7.2-14.3C236.6 6.8 247.7 0 259.8 0H380.2c12.1 0 23.2 6.8 28.6 17.7L416 32h96c17.7 0 32 14.3 32 32s-14.3 32-32 32z"/>
          </symbol>
        </svg>