<svg xmlns="http://www.w3.org/2000/svg">
          <symbol id="fw-icon-duotone-sim-cards" viewBox="0 0 448 512">
            <path d="M48 120c0-13.3-10.7-24-24-24S0 106.7 0 120V376c0 75.1 60.9 136 136 136H360c13.3 0 24-10.7 24-24s-10.7-24-24-24H136c-48.6 0-88-39.4-88-88V120zm144 24c-17.7 0-32 14.3-32 32v16h48V144H192zM160 272h64 96 64V224H320 224 160v48zm224-96c0-17.7-14.3-32-32-32H336v48h48V176zM240 144v48h64V144H240zm96 160v48h16c17.7 0 32-14.3 32-32V304H336zm-32 0H240v48h64V304zm-96 0H160v16c0 17.7 14.3 32 32 32h16V304z"/>
          </symbol>
        </svg>