<svg xmlns="http://www.w3.org/2000/svg">
          <symbol id="fw-icon-duotone-alarm-snooze" viewBox="0 0 512 512">
            <path d="M14.9 146.4L160 25.4C143 9.6 120.2 0 95.2 0C42.6 0 0 42.6 0 95.2c0 18.8 5.5 36.3 14.9 51.1zm482.3 0C506.5 131.6 512 114 512 95.2C512 42.6 469.4 0 416.8 0C391.8 0 369 9.6 352 25.4L497.1 146.4zM200 192c-13.3 0-24 10.7-24 24s10.7 24 24 24h62.9L181.1 345.3c-5.6 7.2-6.6 17-2.6 25.3s12.4 13.5 21.6 13.5H312c13.3 0 24-10.7 24-24s-10.7-24-24-24H249.1l81.9-105.3c5.6-7.2 6.6-17 2.6-25.3s-12.4-13.5-21.6-13.5H200z"/>
          </symbol>
        </svg>L262.9 240H200c-13.3 0-24-10.7-24-24s10.7-24 24-24z"/>
          </symbol>
        </svg>