<svg xmlns="http://www.w3.org/2000/svg">
          <symbol id="fw-icon-duotone-calendar-pen" viewBox="0 0 512 512">
            <path d="M480 192H32V464c0 26.5 21.5 48 48 48H432c26.5 0 48-21.5 48-48V192zM340.8 267c14.7 14.7 14.7 38.6 0 53.3l-14.9 14.9L272.6 282 287.5 267c14.7-14.7 38.6-14.7 53.3 0zM178.1 376.5L250 304.6l53.3 53.3-71.9 71.9c-4.1 4.1-9.2 7-14.9 8.4l-36.6 9.2c-5.5 1.4-11.2-.2-15.2-4.2s-5.6-9.7-4.2-15.2l9.2-36.6c1.4-5.6 4.3-10.8 8.4-14.9z"/>
          </symbol>
        </svg>2c5.6-1.4 10.8-4.3 14.9-8.4l71.9-71.9L250 304.6l-71.9 71.9z"/>
          </symbol>
        </svg>