<svg xmlns="http://www.w3.org/2000/svg">
          <symbol id="fw-icon-duotone-gem" viewBox="0 0 512 512">
            <path d="M165.9 74.6c-2.8-3-7.4-3.4-10.7-1s-4.2 7-2.1 10.5l57.4 95.6L63.3 192c-4.1 .3-7.3 3.8-7.3 8s3.2 7.6 7.3 8l192 16c.4 0 .9 0 1.3 0l192-16c4.1-.3 7.3-3.8 7.3-8s-3.2-7.6-7.3-8L301.5 179.8l57.4-95.6c2.1-3.5 1.2-8.1-2.1-10.5s-7.9-2-10.7 1L256 172.2 165.9 74.6z"/>
          </symbol>
        </svg>c.4 0 .9 0 1.3 0l192-16c4.1-.3 7.3-3.8 7.3-8s-3.2-7.6-7.3-8L301.5 179.8l57.4-95.6c2.1-3.5 1.2-8.1-2.1-10.5s-7.9-2-10.7 1L256 172.2 165.9 74.6c-2.8-3-7.4-3.4-10.7-1z"/>
          </symbol>
        </svg>