<svg xmlns="http://www.w3.org/2000/svg">
          <symbol id="fw-icon-duotone-border-center-h" viewBox="0 0 448 512">
            <path d="M32 416a32 32 0 1 0 0 64 32 32 0 1 0 0-64zm96 0a32 32 0 1 0 0 64 32 32 0 1 0 0-64zm0-384a32 32 0 1 0 0 64 32 32 0 1 0 0-64zM320 480a32 32 0 1 0 0-64 32 32 0 1 0 0 64zm0-448a32 32 0 1 0 0 64 32 32 0 1 0 0-64zM224 480a32 32 0 1 0 0-64 32 32 0 1 0 0 64zm0-448a32 32 0 1 0 0 64 32 32 0 1 0 0-64zM416 480a32 32 0 1 0 0-64 32 32 0 1 0 0 64zm0-384a32 32 0 1 0 0-64 32 32 0 1 0 0 64zM32 32a32 32 0 1 0 0 64 32 32 0 1 0 0-64zM224 384a32 32 0 1 0 0-64 32 32 0 1 0 0 64zm192-64a32 32 0 1 0 0 64 32 32 0 1 0 0-64zM32 384a32 32 0 1 0 0-64 32 32 0 1 0 0 64zM416 128a32 32 0 1 0 0 64 32 32 0 1 0 0-64zM32 192a32 32 0 1 0 0-64 32 32 0 1 0 0 64zm192-64a32 32 0 1 0 0 64 32 32 0 1 0 0-64z"/>
          </symbol>
        </svg>