<svg xmlns="http://www.w3.org/2000/svg">
          <symbol id="fw-icon-duotone-burger-cheese" viewBox="0 0 512 512">
            <path d="M302.2 308.2L234 262.7c-6.5-4.4-14.2-6.7-22.1-6.7H208c0 0-.1 0-.1 0H64c-26.5 0-48 21.5-48 48s21.5 48 48 48H448c26.5 0 48-21.5 48-48s-21.5-48-48-48H432.1c0 0-.1 0-.1 0h-3.9c-7.9 0-15.6 2.3-22.1 6.7l-68.2 45.5c-10.7 7.2-24.8 7.2-35.5 0z"/>
          </symbol>
        </svg> 0 1 1 0-32zM32 400v16c0 35.3 28.7 64 64 64H416c35.3 0 64-28.7 64-64V400c0-8.8-7.2-16-16-16H48c-8.8 0-16 7.2-16 16zM234 262.7l68.2 45.5c10.7 7.2 24.8 7.2 35.5 0L406 262.7c6.5-4.4 14.2-6.7 22.1-6.7H211.9c7.9 0 15.6 2.3 22.1 6.7z"/>
          </symbol>
        </svg>