<svg xmlns="http://www.w3.org/2000/svg">
          <symbol id="fw-icon-duotone-bags-shopping" viewBox="0 0 576 512">
            <path d="M256 256c-35.3 0-64 28.7-64 64V448c0 35.3 28.7 64 64 64H512c35.3 0 64-28.7 64-64V320c0-35.3-28.7-64-64-64H256zm64 80v16c0 35.3 28.7 64 64 64s64-28.7 64-64V336c0-8.8 7.2-16 16-16s16 7.2 16 16v16c0 53-43 96-96 96s-96-43-96-96V336c0-8.8 7.2-16 16-16s16 7.2 16 16z"/>
          </symbol>
        </svg>16s16 7.2 16 16v16c0 53-43 96-96 96s-96-43-96-96V336c0-8.8 7.2-16 16-16s16 7.2 16 16z"/>
          </symbol>
        </svg>