<svg xmlns="http://www.w3.org/2000/svg">
          <symbol id="fw-icon-duotone-screen-users" viewBox="0 0 640 512">
            <path d="M96 384a64 64 0 1 0 0-128 64 64 0 1 0 0 128zM64 416c-35.3 0-64 28.7-64 64c0 17.7 14.3 32 32 32H160c17.7 0 32-14.3 32-32c0-35.3-28.7-64-64-64H64zm256-32a64 64 0 1 0 0-128 64 64 0 1 0 0 128zm-32 32c-35.3 0-64 28.7-64 64c0 17.7 14.3 32 32 32H384c17.7 0 32-14.3 32-32c0-35.3-28.7-64-64-64H288zm320-96a64 64 0 1 0 -128 0 64 64 0 1 0 128 0zM448 480c0 17.7 14.3 32 32 32H608c17.7 0 32-14.3 32-32c0-35.3-28.7-64-64-64H512c-35.3 0-64 28.7-64 64z"/>
          </symbol>
        </svg>