<svg xmlns="http://www.w3.org/2000/svg">
          <symbol id="fw-icon-duotone-user-bounty-hunter" viewBox="0 0 448 512">
            <path d="M64 16C64 7.2 71.2 0 80 0H96c8.8 0 16 7.2 16 16s-7.2 16-16 16V70c-13.5 21-22 45.6-23.7 72.2L65 256.5c-.2 3.5 0 6.9 .6 10.2c-1-3.4-1.6-7-1.6-10.7V16zm49.3 236.6l5.3-82.4c29 16.3 64.2 48.1 71.9 97.8l-77.2-15.4zM257.5 268c7.6-49.7 42.9-81.5 71.9-97.8l5.3 82.4L257.5 268zM166.4 459.2l48-36c5.7-4.3 13.5-4.3 19.2 0l48 36c4 3 6.4 7.8 6.4 12.8v40H160V472c0-5 2.4-9.8 6.4-12.8z"/>
          </symbol>
        </svg>.4-12.8l48-36c5.7-4.3 13.5-4.3 19.2 0l48 36c4 3 6.4 7.8 6.4 12.8v40H422.4c14.1 0 25.6-11.5 25.6-25.6C448 412.2 387.8 352 313.6 352H134.4C60.2 352 0 412.2 0 486.4z"/>
          </symbol>
        </svg>