<svg xmlns="http://www.w3.org/2000/svg">
          <symbol id="fw-icon-duotone-square-x" viewBox="0 0 448 512">
            <path d="M120.5 133.7c10.1-8.6 25.3-7.3 33.8 2.8L224 218.8l69.7-82.3c8.6-10.1 23.7-11.4 33.8-2.8s11.4 23.7 2.8 33.8L255.4 256l74.9 88.5c8.6 10.1 7.3 25.3-2.8 33.8s-25.3 7.3-33.8-2.8L224 293.2l-69.7 82.3c-8.6 10.1-23.7 11.4-33.8 2.8s-11.4-23.7-2.8-33.8L192.6 256l-74.9-88.5c-8.6-10.1-7.3-25.3 2.8-33.8z"/>
          </symbol>
        </svg>74.9-88.5c-8.6-10.1-7.3-25.3 2.8-33.8s25.3-7.3 33.8 2.8z"/>
          </symbol>
        </svg>