<svg xmlns="http://www.w3.org/2000/svg">
          <symbol id="fw-icon-duotone-car-burst" viewBox="0 0 640 512">
            <path d="M350.4 167.8l-32.2 46.6 201.5 54L515 212c-.5-6.7-5.3-12.4-11.8-14.2L367.7 161.5c-6.5-1.8-13.5 .8-17.3 6.4zM249.8 200.7l47.9-69.3c19.2-27.8 53.9-40.5 86.5-31.8L519.8 136c32.7 8.8 56.3 37.1 59 70.8l6.8 84c17.2 13.4 25.6 36.3 19.6 58.7L595 388l-16.6 61.8-8.3 30.9c-4.6 17.1-22.1 27.2-39.2 22.6l-15.5-4.1c-17.1-4.6-27.2-22.1-22.6-39.2l8.3-30.9L253.8 362.9l-8.3 30.9c-4.6 17.1-22.1 27.2-39.2 22.6l-15.5-4.1c-17.1-4.6-27.2-22.1-22.6-39.2l8.3-30.9 16.6-61.8 10.4-38.6c6-22.4 24.7-38 46.3-41zm47.9 91.1a24 24 0 1 0 -46.4-12.4 24 24 0 1 0 46.4 12.4zm217.9 83.2A24 24 0 1 0 528 328.7a24 24 0 1 0 -12.4 46.4z"/>
          </symbol>
        </svg>