<svg xmlns="http://www.w3.org/2000/svg">
          <symbol id="fw-icon-duotone-shop-lock" viewBox="0 0 640 512">
            <path d="M449.6 192H36.8C16.5 192 0 175.5 0 155.2c0-7.3 2.2-14.4 6.2-20.4L81.8 21.4C90.7 8 105.6 0 121.7 0H518.3c16.1 0 31 8 39.9 21.4l75.6 113.3c4 6.1 6.2 13.2 6.2 20.4c0 19.3-14.8 35.1-33.7 36.7C586.1 172.2 558.5 160 528 160c-30.5 0-58.2 12.2-78.4 32zM384 352v32 80c0 26.5-21.5 48-48 48H112c-26.5 0-48-21.5-48-48V384 224h64V384H320V224h64V352z"/>
          </symbol>
        </svg>