<svg xmlns="http://www.w3.org/2000/svg">
          <symbol id="fw-icon-duotone-arrows-to-dotted-line" viewBox="0 0 448 512">
            <path d="M64 256A32 32 0 1 1 0 256a32 32 0 1 1 64 0zm96 0a32 32 0 1 1 -64 0 32 32 0 1 1 64 0zm64 32a32 32 0 1 1 0-64 32 32 0 1 1 0 64zm128-32a32 32 0 1 1 -64 0 32 32 0 1 1 64 0zm64 32a32 32 0 1 1 0-64 32 32 0 1 1 0 64z"/>
          </symbol>
        </svg>9.2 9.2 11.9 22.9 6.9 34.9s-16.6 19.8-29.6 19.8H256v32c0 17.7-14.3 32-32 32s-32-14.3-32-32V448H160c-12.9 0-24.6-7.8-29.6-19.8s-2.2-25.7 6.9-34.9z"/>
          </symbol>
        </svg>