<svg xmlns="http://www.w3.org/2000/svg">
          <symbol id="fw-icon-duotone-car-circle-bolt" viewBox="0 0 640 512">
            <path d="M352 368a144 144 0 1 1 288 0 144 144 0 1 1 -288 0zm194.5-66.2c2.8-5 1.7-11.1-2.6-14.9s-10.6-4-15.1-.6l-96 72c-4.1 3.1-5.8 8.5-4.2 13.4s6.2 8.2 11.4 8.2h35.6l-30.1 54.2c-2.8 5-1.7 11.1 2.6 14.9s10.6 4 15.1 .6l96-72c4.1-3.1 5.8-8.5 4.2-13.4s-6.2-8.2-11.4-8.2H516.4l30.1-54.2z"/>
          </symbol>
        </svg>8 0-77.1 25.8-90.6 64.3zM96 256a32 32 0 1 1 0 64 32 32 0 1 1 0-64z"/>
          </symbol>
        </svg>