<svg xmlns="http://www.w3.org/2000/svg">
          <symbol id="fw-icon-duotone-person-cane" viewBox="0 0 448 512">
            <path d="M176 48a48 48 0 1 1 96 0 48 48 0 1 1 -96 0zM120 256.9L91.4 304.5c-9.1 15.1-28.8 20-43.9 10.9s-20-28.8-10.9-43.9l58.3-97c17.4-28.9 48.6-46.6 82.3-46.6H213c28.6 0 55.6 12.7 73.9 34.7l73.7 88.9c11.3 13.6 9.4 33.8-4.2 45.1s-33.8 9.4-45.1-4.2L264 235.3V480c0 17.7-14.3 32-32 32s-32-14.3-32-32V352H184V480c0 17.7-14.3 32-32 32s-32-14.3-32-32V256.9z"/>
          </symbol>
        </svg>