<svg xmlns="http://www.w3.org/2000/svg">
          <symbol id="fw-icon-duotone-book-font" viewBox="0 0 448 512">
            <path d="M96 0C43 0 0 43 0 96V416c0 53 43 96 96 96H384h32c17.7 0 32-14.3 32-32s-14.3-32-32-32H352 256 96c-17.7 0-32-14.3-32-32s14.3-32 32-32H256h96 64c17.7 0 32-14.3 32-32V32c0-17.7-14.3-32-32-32H384 96zM254.3 72.8l64 128 32 64c4 7.9 .7 17.5-7.2 21.5s-17.5 .7-21.5-7.2L294.1 224H185.9l-27.6 55.2c-4 7.9-13.6 11.1-21.5 7.2s-11.1-13.6-7.2-21.5l32-64 64-128c2.7-5.4 8.3-8.8 14.3-8.8s11.6 3.4 14.3 8.8zM240 115.8L201.9 192h76.2L240 115.8z"/>
          </symbol>
        </svg>