<svg xmlns="http://www.w3.org/2000/svg">
          <symbol id="fw-icon-duotone-cart-minus" viewBox="0 0 576 512">
            <path d="M24 0C10.7 0 0 10.7 0 24S10.7 48 24 48H69.5c3.8 0 7.1 2.7 7.9 6.5l51.6 271c6.5 34 36.2 58.5 70.7 58.5H488c13.3 0 24-10.7 24-24s-10.7-24-24-24H199.7c-11.5 0-21.4-8.2-23.6-19.5l-51.6-271C119.5 19.1 96.4 0 69.5 0H24zM176 512a48 48 0 1 0 0-96 48 48 0 1 0 0 96zm336-48a48 48 0 1 0 -96 0 48 48 0 1 0 96 0zM272 140c-11 0-20 9-20 20s9 20 20 20H400c11 0 20-9 20-20s-9-20-20-20H272z"/>
          </symbol>
        </svg>