<svg xmlns="http://www.w3.org/2000/svg">
          <symbol id="fw-icon-duotone-bugs" viewBox="0 0 576 512">
            <path d="M164.5 107.4l33.4-73.5c5.5-12.1 .1-26.3-11.9-31.8s-26.3-.1-31.8 11.9L128 71.7 101.9 14.1C96.4 2 82.1-3.3 70.1 2.1S52.7 21.9 58.1 33.9l33.4 73.5c-10.2 7.1-18.2 17-22.9 28.6h-17l-4.1-20.7c-2.6-13-15.2-21.4-28.2-18.8S-2.1 111.7 .5 124.7l8 40C10.7 175.9 20.6 184 32 184H64v23.3l-37.8 9.5c-9.5 2.4-16.6 10.2-17.9 19.9l-8 56c-1.9 13.1 7.2 25.3 20.4 27.2s25.3-7.2 27.2-20.4l5.7-40 18.4-4.6C82.8 274.6 103.8 288 128 288s45.3-13.4 56.1-33.2l18.4 4.6 5.7 40c1.9 13.1 14 22.2 27.2 20.4s22.2-14 20.4-27.2l-8-56c-1.4-9.7-8.5-17.5-17.9-19.9L192 207.3V184h32c11.4 0 21.3-8.1 23.5-19.3l8-40c2.6-13-5.8-25.6-18.8-28.2s-25.6 5.8-28.2 18.8L204.3 136h-17c-4.7-11.6-12.7-21.5-22.9-28.6z"/>
          </symbol>
        </svg> </symbol>
        </svg>