<svg xmlns="http://www.w3.org/2000/svg">
          <symbol id="fw-icon-duotone-link-horizontal" viewBox="0 0 640 512">
            <path d="M0 208.6C0 128.7 64.7 64 144.6 64H303.4C383.3 64 448 128.7 448 208.6c0 70.7-51.1 131-120.8 142.6l-1.9 .3c-17.4 2.9-33.9-8.9-36.8-26.3s8.9-33.9 26.3-36.8l1.9-.3c38.9-6.5 67.4-40.1 67.4-79.5c0-44.5-36.1-80.6-80.6-80.6H144.6C100.1 128 64 164.1 64 208.6c0 39.4 28.5 73 67.4 79.5l1.9 .3c17.4 2.9 29.2 19.4 26.3 36.8s-19.4 29.2-36.8 26.3l-1.9-.3C51.1 339.6 0 279.3 0 208.6z"/>
          </symbol>
        </svg>      </svg>