<svg xmlns="http://www.w3.org/2000/svg">
          <symbol id="fw-icon-duotone-file-image" viewBox="0 0 384 512">
            <path d="M384 160L224 0V128c0 17.7 14.3 32 32 32H384zM229.2 294.9c-3-4.3-7.9-6.9-13.2-6.9s-10.2 2.6-13.2 6.9l-48.3 70.2-12.8-21.4c-2.9-4.8-8.1-7.8-13.7-7.8s-10.8 2.9-13.7 7.8l-48 80c-3 4.9-3 11.1-.2 16.1s8.2 8.1 13.9 8.1h48 48 40 88c5.9 0 11.4-3.3 14.2-8.6s2.4-11.6-1-16.5l-88-128z"/>
          </symbol>
        </svg>c5.9 0 11.4-3.3 14.2-8.6s2.4-11.6-1-16.5l-88-128c-3-4.3-7.9-6.9-13.2-6.9z"/>
          </symbol>
        </svg>