<svg xmlns="http://www.w3.org/2000/svg">
          <symbol id="fw-icon-duotone-boxes-packing" viewBox="0 0 640 512">
            <path d="M16 160H368c8.8 0 16 7.2 16 16v32c0 8.8-7.2 16-16 16H16c-8.8 0-16-7.2-16-16V176c0-8.8 7.2-16 16-16zm16 96H352V480c0 17.7-14.3 32-32 32H64c-17.7 0-32-14.3-32-32V256zm96 80c0 8.8 7.2 16 16 16h96c8.8 0 16-7.2 16-16s-7.2-16-16-16H144c-8.8 0-16 7.2-16 16z"/>
          </symbol>
        </svg>16.4 6.2-22.6 0s-6.2-16.4 0-22.6l64-64c6.2-6.2 16.4-6.2 22.6 0l64 64z"/>
          </symbol>
        </svg>