<svg xmlns="http://www.w3.org/2000/svg">
          <symbol id="fw-icon-duotone-file-video" viewBox="0 0 384 512">
            <path d="M384 160L224 0V128c0 17.7 14.3 32 32 32H384zM64 288v96c0 17.7 14.3 32 32 32h96c17.7 0 32-14.3 32-32V288c0-17.7-14.3-32-32-32H96c-17.7 0-32 14.3-32 32zM300.9 397.9c2 1.3 4.4 2.1 6.8 2.1c6.8 0 12.3-5.5 12.3-12.3V284.3c0-6.8-5.5-12.3-12.3-12.3c-2.4 0-4.8 .7-6.8 2.1L256 304v64l44.9 29.9z"/>
          </symbol>
        </svg>6.8 2.1L256 304v64l44.9 29.9z"/>
          </symbol>
        </svg>