<svg xmlns="http://www.w3.org/2000/svg">
          <symbol id="fw-icon-duotone-router" viewBox="0 0 576 512">
            <path d="M376 248c0-13.3-10.7-24-24-24s-24 10.7-24 24v72H64c-35.3 0-64 28.7-64 64v64c0 35.3 28.7 64 64 64H512c35.3 0 64-28.7 64-64V384c0-35.3-28.7-64-64-64H376V248zM96 384a32 32 0 1 1 0 64 32 32 0 1 1 0-64zm64 32a32 32 0 1 1 64 0 32 32 0 1 1 -64 0z"/>
          </symbol>
        </svg>.8-33.8-3.5s-6.8-25.4 3.5-33.8C275.2 126 312 112 352 112s76.8 14 105.7 37.4c10.3 8.3 11.9 23.5 3.5 33.8s-23.5 11.9-33.8 3.5C406.9 170 380.6 160 352 160s-54.9 10-75.5 26.7z"/>
          </symbol>
        </svg>