<svg xmlns="http://www.w3.org/2000/svg">
          <symbol id="fw-icon-duotone-mushroom" viewBox="0 0 512 512">
            <path d="M224 176c44.2 0 80-35.8 80-80c0-26-12.4-49.2-31.7-63.8c-3.5-.2-6.9-.2-10.4-.2H250.1c-33.1 0-64.5 7.1-92.9 19.9C148.9 64.5 144 79.7 144 96c0 44.2 35.8 80 80 80zm208-64c-35.3 0-64 28.7-64 64s28.7 64 64 64c21.2 0 40-10.3 51.7-26.2c-7.6-38.3-24.9-73.1-49.2-101.7c-.8 0-1.7 0-2.5 0zM160 224a32 32 0 1 0 -64 0 32 32 0 1 0 64 0zm153 96H199L169 440.2c-2.4 9.6-.2 19.7 5.8 27.5s15.4 12.3 25.2 12.3H312c9.9 0 19.2-4.5 25.2-12.3s8.2-17.9 5.8-27.5L313 320z"/>
          </symbol>
        </svg>