<svg xmlns="http://www.w3.org/2000/svg">
          <symbol id="fw-icon-duotone-money-bill-trend-up" viewBox="0 0 512 512">
            <path d="M477.6 19.8c-1.5-3.7-3.8-7.3-6.9-10.3c0 0-.1-.1-.1-.1C464.8 3.6 456.8 0 448 0h0H352c-17.7 0-32 14.3-32 32s14.3 32 32 32h18.7l-84.4 84.4L196.8 71.7c-12-10.3-29.7-10.3-41.7 0l-112 96c-13.4 11.5-15 31.7-3.5 45.1s31.7 15 45.1 3.5L176 138.1l91.2 78.1c12.7 10.9 31.6 10.2 43.5-1.7L416 109.3V128c0 17.7 14.3 32 32 32s32-14.3 32-32V32v0c0 0 0-.1 0-.1c0-4.3-.9-8.4-2.4-12.2z"/>
          </symbol>
        </svg>