<svg xmlns="http://www.w3.org/2000/svg">
          <symbol id="fw-icon-duotone-draw-square" viewBox="0 0 448 512">
            <path d="M328.6 64H119.4c5.4 9.4 8.6 20.3 8.6 32s-3.1 22.6-8.6 32H328.6c-5.4-9.4-8.6-20.3-8.6-32s3.1-22.6 8.6-32zM352 151.4V360.6c9.4-5.4 20.3-8.6 32-8.6s22.6 3.1 32 8.6V151.4c-9.4 5.4-20.3 8.6-32 8.6s-22.6-3.1-32-8.6zM64 160c-11.7 0-22.6-3.1-32-8.6V360.6c9.4-5.4 20.3-8.6 32-8.6s22.6 3.1 32 8.6V151.4c-9.4 5.4-20.3 8.6-32 8.6zM328.6 448c-5.4-9.4-8.6-20.3-8.6-32s3.1-22.6 8.6-32H119.4c5.4 9.4 8.6 20.3 8.6 32s-3.1 22.6-8.6 32H328.6z"/>
          </symbol>
        </svg>