<svg xmlns="http://www.w3.org/2000/svg">
          <symbol id="fw-icon-duotone-robot" viewBox="0 0 640 512">
            <path d="M168 96c-39.8 0-72 32.2-72 72V440c0 39.8 32.2 72 72 72H472c39.8 0 72-32.2 72-72V168c0-39.8-32.2-72-72-72H168zm40 288h32c8.8 0 16 7.2 16 16s-7.2 16-16 16H208c-8.8 0-16-7.2-16-16s7.2-16 16-16zm96 0h32c8.8 0 16 7.2 16 16s-7.2 16-16 16H304c-8.8 0-16-7.2-16-16s7.2-16 16-16zm96 0h32c8.8 0 16 7.2 16 16s-7.2 16-16 16H400c-8.8 0-16-7.2-16-16s7.2-16 16-16zM184 256a40 40 0 1 1 80 0 40 40 0 1 1 -80 0zm232-40a40 40 0 1 1 0 80 40 40 0 1 1 0-80z"/>
          </symbol>
        </svg>     </svg>