<svg xmlns="http://www.w3.org/2000/svg">
          <symbol id="fw-icon-duotone-display-chart-up-circle-currency" viewBox="0 0 640 512">
            <path d="M496 512a144 144 0 1 0 0-288 144 144 0 1 0 0 288zm25.4-169.4a35.9 35.9 0 1 0 -50.7 50.7 35.9 35.9 0 1 0 50.7-50.7zM460.7 426l-17.3 17.3c-6.2 6.2-16.4 6.2-22.6 0s-6.2-16.4 0-22.6L438 403.3c-13.2-21.6-13.2-49.1 0-70.7l-17.3-17.3c-6.2-6.2-6.2-16.4 0-22.6s16.4-6.2 22.6 0L460.7 310c21.6-13.2 49.1-13.2 70.7 0l17.3-17.3c6.2-6.2 16.4-6.2 22.6 0s6.2 16.4 0 22.6L554 332.7c13.2 21.6 13.2 49.1 0 70.7l17.3 17.3c6.2 6.2 6.2 16.4 0 22.6s-16.4 6.2-22.6 0L531.3 426c-21.6 13.2-49.1 13.2-70.7 0z"/>
          </symbol>
        </svg>ymbol>
        </svg>