<svg xmlns="http://www.w3.org/2000/svg">
          <symbol id="fw-icon-duotone-house-heart" viewBox="0 0 576 512">
            <path d="M64.1 448L64 270.5l224-196L512.1 270.6l.4 177.3c.1 35.4-28.6 64.1-64 64.1H128.1c-35.3 0-64-28.6-64-64zM176 317.3c0 16.2 6.5 31.8 17.9 43.3l82.7 82.7c6.2 6.2 16.4 6.2 22.6 0l82.7-82.7c11.5-11.5 17.9-27.1 17.9-43.3c0-33.8-27.4-61.3-61.3-61.3c-16.2 0-31.8 6.5-43.3 17.9l-7.4 7.4-7.4-7.4c-11.5-11.5-27.1-17.9-43.3-17.9c-33.8 0-61.3 27.4-61.3 61.3z"/>
          </symbol>
        </svg>.8 0-61.3 27.4-61.3 61.3z"/>
          </symbol>
        </svg>