<svg xmlns="http://www.w3.org/2000/svg">
          <symbol id="fw-icon-duotone-arrows-up-down-left-right" viewBox="0 0 512 512">
            <path d="M118.6 169.4c12.5 12.5 12.5 32.8 0 45.3l-9.4 9.4H256 402.7l-9.4-9.4c-12.5-12.5-12.5-32.8 0-45.3s32.8-12.5 45.3 0l64 64c12.5 12.5 12.5 32.8 0 45.3l-64 64c-12.5 12.5-32.8 12.5-45.3 0s-12.5-32.8 0-45.3l9.4-9.4H256 109.3l9.4 9.4c12.5 12.5 12.5 32.8 0 45.3s-32.8 12.5-45.3 0l-64-64c-12.5-12.5-12.5-32.8 0-45.3l64-64c12.5-12.5 32.8-12.5 45.3 0z"/>
          </symbol>
        </svg>     </svg>