<svg xmlns="http://www.w3.org/2000/svg">
          <symbol id="fw-icon-duotone-display-medical" viewBox="0 0 576 512">
            <path d="M64 64H512V352H64V64zM346.7 448H416c17.7 0 32 14.3 32 32s-14.3 32-32 32H160c-17.7 0-32-14.3-32-32s14.3-32 32-32h69.3L240 416h96l10.7 32zM256 128v48l-48 0c-8.8 0-16 7.2-16 16v32c0 8.8 7.2 16 16 16h48v48c0 8.8 7.2 16 16 16h32c8.8 0 16-7.2 16-16V240h48c8.8 0 16-7.2 16-16V192c0-8.8-7.2-16-16-16H320V128c0-8.8-7.2-16-16-16H272c-8.8 0-16 7.2-16 16z"/>
          </symbol>
        </svg>