<svg xmlns="http://www.w3.org/2000/svg">
          <symbol id="fw-icon-duotone-lobster" viewBox="0 0 512 512">
            <path d="M80 8.2c0-3.7-2.5-6.9-6.1-7.5C70.7 .3 67.4 0 64 0C28.7 0 0 28.7 0 64v64c0 35.3 28.7 64 64 64l.7 0 41.8 27.9C126.2 233 149.4 240 173.1 240H192V384l21.4 64.1c-29.8 1.8-53.4 26.5-53.4 56.8c0 3.9 3.2 7.1 7.1 7.1H344.9c3.9 0 7.1-3.2 7.1-7.1c0-30.2-23.6-55-53.4-56.8L320 384V240h18.9c23.7 0 46.9-7 66.6-20.2L447.3 192l.7 0c35.3 0 64-28.7 64-64V64c0-35.3-28.7-64-64-64c-3.4 0-6.7 .3-9.9 .8c-3.6 .6-6.1 3.8-6.1 7.5V72c0 7.7-9.8 11-14.4 4.8L397.4 49.9c-3.7-4.9-11.2-3.9-12.3 2.1c-.7 3.9-1.1 7.9-1.1 11.9v64c0 14.9 5.1 28.6 13.6 39.4l-18.7 12.5C367 187.8 353.1 192 338.9 192H314.2c-10.8-29.1-34.4-49.8-51.2-60.1c-4.3-2.6-9.7-2.6-13.9 0c-16.8 10.3-40.4 31-51.2 60.1H173.1c-14.2 0-28.1-4.2-39.9-12.1l-18.7-12.5c8.5-10.9 13.6-24.6 13.6-39.4V64c0-4.1-.4-8.1-1.1-11.9c-1.1-6-8.6-7.1-12.3-2.1L94.4 76.8C89.8 83 80 79.7 80 72V8.2z"/>
          </symbol>
        </svg>0v32zm0-48h48.9c12.4 0 24.7-2.9 35.8-8.4l34.5-17.2c7.9-4 11.1-13.6 7.2-21.5s-13.6-11.1-21.5-7.2l-34.5 17.2c-6.7 3.3-14 5.1-21.5 5.1H320v32zM304 171.8V80.7c0-15.6 11.3-29 26.7-31.6l7.9-1.3c8.7-1.5 14.6-9.7 13.2-18.4s-9.7-14.6-18.4-13.2l-7.9 1.3C294.6 22.7 272 49.4 272 80.7V138c10.8 8 22.7 19.4 32 33.7z"/>
          </symbol>
        </svg>