<svg xmlns="http://www.w3.org/2000/svg">
          <symbol id="fw-icon-duotone-croissant" viewBox="0 0 512 512">
            <path d="M259.4 1.4c3.9 5.9 7 12.5 9.1 19.5l59.9 199.7c1.2 4.1 2 8.2 2.4 12.4L440.3 92.2c13.6-17.4 10.5-42.8-8.6-53.9C389.4 14 340.3 0 288 0c-9.7 0-19.2 .5-28.6 1.4zM233 330.8c-4.1-.4-8.3-1.2-12.4-2.4L20.9 268.5c-7-2.1-13.6-5.2-19.5-9.1C.5 268.8 0 278.3 0 288c0 52.3 14 101.4 38.4 143.7c11 19.1 36.4 22.2 53.9 8.6L233 330.8z"/>
          </symbol>
        </svg> 390l14.6 87.6zM19 232.7l0 0 0 0C7.4 225 0 211.8 0 197.4c0-4.6 .7-9.2 2.3-13.5C33 99.7 99.7 33 183.9 2.3C188.2 .7 192.8 0 197.4 0c18.7 0 35.1 12.2 40.5 30.1l59.9 199.7c3.4 11.3 .3 23.5-8 31.8l-28.1 28.1c-8.3 8.3-20.5 11.4-31.8 8L30.1 237.8c-1.3-.4-2.6-.8-3.8-1.3c-2.6-1-5-2.3-7.3-3.8z"/>
          </symbol>
        </svg>