<svg xmlns="http://www.w3.org/2000/svg">
          <symbol id="fw-icon-duotone-watch-smart" viewBox="0 0 384 512">
            <path d="M80 64C35.8 64 0 99.8 0 144V368c0 44.2 35.8 80 80 80H304c44.2 0 80-35.8 80-80V144c0-44.2-35.8-80-80-80H80zm136 96v86.1l41 41c9.4 9.4 9.4 24.6 0 33.9s-24.6 9.4-33.9 0l-48-48c-4.5-4.5-7-10.6-7-17V160c0-13.3 10.7-24 24-24s24 10.7 24 24z"/>
          </symbol>
        </svg>24 24v96c0 6.4 2.5 12.5 7 17l48 48c9.4 9.4 24.6 9.4 33.9 0s9.4-24.6 0-33.9l-41-41V160z"/>
          </symbol>
        </svg>