<svg xmlns="http://www.w3.org/2000/svg">
          <symbol id="fw-icon-duotone-list-ol" viewBox="0 0 512 512">
            <path d="M192 96c0-17.7 14.3-32 32-32H480c17.7 0 32 14.3 32 32s-14.3 32-32 32H224c-17.7 0-32-14.3-32-32zm0 160c0-17.7 14.3-32 32-32H488c17.7 0 32 14.3 32 32s-14.3 32-32 32H224c-17.7 0-32-14.3-32-32zm32 128H480c17.7 0 32 14.3 32 32s-14.3 32-32 32H224c-17.7 0-32-14.3-32-32s14.3-32 32-32z"/>
          </symbol>
        </svg>37.7c22-23.8 22.4-60.3 1.1-84.7c-26.9-30.7-75.4-28.4-99.2 4.9L12.5 330.1c-7.7 10.8-5.2 25.8 5.6 33.5s25.8 5.2 33.5-5.6l11.1-15.6z"/>
          </symbol>
        </svg>