<svg xmlns="http://www.w3.org/2000/svg">
          <symbol id="fw-icon-duotone-sun-haze" viewBox="0 0 640 512">
            <path d="M640 312c0-13.3-10.7-24-24-24H504c-13.3 0-24 10.7-24 24s10.7 24 24 24H616c13.3 0 24-10.7 24-24zm-208 0c0-13.3-10.7-24-24-24H88c-13.3 0-24 10.7-24 24s10.7 24 24 24H408c13.3 0 24-10.7 24-24zm144 88c0-13.3-10.7-24-24-24H24c-13.3 0-24 10.7-24 24s10.7 24 24 24H552c13.3 0 24-10.7 24-24zM88 464c-13.3 0-24 10.7-24 24s10.7 24 24 24H200c13.3 0 24-10.7 24-24s-10.7-24-24-24H88zm208 0c-13.3 0-24 10.7-24 24s10.7 24 24 24H616c13.3 0 24-10.7 24-24s-10.7-24-24-24H296z"/>
          </symbol>
        </svg>