<svg xmlns="http://www.w3.org/2000/svg">
          <symbol id="fw-icon-duotone-video-arrow-up-right" viewBox="0 0 576 512">
            <path d="M559.1 99.8c10.4 5.6 16.9 16.4 16.9 28.2V384c0 11.8-6.5 22.6-16.9 28.2s-23 5-32.9-1.6L384 315.8V196.2l142.2-94.8c9.8-6.5 22.4-7.2 32.9-1.6zM152 160H264c13.3 0 24 10.7 24 24V296c0 13.3-10.7 24-24 24s-24-10.7-24-24V241.9L137 345c-9.4 9.4-24.6 9.4-33.9 0s-9.4-24.6 0-33.9l103-103H152c-13.3 0-24-10.7-24-24s10.7-24 24-24z"/>
          </symbol>
        </svg>