<svg xmlns="http://www.w3.org/2000/svg">
          <symbol id="fw-icon-duotone-graduation-cap" viewBox="0 0 640 512">
            <path d="M325.6 139.8c8.3-3.1 12.5-12.3 9.4-20.6s-12.3-12.5-20.6-9.4L154.9 169.6C92.4 193.1 50.4 251.8 48.1 318.2c-.1 .6-.1 1.2-.1 1.8c0 28.4-10.8 57.8-22.3 80.8c-6.5 13-13.9 25.8-22.5 37.6C0 442.7-.9 448.3 .9 453.4s6 8.9 11.2 10.2l64 16c4.2 1.1 8.7 .3 12.4-2s6.3-6.1 7.1-10.4c8.6-42.8 4.3-81.2-2.1-108.7c-3.2-14-7.5-28.3-13.4-41.5c2.8-52.5 36.4-98.7 86-117.3l159.4-59.8z"/>
          </symbol>
        </svg>192 72s192-36.7 192-72L496.7 262.6 354.5 314c-11.1 4-22.8 6-34.5 6s-23.5-2-34.5-6L143.3 262.6 128 408z"/>
          </symbol>
        </svg>