<svg xmlns="http://www.w3.org/2000/svg">
          <symbol id="fw-icon-duotone-bacteria" viewBox="0 0 640 512">
            <path d="M304.9 .7c9.6 2.7 15.1 12.7 12.4 22.3l-4.5 15.6c13.5 7.5 24.9 18.7 32.6 32.6L361 66.7c9.6-2.7 19.5 2.8 22.3 12.4s-2.8 19.5-12.4 22.3l-15.2 4.3c1.3 16.6-2.4 32.7-10.1 46.6l9 9c7 7 7 18.4 0 25.5s-18.4 7-25.5 0l-7.2-7.2c-9 6.7-19.5 11.7-31.1 14.4c-4.2 1-8.1 2-11.9 3.1l2.3 8.1c2.7 9.6-2.8 19.5-12.4 22.3s-19.5-2.8-22.3-12.4l-1.3-4.4c-19.7 10.8-30.5 23.3-36.9 33.3l8.6 3.7c9.1 3.9 13.4 14.5 9.5 23.6s-14.5 13.4-23.6 9.5l-7.1-3c-1.1 16.7-7 32-16.3 44.5l7.2 7.2c7 7 7 18.4 0 25.5s-18.4 7-25.5 0l-9-9c-12.7 7-27.4 10.7-43 10.2c-1.2 0-2.4-.1-3.6-.2l-4.3 15.2c-2.7 9.6-12.7 15.1-22.3 12.4S64 370.6 66.7 361l4.5-15.6c-13.7-7.6-25-19-32.6-32.6l-15.6 4.5C13.4 320 3.4 314.5 .7 304.9s2.8-19.5 12.4-22.3l15.2-4.3c-.2-3-.3-6-.2-9.1l29.1 .9 .1 0c-29.1-1-29.1-1-29.1-1l0-.1 0-.2 0-.5 .1-1.1c0-.8 .1-1.7 .2-2.8c.2-2.1 .4-4.8 .8-7.8c.7-6.1 2-14.1 4.1-23.4c.2-.8 .4-1.5 .5-2.3l-10.4-4.2c-9.2-3.7-13.7-14.2-10-23.4s14.2-13.7 23.4-10l8 3.2c4.2-10.5 9.4-21.6 16-33c1.6-2.8 3.4-5.7 5.1-8.5l-11.1-8.9c-7.8-6.2-9-17.5-2.8-25.3s17.5-9 25.3-2.8l10 8C97.5 113.8 109.4 102 123 91l-6-9c-5.5-8.3-3.3-19.4 5-25s19.4-3.3 25 5l5.5 8.3c13.7-8.4 28.8-16.1 45.4-22.8l-4.4-10.4c-3.9-9.1 .3-19.7 9.5-23.6s19.7 .3 23.6 9.5L232 35.6c6.8-2 13.9-3.8 21.1-5.5c8.5-2 17-2.6 25.2-1.9l4.3-15.2C285.4 3.5 295.4-2 304.9 .7zM112 272c-20.7-.7-36.3-1.2-48-1.6l0 0 48 1.5zm16-16a32 32 0 1 0 0-64 32 32 0 1 0 0 64zm96-112a16 16 0 1 0 -32 0 16 16 0 1 0 32 0zM416 416a32 32 0 1 1 0-64 32 32 0 1 1 0 64z"/>
          </symbol>
        </svg>