<svg xmlns="http://www.w3.org/2000/svg">
          <symbol id="fw-icon-duotone-comment-medical" viewBox="0 0 512 512">
            <path d="M240 144c-8.8 0-16 7.2-16 16v48l-48 0c-8.8 0-16 7.2-16 16v32c0 8.8 7.2 16 16 16h48v48c0 8.8 7.2 16 16 16h32c8.8 0 16-7.2 16-16V272h48c8.8 0 16-7.2 16-16V224c0-8.8-7.2-16-16-16l-48 0V160c0-8.8-7.2-16-16-16H240z"/>
          </symbol>
        </svg>2.5 6 8.3 9.9 14.8 9.9c28.7 0 57.6-8.9 81.6-19.3c22.9-10 42.4-21.9 54.3-30.6c31.8 11.5 67 17.9 104.1 17.9zM224 160c0-8.8 7.2-16 16-16h32c8.8 0 16 7.2 16 16v48h48c8.8 0 16 7.2 16 16v32c0 8.8-7.2 16-16 16H288v48c0 8.8-7.2 16-16 16H240c-8.8 0-16-7.2-16-16V272H176c-8.8 0-16-7.2-16-16V224c0-8.8 7.2-16 16-16h48V160z"/>
          </symbol>
        </svg>