<svg xmlns="http://www.w3.org/2000/svg">
          <symbol id="fw-icon-duotone-vector-circle" viewBox="0 0 512 512">
            <path d="M240 80h32V48H240V80zM192 32c0-17.7 14.3-32 32-32h64c17.7 0 32 14.3 32 32V96c0 17.7-14.3 32-32 32H224c-17.7 0-32-14.3-32-32V32zM48 272H80V240H48v32zM0 224c0-17.7 14.3-32 32-32H96c17.7 0 32 14.3 32 32v64c0 17.7-14.3 32-32 32H32c-17.7 0-32-14.3-32-32V224zM240 432v32h32V432H240zm-16-48h64c17.7 0 32 14.3 32 32v64c0 17.7-14.3 32-32 32H224c-17.7 0-32-14.3-32-32V416c0-17.7 14.3-32 32-32zM432 272h32V240H432v32zm-48-48c0-17.7 14.3-32 32-32h64c17.7 0 32 14.3 32 32v64c0 17.7-14.3 32-32 32H416c-17.7 0-32-14.3-32-32V224z"/>
          </symbol>
        </svg>