<svg xmlns="http://www.w3.org/2000/svg">
          <symbol id="fw-icon-duotone-caravan" viewBox="0 0 640 512">
            <path d="M0 112C0 67.8 35.8 32 80 32H416c88.4 0 160 71.6 160 160V352h32c17.7 0 32 14.3 32 32s-14.3 32-32 32l-32 0H302.9c-7.8-54.3-54.4-96-110.9-96s-103.1 41.7-110.9 96H80c-44.2 0-80-35.8-80-80V112zM348.8 352H448V160c0-17.7-14.3-32-32-32H352c-17.7 0-32 14.3-32 32V311.2c11.4 12.1 21.2 25.8 28.8 40.8zM96 128c-17.7 0-32 14.3-32 32v64c0 17.7 14.3 32 32 32H224c17.7 0 32-14.3 32-32V160c0-17.7-14.3-32-32-32H96z"/>
          </symbol>
        </svg>