<svg xmlns="http://www.w3.org/2000/svg">
          <symbol id="fw-icon-duotone-rings-wedding" viewBox="0 0 512 512">
            <path d="M128 0h96c6.1 0 11.6 3.4 14.3 8.8l16 32c2.3 4.5 2.3 9.8 0 14.3l-24.6 49.2c-16.9-5.4-35-8.3-53.7-8.3s-36.8 2.9-53.7 8.3L97.7 55.2c-2.3-4.5-2.3-9.8 0-14.3l16-32C116.4 3.4 121.9 0 128 0zm32 336c0-64.4 34.5-120.7 86.1-151.3c16.8 13.5 29.7 31.8 36.5 52.9c-34.9 19-58.6 56-58.6 98.5c0 61.9 50.1 112 112 112s112-50.1 112-112c0-46.1-27.8-85.7-67.6-102.9c-5-26.2-14.8-50.7-28.6-72.4C441.6 168.7 512 244.1 512 336c0 97.2-78.8 176-176 176s-176-78.8-176-176z"/>
          </symbol>
        </svg>