<svg xmlns="http://www.w3.org/2000/svg">
          <symbol id="fw-icon-duotone-face-viewfinder" viewBox="0 0 512 512">
            <path d="M0 56C0 25.1 25.1 0 56 0h80c13.3 0 24 10.7 24 24s-10.7 24-24 24H56c-4.4 0-8 3.6-8 8v80c0 13.3-10.7 24-24 24s-24-10.7-24-24V56zM352 24c0-13.3 10.7-24 24-24h80c30.9 0 56 25.1 56 56v80c0 13.3-10.7 24-24 24s-24-10.7-24-24V56c0-4.4-3.6-8-8-8H376c-13.3 0-24-10.7-24-24zM24 352c13.3 0 24 10.7 24 24v80c0 4.4 3.6 8 8 8h80c13.3 0 24 10.7 24 24s-10.7 24-24 24H56c-30.9 0-56-25.1-56-56V376c0-13.3 10.7-24 24-24zm464 0c13.3 0 24 10.7 24 24v80c0 30.9-25.1 56-56 56H376c-13.3 0-24-10.7-24-24s10.7-24 24-24h80c4.4 0 8-3.6 8-8V376c0-13.3 10.7-24 24-24z"/>
          </symbol>
        </svg>