<svg xmlns="http://www.w3.org/2000/svg">
          <symbol id="fw-icon-duotone-alarm-plus" viewBox="0 0 512 512">
            <path d="M390.2 467.4C352.8 495.4 306.3 512 256 512s-96.8-16.6-134.1-44.6L86.6 502.6c-12.5 12.5-32.8 12.5-45.3 0s-12.5-32.8 0-45.3l35.2-35.2C48.6 384.8 32 338.3 32 288C32 164.3 132.3 64 256 64s224 100.3 224 224c0 50.3-16.6 96.8-44.6 134.2l35.2 35.2c12.5 12.5 12.5 32.8 0 45.3s-32.8 12.5-45.3 0l-35.2-35.2zM256 176c-13.3 0-24 10.7-24 24v64H168c-13.3 0-24 10.7-24 24s10.7 24 24 24h64v64c0 13.3 10.7 24 24 24s24-10.7 24-24V312h64c13.3 0 24-10.7 24-24s-10.7-24-24-24H280V200c0-13.3-10.7-24-24-24z"/>
          </symbol>
        </svg>