<svg xmlns="http://www.w3.org/2000/svg">
          <symbol id="fw-icon-duotone-plate-utensils" viewBox="0 0 640 512">
            <path d="M48 23.5c-.2-4-3.3-7.2-7.3-7.5s-7.6 2.3-8.5 6.1L1.9 150.9C.6 156.3 0 161.9 0 167.5c0 39.9 32.2 72.2 72 72.5V472c0 13.3 10.7 24 24 24s24-10.7 24-24V240c39.8-.3 72-32.6 72-72.5c0-5.6-.6-11.2-1.9-16.6L159.8 22.2c-.9-3.9-4.5-6.5-8.5-6.1s-7.1 3.5-7.3 7.5L136.5 152H119.1L103.9 23.1c-.5-4-3.9-7.1-7.9-7.1s-7.5 3-7.9 7.1L72.9 152H55.5L48 23.5zM512 160V288c0 17.7 14.3 32 32 32h48V472c0 13.3 10.7 24 24 24s24-10.7 24-24V320 216 36.9c0-11.5-9.3-20.9-20.9-20.9c-2.1 0-4.1 .3-6.1 1C596.2 23.2 512 59.2 512 160z"/>
          </symbol>
        </svg>