<svg xmlns="http://www.w3.org/2000/svg">
          <symbol id="fw-icon-duotone-dice-d20" viewBox="0 0 512 512">
            <path d="M40.2 158C29.6 151.6 16 159.3 16 171.7V295.3c0 8 10.4 11 14.7 4.4l60-92c5-7.6 2.6-17.8-5.2-22.5L40.2 158zm431.5 0l-45.3 27.2c-7.8 4.7-10.1 14.9-5.2 22.5l60 92c4.3 6.7 14.7 3.6 14.7-4.4V171.7c0-12.4-13.6-20.1-24.2-13.7zM464 433.1c0-9.3-8.1-16.5-17.3-15.4L286.1 436.6c-8.1 .9-14.1 7.8-14.1 15.9v52.8c0 3.7 3 6.8 6.8 6.8c.8 0 1.6-.1 2.4-.4l172.7-64c6.1-2.2 10.1-8 10.1-14.5zM240 505.2V452.6c0-8.1-6.1-14.9-14.1-15.9l-160.6-19c-9.2-1.1-17.3 6.1-17.3 15.4c0 6.5 4 12.3 10.1 14.5l172.7 64c.8 .3 1.6 .4 2.4 .4c3.7 0 6.8-3 6.8-6.8zM30.2 358.2c-6.5 9.9-.3 23.3 11.5 24.7l170.9 20.2c7.8 .9 13.4-7.5 9.5-14.3l-85.7-150c-5.9-10.4-20.7-10.8-27.3-.8L30.2 358.2zm439.5 24.5c11.8-1.4 18-14.7 11.5-24.6L402.9 238.1c-6.5-10-21.4-9.6-27.3 .8L290.2 388.5c-3.9 6.8 1.6 15.2 9.5 14.3l170.1-20zm-222-13.6c3.7 6.4 13 6.4 16.7 0l78.4-137.2c6.1-10.7-1.6-23.9-13.9-23.9H183.1c-12.3 0-20 13.3-13.9 23.9l78.4 137.2z"/>
          </symbol>
        </svg>