<svg xmlns="http://www.w3.org/2000/svg">
          <symbol id="fw-icon-duotone-users-slash" viewBox="0 0 640 512">
            <path d="M440.6 320L420 303.9c17.5-21.9 28-49.7 28-79.9c0-7.6-.7-15-1.9-22.3c13.6-6.3 28.7-9.7 44.6-9.7h42.7C592.2 192 640 239.8 640 298.7c0 11.8-9.6 21.3-21.3 21.3H440.6zm-45.7-35.8L243.7 165.7C261.3 142.8 288.9 128 320 128c53 0 96 43 96 96c0 22.8-7.9 43.7-21.2 60.2zM203.1 133.9L77.5 35.5C91.9 14.1 116.3 0 144 0c44.2 0 80 35.8 80 80c0 20.8-7.9 39.7-20.9 53.9zM106.7 192h15.2l72.6 57.2c5.6 27.9 20.3 52.6 40.8 70.8c-.2 0-.4 0-.7 0H21.3C9.6 320 0 310.4 0 298.7C0 239.8 47.8 192 106.7 192zM261.3 352h63.6L509.2 497.2c-4.4 8.8-13.4 14.8-23.9 14.8H154.7c-14.7 0-26.7-11.9-26.7-26.7C128 411.7 187.7 352 261.3 352zM512 0a80 80 0 1 1 0 160A80 80 0 1 1 512 0z"/>
          </symbol>
        </svg>