<svg xmlns="http://www.w3.org/2000/svg">
          <symbol id="fw-icon-duotone-cable-car" viewBox="0 0 512 512">
            <path d="M492.9 103.5c13-2.7 21.3-15.4 18.6-28.4s-15.4-21.3-28.4-18.6l-232 48-232 48c-13 2.7-21.3 15.4-18.6 28.4s15.4 21.3 28.4 18.6l203.1-42V200v24h48V200 147.5l212.9-44zM96 288c-8.8 0-16 7.2-16 16v64c0 8.8 7.2 16 16 16h64c8.8 0 16-7.2 16-16V304c0-8.8-7.2-16-16-16H96zm112 16v64c0 8.8 7.2 16 16 16h64c8.8 0 16-7.2 16-16V304c0-8.8-7.2-16-16-16H224c-8.8 0-16 7.2-16 16zm144-16c-8.8 0-16 7.2-16 16v64c0 8.8 7.2 16 16 16h64c8.8 0 16-7.2 16-16V304c0-8.8-7.2-16-16-16H352z"/>
          </symbol>
        </svg>     </symbol>
        </svg>