<svg xmlns="http://www.w3.org/2000/svg">
          <symbol id="fw-icon-duotone-truck-bolt" viewBox="0 0 640 512">
            <path d="M266.3 51.7c5.7 4.8 7.4 12.8 4.1 19.4L233.9 144H288c6.9 0 13 4.4 15.2 10.9s-.1 13.7-5.6 17.9l-128 96c-5.9 4.5-14.2 4.2-19.9-.5s-7.4-12.8-4.1-19.4L182.1 176H128c-6.9 0-13-4.4-15.2-10.9s.1-13.7 5.6-17.9l128-96c5.9-4.5 14.2-4.2 19.9 .5zM96 432a80 80 0 1 1 160 0A80 80 0 1 1 96 432zm288 0a80 80 0 1 1 160 0 80 80 0 1 1 -160 0z"/>
          </symbol>
        </svg>13.9-5-19.9-.5l-128 96c-5.5 4.1-7.8 11.3-5.6 17.9s8.3 10.9 15.2 10.9h54.1l-36.4 72.8c-3.3 6.6-1.6 14.7 4.1 19.4s13.9 5 19.9 .5l128-96c5.5-4.1 7.8-11.3 5.6-17.9S294.9 144 288 144H233.9l36.4-72.8c3.3-6.6 1.6-14.7-4.1-19.4z"/>
          </symbol>
        </svg>