<svg xmlns="http://www.w3.org/2000/svg">
          <symbol id="fw-icon-duotone-train-tunnel" viewBox="0 0 512 512">
            <path d="M112 192c0-35.3 28.7-64 64-64H336c35.3 0 64 28.7 64 64V384c0 35.3-28.7 64-64 64H176c-35.3 0-64-28.7-64-64V192zm48 24v80c0 13.3 10.7 24 24 24H328c13.3 0 24-10.7 24-24V216c0-13.3-10.7-24-24-24H184c-13.3 0-24 10.7-24 24zm96 200a32 32 0 1 0 0-64 32 32 0 1 0 0 64z"/>
          </symbol>
        </svg>3 10.7 24 24 24H328c13.3 0 24-10.7 24-24V216c0-13.3-10.7-24-24-24H184c-13.3 0-24 10.7-24 24z"/>
          </symbol>
        </svg>