<svg xmlns="http://www.w3.org/2000/svg">
          <symbol id="fw-icon-duotone-person-shelter" viewBox="0 0 512 512">
            <path d="M296 168a40 40 0 1 0 -80 0 40 40 0 1 0 80 0zM248 488V400h16v88c0 13.3 10.7 24 24 24s24-10.7 24-24V313.5l26.9 49.9c6.3 11.7 20.8 16 32.5 9.8s16-20.8 9.8-32.5l-37.9-70.3c-15.3-28.5-45.1-46.3-77.5-46.3H246.2c-32.4 0-62.1 17.8-77.5 46.3l-37.9 70.3c-6.3 11.7-1.9 26.2 9.8 32.5s26.2 1.9 32.5-9.8L200 313.5V488c0 13.3 10.7 24 24 24s24-10.7 24-24z"/>
          </symbol>
        </svg>