<svg xmlns="http://www.w3.org/2000/svg">
          <symbol id="fw-icon-duotone-tty-answer" viewBox="0 0 640 512">
            <path d="M304 0c-8.8 0-16 7.2-16 16V48c0 8.8 7.2 16 16 16h32c8.8 0 16-7.2 16-16V16c0-8.8-7.2-16-16-16H304zm0 192c-8.8 0-16 7.2-16 16v32c0 8.8 7.2 16 16 16h32c8.8 0 16-7.2 16-16V208c0-8.8-7.2-16-16-16H304zm32-80v32c0 8.8 7.2 16 16 16h32c8.8 0 16-7.2 16-16V112c0-8.8-7.2-16-16-16H352c-8.8 0-16 7.2-16 16zM400 0c-8.8 0-16 7.2-16 16V48c0 8.8 7.2 16 16 16h32c8.8 0 16-7.2 16-16V16c0-8.8-7.2-16-16-16H400zm32 112v32c0 8.8 7.2 16 16 16h32c8.8 0 16-7.2 16-16V112c0-8.8-7.2-16-16-16H448c-8.8 0-16 7.2-16 16zM496 0c-8.8 0-16 7.2-16 16V48c0 8.8 7.2 16 16 16h32c8.8 0 16-7.2 16-16V16c0-8.8-7.2-16-16-16H496zm32 112v32c0 8.8 7.2 16 16 16h32c8.8 0 16-7.2 16-16V112c0-8.8-7.2-16-16-16H544c-8.8 0-16 7.2-16 16zM592 0c-8.8 0-16 7.2-16 16V48c0 8.8 7.2 16 16 16h32c8.8 0 16-7.2 16-16V16c0-8.8-7.2-16-16-16H592zM576 208v32c0 8.8 7.2 16 16 16h32c8.8 0 16-7.2 16-16V208c0-8.8-7.2-16-16-16H592c-8.8 0-16 7.2-16 16zM400 192c-8.8 0-16 7.2-16 16v32c0 8.8 7.2 16 16 16H528c8.8 0 16-7.2 16-16V208c0-8.8-7.2-16-16-16H400z"/>
          </symbol>
        </svg>