<svg xmlns="http://www.w3.org/2000/svg">
          <symbol id="fw-icon-duotone-memo-circle-info" viewBox="0 0 576 512">
            <path d="M64 0C28.7 0 0 28.7 0 64V448c0 35.3 28.7 64 64 64H320c3.3 0 6.6-.3 9.7-.7C285.1 479.3 256 427.1 256 368c0-80.6 54.1-148.5 128-169.4V64c0-35.3-28.7-64-64-64H64zM80 128H304c8.8 0 16 7.2 16 16s-7.2 16-16 16H80c-8.8 0-16-7.2-16-16s7.2-16 16-16zM64 240c0-8.8 7.2-16 16-16H240c8.8 0 16 7.2 16 16s-7.2 16-16 16H80c-8.8 0-16-7.2-16-16zm0 96c0-8.8 7.2-16 16-16h96c8.8 0 16 7.2 16 16s-7.2 16-16 16H80c-8.8 0-16-7.2-16-16z"/>
          </symbol>
        </svg>