<svg xmlns="http://www.w3.org/2000/svg">
          <symbol id="fw-icon-duotone-mug-tea-saucer" viewBox="0 0 640 512">
            <path d="M208 32V82.7c0 8.5-3.4 16.6-9.4 22.6l-29.3 29.3c-6 6-9.4 14.1-9.4 22.6V224c0 17.7 14.3 32 32 32h64c17.7 0 32-14.3 32-32V157.3c0-8.5-3.4-16.6-9.4-22.6l-29.3-29.3c-6-6-9.4-14.1-9.4-22.6V32H208zM32 416c-17.7 0-32 14.3-32 32s14.3 32 32 32H544c17.7 0 32-14.3 32-32s-14.3-32-32-32H32z"/>
          </symbol>
        </svg>2c35.3 0 64-28.7 64-64s-28.7-64-64-64H480V224z"/>
          </symbol>
        </svg>