<svg xmlns="http://www.w3.org/2000/svg">
          <symbol id="fw-icon-duotone-truck-pickup" viewBox="0 0 640 512">
            <path d="M288 96v96H445.4L368.6 96H288zM418.6 56L527.4 192H576c17.7 0 32 14.3 32 32v64c17.7 0 32 14.3 32 32s-14.3 32-32 32H581.2c-18-37.8-56.5-64-101.2-64s-83.2 26.2-101.2 64H261.2c-18-37.8-56.5-64-101.2-64s-83.2 26.2-101.2 64H32c-17.7 0-32-14.3-32-32s14.3-32 32-32V224c0-17.7 14.3-32 32-32H224V80c0-26.5 21.5-48 48-48h96.6c19.4 0 37.8 8.8 50 24z"/>
          </symbol>
        </svg>