<svg xmlns="http://www.w3.org/2000/svg">
          <symbol id="fw-icon-duotone-ear-listen" viewBox="0 0 512 512">
            <path d="M355.4 17.7c7.9-15.8 27.1-22.2 42.9-14.3L384 32C398.3 3.4 398.3 3.4 398.3 3.4l0 0 .1 0 .2 .1 .4 .2c.3 .2 .7 .4 1.2 .7c1 .5 2.3 1.3 4 2.2c3.3 1.9 7.7 4.7 13 8.3c10.5 7.3 24.4 18.3 38.3 33.3C483.5 78.6 512 126 512 192c0 17.7-14.3 32-32 32s-32-14.3-32-32c0-46-19.5-78.6-39.5-100.3c-10.1-10.9-20.2-18.9-27.7-24.2c-3.7-2.6-6.8-4.5-8.7-5.6c-1-.6-1.7-1-2.1-1.2l-.4-.2c-15.7-7.9-22-27.1-14.2-42.9zM160 320a32 32 0 1 1 0 64 32 32 0 1 1 0-64zM32 448a32 32 0 1 1 0 64 32 32 0 1 1 0-64zm54.6-86.6l64 64c12.5 12.5 12.5 32.8 0 45.3s-32.8 12.5-45.3 0l-64-64c-12.5-12.5-12.5-32.8 0-45.3s32.8-12.5 45.3 0z"/>
          </symbol>
        </svg>