<svg xmlns="http://www.w3.org/2000/svg">
          <symbol id="fw-icon-duotone-stomach" viewBox="0 0 512 512">
            <path d="M160 0c17.7 0 32 14.3 32 32V96c0 35.3 28.7 64 64 64h17.1c22.1-38.3 63.5-64 110.9-64c70.7 0 128 57.3 128 128v80c0 114.9-93.1 208-208 208c-32 0-57.5-5.8-78.9-15.2c-21.2-9.3-36.9-21.7-49.6-32.2c-1.8-1.5-3.6-3-5.3-4.4l0 0C148 441.5 136.6 432 112 432c-26.5 0-48 21.5-48 48c0 17.7-14.3 32-32 32s-32-14.3-32-32c0-70.7 57.3-128 128-128h64c35.3 0 64-28.7 64-64V224c-70.7 0-128-57.3-128-128V32c0-17.7 14.3-32 32-32zm54.8 414c.6 .5 1.1 1 1.7 1.4c11.4 9.5 21.6 17.1 34.4 22.8c12.6 5.5 29.1 9.8 53.1 9.8c79.5 0 144-64.5 144-144V224c0-35.3-28.7-64-64-64s-64 28.7-64 64v64c0 62.9-45.4 115.2-105.2 126z"/>
          </symbol>
        </svg>