<svg xmlns="http://www.w3.org/2000/svg">
          <symbol id="fw-icon-duotone-salad" viewBox="0 0 512 512">
            <path d="M423.8 96.2c-2.6-.2-5.2-.2-7.8-.2c-70.7 0-128 57.3-128 128c0 11 1.4 21.8 4 32H240V112c0-8.8-7.2-16-16-16s-16 7.2-16 16V249.4L107.3 148.7c-6.2-6.2-16.4-6.2-22.6 0s-6.2 16.4 0 22.6L169.4 256H96c-53 0-96-43-96-96s43-96 96-96c8.7 0 17.2 1.2 25.3 3.4C138.5 27.7 178 0 224 0s85.5 27.7 102.7 67.4c8-2.2 16.5-3.4 25.3-3.4c28.5 0 54.2 12.5 71.8 32.2zM512 224c0 11.2-1.9 22-5.5 32H325.5c-3.5-10-5.5-20.8-5.5-32c0-53 43-96 96-96s96 43 96 96z"/>
          </symbol>
        </svg>