<svg xmlns="http://www.w3.org/2000/svg">
          <symbol id="fw-icon-duotone-alarm-exclamation" viewBox="0 0 512 512">
            <path d="M160 25.4L14.9 146.4C5.5 131.6 0 114 0 95.2C0 42.6 42.6 0 95.2 0c25 0 47.8 9.6 64.8 25.4zm192 0C369 9.6 391.8 0 416.8 0C469.4 0 512 42.6 512 95.2c0 18.8-5.5 36.3-14.9 51.1L352 25.4zM224 384a32 32 0 1 1 64 0 32 32 0 1 1 -64 0zm56-200V296c0 13.3-10.7 24-24 24s-24-10.7-24-24V184c0-13.3 10.7-24 24-24s24 10.7 24 24z"/>
          </symbol>
        </svg>13.3-10.7-24-24-24s-24 10.7-24 24V296c0 13.3 10.7 24 24 24s24-10.7 24-24V184z"/>
          </symbol>
        </svg>