<svg xmlns="http://www.w3.org/2000/svg">
          <symbol id="fw-icon-duotone-saxophone-fire" viewBox="0 0 640 512">
            <path d="M102.6 0c2.5 0 4.9 .9 6.9 2.6c13.8 12.4 26.8 25.9 38.8 40.4c5.5-6.9 11.8-14.5 18.5-20.7c3.9-3.6 10.1-3.6 14 0c17.3 15.9 31.9 36.9 42.3 56.8c10.2 19.6 16.9 41.2 16.9 55.3c0 14.6-2.8 28.6-8 41.5H176.8c8.9-15.4 9.3-35.4 .2-52.1c-1.4-2.8-2.8-5.6-4.9-8.4l-25.2 29.4s-40.6-51.8-43.4-55.3C82.5 115.5 72 130.2 72 147c0 11.2 2.7 21 7.5 29H23.9c-5.1-12.9-7.9-26.9-7.9-41.5C16 116 24.9 92 38.7 69.7c14-22.7 33.7-46.3 57-67.1c2-1.8 4.5-2.6 7-2.6zM353 223L319 257l-8-8c-9.4-9.4-9.4-24.6 0-33.9s24.6-9.4 33.9 0l8 8zm48-48L367 209l-8-8c-9.4-9.4-9.4-24.6 0-33.9s24.6-9.4 33.9 0l8 8zm48-48L415 161l-8-8c-9.4-9.4-9.4-24.6 0-33.9s24.6-9.4 33.9 0l8 8zM128 232a24 24 0 1 1 0 48 24 24 0 1 1 0-48zM96 328a24 24 0 1 1 0 48 24 24 0 1 1 0-48z"/>
          </symbol>
        </svg>