<svg xmlns="http://www.w3.org/2000/svg">
          <symbol id="fw-icon-duotone-hat-beach" viewBox="0 0 640 512">
            <path d="M464 304l-2.7 2.7c-8.5 8.5-20 13.3-32 13.3c-22.3 0-40.9-16.2-44.6-37.4C364.9 286.1 343 288 320 288c-88.4 0-160-28.7-160-64c0-18 3-35.4 8.5-51.5C174.7 201.3 240.1 224 320 224c23.6 0 46-2 66-5.5c-1.3-4.2-2-8.7-2-13.2c0-25 20.3-45.3 45.3-45.3c12 0 23.5 4.8 32 13.3L464 176l2.7-2.7c8.5-8.5 20-13.3 32-13.3c25 0 45.3 20.3 45.3 45.3c0 12-4.8 23.5-13.3 32L528 240l2.7 2.7c8.5 8.5 13.3 20 13.3 32c0 25-20.3 45.3-45.3 45.3c-12 0-23.5-4.8-32-13.3L464 304zm0-40a24 24 0 1 0 0-48 24 24 0 1 0 0 48z"/>
          </symbol>
        </svg>.7-2.7c1.2-1.2 2.5-2.4 3.8-3.4z"/>
          </symbol>
        </svg>