<svg xmlns="http://www.w3.org/2000/svg">
          <symbol id="fw-icon-duotone-train-tram" viewBox="0 0 448 512">
            <path d="M160 96c-53 0-96 43-96 96V352c0 53 43 96 96 96H288c53 0 96-43 96-96V192c0-53-43-96-96-96H160zm0 64H288c17.7 0 32 14.3 32 32v32c0 17.7-14.3 32-32 32H160c-17.7 0-32-14.3-32-32V192c0-17.7 14.3-32 32-32zM128 352a32 32 0 1 1 64 0 32 32 0 1 1 -64 0zm160-32a32 32 0 1 1 0 64 32 32 0 1 1 0-64z"/>
          </symbol>
        </svg>.6 9.4H43c-10 0-15-12.1-7.9-19.1zm307.5 9.7L288 448c22.4 0 43.1-7.7 59.4-20.6l65.5 65.5c7.1 7.1 2.1 19.1-7.9 19.1H365.3c-8.5 0-16.6-3.4-22.6-9.4zM160 160H288c17.7 0 32 14.3 32 32v32c0 17.7-14.3 32-32 32H160c-17.7 0-32-14.3-32-32V192c0-17.7 14.3-32 32-32z"/>
          </symbol>
        </svg>