<svg xmlns="http://www.w3.org/2000/svg">
          <symbol id="fw-icon-duotone-skull-cow" viewBox="0 0 640 512">
            <path d="M240 96c-44.2 0-80 35.8-80 80V288c0 37 25.2 68.2 59.3 77.3l27.6 110.3c5.3 21.4 24.5 36.4 46.6 36.4h53c22 0 41.2-15 46.6-36.4l27.6-110.3C454.8 356.2 480 325 480 288V176c0-44.2-35.8-80-80-80H240zM224 256a32 32 0 1 1 64 0 32 32 0 1 1 -64 0zm160-32a32 32 0 1 1 0 64 32 32 0 1 1 0-64z"/>
          </symbol>
        </svg>5.6 1.9s10 11.8 7.5 19.1L52 54.5c-2.5 7.5-3.4 15.4-2.6 23.2C52.3 106.3 76.3 128 105 128h23 48z"/>
          </symbol>
        </svg>