<svg xmlns="http://www.w3.org/2000/svg">
          <symbol id="fw-icon-duotone-xmarks-lines" viewBox="0 0 640 512">
            <path d="M177 209c9.4-9.4 9.4-24.6 0-33.9s-24.6-9.4-33.9 0l-47 47L49 175c-9.4-9.4-24.6-9.4-33.9 0s-9.4 24.6 0 33.9l47 47L15 303c-9.4 9.4-9.4 24.6 0 33.9s24.6 9.4 33.9 0l47-47 47 47c9.4 9.4 24.6 9.4 33.9 0s9.4-24.6 0-33.9l-47-47 47-47zM273 175c-9.4-9.4-24.6-9.4-33.9 0s-9.4 24.6 0 33.9l47 47-47 47c-9.4 9.4-9.4 24.6 0 33.9s24.6 9.4 33.9 0l47-47 47 47c9.4 9.4 24.6 9.4 33.9 0s9.4-24.6 0-33.9l-47-47 47-47c9.4-9.4 9.4-24.6 0-33.9s-24.6-9.4-33.9 0l-47 47-47-47zM463 175c-9.4 9.4-9.4 24.6 0 33.9l47 47-47 47c-9.4 9.4-9.4 24.6 0 33.9s24.6 9.4 33.9 0l47-47 47 47c9.4 9.4 24.6 9.4 33.9 0s9.4-24.6 0-33.9l-47-47 47-47c9.4-9.4 9.4-24.6 0-33.9s-24.6-9.4-33.9 0l-47 47-47-47c-9.4-9.4-24.6-9.4-33.9 0z"/>
          </symbol>
        </svg>