<svg xmlns="http://www.w3.org/2000/svg">
          <symbol id="fw-icon-duotone-truck-fast" viewBox="0 0 640 512">
            <path d="M288 112c0 8.8-7.2 16-16 16H16c-8.8 0-16-7.2-16-16s7.2-16 16-16H272c8.8 0 16 7.2 16 16zm-48 48c8.8 0 16 7.2 16 16s-7.2 16-16 16H48c-8.8 0-16-7.2-16-16s7.2-16 16-16H240zm-32 64c8.8 0 16 7.2 16 16s-7.2 16-16 16H16c-8.8 0-16-7.2-16-16s7.2-16 16-16H208zM96 432a80 80 0 1 1 160 0A80 80 0 1 1 96 432zm288 0a80 80 0 1 1 160 0 80 80 0 1 1 -160 0z"/>
          </symbol>
        </svg>.2-16-16-16H64V128H272c8.8 0 16-7.2 16-16s-7.2-16-16-16H64V48zM416 256H544V237.3L466.7 160H416v96z"/>
          </symbol>
        </svg>