<svg xmlns="http://www.w3.org/2000/svg">
          <symbol id="fw-icon-duotone-cloud-bolt-sun" viewBox="0 0 640 512">
            <path d="M294.2 1.2c5.1 2.1 8.7 6.7 9.6 12.1l10.4 62.4c-23.3 10.8-42.9 28.4-56 50.3c-14.6-9-31.8-14.1-50.2-14.1c-53 0-96 43-96 96c0 35.5 19.3 66.6 48 83.2c.8 31.8 13.2 60.7 33.1 82.7l-56 39.2c-4.5 3.1-10.3 3.8-15.4 1.6s-8.7-6.7-9.6-12.1L98.1 317.9 13.4 303.8c-5.4-.9-10-4.5-12.1-9.6s-1.5-10.9 1.6-15.4L52.5 208 2.9 137.2c-3.2-4.5-3.8-10.3-1.6-15.4s6.7-8.7 12.1-9.6L98.1 98.1l14.1-84.7c.9-5.4 4.5-10 9.6-12.1s10.9-1.5 15.4 1.6L208 52.5 278.8 2.9c4.5-3.2 10.3-3.8 15.4-1.6zM208 144c13.8 0 26.7 4.4 37.1 11.9c-1.2 4.1-2.2 8.3-3 12.6c-37.9 14.6-67.2 46.6-77.8 86.4C151.8 243.1 144 226.5 144 208c0-35.3 28.7-64 64-64zm266.1 83.5c5.8 4.7 7.6 12.9 4.3 19.6L425.9 352H496c6.8 0 12.8 4.3 15.1 10.7s.2 13.5-5.1 17.8l-160 128c-5.9 4.7-14.2 4.7-20.1-.1s-7.6-12.9-4.3-19.6L374.1 384H304c-6.8 0-12.8-4.3-15.1-10.7s-.2-13.5 5.1-17.8l160-128c5.9-4.7 14.2-4.7 20.1 .1z"/>
          </symbol>
        </svg>