<svg xmlns="http://www.w3.org/2000/svg">
          <symbol id="fw-icon-sharp-regular-user-xmark" viewBox="0 0 640 512">
            <path d="M304 128a80 80 0 1 0 -160 0 80 80 0 1 0 160 0zM65 464H383L348.5 352H99.5L65 464zM384 304l49.2 160L448 512H397.8 50.2 0l14.8-48L64 304H224 384zM224 0a128 128 0 1 1 0 256A128 128 0 1 1 224 0zM633.9 160l-17 17-47 47 47 47 17 17L600 321.9l-17-17-47-47-47 47-17 17L438.1 288l17-17 47-47-47-47-17-17L472 126.1l17 17 47 47 47-47 17-17L633.9 160z"/>
          </symbol>
        </svg>