<svg xmlns="http://www.w3.org/2000/svg">
          <symbol id="fw-icon-duotone-circle-microphone-lines" viewBox="0 0 512 512">
            <path d="M208 144c0-26.5 21.5-48 48-48s48 21.5 48 48H272c-8.8 0-16 7.2-16 16s7.2 16 16 16h32v32H272c-8.8 0-16 7.2-16 16s7.2 16 16 16h32v16c0 26.5-21.5 48-48 48s-48-21.5-48-48V144zm-64 80c8.8 0 16 7.2 16 16v16c0 53 43 96 96 96s96-43 96-96V240c0-8.8 7.2-16 16-16s16 7.2 16 16v16c0 65.3-48.9 119.1-112 127v17c0 8.8-7.2 16-16 16s-16-7.2-16-16V383c-63.1-7.9-112-61.7-112-127V240c0-8.8 7.2-16 16-16z"/>
          </symbol>
        </svg>43-96-96V240z"/>
          </symbol>
        </svg>