<svg xmlns="http://www.w3.org/2000/svg">
          <symbol id="fw-icon-duotone-indent" viewBox="0 0 448 512">
            <path d="M32 32C14.3 32 0 46.3 0 64S14.3 96 32 96H416c17.7 0 32-14.3 32-32s-14.3-32-32-32H32zM224 160c-17.7 0-32 14.3-32 32s14.3 32 32 32H416c17.7 0 32-14.3 32-32s-14.3-32-32-32H224zM192 320c0 17.7 14.3 32 32 32H416c17.7 0 32-14.3 32-32s-14.3-32-32-32H224c-17.7 0-32 14.3-32 32zM32 416c-17.7 0-32 14.3-32 32s14.3 32 32 32H416c17.7 0 32-14.3 32-32s-14.3-32-32-32H32z"/>
          </symbol>
        </svg>