<svg xmlns="http://www.w3.org/2000/svg">
          <symbol id="fw-icon-duotone-square-up-right" viewBox="0 0 448 512">
            <path d="M320 176V313.4c0 12.5-10.1 22.6-22.6 22.6c-6 0-11.8-2.4-16-6.6L248 296l-66.3 66.3C178 366 173.1 368 168 368s-10-2-13.7-5.7l-36.7-36.7C114 322 112 317.1 112 312s2-10 5.7-13.7L184 232l-33.4-33.4c-4.2-4.2-6.6-10-6.6-16c0-12.5 10.1-22.6 22.6-22.6H304c8.8 0 16 7.2 16 16z"/>
          </symbol>
        </svg>48 296l33.4 33.4c4.2 4.2 10 6.6 16 6.6c12.5 0 22.6-10.1 22.6-22.6z"/>
          </symbol>
        </svg>