<svg xmlns="http://www.w3.org/2000/svg">
          <symbol id="fw-icon-duotone-file-magnifying-glass" viewBox="0 0 384 512">
            <path d="M384 160H256c-17.7 0-32-14.3-32-32V0L384 160zM272 304c0 17.8-4.9 34.5-13.3 48.9L297 391.2c9.4 9.4 9.4 24.6 0 33.9s-24.6 9.4-33.9 0l-38.4-38.4C210.4 395.2 193.8 400 176 400c-53 0-96-43-96-96s43-96 96-96s96 43 96 96zm-96 48a48 48 0 1 0 0-96 48 48 0 1 0 0 96z"/>
          </symbol>
        </svg>1 0 96 48 48 0 1 1 0-96z"/>
          </symbol>
        </svg>