<svg xmlns="http://www.w3.org/2000/svg">
          <symbol id="fw-icon-duotone-peanuts" viewBox="0 0 640 512">
            <path d="M161.7 28.3L212.6 5.7c33.1-14.7 71.8 .1 86.6 33.2l22.7 50.9c12.4 27.8 13.5 57.8 5.2 84.8c-3.1 4.8-6.7 9.4-10.9 13.5c-17.6 17.6-42.2 25.4-66.7 30.3c-10.4 1.9-20.5 4.9-30 8.8c-17.5 7.2-33.9 17.9-48.1 32.1c-14.2 14.2-24.9 30.5-32.1 48C132 324.8 128 343.9 128 364v68c0 23.4 10 44.4 26 59l-34.3 15.3c-33.1 14.7-71.8-.2-86.6-33.2L10.5 422.2C3.8 407.2 .4 391.5 0 376c-.4-15.5 2.2-31.3 8-46.6C14 314 22.7 300.5 33.4 289.3c5.8-6.1 12.3-11.7 19.5-16.6c16.7-11.8 32.5-25.8 39.8-44.9s5-40.1 .4-60c-2.1-8.4-3.2-17-3.4-25.4c-.4-15.4 2.1-31.1 7.9-46.4l.2-.5c5.9-15.3 14.5-28.7 25.2-39.9c10.7-11.2 23.6-20.6 38.7-27.3zM524.8 128a19.2 19.2 0 1 1 38.4 0 19.2 19.2 0 1 1 -38.4 0zm0 64a19.2 19.2 0 1 1 38.4 0 19.2 19.2 0 1 1 -38.4 0zm-64 0a19.2 19.2 0 1 1 38.4 0 19.2 19.2 0 1 1 -38.4 0zm-224 224a19.2 19.2 0 1 1 38.4 0 19.2 19.2 0 1 1 -38.4 0zM320 396.8a19.2 19.2 0 1 1 0 38.4 19.2 19.2 0 1 1 0-38.4zm0-64a19.2 19.2 0 1 1 0 38.4 19.2 19.2 0 1 1 0-38.4z"/>
          </symbol>
        </svg>