<svg xmlns="http://www.w3.org/2000/svg">
          <symbol id="fw-icon-duotone-file-circle-question" viewBox="0 0 576 512">
            <path d="M384 160L224 0V128c0 17.7 14.3 32 32 32H384zm48 352a144 144 0 1 0 0-288 144 144 0 1 0 0 288zm0-96a24 24 0 1 1 0 48 24 24 0 1 1 0-48zm-64-94.4c0-23 18.6-41.6 41.6-41.6h40.5c25.4 0 45.9 20.6 45.9 45.9c0 17.1-9.5 32.7-24.5 40.6L448 378.9V384c0 8.8-7.2 16-16 16s-16-7.2-16-16V369.2c0-5.9 3.3-11.4 8.6-14.2l32-16.8c4.6-2.4 7.4-7.2 7.4-12.3c0-7.7-6.2-13.9-13.9-13.9H409.6c-5.3 0-9.6 4.3-9.6 9.6l0 6.4c0 8.8-7.2 16-16 16s-16-7.2-16-16l0-6.4z"/>
          </symbol>
        </svg>