<svg xmlns="http://www.w3.org/2000/svg">
          <symbol id="fw-icon-duotone-money-bill-wave" viewBox="0 0 576 512">
            <path d="M0 112.5V422.3c0 18 10.1 35 27 41.3c87 32.5 174 10.3 261-11.9c79.8-20.3 159.6-40.7 239.3-18.9c23 6.3 48.7-9.5 48.7-33.4V89.7c0-18-10.1-35-27-41.3C462 15.9 375 38.1 288 60.3C208.2 80.6 128.4 100.9 48.7 79.1C25.6 72.8 0 88.6 0 112.5zM512 160V304c-31.4 0-57.5 22.6-63 52.4c-62.5 .8-121.8 15.7-172.9 28.6l0 0c-4.8 1.2-9.5 2.4-14.2 3.6c-50.7 12.6-94.1 22.2-134.2 23.2C125.6 378.3 97.9 352 64 352V208c31.4 0 57.5-22.6 63-52.4c62.5-.8 121.8-15.7 172.9-28.6l0 0c4.8-1.2 9.5-2.4 14.2-3.6c50.7-12.6 94.1-22.2 134.2-23.2c2.2 33.3 30 59.7 63.9 59.7z"/>
          </symbol>
        </svg>