<svg xmlns="http://www.w3.org/2000/svg">
          <symbol id="fw-icon-duotone-cherries" viewBox="0 0 640 512">
            <path d="M302.4 4.8l.3 .2c.3 .2 .8 .6 1.4 1c1.2 .9 2.9 2.2 5 3.9c4.3 3.3 10.3 8.2 17.5 14.5c14.4 12.6 33.7 30.9 53.6 53.9c35.1 40.6 73.3 97.7 87.6 165.3C455.2 250.3 448 256 448 256s-11.6-9.3-31-17.8c-14-50.1-43.6-94.2-73.1-128.5c-14.3-16.6-28.3-30.5-40.1-41.2c-3.1 12.9-7.3 28.2-13 45.1c-11.7 35-29.6 77.5-56.7 120.2c-26 9.4-42 22.3-42 22.3s-8.3-6.6-22.6-13.8c38.4-49.1 61.8-101.8 75.8-143.7c7.7-23 12.4-42.5 15.3-56.3c1.4-6.9 2.4-12.2 2.9-15.8c.3-1.8 .5-3.1 .6-4l.1-.9c.6-5.3 2.9-10.1 6.3-13.8C274.9 2.9 281.1 0 288 0c5.4 0 10.4 1.8 14.4 4.8z"/>
          </symbol>
        </svg>