<svg xmlns="http://www.w3.org/2000/svg">
          <symbol id="fw-icon-duotone-shrimp" viewBox="0 0 512 512">
            <path d="M64 128H88.8 256h32V320H256 232h0c-92.8 0-168-75.2-168-168V128zM320 320V128h16c73.1 0 135.8 44.6 162.4 108.1L364.9 328.5c-7.5-5.4-16.7-8.5-26.6-8.5H320zm62.8 35.1l125.6-86.9c2.4 11.6 3.7 23.6 3.7 35.9c0 42.1-14.8 80.7-39.4 111l-90.5-36.2c1.2-4.1 1.9-8.5 1.9-13.1c0-3.7-.4-7.2-1.2-10.6zm-21.2 50l86.5 34.6c-26.6 22-59.8 36.3-96.1 39.6V409.4c3.4-1.1 6.6-2.5 9.6-4.3zM320 407.8V480H248c-13.3 0-24-10.7-24-24c0-12.1 9-22.1 20.6-23.8l-4.5-1.6c-12.5-4.4-19.1-18.1-14.7-30.6s18.1-19.1 30.6-14.7L320 407.8zM192 216a24 24 0 1 0 0-48 24 24 0 1 0 0 48z"/>
          </symbol>
        </svg>