<svg xmlns="http://www.w3.org/2000/svg">
          <symbol id="fw-icon-duotone-warehouse-full" viewBox="0 0 640 512">
            <path d="M128 248c0-13.3 10.7-24 24-24H296c13.3 0 24 10.7 24 24v80c0 13.3-10.7 24-24 24H152c-13.3 0-24-10.7-24-24V248zM352 408c0-13.3 10.7-24 24-24H488c13.3 0 24 10.7 24 24v80c0 13.3-10.7 24-24 24H376c-13.3 0-24-10.7-24-24V408zM152 384H296c13.3 0 24 10.7 24 24v80c0 13.3-10.7 24-24 24H152c-13.3 0-24-10.7-24-24V408c0-13.3 10.7-24 24-24z"/>
          </symbol>
        </svg>