<svg xmlns="http://www.w3.org/2000/svg">
          <symbol id="fw-icon-duotone-square-this-way-up" viewBox="0 0 448 512">
            <path d="M73.4 192c-9.6 0-17.4-7.8-17.4-17.4c0-4.3 1.6-8.4 4.4-11.6L114.7 102c3.4-3.8 8.2-6 13.3-6s9.9 2.2 13.3 6l54.3 61.1c2.8 3.2 4.4 7.3 4.4 11.6c0 9.6-7.8 17.4-17.4 17.4H160V304c0 8.8-7.2 16-16 16H112c-8.8 0-16-7.2-16-16V192H73.4zM352 192V304c0 8.8-7.2 16-16 16H304c-8.8 0-16-7.2-16-16V192H265.4c-9.6 0-17.4-7.8-17.4-17.4c0-4.3 1.6-8.4 4.4-11.6L306.7 102c3.4-3.8 8.2-6 13.3-6s9.9 2.2 13.3 6l54.3 61.1c2.8 3.2 4.4 7.3 4.4 11.6c0 9.6-7.8 17.4-17.4 17.4H352z"/>
          </symbol>
        </svg>.2-6 13.3-6s9.9 2.2 13.3 6l54.3 61.1c2.8 3.2 4.4 7.3 4.4 11.6c0 9.6-7.8 17.4-17.4 17.4H160V304c0 8.8-7.2 16-16 16H112c-8.8 0-16-7.2-16-16V192H73.4z"/>
          </symbol>
        </svg>