<svg xmlns="http://www.w3.org/2000/svg">
          <symbol id="fw-icon-duotone-grapes" viewBox="0 0 512 512">
            <path d="M248 208a56 56 0 1 0 0-112 56 56 0 1 0 0 112zm-80-32A56 56 0 1 0 56 176a56 56 0 1 0 112 0zM88 368a56 56 0 1 0 0-112 56 56 0 1 0 0 112zM56 512a56 56 0 1 0 0-112 56 56 0 1 0 0 112zm144-32a56 56 0 1 0 0-112 56 56 0 1 0 0 112zm192-80a56 56 0 1 0 -112 0 56 56 0 1 0 112 0zM224 344a56 56 0 1 0 0-112 56 56 0 1 0 0 112zm192-80a56 56 0 1 0 -112 0 56 56 0 1 0 112 0z"/>
          </symbol>
        </svg>