<svg xmlns="http://www.w3.org/2000/svg">
          <symbol id="fw-icon-duotone-palette" viewBox="0 0 512 512">
            <path d="M224 96a32 32 0 1 1 64 0 32 32 0 1 1 -64 0zm-96 32a32 32 0 1 1 0 64 32 32 0 1 1 0-64zM96 256a32 32 0 1 1 0 64 32 32 0 1 1 0-64zM384 128a32 32 0 1 1 0 64 32 32 0 1 1 0-64z"/>
          </symbol>
        </svg> 0 397.4 0 256S114.6 0 256 0S512 114.6 512 256zM128 288a32 32 0 1 0 -64 0 32 32 0 1 0 64 0zm0-96a32 32 0 1 0 0-64 32 32 0 1 0 0 64zM288 96a32 32 0 1 0 -64 0 32 32 0 1 0 64 0zm96 96a32 32 0 1 0 0-64 32 32 0 1 0 0 64z"/>
          </symbol>
        </svg>