<svg xmlns="http://www.w3.org/2000/svg">
          <symbol id="fw-icon-duotone-squirrel" viewBox="0 0 512 512">
            <path d="M158 301.7c-18.7 22.3-30 51-30 82.3c0 70.7 57.3 128 128 128h49.1C242.7 512 192 461.3 192 398.9v-3.8c0-27.6 11-54.1 30.5-73.6l7-7c24-24 43.7-51.6 58.5-81.6V144C288 64.5 223.5 0 144 0S0 64.5 0 144s64.5 144 144 144c2.3 0 4.6-.1 6.9-.2c4.9-.2 9.1 3.5 9.1 8.4c0 2-.7 3.9-2 5.4z"/>
          </symbol>
        </svg> 0 34.6 6 48 16c19.4 14.6 32 37.8 32 64c0 18-6 34.6-16 48h16c17.7 0 32 14.3 32 32s-14.3 32-32 32H376 352 320 305.1 304v0c-62-.6-112-51-112-113.1v-3.8c0-27.6 11-54.1 30.5-73.6l7-7C287.4 256.6 320 178 320 96V75.2zM416 176a16 16 0 1 0 0-32 16 16 0 1 0 0 32z"/>
          </symbol>
        </svg>