<svg xmlns="http://www.w3.org/2000/svg">
          <symbol id="fw-icon-duotone-utility-pole-double" viewBox="0 0 512 512">
            <path d="M256 0c17.7 0 32 14.3 32 32V64H512V96c0 17.7-14.3 32-32 32H288V256H512v32c0 17.7-14.3 32-32 32H288V480c0 17.7-14.3 32-32 32s-32-14.3-32-32V320H32c-17.7 0-32-14.3-32-32V256H224V128H32C14.3 128 0 113.7 0 96V64H224V32c0-17.7 14.3-32 32-32z"/>
          </symbol>
        </svg>4v8H464zM288 375.4L371.2 320h57.7L288 413.9V375.4zM140.8 320L224 375.4v38.5L83.2 320h57.7zM128 256H80v-8c0-13.3 10.7-24 24-24s24 10.7 24 24v8zm-80 0H0v-8c0-13.3 10.7-24 24-24s24 10.7 24 24v8zm464 0H464v-8c0-13.3 10.7-24 24-24s24 10.7 24 24v8zm-80 0H384v-8c0-13.3 10.7-24 24-24s24 10.7 24 24v8z"/>
          </symbol>
        </svg>