<svg xmlns="http://www.w3.org/2000/svg">
          <symbol id="fw-icon-duotone-scanner-keyboard" viewBox="0 0 512 512">
            <path d="M152 0h16c13.3 0 24 10.7 24 24V64H128V24c0-13.3 10.7-24 24-24zM312 0h16c13.3 0 24 10.7 24 24V64H288V24c0-13.3 10.7-24 24-24zM224 16c0-8.8 7.2-16 16-16s16 7.2 16 16V64H224V16zM400 0c8.8 0 16 7.2 16 16V272c0 8.8-7.2 16-16 16s-16-7.2-16-16V16c0-8.8 7.2-16 16-16zm48 24c0-13.3 10.7-24 24-24h16c13.3 0 24 10.7 24 24V264c0 13.3-10.7 24-24 24H472c-13.3 0-24-10.7-24-24V24zM88 160H264c13.3 0 24 10.7 24 24v16c0 13.3-10.7 24-24 24H88c-13.3 0-24-10.7-24-24V184c0-13.3 10.7-24 24-24z"/>
          </symbol>
        </svg>192 400c0-8.8 7.2-16 16-16h64c8.8 0 16 7.2 16 16v32c0 8.8-7.2 16-16 16H208c-8.8 0-16-7.2-16-16V400z"/>
          </symbol>
        </svg>