<svg xmlns="http://www.w3.org/2000/svg">
          <symbol id="fw-icon-duotone-beer-mug" viewBox="0 0 512 512">
            <path d="M267.7 133.3c6.9-7.7 21.4-8.6 29.6-2.3c10.8 8.2 24.2 13 38.7 13c35.3 0 64-28.7 64-64s-28.7-64-64-64c-14.6 0-28 4.9-38.7 13c-8.2 6.3-22.7 5.4-29.6-2.3C253 10.3 231.7 0 208 0s-45 10.3-59.7 26.7c-6.9 7.7-21.4 8.6-29.6 2.3C108 20.9 94.6 16 80 16C44.7 16 16 44.7 16 80s28.7 64 64 64c14.6 0 28-4.9 38.7-13c8.2-6.3 22.7-5.4 29.6 2.3C163 149.7 184.3 160 208 160s45-10.3 59.7-26.7zM160 240c0-8.8-7.2-16-16-16s-16 7.2-16 16V400c0 8.8 7.2 16 16 16s16-7.2 16-16V240zm64 0c0-8.8-7.2-16-16-16s-16 7.2-16 16V400c0 8.8 7.2 16 16 16s16-7.2 16-16V240zm64 0c0-8.8-7.2-16-16-16s-16 7.2-16 16V400c0 8.8 7.2 16 16 16s16-7.2 16-16V240z"/>
          </symbol>
        </svg>9.1-11.6 31.6-26.8C355.9 72.2 338.9 64 320 64H295.5zM384 224h51.2c7.1 0 12.8 5.7 12.8 12.8V338.9c0 5.1-3 9.6-7.6 11.7L384 375.6V224zm-240 0c8.8 0 16 7.2 16 16V400c0 8.8-7.2 16-16 16s-16-7.2-16-16V240c0-8.8 7.2-16 16-16zm64 0c8.8 0 16 7.2 16 16V400c0 8.8-7.2 16-16 16s-16-7.2-16-16V240c0-8.8 7.2-16 16-16zm64 0c8.8 0 16 7.2 16 16V400c0 8.8-7.2 16-16 16s-16-7.2-16-16V240c0-8.8 7.2-16 16-16z"/>
          </symbol>
        </svg>