<svg xmlns="http://www.w3.org/2000/svg">
          <symbol id="fw-icon-duotone-draw-polygon" viewBox="0 0 448 512">
            <path d="M0 96a64 64 0 1 1 128 0A64 64 0 1 1 0 96zm320 0a64 64 0 1 1 128 0A64 64 0 1 1 320 96zM64 352a64 64 0 1 1 0 128 64 64 0 1 1 0-128zm256 64a64 64 0 1 1 128 0 64 64 0 1 1 -128 0zM288 192a64 64 0 1 1 0 128 64 64 0 1 1 0-128z"/>
          </symbol>
        </svg>-22.6 8.6-32H119.4c5.4 9.4 8.6 20.3 8.6 32s-3.1 22.6-8.6 32zM384 352l.3 0-4.5-7.9-32-56-2.3-4c-9.8 20.1-29.8 34.2-53.3 35.7l0 0 32 56 4.5 7.9c11.1-19 31.7-31.7 55.3-31.7zM292.2 192.1c23.5 1.5 43.5 15.7 53.3 35.7l2.3-4 32-56 4.5-7.9-.3 0c-23.6 0-44.2-12.8-55.3-31.7l-4.5 7.9-32 56 0 0z"/>
          </symbol>
        </svg>