<svg xmlns="http://www.w3.org/2000/svg">
          <symbol id="fw-icon-sharp-regular-arrows-rotate" viewBox="0 0 512 512">
            <path d="M496 224H472 328 304V176h24 86.1l-52.1-52.1C333.8 95.8 295.7 80 256 80c-72.7 0-135.2 44.1-162 107.1L49.8 168.3C83.9 88.2 163.4 32 256 32c52.5 0 102.8 20.8 139.9 57.9L448 142.1V56 32h48V56 200v24zM16 288H40 184h24v48H184 97.9l52.1 52.1C178.2 416.2 216.3 432 256 432c72.6 0 135-43.9 161.9-106.8L462 344.1C427.8 424 348.5 480 256 480c-52.5 0-102.8-20.8-139.9-57.9L64 369.9V456v24H16V456 312 288z"/>
          </symbol>
        </svg>