<svg xmlns="http://www.w3.org/2000/svg">
          <symbol id="fw-icon-duotone-person-falling-burst" viewBox="0 0 640 512">
            <path d="M224 0c17.7 0 32 14.3 32 32l0 9.8c0 54.6-27.9 104.6-72.5 133.6l.2 .3L240.5 256l71.5 0c15.1 0 29.3 7.1 38.4 19.2l43.2 57.6c10.6 14.1 7.7 34.2-6.4 44.8s-34.2 7.7-44.8-6.4L304 320l-80 0h-1.4l92.3 142.6c9.6 14.8 5.4 34.6-9.5 44.3s-34.6 5.4-44.3-9.5L100.5 249.2c-2.9 9.2-4.5 19-4.5 29L96 352c0 17.7-14.3 32-32 32s-32-14.3-32-32V278.2C32 213 71.6 154.5 132.1 130.3C168.3 115.8 192 80.8 192 41.8l0-9.8c0-17.7 14.3-32 32-32zM48 32a48 48 0 1 1 0 96 48 48 0 1 1 0-96z"/>
          </symbol>
        </svg>  </svg>