<svg xmlns="http://www.w3.org/2000/svg">
          <symbol id="fw-icon-duotone-mosquito-net" viewBox="0 0 640 512">
            <path d="M528 272c0-8.8-7.2-16-16-16s-16 7.2-16 16v16H448V272c0-8.8-7.2-16-16-16s-16 7.2-16 16v16H400c-8.8 0-16 7.2-16 16s7.2 16 16 16h16l0 48H400c-8.8 0-16 7.2-16 16s7.2 16 16 16h16l0 48H400c-8.8 0-16 7.2-16 16s7.2 16 16 16h16v16c0 8.8 7.2 16 16 16s16-7.2 16-16V480h48v16c0 8.8 7.2 16 16 16s16-7.2 16-16V480h48v16c0 8.8 7.2 16 16 16s16-7.2 16-16V480h16c8.8 0 16-7.2 16-16s-7.2-16-16-16H608V400h16c8.8 0 16-7.2 16-16s-7.2-16-16-16H608V320h16c8.8 0 16-7.2 16-16s-7.2-16-16-16H608V272c0-8.8-7.2-16-16-16s-16 7.2-16 16v16H528V272zm48 48v48H528V320h48zm0 80v48H528V400h48zM448 368V320h48v48H448zm0 80V400h48v48H448z"/>
          </symbol>
        </svg> 3.7-8.2 8.2V107c-13.7 3.6-23.8 16.1-23.8 31v22.6l-45.4-37.8 12.5-37.6c1.3-4 1-8.4-.9-12.2l-32-64c-4-7.9-13.6-11.1-21.5-7.2s-11.1 13.6-7.2 21.5l29 58.1-13.9 41.7c-2.1 6.2-.1 13.1 4.9 17.4l49.6 41.3L71.4 205.5C30.6 210.6 0 245.2 0 286.3c0 72.6 87.8 109 139.2 57.6L256 242.2v23.1l-59.3 59.3c-3 3-4.7 7.1-4.7 11.3l0 44.2-30.3 60.6z"/>
          </symbol>
        </svg>