<svg xmlns="http://www.w3.org/2000/svg">
          <symbol id="fw-icon-duotone-tower-cell" viewBox="0 0 576 512">
            <path d="M340.1 165.2c7.5-10.5 11.9-23.3 11.9-37.2c0-35.3-28.7-64-64-64s-64 28.7-64 64c0 13.9 4.4 26.7 11.9 37.2L98.9 466.8c-7.3 16.1-.2 35.1 15.9 42.4s35.1 .2 42.4-15.9L177.7 448H398.3l20.6 45.2c7.3 16.1 26.3 23.2 42.4 15.9s23.2-26.3 15.9-42.4L340.1 165.2zM369.2 384H206.8l14.5-32H354.7l14.5 32zM288 205.3L325.6 288H250.4L288 205.3z"/>
          </symbol>
        </svg>-7.4-74.6-20.9-108zM163.3 73.6c5.3-12.1-.2-26.3-12.4-31.6s-26.3 .2-31.6 12.4C109.5 77 104 101.9 104 128s5.5 51 15.3 73.6c5.3 12.1 19.5 17.7 31.6 12.4s17.7-19.5 12.4-31.6C156 165.8 152 147.4 152 128s4-37.8 11.3-54.4zM456.7 54.4c-5.3-12.1-19.5-17.7-31.6-12.4s-17.7 19.5-12.4 31.6C420 90.2 424 108.6 424 128s-4 37.8-11.3 54.4c-5.3 12.1 .2 26.3 12.4 31.6s26.3-.2 31.6-12.4C466.5 179 472 154.1 472 128s-5.5-51-15.3-73.6z"/>
          </symbol>
        </svg>