<svg xmlns="http://www.w3.org/2000/svg">
          <symbol id="fw-icon-duotone-hose-reel" viewBox="0 0 640 512">
            <path d="M128 256c0-106 86-192 192-192s192 86 192 192v96c0 17.7 14.3 32 32 32s32-14.3 32-32V256C576 114.6 461.4 0 320 0S64 114.6 64 256s114.6 256 256 256c54.3 0 104.8-17 146.3-45.9c14.5-10.1 18-30.1 7.9-44.6s-30.1-18-44.6-7.9C398.6 435.3 360.8 448 320 448c-106 0-192-86-192-192zm192 96a96 96 0 1 1 0-192 96 96 0 1 1 0 192zM160 256a160 160 0 1 0 320 0 160 160 0 1 0 -320 0zm224 0a64 64 0 1 0 -128 0 64 64 0 1 0 128 0z"/>
          </symbol>
        </svg>