<svg xmlns="http://www.w3.org/2000/svg">
          <symbol id="fw-icon-duotone-rectangle-ad" viewBox="0 0 576 512">
            <path d="M208 160c9.1 0 17.4 5.1 21.5 13.3l72 144c5.9 11.9 1.1 26.3-10.7 32.2s-26.3 1.1-32.2-10.7L253.2 328H162.8l-5.4 10.7c-5.9 11.9-20.3 16.7-32.2 10.7s-16.7-20.3-10.7-32.2l72-144c4.1-8.1 12.4-13.3 21.5-13.3zm21.2 120L208 237.7 186.8 280h42.3zM392 256a24 24 0 1 0 0 48 24 24 0 1 0 0-48zm24-43.9V184c0-13.3 10.7-24 24-24s24 10.7 24 24v96 48c0 13.3-10.7 24-24 24c-6.6 0-12.6-2.7-17-7c-9.4 4.5-19.9 7-31 7c-39.8 0-72-32.2-72-72s32.2-72 72-72c8.4 0 16.5 1.4 24 4.1z"/>
          </symbol>
        </svg>7-31 7c-39.8 0-72-32.2-72-72s32.2-72 72-72c8.4 0 16.5 1.4 24 4.1z"/>
          </symbol>
        </svg>