<svg xmlns="http://www.w3.org/2000/svg">
          <symbol id="fw-icon-duotone-fireplace" viewBox="0 0 640 512">
            <path d="M32 96H608V480c0 17.7-14.3 32-32 32H480V352c0-88.4-71.6-160-160-160s-160 71.6-160 160V512H64c-17.7 0-32-14.3-32-32V96zM320.6 465.5c-32.7 0-58.9-21.1-58.9-56.7c0-17.5 10.9-32.7 32.7-59.6c2.9 3.6 45.1 57.5 45.1 57.5L365.7 376c2.2 2.9 3.6 5.8 5.1 8.7c13.1 24 7.3 54.5-14.5 69.8c-10.9 7.3-22.5 10.9-35.6 10.9z"/>
          </symbol>
        </svg>.4-3.8-14.5 0c-7 6.4-13.5 14.3-19.2 21.5c-12.6-15.1-26-29-40.4-42zm55.6 195.8c-10.9 7.3-22.5 10.9-35.6 10.9c-32.7 0-58.9-21.1-58.9-56.7c0-17.5 10.9-32.7 32.7-59.6c2.9 3.6 45.1 57.5 45.1 57.5L365.7 376c2.2 2.9 3.6 5.8 5.1 8.7c13.1 24 7.3 54.5-14.5 69.8z"/>
          </symbol>
        </svg>