<svg xmlns="http://www.w3.org/2000/svg">
          <symbol id="fw-icon-duotone-fish-cooked" viewBox="0 0 576 512">
            <path d="M315.3 148.7c6.2 6.2 6.2 16.4 0 22.6l-64 64c-6.2 6.2-16.4 6.2-22.6 0s-6.2-16.4 0-22.6l64-64c6.2-6.2 16.4-6.2 22.6 0zm112 16c6.2 6.2 6.2 16.4 0 22.6l-160 160c-6.2 6.2-16.4 6.2-22.6 0s-6.2-16.4 0-22.6l160-160c6.2-6.2 16.4-6.2 22.6 0zm16 112c6.2 6.2 6.2 16.4 0 22.6l-64 64c-6.2 6.2-16.4 6.2-22.6 0s-6.2-16.4 0-22.6l64-64c6.2-6.2 16.4-6.2 22.6 0z"/>
          </symbol>
        </svg>2.6 0l64-64c6.2-6.2 6.2-16.4 0-22.6zm112 16c-6.2-6.2-16.4-6.2-22.6 0l-160 160c-6.2 6.2-6.2 16.4 0 22.6s16.4 6.2 22.6 0l160-160c6.2-6.2 6.2-16.4 0-22.6zm16 112c-6.2-6.2-16.4-6.2-22.6 0l-64 64c-6.2 6.2-6.2 16.4 0 22.6s16.4 6.2 22.6 0l64-64c6.2-6.2 6.2-16.4 0-22.6z"/>
          </symbol>
        </svg>