<svg xmlns="http://www.w3.org/2000/svg">
          <symbol id="fw-icon-duotone-recycle" viewBox="0 0 512 512">
            <path d="M292 155.2c-8.4 4.9-13.1 14.3-11.8 23.9s8.2 17.5 17.6 20l87.4 23.4c12.8 3.4 26-4.2 29.4-17L438 118.2c2.5-9.4-.9-19.3-8.6-25.3s-18.2-6.6-26.6-1.7L292 155.2zM320 352c0-9.7-5.8-18.5-14.8-22.2s-19.3-1.7-26.2 5.2l-64 64c-9.4 9.4-9.4 24.6 0 33.9l64 64c6.9 6.9 17.2 8.9 26.2 5.2s14.8-12.5 14.8-22.2V352zM173.5 266.5c7.7-5.9 11.1-15.9 8.6-25.3l-23.4-87.4c-3.4-12.8-16.6-20.4-29.4-17L41.8 160.2c-9.4 2.5-16.3 10.4-17.6 20s3.4 19.1 11.8 23.9l110.9 64c8.4 4.9 18.9 4.2 26.6-1.7z"/>
          </symbol>
        </svg>2 32s-14.3 32-32 32l-32.2 0C42.7 448-.3 404.8 0 351.6c.1-17.8 5.1-35.1 14.6-50.2l50.3-80.5z"/>
          </symbol>
        </svg>