<svg xmlns="http://www.w3.org/2000/svg">
          <symbol id="fw-icon-duotone-outlet" viewBox="0 0 448 512">
            <path d="M113.7 139.4C94.8 156.9 64 194.9 64 256s30.8 99 49.7 116.6c8.8 8.2 20.7 11.4 32.6 11.4H301.6c12 0 23.9-3.3 32.6-11.4C353.2 355 384 317.1 384 256s-30.8-99.1-49.7-116.6c-8.8-8.2-20.7-11.4-32.6-11.4H146.4c-12 0-23.9 3.3-32.6 11.4zM160 192c8.8 0 16 7.2 16 16v48c0 8.8-7.2 16-16 16s-16-7.2-16-16V208c0-8.8 7.2-16 16-16zm128 0c8.8 0 16 7.2 16 16v48c0 8.8-7.2 16-16 16s-16-7.2-16-16V208c0-8.8 7.2-16 16-16zm-64 96c13.3 0 24 10.7 24 24v16c0 4.4-3.6 8-8 8H208c-4.4 0-8-3.6-8-8V312c0-13.3 10.7-24 24-24z"/>
          </symbol>
        </svg>