<svg xmlns="http://www.w3.org/2000/svg">
          <symbol id="fw-icon-duotone-kiwi-fruit" viewBox="0 0 448 512">
            <path d="M224 64c-8.8 0-16 7.2-16 16v24c0 8.8 7.2 16 16 16s16-7.2 16-16V80c0-8.8-7.2-16-16-16zM64 176c0 8.8 7.2 16 16 16h32c8.8 0 16-7.2 16-16s-7.2-16-16-16H80c-8.8 0-16 7.2-16 16zm256 0c0 8.8 7.2 16 16 16h32c8.8 0 16-7.2 16-16s-7.2-16-16-16H336c-8.8 0-16 7.2-16 16zm-96 56c-8.8 0-16 7.2-16 16v24c0 8.8 7.2 16 16 16s16-7.2 16-16V248c0-8.8-7.2-16-16-16zM116.7 92.7c-6.2 6.2-6.2 16.4 0 22.6l16 16c6.2 6.2 16.4 6.2 22.6 0s6.2-16.4 0-22.6l-16-16c-6.2-6.2-16.4-6.2-22.6 0zm192 0l-16 16c-6.2 6.2-6.2 16.4 0 22.6s16.4 6.2 22.6 0l16-16c6.2-6.2 6.2-16.4 0-22.6s-16.4-6.2-22.6 0zm-153.4 128c-6.2-6.2-16.4-6.2-22.6 0l-16 16c-6.2 6.2-6.2 16.4 0 22.6s16.4 6.2 22.6 0l16-16c6.2-6.2 6.2-16.4 0-22.6zm137.4 0c-6.2 6.2-6.2 16.4 0 22.6l16 16c6.2 6.2 16.4 6.2 22.6 0s6.2-16.4 0-22.6l-16-16c-6.2-6.2-16.4-6.2-22.6 0zM224 480c123.7 0 224-100.3 224-224V176c0 79.5-100.3 144-224 144S0 255.5 0 176v80C0 379.7 100.3 480 224 480z"/>
          </symbol>
        </svg></symbol>
        </svg>