<svg xmlns="http://www.w3.org/2000/svg">
          <symbol id="fw-icon-duotone-keyboard-left" viewBox="0 0 640 512">
            <path d="M240 128h32c8.8 0 16 7.2 16 16v32c0 8.8-7.2 16-16 16H240c-8.8 0-16-7.2-16-16V144c0-8.8 7.2-16 16-16zm0 96h32c8.8 0 16 7.2 16 16v32c0 8.8-7.2 16-16 16H240c-8.8 0-16-7.2-16-16V240c0-8.8 7.2-16 16-16zM224 336c0-8.8 7.2-16 16-16h32c8.8 0 16 7.2 16 16v32c0 8.8-7.2 16-16 16H240c-8.8 0-16-7.2-16-16V336zM336 128h32c8.8 0 16 7.2 16 16v32c0 8.8-7.2 16-16 16H336c-8.8 0-16-7.2-16-16V144c0-8.8 7.2-16 16-16zM320 240c0-8.8 7.2-16 16-16h32c8.8 0 16 7.2 16 16v32c0 8.8-7.2 16-16 16H336c-8.8 0-16-7.2-16-16V240zM432 128h32c8.8 0 16 7.2 16 16v32c0 8.8-7.2 16-16 16H432c-8.8 0-16-7.2-16-16V144c0-8.8 7.2-16 16-16zM416 240c0-8.8 7.2-16 16-16h32c8.8 0 16 7.2 16 16v32c0 8.8-7.2 16-16 16H432c-8.8 0-16-7.2-16-16V240zM528 128h32c8.8 0 16 7.2 16 16v32c0 8.8-7.2 16-16 16H528c-8.8 0-16-7.2-16-16V144c0-8.8 7.2-16 16-16zM512 240c0-8.8 7.2-16 16-16h32c8.8 0 16 7.2 16 16v32c0 8.8-7.2 16-16 16H528c-8.8 0-16-7.2-16-16V240zm16 80h32c8.8 0 16 7.2 16 16v32c0 8.8-7.2 16-16 16H528c-8.8 0-16-7.2-16-16V336c0-8.8 7.2-16 16-16zM113.2 153.8c9 3.7 14.8 12.5 14.8 22.2V336c0 9.7-5.8 18.5-14.8 22.2s-19.3 1.7-26.2-5.2L7 273c-9.4-9.4-9.4-24.6 0-33.9l80-80c6.9-6.9 17.2-8.9 26.2-5.2z"/>
          </symbol>
        </svg>-8.8 7.2-16 16-16z"/>
          </symbol>
        </svg>