<svg xmlns="http://www.w3.org/2000/svg">
          <symbol id="fw-icon-duotone-store" viewBox="0 0 576 512">
            <path d="M490.3 13.1l57.3 90.7c29.7 46.9 3.4 112-52.1 119.4c-4 .5-7.9 .8-12.1 .8c-26.1 0-49.2-11.4-65.2-29c-15.9 17.6-39 29-65.2 29c-26.1 0-49.3-11.4-65.2-29c-15.9 17.6-39 29-65.2 29c-26.1 0-49.3-11.4-65.2-29c-15.9 17.6-39.1 29-65.2 29c-4.1 0-8.2-.3-12.1-.8c-55.3-7.4-81.5-72.6-51.9-119.4L85.7 13.1C90.8 5 99.9 0 109.6 0H466.4c9.7 0 18.8 5 23.9 13.1z"/>
          </symbol>
        </svg>