<svg xmlns="http://www.w3.org/2000/svg">
          <symbol id="fw-icon-duotone-cloud-bolt-moon" viewBox="0 0 576 512">
            <path d="M447.9 271.9c0 44.2-35.8 80-80 80H349.2C342.4 332.8 324.3 320 304 320H285.7l29.3-58.5c10.1-20.2 4.8-44.6-12.8-58.8s-42.6-14.2-60.2-.2L82 330.5c-6 4.8-10.5 10.7-13.6 17.4C28.8 336 0 299.4 0 255.9c0-47.6 34.6-87 80-94.6l0-1.3c0-53 43-96 96-96c34.9 0 65.4 18.6 82.2 46.4c13-9.1 28.8-14.4 45.8-14.4c44.2 0 80 35.8 80 80c0 5.9-.6 11.7-1.9 17.2c37.4 6.7 65.8 39.4 65.8 78.7z"/>
          </symbol>
        </svg> 13.5-5.1 17.8l-160 128c-5.9 4.7-14.2 4.7-20.1-.1s-7.6-12.9-4.3-19.6L182.1 384H112c-6.8 0-12.8-4.3-15.1-10.7s-.2-13.5 5.1-17.8l160-128c5.9-4.7 14.2-4.7 20.1 .1z"/>
          </symbol>
        </svg>