<svg xmlns="http://www.w3.org/2000/svg">
          <symbol id="fw-icon-duotone-guitar" viewBox="0 0 512 512">
            <path d="M284.6 182.2c-45.1-29.4-99.3-30.2-131 1.6c-11 11-18 24.6-21.4 39.6c-3.7 16.6-19.1 30.7-36.1 31.6c-25.6 1.3-49.3 10.7-67.3 28.6C-16 328.4-7.6 409.4 47.5 464.5s136.1 63.5 180.9 18.7c17.9-17.9 27.4-41.7 28.6-67.3c.9-17 15-32.3 31.6-36.1c15-3.4 28.6-10.5 39.6-21.4c31.8-31.8 31-85.9 1.6-131l-73.9 73.9c0 .9 .1 1.8 .1 2.7c0 26.5-21.5 48-48 48s-48-21.5-48-48s21.5-48 48-48c.9 0 1.8 0 2.7 .1l73.9-73.9z"/>
          </symbol>
        </svg>