<svg xmlns="http://www.w3.org/2000/svg">
          <symbol id="fw-icon-duotone-cloud-rain" viewBox="0 0 512 512">
            <path d="M54.2 436.6L89.2 372c1.3-2.5 3.9-4 6.8-4s5.4 1.5 6.8 4l35.1 64.6c4.1 7.5 6.2 15.8 6.2 24.3v3c0 26.5-21.5 48-48 48s-48-21.5-48-48v-3c0-8.5 2.1-16.9 6.2-24.3zm160 0L249.2 372c1.3-2.5 3.9-4 6.8-4s5.4 1.5 6.8 4l35.1 64.6c4.1 7.5 6.2 15.8 6.2 24.3v3c0 26.5-21.5 48-48 48s-48-21.5-48-48v-3c0-8.5 2.1-16.9 6.2-24.3zM409.2 372c1.3-2.5 3.9-4 6.8-4s5.4 1.5 6.8 4l35.1 64.6c4.1 7.5 6.2 15.8 6.2 24.3v3c0 26.5-21.5 48-48 48s-48-21.5-48-48v-3c0-8.5 2.1-16.9 6.2-24.3L409.2 372z"/>
          </symbol>
        </svg>