<svg xmlns="http://www.w3.org/2000/svg">
          <symbol id="fw-icon-duotone-keyboard" viewBox="0 0 576 512">
            <path d="M80 128c-8.8 0-16 7.2-16 16v32c0 8.8 7.2 16 16 16h32c8.8 0 16-7.2 16-16V144c0-8.8-7.2-16-16-16H80zm0 96c-8.8 0-16 7.2-16 16v32c0 8.8 7.2 16 16 16h32c8.8 0 16-7.2 16-16V240c0-8.8-7.2-16-16-16H80zM64 336v32c0 8.8 7.2 16 16 16h32c8.8 0 16-7.2 16-16V336c0-8.8-7.2-16-16-16H80c-8.8 0-16 7.2-16 16zM176 128c-8.8 0-16 7.2-16 16v32c0 8.8 7.2 16 16 16h32c8.8 0 16-7.2 16-16V144c0-8.8-7.2-16-16-16H176zM160 240v32c0 8.8 7.2 16 16 16h32c8.8 0 16-7.2 16-16V240c0-8.8-7.2-16-16-16H176c-8.8 0-16 7.2-16 16zM272 128c-8.8 0-16 7.2-16 16v32c0 8.8 7.2 16 16 16h32c8.8 0 16-7.2 16-16V144c0-8.8-7.2-16-16-16H272zM256 240v32c0 8.8 7.2 16 16 16h32c8.8 0 16-7.2 16-16V240c0-8.8-7.2-16-16-16H272c-8.8 0-16 7.2-16 16zM368 128c-8.8 0-16 7.2-16 16v32c0 8.8 7.2 16 16 16h32c8.8 0 16-7.2 16-16V144c0-8.8-7.2-16-16-16H368zM352 240v32c0 8.8 7.2 16 16 16h32c8.8 0 16-7.2 16-16V240c0-8.8-7.2-16-16-16H368c-8.8 0-16 7.2-16 16zM464 128c-8.8 0-16 7.2-16 16v32c0 8.8 7.2 16 16 16h32c8.8 0 16-7.2 16-16V144c0-8.8-7.2-16-16-16H464zM448 240v32c0 8.8 7.2 16 16 16h32c8.8 0 16-7.2 16-16V240c0-8.8-7.2-16-16-16H464c-8.8 0-16 7.2-16 16zm16 80c-8.8 0-16 7.2-16 16v32c0 8.8 7.2 16 16 16h32c8.8 0 16-7.2 16-16V336c0-8.8-7.2-16-16-16H464z"/>
          </symbol>
        </svg>.8 0 16 7.2 16 16v32c0 8.8-7.2 16-16 16H464c-8.8 0-16-7.2-16-16V240zm16 80h32c8.8 0 16 7.2 16 16v32c0 8.8-7.2 16-16 16H464c-8.8 0-16-7.2-16-16V336c0-8.8 7.2-16 16-16z"/>
          </symbol>
        </svg>