<svg xmlns="http://www.w3.org/2000/svg">
          <symbol id="fw-icon-duotone-square-virus" viewBox="0 0 448 512">
            <path d="M247.8 117.7c0-13.3-10.7-24-24-24s-24 10.7-24 24c0 29.3-35.4 43.9-56.1 23.2c-9.4-9.4-24.6-9.4-33.9 0s-9.4 24.6 0 33.9c20.7 20.7 6 56.1-23.2 56.1c-13.3 0-24 10.7-24 24s10.7 24 24 24c29.3 0 43.9 35.4 23.2 56.1c-9.4 9.4-9.4 24.6 0 33.9s24.6 9.4 33.9 0c20.7-20.7 56.1-6 56.1 23.2c0 13.3 10.7 24 24 24s24-10.7 24-24c0-29.3 35.4-43.9 56.1-23.2c9.4 9.4 24.6 9.4 33.9 0s9.4-24.6 0-33.9c-20.7-20.7-6-56.1 23.2-56.1c13.3 0 24-10.7 24-24s-10.7-24-24-24c-29.3 0-43.9-35.4-23.2-56.1c9.4-9.4 9.4-24.6 0-33.9s-24.6-9.4-33.9 0c-20.7 20.7-56.1 6-56.1-23.2zM160 224a32 32 0 1 1 64 0 32 32 0 1 1 -64 0zm96 40a24 24 0 1 1 0 48 24 24 0 1 1 0-48z"/>
          </symbol>
        </svg> </symbol>
        </svg>