<svg xmlns="http://www.w3.org/2000/svg">
          <symbol id="fw-icon-duotone-kite" viewBox="0 0 640 512">
            <path d="M312.8 24.8c1.8-7.9 6.6-14.6 12.9-19L480 160 241.4 398.6c-7.8-7.8-11-19.1-8.5-29.9l80-344zM480 160L630.6 9.4c5.8 5.8 9.4 13.8 9.4 22.6V296c0 6.7-2.1 13-5.7 18.3L480 160zM0 268.9C0 261.8 5.8 256 12.9 256c2 0 4 .5 5.8 1.4l63 31.5c9 4.5 19.6 4.5 28.6 0l63-31.5c1.8-.9 3.8-1.4 5.8-1.4c7.1 0 12.9 5.8 12.9 12.9v70.1c0 7.1-5.8 12.9-12.9 12.9c-2 0-4-.5-5.8-1.4l-63-31.5c-9-4.5-19.6-4.5-28.6 0l-63 31.5c-1.8 .9-3.8 1.4-5.8 1.4C5.8 352 0 346.2 0 339.1V268.9z"/>
          </symbol>
        </svg>88-88H24z"/>
          </symbol>
        </svg>