<svg xmlns="http://www.w3.org/2000/svg">
          <symbol id="fw-icon-duotone-card-spade" viewBox="0 0 384 512">
            <path d="M209 137.8c-9.4-9.4-24.6-9.4-33.9 0l-22.6 22.6-64 64c-21.9 21.9-21.9 57.3 0 79.2s57.3 21.9 79.2 0l7.4-7.4c.3-.3 .6-.6 1-.9V336H160c-8.8 0-16 7.2-16 16s7.2 16 16 16h64c8.8 0 16-7.2 16-16s-7.2-16-16-16H208V295.2c.3 .3 .7 .6 1 .9l7.4 7.4c21.9 21.9 57.3 21.9 79.2 0s21.9-57.3 0-79.2l-64-64L209 137.8z"/>
          </symbol>
        </svg>7.4c-21.9 21.9-57.3 21.9-79.2 0s-21.9-57.3 0-79.2l64-64L175 137.8z"/>
          </symbol>
        </svg>