<svg xmlns="http://www.w3.org/2000/svg">
          <symbol id="fw-icon-duotone-face-scream" viewBox="0 0 640 512">
            <path d="M183.3 282.7c27.3 14.9 67.6-2.9 90.1-39.8s18.6-78.8-8.7-93.7s-67.6 2.9-90.1 39.8s-18.6 78.8 8.7 93.7zm273.4 0c27.3-14.9 31.1-56.9 8.7-93.7s-62.8-54.7-90.1-39.8s-31.1 56.9-8.7 93.7s62.8 54.7 90.1 39.8zM103.4 330.1C89.1 318.2 68 316.4 51.6 327c-20 13-25.6 39.5-12.4 59.3c26.4 40 43.6 75.3 43.2 125.7L192 512c-7-68.4-34.8-137-88.7-181.9zM588.5 327c-16.4-10.6-37.6-8.8-51.8 3.1C482.8 375 455 443.6 448 512l109.8 0c-.4-50.5 16.7-85.7 43.2-125.7c13.1-19.8 7.6-46.3-12.4-59.3z"/>
          </symbol>
        </svg>.6-78.8 8.7-93.7s67.6 2.9 90.1 39.8s18.6 78.8-8.7 93.7z"/>
          </symbol>
        </svg>