<svg xmlns="http://www.w3.org/2000/svg">
          <symbol id="fw-icon-duotone-peach" viewBox="0 0 512 512">
            <path d="M377.5 82.8C366.6 81 355.4 80 344 80c-31.5 0-61.4 7.3-88 20.4C229.4 87.3 199.5 80 168 80c-11.4 0-22.6 1-33.5 2.8C120.5 67.2 112 46.6 112 24c0-13.3 10.7-24 24-24h24c53 0 96 43 96 96c0-53 43-96 96-96h24c13.3 0 24 10.7 24 24c0 22.6-8.5 43.2-22.5 58.8z"/>
          </symbol>
        </svg>s-15.9-7.2-16.8-16c-6.4-68-53.3-124.1-116.3-144.2z"/>
          </symbol>
        </svg>