<svg xmlns="http://www.w3.org/2000/svg">
          <symbol id="fw-icon-duotone-meter-fire" viewBox="0 0 640 512">
            <path d="M351.1 493.7C321.7 505.5 289.6 512 256 512C114.6 512 0 397.4 0 256S114.6 0 256 0C361.7 0 452.5 64.1 491.5 155.5c-5.4-5.3-10.9-10.4-16.6-15.5c-17.7-16-44.7-16-62.5-.1c-9.9 8.9-19.4 18.1-28.5 27.5V160c0-17.7-14.3-32-32-32s-32 14.3-32 32v32c0 13.2 7.9 24.5 19.3 29.4c-5 7.1-9.8 14.2-14.1 21.3C304.3 276.5 288 314.9 288 350.1c0 56.1 24.1 107.8 63.1 143.7zM160 128c-17.7 0-32 14.3-32 32v32c0 17.7 14.3 32 32 32s32-14.3 32-32V160c0-17.7-14.3-32-32-32zm96 0c-17.7 0-32 14.3-32 32v32c0 17.7 14.3 32 32 32s32-14.3 32-32V160c0-17.7-14.3-32-32-32z"/>
          </symbol>
        </svg>