<svg xmlns="http://www.w3.org/2000/svg">
          <symbol id="fw-icon-duotone-comment-sms" viewBox="0 0 512 512">
            <path d="M220.8 182.4c-4.1-5.5-11.3-7.8-17.9-5.6S192 185.1 192 192v96c0 8.8 7.2 16 16 16s16-7.2 16-16V240l19.2 25.6c3 4 7.8 6.4 12.8 6.4s9.8-2.4 12.8-6.4L288 240v48c0 8.8 7.2 16 16 16s16-7.2 16-16V192c0-6.9-4.4-13-10.9-15.2s-13.7 .1-17.9 5.6L256 229.3l-35.2-46.9zM376.5 213c.3-.4 .9-1.2 2.4-2c3.1-1.8 8-3 12.9-2.9c6.1 .1 12.9 1.4 20.1 3.4c8.5 2.3 17.3-2.8 19.6-11.3s-2.8-17.3-11.3-19.6c-8.2-2.2-17.9-4.3-27.9-4.4c-9.3-.1-20.4 1.9-29.7 7.4c-9.9 5.9-18.6 16.4-18.5 31.6c.1 14.7 8.8 24 17.7 29.4c7.6 4.6 17.1 7.4 24.3 9.6l1.2 .4c8.5 2.6 14.2 4.5 18 6.9c2.7 1.7 2.7 2.4 2.7 3.1l0 .2c0 1.6-.3 2.3-.6 2.7c-.3 .5-.9 1.2-2.1 2c-2.8 1.7-7.5 2.9-12.8 2.8c-7-.2-13.5-2.4-22.6-5.5l0 0c-1.5-.5-3.2-1.1-4.9-1.6c-8.4-2.8-17.4 1.7-20.2 10.1s1.7 17.4 10.1 20.2c1.3 .4 2.6 .9 4 1.4l0 0c8.8 3 20.4 7 32.6 7.4c9.8 .3 21.2-1.6 30.7-7.6c10.2-6.4 18-17.3 17.8-32.3c-.2-14.7-8.5-24.2-17.6-29.9c-8-5-17.9-8-25.2-10.2l-.6-.2c-8.6-2.6-14.4-4.4-18.2-6.8c-1.6-1-2.1-1.6-2.2-1.7c0-.1 0-.2 0-.4c0-1.1 .2-1.6 .4-1.9zm-272 0c.3-.4 .9-1.2 2.4-2c3.1-1.8 8-3 12.9-2.9c6.6 .1 16.7 1.6 23.3 3.4c8.5 2.3 17.3-2.8 19.6-11.3s-2.8-17.3-11.3-19.6c-8.8-2.4-21.6-4.3-31.1-4.4c-9.3-.1-20.4 1.9-29.7 7.4C80.6 189.3 72 199.8 72 215c.1 14.7 8.8 24 17.7 29.4c7.6 4.6 17.1 7.4 24.3 9.6l0 0 0 0 1.2 .4c8.5 2.6 14.2 4.5 18 6.9c2.7 1.7 2.7 2.4 2.7 3.1l0 .2c0 1.6-.3 2.3-.6 2.7c-.3 .5-.9 1.2-2.1 2c-2.8 1.7-7.5 2.9-12.8 2.8c-7.2-.2-14.2-2.6-23.7-5.8l0 0 0 0c-1.3-.4-2.7-.9-4.1-1.4c-8.4-2.8-17.4 1.7-20.2 10.1s1.7 17.4 10.1 20.2c1.1 .4 2.4 .8 3.6 1.2l0 0 0 0 0 0c9 3.1 20.9 7.2 33.2 7.6c9.8 .3 21.2-1.6 30.7-7.6c10.2-6.4 18-17.3 17.8-32.3c-.2-14.7-8.5-24.2-17.6-29.9c-8-5-17.9-8-25.2-10.2l-.6-.2c-8.6-2.6-14.4-4.4-18.3-6.8c-1.6-1-2.1-1.6-2.2-1.7c0-.1 0-.2 0-.4c0-1.1 .2-1.6 .4-1.9z"/>
          </symbol>
        </svg>.2c0-.7 0-1.4-2.7-3.1c-3.8-2.4-9.6-4.3-18-6.9l-1.2-.4 0 0c-7.2-2.2-16.7-5-24.3-9.6C80.8 239 72.1 229.7 72 215c-.1-15.2 8.6-25.7 18.5-31.6c9.4-5.5 20.5-7.5 29.7-7.4c9.5 .1 22.2 2.1 31.1 4.4c8.5 2.3 13.6 11 11.3 19.6s-11 13.6-19.6 11.3c-6.6-1.8-16.8-3.3-23.3-3.4c-4.9-.1-9.8 1.1-12.9 2.9c-1.4 .8-2.1 1.6-2.4 2c-.2 .3-.4 .8-.4 1.9z"/>
          </symbol>
        </svg>