<svg xmlns="http://www.w3.org/2000/svg">
          <symbol id="fw-icon-duotone-deer" viewBox="0 0 512 512">
            <path d="M240 0c8.8 0 16 7.2 16 16V40c0 13.3 10.7 24 24 24h8 8c13.3 0 24-10.7 24-24V16c0-8.8 7.2-16 16-16s16 7.2 16 16V40c0 8.6-1.9 16.7-5.4 24H352c8.8 0 16 7.2 16 16s-7.2 16-16 16H296h-8-8c-30.9 0-56-25.1-56-56V16c0-8.8 7.2-16 16-16zM456 0c8.8 0 16 7.2 16 16V40c0 21.7-12.3 40.4-30.3 49.8C428.3 77 411.5 68.6 393.4 65.4c2-.9 4.2-1.4 6.6-1.4h16c13.3 0 24-10.7 24-24V16c0-8.8 7.2-16 16-16z"/>
          </symbol>
        </svg>c-11.4-32.4-7.4-67.8 10-96.3C65 339.4 65 324.9 56 315.9c-3-3-5.7-6.1-8.1-9.5c-1.3 12.9-12.7 22.5-25.7 21.5C8.9 326.9-.9 315.4 .1 302.2L2.4 272c4.2-54.2 49.3-96 103.7-96h7.9H128h64c.6 0 1.2 0 1.7 0c.8 0 1.7 0 2.5 0H302.4l9.6-32H274c-9.9 0-18-8-18-18c0-8.2 5.6-15.4 13.6-17.4L320 96zm96 48a16 16 0 1 0 -32 0 16 16 0 1 0 32 0z"/>
          </symbol>
        </svg>