<svg xmlns="http://www.w3.org/2000/svg">
          <symbol id="fw-icon-duotone-message-medical" viewBox="0 0 512 512">
            <path d="M240 112c-8.8 0-16 7.2-16 16v48l-48 0c-8.8 0-16 7.2-16 16v32c0 8.8 7.2 16 16 16h48v48c0 8.8 7.2 16 16 16h32c8.8 0 16-7.2 16-16V240h48c8.8 0 16-7.2 16-16V192c0-8.8-7.2-16-16-16l-48 0V128c0-8.8-7.2-16-16-16H240z"/>
          </symbol>
        </svg>6 16h32c8.8 0 16-7.2 16-16V240h48c8.8 0 16-7.2 16-16V192c0-8.8-7.2-16-16-16H288V128c0-8.8-7.2-16-16-16H240c-8.8 0-16 7.2-16 16z"/>
          </symbol>
        </svg>