<svg xmlns="http://www.w3.org/2000/svg">
          <symbol id="fw-icon-duotone-arrows-down-to-line" viewBox="0 0 576 512">
            <path d="M521.4 233.4c12.5-12.5 32.8-12.5 45.3 0s12.5 32.8 0 45.3l-96 96c-12.5 12.5-32.8 12.5-45.3 0l-96-96c-12.5-12.5-12.5-32.8 0-45.3s32.8-12.5 45.3 0L416 274.7 416 64c0-17.7 14.3-32 32-32s32 14.3 32 32l0 210.7 41.4-41.4zm-320 0c12.5-12.5 32.8-12.5 45.3 0s12.5 32.8 0 45.3l-96 96c-12.5 12.5-32.8 12.5-45.3 0l-96-96c-12.5-12.5-12.5-32.8 0-45.3s32.8-12.5 45.3 0L96 274.7 96 64c0-17.7 14.3-32 32-32s32 14.3 32 32l0 210.7 41.4-41.4z"/>
          </symbol>
        </svg>