<svg xmlns="http://www.w3.org/2000/svg">
          <symbol id="fw-icon-duotone-cloud-snow" viewBox="0 0 512 512">
            <path d="M88 376c0-13.3-10.7-24-24-24s-24 10.7-24 24v16H24c-13.3 0-24 10.7-24 24s10.7 24 24 24H40v16c0 13.3 10.7 24 24 24s24-10.7 24-24V440h16c13.3 0 24-10.7 24-24s-10.7-24-24-24H88V376zm192 32c0-13.3-10.7-24-24-24s-24 10.7-24 24v16H216c-13.3 0-24 10.7-24 24s10.7 24 24 24h16v16c0 13.3 10.7 24 24 24s24-10.7 24-24V472h16c13.3 0 24-10.7 24-24s-10.7-24-24-24H280V408zm168-56c-13.3 0-24 10.7-24 24v16H408c-13.3 0-24 10.7-24 24s10.7 24 24 24h16v16c0 13.3 10.7 24 24 24s24-10.7 24-24V440h16c13.3 0 24-10.7 24-24s-10.7-24-24-24H472V376c0-13.3-10.7-24-24-24z"/>
          </symbol>
        </svg>