<svg xmlns="http://www.w3.org/2000/svg">
          <symbol id="fw-icon-duotone-tree-christmas" viewBox="0 0 448 512">
            <path d="M150.2 71l47.1-17.7L215 6.2c1.4-3.8 5-6.2 9-6.2s7.6 2.5 9 6.2l17.7 47.1L297.8 71c3.8 1.4 6.2 5 6.2 9s-2.5 7.6-6.2 9l-47.1 17.7L233 153.8c-1.4 3.8-5 6.2-9 6.2s-7.6-2.5-9-6.2l-17.7-47.1L150.2 89c-3.8-1.4-6.2-5-6.2-9s2.5-7.6 6.2-9zM288 392a24 24 0 1 1 0 48 24 24 0 1 1 0-48z"/>
          </symbol>
        </svg>-10.6 5.2-14.8L195.3 105.9zM160 312a24 24 0 1 0 0-48 24 24 0 1 0 0 48zM312 416a24 24 0 1 0 -48 0 24 24 0 1 0 48 0z"/>
          </symbol>
        </svg>