<svg xmlns="http://www.w3.org/2000/svg">
          <symbol id="fw-icon-duotone-crystal-ball" viewBox="0 0 448 512">
            <path d="M362.6 400c52-41 85.4-104.6 85.4-176C448 100.3 347.7 0 224 0S0 100.3 0 224c0 71.4 33.4 135 85.4 176H362.6zM152.5 84.3c2.6-7 12.4-7 15 0l9.8 26.4 26.4 9.8c7 2.6 7 12.4 0 15l-26.4 9.8-9.8 26.4c-2.6 7-12.4 7-15 0l-9.8-26.4-26.4-9.8c-7-2.6-7-12.4 0-15l26.4-9.8 9.8-26.4zm159 48l18.4 49.8 49.8 18.4c7 2.6 7 12.4 0 15l-49.8 18.4-18.4 49.8c-2.6 7-12.4 7-15 0l-18.4-49.8-49.8-18.4c-7-2.6-7-12.4 0-15l49.8-18.4 18.4-49.8c2.6-7 12.4-7 15 0z"/>
          </symbol>
        </svg>