<svg xmlns="http://www.w3.org/2000/svg">
          <symbol id="fw-icon-duotone-nfc-signal" viewBox="0 0 512 512">
            <path d="M512 280c0-13.3-10.7-24-24-24c-128.1 0-232 103.9-232 232c0 13.3 10.7 24 24 24s24-10.7 24-24c0-101.6 82.4-184 184-184c13.3 0 24-10.7 24-24zM448 480a32 32 0 1 0 64 0 32 32 0 1 0 -64 0zm40-128c-75.1 0-136 60.9-136 136c0 13.3 10.7 24 24 24s24-10.7 24-24c0-48.6 39.4-88 88-88c13.3 0 24-10.7 24-24s-10.7-24-24-24z"/>
          </symbol>
        </svg>8 48s-48-21.5-48-48c0-20.9 13.4-38.7 32-45.3V144c0-26.5 21.5-48 48-48h80c26.5 0 48 21.5 48 48V245.3c20.2-8.7 41.6-14.9 64-18.3V96c0-35.3-28.7-64-64-64H64z"/>
          </symbol>
        </svg>