<svg xmlns="http://www.w3.org/2000/svg">
          <symbol id="fw-icon-duotone-car-wrench" viewBox="0 0 512 512">
            <path d="M163.8 112c-6.4 0-12 3.8-15.3 9.3C134.5 144.5 109.1 160 80 160c-28.1 0-52.8-14.5-67.1-36.4C7 114.6 14.7 104 25.5 104H56c13.3 0 24-10.7 24-24s-10.7-24-24-24H25.5C14.7 56 7 45.4 12.9 36.4C27.2 14.5 51.9 0 80 0c29.1 0 54.5 15.5 68.5 38.7c3.3 5.4 8.9 9.3 15.3 9.3H348.2c6.4 0 12-3.8 15.3-9.3C377.5 15.5 402.9 0 432 0c28.1 0 52.8 14.5 67.1 36.4c5.9 9-1.7 19.6-12.5 19.6H456c-13.3 0-24 10.7-24 24s10.7 24 24 24h30.5c10.8 0 18.4 10.6 12.5 19.6c-14.3 21.9-39 36.4-67.1 36.4c-29.1 0-54.5-15.5-68.5-38.7c-3.3-5.4-8.9-9.3-15.3-9.3H163.8z"/>
          </symbol>
        </svg>