<svg xmlns="http://www.w3.org/2000/svg">
          <symbol id="fw-icon-duotone-hand-wave" viewBox="0 0 512 512">
            <path d="M352.2 82.3c1.3 8.7 9.4 14.8 18.1 13.6s14.8-9.4 13.6-18.1l-1.2-8.5c-5-35.2-32.7-62.9-67.9-67.9L306.3 .2c-8.7-1.2-16.9 4.8-18.1 13.6s4.8 16.9 13.6 18.1l8.5 1.2c21.1 3 37.7 19.6 40.7 40.7l1.2 8.5zM31.8 365.7c-1.2-8.7-9.4-14.8-18.1-13.6S-1.1 361.5 .2 370.3l1.2 8.5c5 35.2 32.7 62.9 67.9 67.9l8.5 1.2c8.7 1.2 16.9-4.8 18.1-13.6s-4.8-16.9-13.6-18.1L73.8 415c-21.1-3-37.7-19.6-40.7-40.7l-1.2-8.5z"/>
          </symbol>
        </svg>280c5.2 5.2 13.6 5.2 18.7 0s5.2-13.6 0-18.7L105.4 118.6c-12.5-12.5-12.5-32.8 0-45.3s32.8-12.5 45.3 0L293.3 216c5.2 5.2 13.6 5.2 18.7 0s5.2-13.6 0-18.7L185.4 70.6z"/>
          </symbol>
        </svg>