<svg xmlns="http://www.w3.org/2000/svg">
          <symbol id="fw-icon-duotone-id-card" viewBox="0 0 576 512">
            <path d="M64 32C28.7 32 0 60.7 0 96v32H576V96c0-35.3-28.7-64-64-64H64zM240 256a64 64 0 1 0 -128 0 64 64 0 1 0 128 0zM64 405.3c0 5.9 4.8 10.7 10.7 10.7H277.3c5.9 0 10.7-4.8 10.7-10.7c0-29.5-23.9-53.3-53.3-53.3H117.3C87.9 352 64 375.9 64 405.3z"/>
          </symbol>
        </svg>.2 16-16 16H368c-8.8 0-16-7.2-16-16s7.2-16 16-16zm0 64H496c8.8 0 16 7.2 16 16s-7.2 16-16 16H368c-8.8 0-16-7.2-16-16s7.2-16 16-16zm0 64H496c8.8 0 16 7.2 16 16s-7.2 16-16 16H368c-8.8 0-16-7.2-16-16s7.2-16 16-16z"/>
          </symbol>
        </svg>