<svg xmlns="http://www.w3.org/2000/svg">
          <symbol id="fw-icon-duotone-galaxy" viewBox="0 0 512 512">
            <path d="M154.8 94.2c.1-13 1.6-26.1 4.7-39l3.4-14.2c1.7-6.9-.4-14.2-5.5-19.3c-8-8-21-8-29 0l-8.1 8.1C70.5 79.4 53.8 149.6 70 213.1c19.3 19.4 42.9 34 68.8 42.4c-7-19.9-10.8-41.3-10.8-63.5c0-35.7 9.8-69.2 26.8-97.8zM94.2 357.2c-13-.1-26.1-1.6-39-4.7l-14.2-3.4c-6.9-1.7-14.2 .4-19.3 5.5c-8 8-8 21 0 29l8.1 8.1c49.7 49.7 119.9 66.5 183.4 50.3c19.4-19.3 34-42.9 42.4-68.8c-19.9 7-41.3 10.8-63.5 10.8c-35.7 0-69.2-9.8-97.8-26.8zm263.1 60.6c-.1 13-1.6 26.1-4.7 39l-3.4 14.2c-1.7 6.9 .4 14.2 5.5 19.3c8 8 21 8 29 0l8.1-8.1c49.7-49.7 66.5-119.9 50.3-183.4c-19.3-19.4-42.9-34-68.8-42.4c7 19.9 10.8 41.3 10.8 63.5c0 35.7-9.8 69.2-26.8 97.8zm60.6-263.1c13 .1 26.1 1.6 39 4.7l14.2 3.4c6.9 1.7 14.2-.4 19.3-5.5c8-8 8-21 0-29l-8.1-8.1C432.6 70.5 362.4 53.8 298.9 70c-19.4 19.3-34 42.9-42.4 68.8c19.9-7 41.3-10.8 63.5-10.8c35.7 0 69.2 9.8 97.8 26.8z"/>
          </symbol>
        </svg>