<svg xmlns="http://www.w3.org/2000/svg">
          <symbol id="fw-icon-duotone-square-q" viewBox="0 0 448 512">
            <path d="M224 176c44.2 0 80 35.8 80 80c0 13.4-3.3 25.9-9.1 37l-30-30c-9.4-9.4-24.6-9.4-33.9 0s-9.4 24.6 0 33.9l30 30c-11.1 5.8-23.7 9.1-37 9.1c-44.2 0-80-35.8-80-80s35.8-80 80-80zM329.9 327.9c14-20.5 22.1-45.3 22.1-71.9c0-70.7-57.3-128-128-128s-128 57.3-128 128s57.3 128 128 128c26.7 0 51.4-8.2 71.9-22.1L311 377c9.4 9.4 24.6 9.4 33.9 0s9.4-24.6 0-33.9l-15.1-15.1z"/>
          </symbol>
        </svg>-70.7 0-128-57.3-128-128s57.3-128 128-128s128 57.3 128 128z"/>
          </symbol>
        </svg>