<svg xmlns="http://www.w3.org/2000/svg">
          <symbol id="fw-icon-duotone-leafy-green" viewBox="0 0 576 512">
            <path d="M109.3 421.5L94.2 436.6C84 426.2 78.3 412.3 78.3 397.8l0-12.9c0-14.7-5.8-28.8-16.3-39.2L35.7 319.3c-10.4-10.4-16.3-24.5-16.3-39.2V244.4c0-13.1-5.3-25.4-11-37.1c-15.2-31.1-9.9-69.6 15.9-95.4c2.1-2.1 4.3-4.1 6.5-5.9C50.6 89.9 70 69.6 83 47.7c4.1-6.9 9.1-13.4 15-19.3c37.9-37.9 99.4-37.9 137.3 0c5.9 5.9 10.9 12.4 15 19.3c1.2 2.1 2.5 4.1 3.9 6.2c-3.6 5.9-6.6 12.3-8.9 18.9c-4.9 14.3-10.6 28.6-21.3 39.3l-29.1 29.1c-12 12-18.7 28.3-18.7 45.3v43c0 17-6.7 33.3-18.7 45.3l-10.5 10.5c-12 12-18.7 28.3-18.7 45.3v45.7c0 17-6.7 33.3-18.7 45.3zM475.3 123.3L390.6 208H448c8.8 0 16 7.2 16 16s-7.2 16-16 16H358.6l-59.3 59.3-48 48c-6.2 6.2-16.4 6.2-22.6 0s-6.2-16.4 0-22.6L272 281.4V192c0-8.8 7.2-16 16-16s16 7.2 16 16v57.4l36.7-36.7 112-112c6.2-6.2 16.4-6.2 22.6 0s6.2 16.4 0 22.6z"/>
          </symbol>
        </svg>0 16-7.2 16-16s-7.2-16-16-16H390.6l84.7-84.7z"/>
          </symbol>
        </svg>