<svg xmlns="http://www.w3.org/2000/svg">
          <symbol id="fw-icon-duotone-can-food" viewBox="0 0 384 512">
            <path d="M320 434.3V275.4c-14.1 6.1-30.7 11.2-49.2 15C264.4 252.7 231.5 224 192 224s-72.4 28.7-78.8 66.4c-18.5-3.8-35.1-8.9-49.2-15V434.3c3.4 3 10.2 7.5 21.7 12.2C110.5 456.6 148.1 464 192 464s81.5-7.4 106.3-17.5c11.5-4.7 18.3-9.2 21.7-12.2zm48 5.7c0 39.8-78.8 72-176 72s-176-32.2-176-72V72c0-1.4 .1-2.8 .3-4.2C21.7 101.4 98.3 128 192 128s170.3-26.6 175.7-60.2c.2 1.4 .3 2.8 .3 4.2V440z"/>
          </symbol>
        </svg>