<svg xmlns="http://www.w3.org/2000/svg">
          <symbol id="fw-icon-duotone-phone-flip" viewBox="0 0 512 512">
            <path d="M443.6 14.8l39 10.6C499.9 30.2 512 46 512 64c0 247.4-200.6 448-448 448c-18 0-33.8-12.1-38.6-29.5l-10.6-39c224-27.2 401.6-204.8 428.8-428.8zM6.3 412.3L1.4 394.5c-5.3-19.4 4.6-39.7 23.2-47.4l96-40c16.3-6.8 35.2-2.1 46.3 11.6l25.1 30.7C136.7 382.8 73.7 404.8 6.3 412.3zM349.4 192.1L318.7 167c-13.7-11.2-18.4-30-11.6-46.3l40-96c7.7-18.6 28-28.5 47.4-23.2l17.8 4.9c-7.5 67.4-29.5 130.4-62.9 185.8z"/>
          </symbol>
        </svg>