<svg xmlns="http://www.w3.org/2000/svg">
          <symbol id="fw-icon-duotone-campfire" viewBox="0 0 512 512">
            <path d="M223.4 0c3.2 0 6.3 1.2 8.8 3.4C250 19.6 266.6 37 282.1 55.9c7.1-9 15.1-18.8 23.8-26.8c5.1-4.7 12.9-4.6 18 0C346.2 49.7 365 77 378.3 102.9c13.1 25.5 21.7 53.5 21.7 71.8C400 254.5 335.9 320 256 320c-80.7 0-144-65.5-144-145.3c0-24 11.4-55.2 29.2-84.2c18-29.4 43.3-60.1 73.2-87.1c2.5-2.3 5.8-3.4 9-3.4zm33.5 261.8c16.2 0 30.6-4.5 44.1-13.6c27-19.1 34.2-57.3 18-87.3c-1.8-3.6-3.6-7.3-6.3-10.9l-32.4 38.2s-52.2-67.3-55.8-71.8c-27 33.6-40.5 52.7-40.5 74.5c0 44.5 32.4 70.9 72.9 70.9z"/>
          </symbol>
        </svg>