<svg xmlns="http://www.w3.org/2000/svg">
          <symbol id="fw-icon-duotone-face-vomit" viewBox="0 0 576 512">
            <path d="M192 396.1V338.7c23.6-11.1 57.3-18.7 96-18.7s72.4 7.6 96 18.7v57.4c0 31 19.8 58.5 49.2 68.3l34.1 11.4c7.6 2.5 12.7 9.6 12.7 17.6c0 10.3-8.3 18.6-18.6 18.6H114.6c-10.3 0-18.6-8.3-18.6-18.6c0-8 5.1-15.1 12.7-17.6l34.1-11.4c29.4-9.8 49.2-37.3 49.2-68.3zM304 384a16 16 0 1 0 0 32 16 16 0 1 0 0-32zm-48 48a16 16 0 1 0 -32 0 16 16 0 1 0 32 0zm256 16a32 32 0 1 1 64 0 32 32 0 1 1 -64 0zM0 480a32 32 0 1 1 64 0A32 32 0 1 1 0 480z"/>
          </symbol>
        </svg>2.8-1 5.5-2.8 7.6l-36 43.2 36 43.2c1.8 2.1 2.8 4.8 2.8 7.6c0 9-9.6 14.7-17.5 10.5l-89.9-47.9c-10.7-5.7-10.7-21.1 0-26.8l89.9-47.9c7.9-4.2 17.5 1.5 17.5 10.5z"/>
          </symbol>
        </svg>