<svg xmlns="http://www.w3.org/2000/svg">
          <symbol id="fw-icon-duotone-transformer-bolt" viewBox="0 0 384 512">
            <path d="M136 24c0-13.3-10.7-24-24-24S88 10.7 88 24v8H64c-8.8 0-16 7.2-16 16s7.2 16 16 16h48 48c8.8 0 16-7.2 16-16s-7.2-16-16-16H136V24zm160 0c0-13.3-10.7-24-24-24s-24 10.7-24 24v8H224c-8.8 0-16 7.2-16 16s7.2 16 16 16h48 48c8.8 0 16-7.2 16-16s-7.2-16-16-16H296V24zM48 112c0 8.8 7.2 16 16 16h96c8.8 0 16-7.2 16-16s-7.2-16-16-16H64c-8.8 0-16 7.2-16 16zm160 0c0 8.8 7.2 16 16 16h96c8.8 0 16-7.2 16-16s-7.2-16-16-16H224c-8.8 0-16 7.2-16 16zm31.2 133.1c2.3-6.8-.3-14.3-6.3-18.3s-13.9-3.6-19.3 1.1l-112 96c-5.1 4.4-6.9 11.4-4.6 17.7s8.3 10.4 15 10.4h57.8l-25 74.9c-2.3 6.8 .3 14.3 6.3 18.3s13.9 3.6 19.3-1.1l112-96c5.1-4.4 6.9-11.4 4.6-17.7s-8.3-10.4-15-10.4H214.2l25-74.9z"/>
          </symbol>
        </svg>