<svg xmlns="http://www.w3.org/2000/svg">
          <symbol id="fw-icon-duotone-hippo" viewBox="0 0 640 512">
            <path d="M480 144a16 16 0 1 0 -32 0 16 16 0 1 0 32 0zm64 0a16 16 0 1 0 -32 0 16 16 0 1 0 32 0zm16 176H544v16c0 8.8 7.2 16 16 16h32c8.8 0 16-7.2 16-16V304c-13.4 10-30 16-48 16zm-128 0c-5.5 0-10.8-.6-16-1.6V336c0 8.8 7.2 16 16 16h32c8.8 0 16-7.2 16-16V320H432z"/>
          </symbol>
        </svg>2.3C363.3 287.1 352 264.9 352 240c0-8.8-7.2-16-16-16s-16 7.2-16 16c0 44.7 26.2 83.2 64 101.2V352c0 17.7 14.3 32 32 32h32v64c0 17.7-14.3 32-32 32H352c-17.7 0-32-14.3-32-32V372c-19.8 7.7-41.4 12-64 12s-44.2-4.3-64-12v76c0 17.7-14.3 32-32 32H96c-17.7 0-32-14.3-32-32V329.1L45.9 369.7c-5.4 12.1-19.6 17.6-31.7 12.2S-3.3 362.4 2.1 350.3L24 300.9c5.3-11.9 8-24.7 8-37.7C32 155.7 117.2 68 223.8 64.1l.2-.1h7.2H256h32c41.7 0 83.4 12.1 117.2 25.7c1.7-1.8 3.5-3.6 5.3-5.2L407 81c-9.4-9.4-9.4-24.6 0-33.9zm73 185a24 24 0 1 0 -48 0 24 24 0 1 0 48 0zm88 24a24 24 0 1 0 0-48 24 24 0 1 0 0 48zM480 144a16 16 0 1 0 -32 0 16 16 0 1 0 32 0zm48 16a16 16 0 1 0 0-32 16 16 0 1 0 0 32z"/>
          </symbol>
        </svg>